<?xml version="1.0" encoding="UTF-8" standalone="no"?>
<!-- Created with Inkscape (http://www.inkscape.org/) -->

<svg
   xmlns:dc="http://purl.org/dc/elements/1.1/"
   xmlns:cc="http://creativecommons.org/ns#"
   xmlns:rdf="http://www.w3.org/1999/02/22-rdf-syntax-ns#"
   xmlns:svg="http://www.w3.org/2000/svg"
   xmlns="http://www.w3.org/2000/svg"
   xmlns:sodipodi="http://sodipodi.sourceforge.net/DTD/sodipodi-0.dtd"
   xmlns:inkscape="http://www.inkscape.org/namespaces/inkscape"
   version="1.1"
   id="svg10"
   width="831"
   height="342"
   viewBox="0 0 831 342"
   sodipodi:docname="tbot-logo.svg"
   inkscape:version="0.92.4 (f8dce91, 2019-08-02)">
  <metadata
     id="metadata16">
    <rdf:RDF>
      <cc:Work
         rdf:about="">
        <dc:format>image/svg+xml</dc:format>
        <dc:type
           rdf:resource="http://purl.org/dc/dcmitype/StillImage" />
        <dc:title></dc:title>
      </cc:Work>
    </rdf:RDF>
  </metadata>
  <defs
     id="defs14" />
  <sodipodi:namedview
     pagecolor="#ffffff"
     bordercolor="#666666"
     borderopacity="1"
     objecttolerance="10"
     gridtolerance="10"
     guidetolerance="10"
     inkscape:pageopacity="0"
     inkscape:pageshadow="2"
     inkscape:window-width="1853"
     inkscape:window-height="1025"
     id="namedview12"
     showgrid="false"
     inkscape:zoom="2.0240674"
     inkscape:cx="415.5"
     inkscape:cy="171"
     inkscape:window-x="67"
     inkscape:window-y="27"
     inkscape:window-maximized="1"
     inkscape:current-layer="svg10" />
  <path
     style="fill:#000000"
     d="m 8.0084589,315.2584 c 0,-2.0055 14.1952261,-67.59506 14.9832501,-69.23066 l 0.963589,-2 -0.48491,2.5 C 20.662134,261.00595 8.9821379,314.88739 8.5605269,315.309 c -0.303637,0.30364 -0.552068,0.28087 -0.552068,-0.0506 z m 2.9938451,-0.28066 c -0.0086,-1.32251 14.008975,-67.60486 14.687446,-69.45 0.356927,-0.97069 0.70542,-1.09161 0.987577,-0.34267 0.571747,1.5176 -13.626326,68.55646 -14.781299,69.79267 -0.56057,0.6 -0.889837,0.6 -0.893724,0 z m 3.868646,0.0792 c -0.504532,-0.50453 13.952702,-69.65986 14.727018,-70.44583 1.960269,-1.98976 0.770286,5.61317 -5.505674,35.17635 -3.997877,18.83218 -7.594735,34.58532 -7.993018,35.00699 -0.398283,0.42166 -0.95103,0.53978 -1.228326,0.26249 z m 4.126066,-1.2792 c -0.0063,-0.9625 3.217656,-16.9375 7.164332,-35.5 5.082832,-23.9062 7.565348,-33.75 8.511444,-33.75 0.734617,0 1.335667,0.20408 1.335667,0.4535 0,0.74053 -14.056037,66.89012 -14.618474,68.7965 -0.283966,0.9625 -0.935977,1.75 -1.448914,1.75 -0.512936,0 -0.937761,-0.7875 -0.944055,-1.75 z m 4.011443,1.47613 c 0,-0.44304 13.593127,-64.6061 14.506865,-68.47613 0.552095,-2.33833 3.518199,-3.19559 3.460003,-1 -0.01822,0.6875 -3.286104,16.54487 -7.261959,35.23861 l -7.228826,33.98861 -1.738042,0.33471 c -0.955922,0.1841 -1.738041,0.14549 -1.738041,-0.0858 z m 5.835814,-0.22365 c -0.273635,-0.27363 2.297895,-13.66113 5.714513,-29.75 3.416617,-16.08886 6.747404,-31.83998 7.40175,-35.00248 l 1.189719,-5.75 h 1.929102 c 1.061006,0 1.929102,0.29903 1.929102,0.66452 0,0.94629 -13.944796,66.47436 -14.595433,68.58548 -0.509292,1.6525 -2.477855,2.34338 -3.568753,1.25248 z m 5.550381,-1.90507 c 0.331655,-1.32142 3.550599,-16.28392 7.153207,-33.25 3.602608,-16.96607 6.80382,-31.85991 7.113805,-33.09741 0.595351,-2.37672 4.320452,-3.2271 4.380491,-1 0.01853,0.6875 -3.218799,16.6625 -7.194072,35.5 l -7.227769,34.25 H 36.20598 33.791643 Z m 6.59472,1.15259 c -0.0105,-0.6875 3.239351,-16.6625 7.221884,-35.5 l 7.24097,-34.25 h 2.278115 c 1.252964,0 2.29328,0.5625 2.311814,1.25 0.01853,0.6875 -3.218799,16.6625 -7.194072,35.5 l -7.227769,34.25 h -2.305928 c -1.268261,0 -2.314517,-0.5625 -2.325014,-1.25 z m 7,0 c -0.0105,-0.6875 3.239351,-16.6625 7.221884,-35.5 l 7.24097,-34.25 h 2.778115 c 1.527964,0 2.778116,0.29903 2.778116,0.66452 0,0.94629 -13.944796,66.47436 -14.595433,68.58548 -0.618951,2.0083 -5.393902,2.4485 -5.423652,0.5 z m 7.40528,-1.15259 c 0.331655,-1.32142 3.550599,-16.28392 7.153207,-33.25 3.602608,-16.96607 6.80382,-31.85991 7.113805,-33.09741 l 0.563609,-2.25 H 419.18426 768.14324 l -0.51631,1.75 c -0.56243,1.90638 -14.61847,68.05597 -14.61847,68.7965 0,0.24942 -157.09878,0.4535 -349.10841,0.4535 H 54.791643 Z m 97.522276,-8.34741 c 2.41077,-10.33544 11.09153,-51.80955 11.09153,-52.99205 v -1.25795 h -44.5 c -24.475001,0 -44.500001,0.16633 -44.500001,0.36961 0,0.20329 -2.7,13.04981 -6,28.54783 -3.3,15.49802 -6,28.6067 -6,29.13039 0,0.5886 16.953653,0.95217 44.400261,0.95217 h 44.40026 z m -59.908469,0.74184 c 0,-0.58313 1.799998,-9.52486 3.999998,-19.87051 2.2,-10.34564 4.000001,-19.10525 4.000001,-19.4658 0,-0.36054 -5.420391,-0.65553 -12.045319,-0.65553 H 76.917833 l 0.701122,-3.75 c 0.385617,-2.0625 1.000788,-4.875 1.367047,-6.25 l 0.66592,-2.5 39.725748,-0.26152 39.72574,-0.26151 -0.70329,3.76151 c -0.3868,2.06884 -1.00233,4.88652 -1.36784,6.26152 l -0.66457,2.5 -12.17962,0.28078 c -6.6988,0.15443 -12.19368,0.37943 -12.21084,0.5 -0.0172,0.12057 -1.96282,9.21922 -4.32366,20.21922 l -4.29245,20 -15.17634,0.27605 c -10.199411,0.18552 -15.176339,-0.0717 -15.176339,-0.78421 z m 331.908469,-0.74184 c 2.41077,-10.33544 11.09153,-51.80955 11.09153,-52.99205 v -1.25795 H 303.57585 171.14324 l -0.51751,1.75 c -0.28463,0.9625 -3.02835,13.675 -6.09714,28.25 -3.0688,14.575 -5.77712,27.0625 -6.0185,27.75 l -0.43886,1.25 H 290.9401 423.80898 Z M 164.53912,304.2616 c 0.31282,-1.24638 2.90955,-13.28388 5.7705,-26.75 l 5.20174,-24.48386 41.85973,-0.26106 41.85974,-0.26106 -0.52004,2.26106 c -0.28602,1.24358 -1.3014,6.08606 -2.25639,10.76106 l -1.73635,8.5 -2.94767,3.14343 -2.94768,3.14344 1.68427,2.57051 1.68426,2.57051 -2.22174,10.53605 -2.22174,10.53606 h -41.8887 -41.88869 z m 55.84434,-12.85886 c 0.34375,-1.71875 0.625,-3.74375 0.625,-4.5 v -1.375 h -10.83152 -10.83153 l -1.02974,4.5 -1.02975,4.5 h 11.23627 11.23627 z m 3.96467,-19.625 c 0.26094,-0.9625 0.74984,-2.9875 1.08644,-4.5 l 0.61199,-2.75 h -10.96003 c -6.02802,0 -11.15249,0.3375 -11.38771,0.75 -0.23523,0.4125 -0.73218,2.4375 -1.10433,4.5 l -0.67666,3.75 h 10.97793 10.97792 z m 28.19099,32.48386 c 0.31282,-1.24638 2.90955,-13.28388 5.7705,-26.75 l 5.20174,-24.48386 41.74855,-0.26097 c 22.9617,-0.14354 41.74855,-0.0436 41.74855,0.2221 0,0.26569 -2.475,12.12796 -5.5,26.36059 -3.025,14.23263 -5.5,26.17018 -5.5,26.5279 0,0.35771 -18.90857,0.65038 -42.01905,0.65038 h -42.01905 z m 57.85901,-22.98386 c 1.50618,-7.2875 2.96977,-14.05257 3.25243,-15.03348 l 0.51393,-1.78348 -11.25068,0.28348 -11.25069,0.28348 -3.15216,14.75 -3.15216,14.75 h 11.15042 11.15042 z m 54.61033,24.24184 c 0,-0.58313 1.8,-9.52486 4,-19.87051 2.2,-10.34564 4,-19.10525 4,-19.4658 0,-0.36054 -5.42039,-0.65553 -12.04531,-0.65553 h -12.04532 l 0.70113,-3.75 c 0.38561,-2.0625 1.00078,-4.875 1.36704,-6.25 l 0.66593,-2.5 39.72574,-0.26152 39.72574,-0.26151 -0.70329,3.76151 c -0.3868,2.06884 -1.00233,4.88652 -1.36784,6.26152 l -0.66457,2.5 -12.17962,0.28078 c -6.6988,0.15443 -12.19368,0.37943 -12.21084,0.5 -0.0172,0.12057 -1.96282,9.21922 -4.32366,20.21922 l -4.29245,20 -15.17634,0.27605 c -10.19941,0.18552 -15.17634,-0.0717 -15.17634,-0.78421 z m 150.44203,-2.74184 c 0.36553,-2.0625 0.89594,-4.5375 1.17868,-5.5 l 0.51407,-1.75 h -26.14685 -26.14684 l 0.65411,-3.25 c 0.35976,-1.7875 0.87584,-4.0375 1.14684,-5 l 0.49274,-1.75 h 25.86522 25.86522 l 0.5155,-1.75 c 0.28352,-0.9625 1.67787,-7.375 3.09857,-14.25 1.42069,-6.875 2.82437,-13.2875 3.11928,-14.25 l 0.53621,-1.75 h -40.99649 -40.99649 l -1.15452,5.75 c -0.63499,3.1625 -1.39377,6.77483 -1.68618,8.02739 l -0.53167,2.2774 14.86529,-0.2774 14.86528,-0.27739 0.31955,-2.25 0.31955,-2.25 h 11.78656 11.78657 l -0.98545,4.98391 -0.98544,4.98391 -26.54202,0.26609 -26.54202,0.26609 -3.26915,15 c -1.79804,8.25 -3.29593,15.3375 -3.32865,15.75 -0.0327,0.4125 18.34042,0.75 40.82921,0.75 h 40.88871 z m 94.52128,-21.5 c 2.92231,-13.8875 5.52419,-25.8125 5.78197,-26.5 l 0.4687,-1.25 H 575.6345 535.04656 l -0.52643,2.25 c -1.32234,5.65168 -10.50029,49.33273 -10.50565,50 -0.003,0.4125 18.14024,0.75 40.319,0.75 h 40.32502 z m -54.66112,12 c 0.28545,-1.2375 1.75502,-8.2125 3.26572,-15.5 l 2.74672,-13.25 h 11.72775 11.72776 l -2.91418,13.75 c -1.60279,7.5625 -3.1564,14.5375 -3.45245,15.5 l -0.53829,1.75 h -11.54102 -11.54102 z m 105.66112,-12 c 2.92231,-13.8875 5.52419,-25.8125 5.78197,-26.5 l 0.4687,-1.25 h -21 -21 l -0.52655,1.37215 c -0.2896,0.75468 -0.83883,3.45468 -1.22053,6 l -0.69399,4.62785 h 6.11355 c 3.36245,0 6.11354,0.19905 6.11354,0.44233 0,0.24328 -1.8,9.04423 -4,19.55767 -2.2,10.51344 -4,19.53939 -4,20.05767 0,0.54592 6.02613,0.94233 14.32502,0.94233 h 14.32502 z m 91.09803,-1.51094 5.57687,-26.26095 -41.00988,0.26095 -41.00988,0.26094 -3.27229,15 c -1.79976,8.25 -3.28891,15.3375 -3.30922,15.75 -0.0203,0.4125 11.70261,0.75 26.05096,0.75 h 26.0879 l -0.70326,4.25 c -0.38678,2.3375 -0.90289,4.5875 -1.14691,5 -0.24402,0.4125 -5.64089,0.75 -11.99306,0.75 h -11.54939 l 0.63421,-2.52688 0.63421,-2.52688 -14.736,0.27688 -14.736,0.27688 -1.24616,6 c -0.6854,3.3 -1.26581,6.79255 -1.28981,7.76122 l -0.0436,1.76121 40.74224,-0.26121 40.74224,-0.26122 z m -50.78494,-10.23906 0.98862,-5 h 11.7236 11.72361 l -0.98863,5 -0.98862,5 h -11.7236 -11.72361 z m 53.77195,44.75 c 0.0266,-0.6875 3.32482,-16.55 7.32939,-35.25 l 7.28103,-34 3.17062,-0.31336 c 1.74383,-0.17235 3.17061,-0.0803 3.17061,0.20447 0,0.75874 -14.02704,66.79633 -14.62632,68.85889 -0.59696,2.05462 -6.40322,2.51359 -6.32533,0.5 z m 8.38486,-1.5 c 0.32566,-1.5125 3.69063,-17.29171 7.47769,-35.06491 3.78707,-17.7732 7.11523,-32.54456 7.39592,-32.82524 0.28068,-0.28069 1.59873,-0.36398 2.92898,-0.18509 l 2.41865,0.32524 -7.50102,35.25 -7.50101,35.25 h -2.90566 -2.90567 z m 7.55838,1.5 c -0.005,-0.6875 3.25787,-16.6618 7.25,-35.49845 l 7.25841,-34.24846 2.6346,-0.002 2.6346,-0.002 -2.839,13.25 c -1.56145,7.2875 -4.95597,23.2625 -7.54339,35.5 l -4.70439,22.25 h -2.34121 c -1.28767,0 -2.34499,-0.5625 -2.34962,-1.25 z m 7,0 c -0.005,-0.6875 3.25787,-16.6618 7.25,-35.49845 l 7.25841,-34.24846 2.25,-0.002 c 1.2375,-8.5e-4 2.25,0.20296 2.25,0.45292 0,0.71609 -14.05879,66.84222 -14.62632,68.79553 -0.57648,1.98414 -4.36919,2.41689 -4.38209,0.5 z m 6.00841,0.84477 c 0,-0.43427 13.61425,-64.57985 14.50548,-68.34477 0.33278,-1.40579 1.28303,-2.25 2.53262,-2.25 h 2 l -0.52497,2.25 c -0.85283,3.65518 -14.51313,68.05064 -14.51313,68.41577 0,0.18383 -0.9,0.33423 -2,0.33423 -1.1,0 -2,-0.18236 -2,-0.40523 z m 6.04835,-0.84477 c 0.0266,-0.6875 3.32727,-16.55 7.33484,-35.25 l 7.28648,-34 1.66516,-0.32332 c 0.91585,-0.17783 1.66517,-0.055 1.66517,0.27295 0,0.88305 -13.98145,66.75527 -14.60295,68.80037 -0.60418,1.98809 -3.42254,2.4089 -3.3487,0.5 z m 5.29844,-1 c 0.30999,-1.2375 3.50716,-16.2 7.10484,-33.25 3.59767,-17.05 6.7764,-32.0125 7.06385,-33.25 0.28744,-1.2375 1.21938,-2.25 2.07096,-2.25 1.00462,0 1.36703,0.61453 1.03203,1.75 -0.56243,1.90638 -14.61847,68.05597 -14.61847,68.7965 0,0.24942 -0.72378,0.4535 -1.60841,0.4535 -1.16831,0 -1.45419,-0.61566 -1.0448,-2.25 z m 4.65321,1.12463 c 0,-2.72622 14.32496,-68.47021 15.10151,-69.30796 0.47584,-0.51334 1.06314,-0.73536 1.30511,-0.49338 0.24198,0.24197 -2.41256,13.7953 -5.89898,30.1185 -3.48641,16.3232 -6.85879,32.18272 -7.49418,35.24338 -0.63539,3.06066 -1.57335,5.56483 -2.08436,5.56483 -0.511,0 -0.9291,-0.50641 -0.9291,-1.12537 z m 4,0.47336 c 0,-1.26178 13.88304,-67.24381 14.56878,-69.24112 0.26306,-0.76622 0.73752,-1.13391 1.05434,-0.81708 0.74503,0.74503 -13.57559,68.90595 -14.74067,70.16021 -0.55274,0.59505 -0.88245,0.55694 -0.88245,-0.10201 z m 3.50631,-1.59799 c 0.24395,-0.6875 3.62784,-16.31051 7.51976,-34.71781 3.89192,-18.4073 7.33972,-33.7073 7.66178,-34 0.7713,-0.701 0.77304,-0.70994 -7.25543,37.21668 -3.81283,18.01188 -7.2558,32.74938 -7.65104,32.75 -0.39523,6.2e-4 -0.51902,-0.56137 -0.27507,-1.24887 z M 42.508459,213.94311 c -6.6,-8.50895 -12.644521,-16.39921 -13.432269,-17.53391 l -1.43227,-2.06309 -2.77375,-57.15918 C 23.344608,105.74937 22.101438,77.102739 22.107571,73.527739 l 0.01115,-6.5 14.492373,-10.31184 14.492374,-10.31183 2.697747,0.31183 2.697748,0.31184 0.504747,2.82756 0.504748,2.82755 4.28255,-3.10741 c 2.921425,-2.11977 5.146238,-2.99337 7,-2.74862 l 2.71745,0.35878 1.124167,7.92107 c 0.618292,4.35659 1.180792,8.1307 1.25,8.38691 0.06921,0.25621 2.488333,-1.82972 5.375836,-4.63542 6.42526,-6.24322 7.62154,-6.871 15.776208,-8.2791 3.56058,-0.61482 23.572451,-4.76146 44.470811,-9.21476 l 37.99703,-8.0969 1.31368,-1.87554 c 0.72252,-1.03155 2.61401,-2.54797 4.20331,-3.36983 l 2.88964,-1.49429 h 86.89467 86.89467 l 1.65499,1.82874 c 0.9832,1.08643 1.65499,3.52193 1.65499,6 v 4.17126 h -43.5 -43.5 v 9.5 9.5 h -8.5 -8.5 v 20.5 20.500001 h 2.32186 c 3.96044,0 11.11909,2.9148 14.98514,6.10152 9.85551,8.12375 13.20456,25.27341 7.2022,36.8807 -2.43486,4.70849 -6.57854,9.01251 -10.70207,11.11618 l -3.9413,2.01069 3.56709,3.94834 3.56708,3.94833 v 8.99712 8.99712 h 43.5 43.5 v 8 8 h -79.96482 -79.96481 l -1.03519,-1.93426 c -0.6075,-1.13513 -1.03518,-9.6445 -1.03518,-20.59653 v -18.66227 l -9.25,0.39713 -9.25,0.39713 -21.84539,7.76405 c -13.19652,4.69017 -25.56203,9.817 -31.23289,12.9494 l -9.38751,5.18535 -0.0171,4.65652 -0.0171,4.65651 -11.75,18.47523 -11.750001,18.47522 -5.896688,0.61826 c -3.24318,0.34004 -12.693184,0.59265 -21.000004,0.56136 l -15.103319,-0.0569 z m 6.272613,-20.25368 1.272613,-0.80767 -3.006072,-61.87822 C 45.394274,96.97052 44.405272,68.878369 44.849832,68.576539 c 14.240774,-9.66888 24.158627,-17.52145 24.158627,-19.12787 0,-1.05651 -0.252703,-1.92093 -0.561563,-1.92093 -0.308859,0 -6.865747,4.55892 -14.570861,10.13093 l -14.009299,10.13093 0.617831,9.61907 c 0.703542,10.95351 5.523892,111.062901 5.523892,114.720601 0,2.52092 0.667232,2.89637 2.772613,1.56016 z m 69.919218,-61.9729 c 9.79449,-6.49617 24.33317,-15.45292 32.30817,-19.90389 l 14.5,-8.09267 16,-0.66306 c 8.8,-0.36468 16.7875,-0.88825 17.75,-1.1635 l 1.75,-0.50045 v -13.310481 -13.3105 l -6.61964,-5.81171 -6.61963,-5.81172 -36.63037,5.85334 c -20.1467,3.21934 -37.61724,6.11716 -38.82344,6.4396 -1.20619,0.32244 -9.12241,7.19123 -17.591611,15.26397 l -15.398527,14.677721 1.81113,13.32228 c 0.99612,7.32725 1.82484,14.00977 1.8416,14.85004 0.0251,1.26017 14.681867,9.69666 17.222308,9.91326 0.38051,0.0324 8.70551,-5.25606 18.50001,-11.75223 z m 148.02915,3.59755 c 1.22154,-1.14424 2.7062,-3.55068 3.29925,-5.34764 l 1.07827,-3.26719 -1.48907,-3.56386 c -1.40524,-3.36319 -6.6149,-7.5957 -9.35943,-7.60391 -0.93062,-0.003 -1.25,3.05598 -1.25,11.97151 v 11.97525 l 2.75,-1.04186 c 1.5125,-0.57303 3.74944,-1.97806 4.97098,-3.1223 z m 478.27902,93.48778 -4.5,-0.36539 -11.75,-18.49684 -11.75,-18.49685 v -4.40309 -4.40309 l -10.37697,-5.56615 c -6.42641,-3.44708 -19.02559,-8.60732 -33.09435,-13.55442 l -22.71737,-7.98829 h -7.40566 -7.40565 l -0.0318,18.75 c -0.0238,14.00504 -0.36799,19.19286 -1.36025,20.5 l -1.32844,1.75 h -80.13975 -80.13976 v -8 -8 h 43.5 43.5 v -8.82 -8.82 l 3.45721,-4.03898 3.45722,-4.03898 -2.45541,-1.11876 c -5.04569,-2.29897 -11.34475,-9.24192 -13.42208,-14.79411 -3.61406,-9.65942 -2.52661,-17.20709 3.91509,-27.17366 4.31659,-6.67859 11.30669,-11.55658 18.23871,-12.72774 l 3.80926,-0.64357 v -20.412101 -20.4121 h -8.5 -8.5 v -9.5 -9.5 h -43.5 -43.5 v -4.34501 c 0,-2.93939 0.5916,-4.88041 1.82874,-6 l 1.82874,-1.65499 87.42126,0.007 87.42126,0.007 2.76562,1.82365 c 1.5211,1.00301 3.3211,2.52569 4,3.38374 0.83558,1.05605 14.48072,4.35798 42.23438,10.22013 22.55,4.76302 43.7,9.30318 47,10.08922 l 6,1.42918 4.69405,4.88745 c 2.94353,3.06482 4.87503,4.41581 5.17937,3.62272 0.26693,-0.6956 0.80025,-4.46075 1.18516,-8.367 l 0.69984,-7.10229 h 2.36717 c 1.41946,0 8.07366,4.14556 16.62079,10.35473 l 14.25362,10.35473 -0.28475,14.14527 -0.28475,14.145266 h 6.03475 6.03475 l 0.006,-5.749996 c 0.003,-3.1625 0.28945,-9.39056 0.63589,-13.84013 l 0.6299,-8.09013 -14.76082,-10.65987 c -8.11846,-5.86293 -14.03656,-10.65987 -13.15134,-10.65987 1.98152,0 29.58121,19.68226 30.32776,21.62773 0.29602,0.77144 -0.80756,29.543781 -2.45242,63.938541 l -2.99064,62.53594 -6.32918,8.19889 c -3.48104,4.5094 -9.63097,12.3614 -13.6665,17.4489 l -7.33734,9.25 -15.70565,-0.18025 c -8.63811,-0.0991 -17.73066,-0.34467 -20.20566,-0.54563 z m 28.26486,-18.76467 12.76486,-16.4632 3.00047,-62.17446 c 1.65026,-34.19595 2.88108,-62.257081 2.73514,-62.358051 -0.14593,-0.10098 -5.38141,-3.85788 -11.6344,-8.34867 -6.25299,-4.49079 -11.66456,-8.16507 -12.0257,-8.16507 -0.36115,0 -3.0485,17.8875 -5.97191,39.75 -2.9234,21.862501 -5.56219,41.020521 -5.86397,42.573371 l -0.5487,2.82338 -17.21699,8.59183 -17.21699,8.59184 -0.63879,11.08479 c -0.35133,6.09663 -0.62906,14.23479 -0.61717,18.08479 l 0.0216,7 10.78732,17 10.78732,17 5.43652,0.587 c 2.99009,0.32286 7.23652,0.6542 9.43652,0.73633 l 4,0.14932 12.76486,-16.4632 z m -43.56108,-32.65535 c -0.92359,-0.51686 -2.16675,-1.85066 -2.76259,-2.96398 l -1.08333,-2.02424 1.59412,-2.43294 c 1.95721,-2.98707 5.57338,-3.16738 8.07542,-0.40266 l 1.83738,2.03028 -0.93239,2.61029 c -1.07814,3.01832 -4.29982,4.54247 -6.72861,3.18325 z m 38.49622,-69.0541 c -0.66,-0.66 -1.2,-2.37 -1.2,-3.8 0,-3.36695 1.70538,-5 5.22144,-5 3.67721,0 5.66373,3.76186 3.96051,7.5 -1.25226,2.74842 -5.79385,3.4881 -7.98195,1.3 z m -22.86426,31.05132 8.36514,-4.14868 1.82734,-14.56343 1.82734,-14.56343 -10.42778,-9.85617 C 741.20096,90.826459 733.73236,83.923919 730.33935,80.908359 l -6.16911,-5.48283 -36.72704,-5.94889 c -20.19987,-3.27189 -37.36967,-5.9489 -38.15512,-5.9489 -0.78545,0 -4.09469,2.5435 -7.35386,5.65222 l -5.92576,5.65222 v 13.2804 13.280381 l 1.75,0.5049 c 0.9625,0.27769 9.06793,0.81582 18.01207,1.19585 l 16.26207,0.69095 16.23793,9.14409 c 8.93086,5.02925 23.2065,13.97144 31.72364,19.87154 8.51715,5.9001 15.82303,10.72745 16.23531,10.72745 0.41227,0 4.5139,-1.86691 9.11472,-4.14868 z M 577.00846,126.91933 v -11.60841 l -2.75,0.68254 c -4.77017,1.18394 -7.25,4.35068 -7.25,9.25825 0,6.60261 4.38452,13.27603 8.72251,13.27603 h 1.27749 z M 300.66345,173.699 299.00846,171.87026 V 132.199 92.527739 h 4.5 c 2.475,0 4.5,-0.45 4.5,-1 0,-0.55 -2.025,-1 -4.5,-1 h -4.5 v -19.38499 -19.38499 l 2.46482,-1.61501 2.46481,-1.61501 114.78519,0.0333 114.78518,0.0333 2.25,1.87703 2.25,1.87702 v 19.08971 19.0897 h -4.5 c -2.475,0 -4.5,0.45 -4.5,1 0,0.55 1.8,1 4,1 h 4 v 39.845011 39.84501 l -1.82874,1.65499 -1.82874,1.65499 H 417.83471 302.31844 Z"
     id="path20"
     inkscape:connector-curvature="0" />
</svg>
