G04 EAGLE Gerber X2 export*
%TF.Part,Single*%
%TF.FileFunction,Copper,L1,Top,Mixed*%
%TF.FilePolarity,Positive*%
%TF.GenerationSoftware,Autodesk,EAGLE,9.0.1*%
%TF.CreationDate,2018-07-05T12:19:16Z*%
G75*
%MOMM*%
%FSLAX34Y34*%
%LPD*%
%AMOC8*
5,1,8,0,0,1.08239X$1,22.5*%
G01*
%ADD10C,0.152400*%
%ADD11C,1.524000*%
%ADD12R,2.500000X2.500000*%
%ADD13C,1.408000*%
%ADD14R,1.508000X1.508000*%
%ADD15C,1.508000*%
%ADD16P,1.539592X8X22.500000*%
%ADD17C,0.812800*%
%ADD18C,0.406400*%

G36*
X541505Y-15223D02*
X541505Y-15223D01*
X541736Y-15213D01*
X541790Y-15203D01*
X541844Y-15199D01*
X542070Y-15151D01*
X542296Y-15109D01*
X542348Y-15092D01*
X542402Y-15080D01*
X542618Y-15001D01*
X542836Y-14928D01*
X542885Y-14903D01*
X542937Y-14884D01*
X543140Y-14776D01*
X543345Y-14673D01*
X543391Y-14642D01*
X543439Y-14616D01*
X543625Y-14480D01*
X543814Y-14349D01*
X543855Y-14312D01*
X543899Y-14279D01*
X544064Y-14119D01*
X544233Y-13963D01*
X544268Y-13920D01*
X544307Y-13882D01*
X544448Y-13700D01*
X544594Y-13522D01*
X544622Y-13474D01*
X544656Y-13431D01*
X544770Y-13231D01*
X544889Y-13034D01*
X544911Y-12984D01*
X544938Y-12936D01*
X545023Y-12722D01*
X545114Y-12511D01*
X545128Y-12458D01*
X545148Y-12407D01*
X545203Y-12182D01*
X545263Y-11961D01*
X545267Y-11917D01*
X545283Y-11853D01*
X545338Y-11286D01*
X545335Y-11220D01*
X545339Y-11176D01*
X545339Y823876D01*
X545323Y824105D01*
X545313Y824336D01*
X545303Y824390D01*
X545299Y824444D01*
X545251Y824670D01*
X545209Y824896D01*
X545192Y824948D01*
X545180Y825002D01*
X545101Y825218D01*
X545028Y825436D01*
X545003Y825485D01*
X544984Y825537D01*
X544876Y825740D01*
X544773Y825945D01*
X544742Y825991D01*
X544716Y826039D01*
X544580Y826225D01*
X544449Y826414D01*
X544412Y826455D01*
X544379Y826499D01*
X544219Y826664D01*
X544063Y826833D01*
X544020Y826868D01*
X543982Y826907D01*
X543800Y827048D01*
X543622Y827194D01*
X543574Y827222D01*
X543531Y827256D01*
X543331Y827370D01*
X543134Y827489D01*
X543084Y827511D01*
X543036Y827538D01*
X542822Y827623D01*
X542611Y827714D01*
X542558Y827728D01*
X542507Y827748D01*
X542282Y827803D01*
X542061Y827863D01*
X542017Y827867D01*
X541953Y827883D01*
X541386Y827938D01*
X541320Y827935D01*
X541276Y827939D01*
X493795Y827939D01*
X493680Y827931D01*
X493565Y827933D01*
X493396Y827911D01*
X493227Y827899D01*
X493114Y827875D01*
X493000Y827861D01*
X492836Y827816D01*
X492669Y827780D01*
X492561Y827741D01*
X492450Y827710D01*
X492294Y827643D01*
X492134Y827584D01*
X492033Y827530D01*
X491927Y827484D01*
X491782Y827396D01*
X491632Y827316D01*
X491539Y827248D01*
X491440Y827188D01*
X491309Y827080D01*
X491172Y826979D01*
X491089Y826899D01*
X491000Y826826D01*
X490886Y826700D01*
X490764Y826582D01*
X490693Y826491D01*
X490615Y826406D01*
X490519Y826266D01*
X490415Y826131D01*
X490358Y826031D01*
X490293Y825936D01*
X490217Y825784D01*
X490133Y825636D01*
X490090Y825529D01*
X490039Y825426D01*
X489985Y825265D01*
X489923Y825107D01*
X489895Y824994D01*
X489859Y824885D01*
X489829Y824718D01*
X489788Y824553D01*
X489777Y824438D01*
X489757Y824325D01*
X489750Y824155D01*
X489733Y823986D01*
X489738Y823871D01*
X489733Y823755D01*
X489750Y823586D01*
X489758Y823416D01*
X489779Y823303D01*
X489790Y823188D01*
X489831Y823023D01*
X489862Y822856D01*
X489898Y822747D01*
X489926Y822635D01*
X489989Y822477D01*
X490043Y822316D01*
X490095Y822213D01*
X490137Y822106D01*
X490222Y821959D01*
X490298Y821807D01*
X490364Y821712D01*
X490421Y821612D01*
X490494Y821523D01*
X490622Y821338D01*
X490847Y821094D01*
X490922Y821003D01*
X493077Y818847D01*
X507107Y804817D01*
X507108Y804817D01*
X509323Y802602D01*
X511859Y800066D01*
X514605Y793437D01*
X514605Y719761D01*
X514605Y719759D01*
X514605Y719756D01*
X514625Y719479D01*
X514645Y719193D01*
X514645Y719190D01*
X514645Y719188D01*
X514706Y718906D01*
X514764Y718636D01*
X514765Y718633D01*
X514765Y718630D01*
X514861Y718371D01*
X514960Y718101D01*
X514961Y718098D01*
X514962Y718096D01*
X515088Y717861D01*
X515228Y717598D01*
X515230Y717596D01*
X515231Y717594D01*
X515399Y717365D01*
X515565Y717138D01*
X515567Y717136D01*
X515568Y717134D01*
X515769Y716928D01*
X515962Y716730D01*
X515964Y716728D01*
X515966Y716726D01*
X516199Y716547D01*
X516413Y716381D01*
X516415Y716380D01*
X516417Y716378D01*
X516430Y716372D01*
X516908Y716099D01*
X517038Y716048D01*
X517113Y716007D01*
X519737Y714921D01*
X521881Y712777D01*
X523041Y709976D01*
X523041Y681944D01*
X521881Y679143D01*
X519737Y676999D01*
X516936Y675839D01*
X488904Y675839D01*
X486103Y676999D01*
X483959Y679143D01*
X482799Y681944D01*
X482799Y709976D01*
X483959Y712777D01*
X486103Y714921D01*
X488727Y716007D01*
X488729Y716009D01*
X488732Y716009D01*
X488984Y716136D01*
X489237Y716262D01*
X489239Y716263D01*
X489241Y716265D01*
X489479Y716428D01*
X489706Y716585D01*
X489708Y716587D01*
X489710Y716588D01*
X489923Y716784D01*
X490125Y716971D01*
X490127Y716973D01*
X490129Y716975D01*
X490303Y717187D01*
X490487Y717411D01*
X490488Y717414D01*
X490490Y717416D01*
X490634Y717654D01*
X490783Y717898D01*
X490784Y717901D01*
X490785Y717903D01*
X490892Y718152D01*
X491008Y718421D01*
X491009Y718424D01*
X491010Y718427D01*
X491080Y718684D01*
X491158Y718971D01*
X491158Y718974D01*
X491159Y718977D01*
X491160Y718989D01*
X491229Y719537D01*
X491227Y719676D01*
X491235Y719761D01*
X491235Y785957D01*
X491231Y786017D01*
X491233Y786078D01*
X491211Y786301D01*
X491195Y786525D01*
X491183Y786585D01*
X491177Y786644D01*
X491123Y786863D01*
X491076Y787083D01*
X491056Y787139D01*
X491041Y787198D01*
X490958Y787407D01*
X490880Y787618D01*
X490852Y787671D01*
X490830Y787727D01*
X490718Y787922D01*
X490612Y788120D01*
X490576Y788169D01*
X490546Y788221D01*
X490471Y788312D01*
X490275Y788580D01*
X490118Y788741D01*
X490045Y788830D01*
X478950Y799925D01*
X478905Y799965D01*
X478864Y800009D01*
X478690Y800151D01*
X478520Y800299D01*
X478469Y800332D01*
X478423Y800370D01*
X478230Y800487D01*
X478042Y800609D01*
X477987Y800634D01*
X477935Y800665D01*
X477729Y800754D01*
X477525Y800849D01*
X477467Y800866D01*
X477412Y800890D01*
X477195Y800948D01*
X476980Y801014D01*
X476920Y801023D01*
X476862Y801039D01*
X476745Y801050D01*
X476417Y801101D01*
X476192Y801104D01*
X476077Y801115D01*
X403445Y801115D01*
X403330Y801107D01*
X403215Y801109D01*
X403047Y801087D01*
X402877Y801075D01*
X402764Y801051D01*
X402650Y801037D01*
X402486Y800992D01*
X402320Y800956D01*
X402211Y800917D01*
X402100Y800886D01*
X401945Y800819D01*
X401785Y800760D01*
X401683Y800706D01*
X401577Y800660D01*
X401432Y800572D01*
X401282Y800492D01*
X401189Y800424D01*
X401091Y800364D01*
X400959Y800256D01*
X400822Y800155D01*
X400740Y800075D01*
X400651Y800002D01*
X400536Y799876D01*
X400414Y799758D01*
X400343Y799667D01*
X400266Y799582D01*
X400169Y799442D01*
X400065Y799307D01*
X400008Y799207D01*
X399943Y799112D01*
X399867Y798960D01*
X399783Y798812D01*
X399740Y798705D01*
X399689Y798602D01*
X399636Y798441D01*
X399573Y798283D01*
X399546Y798170D01*
X399509Y798061D01*
X399479Y797894D01*
X399439Y797729D01*
X399428Y797614D01*
X399407Y797501D01*
X399400Y797331D01*
X399383Y797162D01*
X399388Y797047D01*
X399384Y796931D01*
X399401Y796762D01*
X399408Y796592D01*
X399429Y796479D01*
X399441Y796364D01*
X399481Y796199D01*
X399512Y796032D01*
X399549Y795923D01*
X399576Y795811D01*
X399639Y795653D01*
X399693Y795492D01*
X399745Y795389D01*
X399788Y795282D01*
X399872Y795135D01*
X399948Y794983D01*
X400014Y794888D01*
X400071Y794788D01*
X400144Y794699D01*
X400272Y794514D01*
X400498Y794270D01*
X400572Y794179D01*
X403288Y791463D01*
X393700Y791463D01*
X368300Y791463D01*
X342900Y791463D01*
X317500Y791463D01*
X292100Y791463D01*
X266700Y791463D01*
X241300Y791463D01*
X215900Y791463D01*
X206312Y791463D01*
X209028Y794179D01*
X209103Y794266D01*
X209186Y794346D01*
X209290Y794481D01*
X209402Y794609D01*
X209464Y794706D01*
X209535Y794797D01*
X209619Y794944D01*
X209711Y795087D01*
X209760Y795192D01*
X209817Y795292D01*
X209880Y795450D01*
X209951Y795604D01*
X209985Y795714D01*
X210027Y795821D01*
X210067Y795987D01*
X210116Y796149D01*
X210134Y796263D01*
X210161Y796375D01*
X210178Y796545D01*
X210204Y796712D01*
X210205Y796827D01*
X210217Y796942D01*
X210209Y797112D01*
X210211Y797282D01*
X210197Y797396D01*
X210192Y797512D01*
X210161Y797679D01*
X210139Y797847D01*
X210109Y797959D01*
X210088Y798072D01*
X210034Y798233D01*
X209989Y798397D01*
X209943Y798503D01*
X209907Y798612D01*
X209830Y798764D01*
X209763Y798920D01*
X209703Y799018D01*
X209652Y799121D01*
X209555Y799261D01*
X209466Y799406D01*
X209393Y799495D01*
X209328Y799590D01*
X209212Y799715D01*
X209104Y799847D01*
X209019Y799924D01*
X208941Y800009D01*
X208810Y800117D01*
X208685Y800232D01*
X208590Y800297D01*
X208500Y800370D01*
X208355Y800458D01*
X208215Y800554D01*
X208112Y800606D01*
X208013Y800665D01*
X207857Y800732D01*
X207705Y800808D01*
X207595Y800844D01*
X207489Y800890D01*
X207325Y800934D01*
X207164Y800988D01*
X207051Y801009D01*
X206939Y801039D01*
X206825Y801050D01*
X206604Y801090D01*
X206272Y801104D01*
X206155Y801115D01*
X197023Y801115D01*
X196963Y801111D01*
X196902Y801113D01*
X196679Y801091D01*
X196455Y801075D01*
X196395Y801063D01*
X196336Y801057D01*
X196117Y801003D01*
X195897Y800956D01*
X195841Y800936D01*
X195782Y800921D01*
X195573Y800838D01*
X195362Y800760D01*
X195309Y800732D01*
X195253Y800710D01*
X195058Y800598D01*
X194860Y800492D01*
X194811Y800456D01*
X194759Y800426D01*
X194668Y800351D01*
X194400Y800155D01*
X194239Y799998D01*
X194150Y799925D01*
X190675Y796450D01*
X190635Y796405D01*
X190591Y796364D01*
X190449Y796190D01*
X190301Y796020D01*
X190268Y795969D01*
X190230Y795923D01*
X190113Y795730D01*
X189991Y795542D01*
X189966Y795487D01*
X189935Y795435D01*
X189846Y795229D01*
X189751Y795025D01*
X189734Y794967D01*
X189710Y794912D01*
X189652Y794695D01*
X189586Y794480D01*
X189577Y794420D01*
X189561Y794362D01*
X189550Y794245D01*
X189499Y793917D01*
X189496Y793692D01*
X189485Y793577D01*
X189485Y781223D01*
X189489Y781163D01*
X189487Y781102D01*
X189509Y780879D01*
X189525Y780655D01*
X189537Y780595D01*
X189543Y780536D01*
X189597Y780317D01*
X189644Y780097D01*
X189664Y780041D01*
X189679Y779982D01*
X189762Y779773D01*
X189840Y779562D01*
X189868Y779509D01*
X189890Y779453D01*
X190002Y779258D01*
X190108Y779060D01*
X190144Y779011D01*
X190174Y778959D01*
X190249Y778868D01*
X190445Y778600D01*
X190602Y778439D01*
X190675Y778350D01*
X194150Y774875D01*
X194195Y774835D01*
X194236Y774791D01*
X194410Y774649D01*
X194580Y774501D01*
X194631Y774468D01*
X194677Y774430D01*
X194870Y774313D01*
X195058Y774191D01*
X195113Y774166D01*
X195165Y774135D01*
X195371Y774046D01*
X195575Y773951D01*
X195633Y773934D01*
X195688Y773910D01*
X195905Y773852D01*
X196120Y773786D01*
X196180Y773777D01*
X196238Y773761D01*
X196355Y773750D01*
X196683Y773699D01*
X196908Y773696D01*
X197023Y773685D01*
X205066Y773685D01*
X205127Y773689D01*
X205187Y773687D01*
X205410Y773709D01*
X205635Y773725D01*
X205694Y773737D01*
X205754Y773743D01*
X205972Y773797D01*
X206192Y773844D01*
X206249Y773864D01*
X206307Y773879D01*
X206516Y773962D01*
X206727Y774040D01*
X206781Y774068D01*
X206836Y774090D01*
X207031Y774202D01*
X207230Y774308D01*
X207278Y774344D01*
X207331Y774374D01*
X207421Y774449D01*
X207689Y774645D01*
X207851Y774802D01*
X207940Y774875D01*
X208484Y775419D01*
X208634Y775592D01*
X208790Y775762D01*
X208821Y775808D01*
X208857Y775849D01*
X208983Y776042D01*
X209113Y776232D01*
X209137Y776281D01*
X209167Y776327D01*
X209264Y776536D01*
X209367Y776742D01*
X209384Y776794D01*
X209407Y776844D01*
X209474Y777065D01*
X209547Y777283D01*
X209556Y777337D01*
X209572Y777389D01*
X209608Y777617D01*
X209649Y777843D01*
X209651Y777898D01*
X209660Y777952D01*
X209663Y778182D01*
X209672Y778413D01*
X209667Y778467D01*
X209667Y778522D01*
X209638Y778750D01*
X209615Y778980D01*
X209602Y779033D01*
X209595Y779087D01*
X209535Y779309D01*
X209480Y779533D01*
X209459Y779584D01*
X209445Y779637D01*
X209353Y779849D01*
X209268Y780062D01*
X209241Y780109D01*
X209219Y780160D01*
X209099Y780357D01*
X208985Y780556D01*
X208956Y780591D01*
X208922Y780646D01*
X208560Y781087D01*
X208512Y781131D01*
X208484Y781165D01*
X206312Y783337D01*
X215900Y783337D01*
X241300Y783337D01*
X266700Y783337D01*
X292100Y783337D01*
X317500Y783337D01*
X342900Y783337D01*
X368300Y783337D01*
X393700Y783337D01*
X403288Y783337D01*
X401116Y781165D01*
X400965Y780991D01*
X400810Y780822D01*
X400779Y780777D01*
X400743Y780735D01*
X400617Y780542D01*
X400487Y780352D01*
X400463Y780303D01*
X400433Y780257D01*
X400336Y780048D01*
X400233Y779842D01*
X400216Y779790D01*
X400193Y779740D01*
X400126Y779520D01*
X400054Y779301D01*
X400044Y779247D01*
X400028Y779195D01*
X399992Y778968D01*
X399951Y778741D01*
X399949Y778686D01*
X399940Y778632D01*
X399937Y778402D01*
X399928Y778172D01*
X399933Y778117D01*
X399933Y778062D01*
X399962Y777834D01*
X399985Y777605D01*
X399998Y777551D01*
X400005Y777497D01*
X400066Y777274D01*
X400120Y777051D01*
X400141Y777000D01*
X400155Y776947D01*
X400246Y776736D01*
X400332Y776522D01*
X400359Y776474D01*
X400381Y776424D01*
X400501Y776228D01*
X400615Y776028D01*
X400644Y775994D01*
X400678Y775938D01*
X401040Y775498D01*
X401088Y775453D01*
X401116Y775419D01*
X401660Y774875D01*
X401706Y774835D01*
X401747Y774791D01*
X401921Y774649D01*
X402091Y774501D01*
X402141Y774468D01*
X402188Y774430D01*
X402380Y774313D01*
X402569Y774191D01*
X402624Y774166D01*
X402675Y774135D01*
X402881Y774046D01*
X403086Y773951D01*
X403143Y773934D01*
X403199Y773910D01*
X403416Y773852D01*
X403631Y773786D01*
X403691Y773777D01*
X403749Y773761D01*
X403866Y773750D01*
X404194Y773699D01*
X404419Y773696D01*
X404534Y773685D01*
X421424Y773685D01*
X425719Y771906D01*
X429006Y768619D01*
X430785Y764324D01*
X430785Y552377D01*
X430793Y552262D01*
X430791Y552147D01*
X430813Y551978D01*
X430825Y551809D01*
X430849Y551696D01*
X430863Y551582D01*
X430908Y551417D01*
X430944Y551251D01*
X430983Y551143D01*
X431014Y551032D01*
X431081Y550876D01*
X431140Y550716D01*
X431194Y550615D01*
X431240Y550509D01*
X431328Y550364D01*
X431408Y550214D01*
X431476Y550121D01*
X431536Y550022D01*
X431644Y549891D01*
X431745Y549754D01*
X431825Y549671D01*
X431898Y549582D01*
X432024Y549467D01*
X432142Y549346D01*
X432233Y549275D01*
X432318Y549197D01*
X432458Y549101D01*
X432593Y548997D01*
X432693Y548940D01*
X432788Y548875D01*
X432940Y548799D01*
X433088Y548715D01*
X433195Y548672D01*
X433298Y548621D01*
X433459Y548567D01*
X433617Y548504D01*
X433730Y548477D01*
X433839Y548441D01*
X434006Y548410D01*
X434171Y548370D01*
X434286Y548359D01*
X434399Y548339D01*
X434569Y548332D01*
X434738Y548315D01*
X434853Y548320D01*
X434969Y548315D01*
X435138Y548332D01*
X435308Y548340D01*
X435421Y548361D01*
X435535Y548372D01*
X435701Y548413D01*
X435868Y548444D01*
X435977Y548480D01*
X436089Y548508D01*
X436247Y548571D01*
X436408Y548625D01*
X436511Y548677D01*
X436618Y548719D01*
X436765Y548804D01*
X436917Y548880D01*
X437012Y548946D01*
X437112Y549003D01*
X437201Y549076D01*
X437386Y549204D01*
X437630Y549429D01*
X437721Y549504D01*
X441751Y553534D01*
X447488Y556846D01*
X453888Y558561D01*
X460512Y558561D01*
X466912Y556846D01*
X472649Y553534D01*
X477334Y548849D01*
X480646Y543112D01*
X481689Y539221D01*
X481739Y539076D01*
X481779Y538928D01*
X481831Y538807D01*
X481874Y538682D01*
X481944Y538546D01*
X482005Y538405D01*
X482074Y538292D01*
X482133Y538175D01*
X482222Y538049D01*
X482302Y537918D01*
X482386Y537816D01*
X482461Y537709D01*
X482566Y537597D01*
X482664Y537478D01*
X482761Y537389D01*
X482851Y537293D01*
X482971Y537197D01*
X483084Y537093D01*
X483192Y537018D01*
X483295Y536936D01*
X483427Y536857D01*
X483553Y536770D01*
X483671Y536712D01*
X483784Y536644D01*
X483926Y536585D01*
X484064Y536517D01*
X484188Y536475D01*
X484310Y536424D01*
X484458Y536385D01*
X484604Y536337D01*
X484734Y536313D01*
X484861Y536280D01*
X485013Y536262D01*
X485165Y536234D01*
X485296Y536229D01*
X485427Y536214D01*
X485580Y536217D01*
X485734Y536211D01*
X485865Y536224D01*
X485997Y536228D01*
X486148Y536253D01*
X486301Y536268D01*
X486429Y536299D01*
X486559Y536321D01*
X486705Y536367D01*
X486854Y536404D01*
X486977Y536453D01*
X487102Y536492D01*
X487241Y536558D01*
X487383Y536615D01*
X487497Y536681D01*
X487616Y536737D01*
X487744Y536822D01*
X487878Y536899D01*
X487952Y536960D01*
X488091Y537052D01*
X488429Y537352D01*
X488487Y537400D01*
X488800Y537713D01*
X489217Y537992D01*
X489679Y538183D01*
X490170Y538281D01*
X498857Y538281D01*
X498857Y523240D01*
X498857Y508199D01*
X490170Y508199D01*
X489679Y508297D01*
X489217Y508488D01*
X488800Y508767D01*
X488447Y509120D01*
X488168Y509537D01*
X487977Y509999D01*
X487879Y510490D01*
X487879Y521052D01*
X487874Y521129D01*
X487876Y521206D01*
X487854Y521413D01*
X487839Y521621D01*
X487823Y521696D01*
X487815Y521772D01*
X487764Y521975D01*
X487720Y522178D01*
X487694Y522250D01*
X487675Y522325D01*
X487596Y522517D01*
X487524Y522713D01*
X487488Y522781D01*
X487459Y522852D01*
X487354Y523032D01*
X487256Y523215D01*
X487210Y523277D01*
X487171Y523344D01*
X487042Y523508D01*
X486919Y523675D01*
X486866Y523730D01*
X486818Y523791D01*
X486667Y523934D01*
X486522Y524084D01*
X486461Y524131D01*
X486405Y524184D01*
X486236Y524305D01*
X486071Y524432D01*
X486004Y524470D01*
X485942Y524515D01*
X485757Y524611D01*
X485576Y524715D01*
X485505Y524743D01*
X485437Y524778D01*
X485241Y524848D01*
X485047Y524925D01*
X484972Y524943D01*
X484899Y524969D01*
X484695Y525010D01*
X484493Y525059D01*
X484416Y525066D01*
X484341Y525082D01*
X484134Y525094D01*
X483926Y525114D01*
X483849Y525111D01*
X483772Y525115D01*
X483565Y525099D01*
X483356Y525090D01*
X483281Y525076D01*
X483204Y525069D01*
X483001Y525024D01*
X482796Y524986D01*
X482724Y524961D01*
X482648Y524944D01*
X482453Y524871D01*
X482256Y524804D01*
X482187Y524770D01*
X482115Y524743D01*
X481933Y524643D01*
X481747Y524549D01*
X481683Y524505D01*
X481616Y524468D01*
X481449Y524344D01*
X481278Y524225D01*
X481221Y524173D01*
X481160Y524127D01*
X481012Y523981D01*
X480859Y523839D01*
X480810Y523779D01*
X480756Y523725D01*
X480685Y523627D01*
X480498Y523398D01*
X480367Y523181D01*
X480297Y523084D01*
X477334Y517951D01*
X472649Y513266D01*
X466912Y509954D01*
X460512Y508239D01*
X453888Y508239D01*
X447488Y509954D01*
X441751Y513266D01*
X437721Y517296D01*
X437634Y517372D01*
X437554Y517454D01*
X437419Y517558D01*
X437291Y517670D01*
X437194Y517733D01*
X437103Y517803D01*
X436956Y517887D01*
X436813Y517980D01*
X436708Y518028D01*
X436608Y518085D01*
X436450Y518148D01*
X436296Y518220D01*
X436186Y518253D01*
X436079Y518296D01*
X435913Y518336D01*
X435751Y518385D01*
X435637Y518402D01*
X435525Y518430D01*
X435355Y518446D01*
X435188Y518472D01*
X435073Y518474D01*
X434958Y518485D01*
X434788Y518478D01*
X434618Y518480D01*
X434504Y518465D01*
X434388Y518460D01*
X434221Y518429D01*
X434053Y518408D01*
X433941Y518377D01*
X433828Y518356D01*
X433667Y518302D01*
X433503Y518257D01*
X433397Y518212D01*
X433288Y518175D01*
X433136Y518099D01*
X432980Y518031D01*
X432882Y517972D01*
X432779Y517920D01*
X432639Y517823D01*
X432494Y517735D01*
X432405Y517661D01*
X432310Y517596D01*
X432185Y517481D01*
X432053Y517373D01*
X431976Y517288D01*
X431891Y517210D01*
X431783Y517078D01*
X431668Y516953D01*
X431603Y516858D01*
X431530Y516769D01*
X431442Y516623D01*
X431346Y516483D01*
X431294Y516380D01*
X431235Y516281D01*
X431168Y516125D01*
X431092Y515973D01*
X431056Y515864D01*
X431010Y515758D01*
X430966Y515594D01*
X430912Y515432D01*
X430891Y515319D01*
X430861Y515208D01*
X430850Y515093D01*
X430810Y514872D01*
X430796Y514540D01*
X430785Y514423D01*
X430785Y483108D01*
X430801Y482879D01*
X430811Y482648D01*
X430821Y482594D01*
X430825Y482540D01*
X430873Y482314D01*
X430915Y482088D01*
X430932Y482036D01*
X430944Y481982D01*
X431023Y481766D01*
X431096Y481548D01*
X431121Y481499D01*
X431140Y481447D01*
X431248Y481244D01*
X431351Y481039D01*
X431382Y480993D01*
X431408Y480945D01*
X431544Y480759D01*
X431675Y480570D01*
X431712Y480529D01*
X431745Y480485D01*
X431905Y480320D01*
X432061Y480151D01*
X432104Y480116D01*
X432142Y480077D01*
X432324Y479936D01*
X432502Y479790D01*
X432550Y479762D01*
X432593Y479728D01*
X432793Y479614D01*
X432990Y479495D01*
X433040Y479473D01*
X433088Y479446D01*
X433302Y479361D01*
X433513Y479270D01*
X433566Y479256D01*
X433617Y479236D01*
X433842Y479181D01*
X434063Y479121D01*
X434107Y479117D01*
X434171Y479101D01*
X434738Y479046D01*
X434804Y479049D01*
X434848Y479045D01*
X479119Y479045D01*
X479121Y479045D01*
X479124Y479045D01*
X479401Y479065D01*
X479687Y479085D01*
X479690Y479085D01*
X479692Y479085D01*
X479965Y479144D01*
X480244Y479204D01*
X480247Y479205D01*
X480250Y479205D01*
X480506Y479300D01*
X480779Y479400D01*
X480782Y479401D01*
X480784Y479402D01*
X481018Y479527D01*
X481282Y479668D01*
X481284Y479670D01*
X481286Y479671D01*
X481515Y479839D01*
X481742Y480005D01*
X481744Y480007D01*
X481746Y480008D01*
X481952Y480209D01*
X482150Y480402D01*
X482152Y480404D01*
X482154Y480406D01*
X482331Y480636D01*
X482499Y480853D01*
X482500Y480855D01*
X482502Y480857D01*
X482508Y480870D01*
X482781Y481348D01*
X482832Y481478D01*
X482873Y481553D01*
X483959Y484177D01*
X486103Y486321D01*
X488904Y487481D01*
X516936Y487481D01*
X519737Y486321D01*
X521881Y484177D01*
X523041Y481376D01*
X523041Y453344D01*
X521881Y450543D01*
X519737Y448399D01*
X516936Y447239D01*
X488904Y447239D01*
X486103Y448399D01*
X483959Y450543D01*
X482873Y453167D01*
X482871Y453169D01*
X482871Y453172D01*
X482748Y453416D01*
X482618Y453677D01*
X482617Y453679D01*
X482615Y453681D01*
X482452Y453919D01*
X482295Y454146D01*
X482293Y454148D01*
X482292Y454150D01*
X482098Y454360D01*
X481909Y454565D01*
X481907Y454567D01*
X481905Y454569D01*
X481683Y454751D01*
X481469Y454927D01*
X481466Y454928D01*
X481464Y454930D01*
X481226Y455074D01*
X480982Y455223D01*
X480979Y455224D01*
X480977Y455225D01*
X480727Y455332D01*
X480459Y455448D01*
X480456Y455449D01*
X480453Y455450D01*
X480189Y455522D01*
X479909Y455598D01*
X479906Y455598D01*
X479903Y455599D01*
X479891Y455600D01*
X479343Y455669D01*
X479204Y455667D01*
X479119Y455675D01*
X421863Y455675D01*
X415234Y458421D01*
X410161Y463494D01*
X407415Y470123D01*
X407415Y612555D01*
X407407Y612670D01*
X407409Y612785D01*
X407387Y612953D01*
X407375Y613123D01*
X407351Y613236D01*
X407337Y613350D01*
X407292Y613514D01*
X407256Y613680D01*
X407217Y613788D01*
X407186Y613900D01*
X407119Y614056D01*
X407060Y614215D01*
X407006Y614317D01*
X406960Y614423D01*
X406872Y614568D01*
X406792Y614718D01*
X406724Y614811D01*
X406664Y614909D01*
X406556Y615041D01*
X406455Y615178D01*
X406375Y615260D01*
X406302Y615349D01*
X406177Y615464D01*
X406058Y615586D01*
X405967Y615657D01*
X405882Y615734D01*
X405742Y615831D01*
X405607Y615935D01*
X405507Y615992D01*
X405412Y616057D01*
X405260Y616133D01*
X405112Y616217D01*
X405005Y616260D01*
X404902Y616311D01*
X404741Y616364D01*
X404583Y616427D01*
X404470Y616454D01*
X404361Y616491D01*
X404194Y616521D01*
X404029Y616561D01*
X403914Y616572D01*
X403801Y616593D01*
X403631Y616600D01*
X403462Y616616D01*
X403347Y616612D01*
X403231Y616616D01*
X403062Y616599D01*
X402892Y616592D01*
X402779Y616571D01*
X402665Y616559D01*
X402499Y616519D01*
X402332Y616488D01*
X402223Y616451D01*
X402111Y616424D01*
X401953Y616361D01*
X401792Y616307D01*
X401689Y616255D01*
X401582Y616212D01*
X401435Y616128D01*
X401283Y616051D01*
X401188Y615986D01*
X401088Y615929D01*
X400999Y615855D01*
X400814Y615728D01*
X400570Y615503D01*
X400479Y615428D01*
X341043Y555992D01*
X341003Y555946D01*
X340959Y555905D01*
X340817Y555731D01*
X340669Y555562D01*
X340636Y555511D01*
X340598Y555464D01*
X340481Y555272D01*
X340359Y555083D01*
X340334Y555029D01*
X340303Y554977D01*
X340214Y554771D01*
X340119Y554567D01*
X340102Y554509D01*
X340078Y554453D01*
X340020Y554237D01*
X339954Y554021D01*
X339945Y553962D01*
X339929Y553903D01*
X339918Y553786D01*
X339867Y553458D01*
X339864Y553233D01*
X339853Y553119D01*
X339853Y239380D01*
X338383Y235832D01*
X335096Y232545D01*
X239304Y136753D01*
X239227Y136664D01*
X239142Y136581D01*
X239040Y136449D01*
X238930Y136323D01*
X238866Y136224D01*
X238794Y136130D01*
X238740Y136029D01*
X238620Y135845D01*
X238478Y135538D01*
X238423Y135435D01*
X236633Y131112D01*
X235394Y129873D01*
X235242Y129699D01*
X235087Y129530D01*
X235056Y129485D01*
X235020Y129443D01*
X234895Y129250D01*
X234764Y129060D01*
X234740Y129011D01*
X234710Y128965D01*
X234613Y128756D01*
X234511Y128550D01*
X234493Y128498D01*
X234470Y128448D01*
X234403Y128227D01*
X234331Y128009D01*
X234321Y127955D01*
X234305Y127903D01*
X234270Y127675D01*
X234228Y127449D01*
X234226Y127394D01*
X234218Y127340D01*
X234215Y127110D01*
X234205Y126879D01*
X234211Y126825D01*
X234210Y126770D01*
X234239Y126542D01*
X234262Y126312D01*
X234275Y126259D01*
X234282Y126205D01*
X234343Y125982D01*
X234398Y125759D01*
X234418Y125708D01*
X234433Y125655D01*
X234524Y125443D01*
X234609Y125230D01*
X234637Y125182D01*
X234658Y125132D01*
X234779Y124935D01*
X234794Y124908D01*
X234796Y124905D01*
X234797Y124903D01*
X234893Y124736D01*
X234921Y124702D01*
X234955Y124646D01*
X235078Y124497D01*
X235119Y124436D01*
X235193Y124357D01*
X235317Y124205D01*
X235365Y124161D01*
X235394Y124127D01*
X236633Y122888D01*
X237269Y121352D01*
X237269Y121351D01*
X238941Y117316D01*
X238941Y111284D01*
X236633Y105712D01*
X235394Y104473D01*
X235243Y104299D01*
X235087Y104130D01*
X235056Y104084D01*
X235020Y104043D01*
X234895Y103850D01*
X234765Y103660D01*
X234740Y103611D01*
X234710Y103565D01*
X234613Y103356D01*
X234511Y103150D01*
X234493Y103098D01*
X234470Y103048D01*
X234403Y102827D01*
X234331Y102609D01*
X234321Y102555D01*
X234305Y102503D01*
X234270Y102275D01*
X234228Y102049D01*
X234226Y101994D01*
X234218Y101940D01*
X234215Y101710D01*
X234205Y101479D01*
X234211Y101425D01*
X234210Y101370D01*
X234239Y101142D01*
X234262Y100913D01*
X234275Y100859D01*
X234282Y100805D01*
X234343Y100582D01*
X234398Y100359D01*
X234418Y100308D01*
X234433Y100255D01*
X234524Y100044D01*
X234609Y99830D01*
X234637Y99782D01*
X234658Y99732D01*
X234778Y99536D01*
X234893Y99336D01*
X234921Y99301D01*
X234955Y99246D01*
X235317Y98806D01*
X235365Y98761D01*
X235394Y98727D01*
X236633Y97488D01*
X238941Y91916D01*
X238941Y85884D01*
X236633Y80312D01*
X235394Y79073D01*
X235243Y78899D01*
X235087Y78730D01*
X235056Y78684D01*
X235020Y78643D01*
X234895Y78450D01*
X234765Y78260D01*
X234740Y78211D01*
X234710Y78165D01*
X234613Y77956D01*
X234511Y77750D01*
X234493Y77698D01*
X234470Y77648D01*
X234403Y77427D01*
X234331Y77209D01*
X234321Y77155D01*
X234305Y77103D01*
X234270Y76875D01*
X234228Y76649D01*
X234226Y76594D01*
X234218Y76540D01*
X234215Y76310D01*
X234205Y76079D01*
X234211Y76025D01*
X234210Y75970D01*
X234239Y75742D01*
X234262Y75513D01*
X234275Y75459D01*
X234282Y75405D01*
X234343Y75182D01*
X234398Y74959D01*
X234418Y74908D01*
X234433Y74855D01*
X234524Y74644D01*
X234609Y74430D01*
X234637Y74382D01*
X234658Y74332D01*
X234778Y74136D01*
X234893Y73936D01*
X234921Y73901D01*
X234955Y73846D01*
X235317Y73406D01*
X235365Y73361D01*
X235394Y73327D01*
X236633Y72088D01*
X238941Y66516D01*
X238941Y60484D01*
X236611Y54860D01*
X236610Y54857D01*
X236609Y54855D01*
X236518Y54581D01*
X236430Y54320D01*
X236430Y54317D01*
X236429Y54314D01*
X236376Y54024D01*
X236327Y53759D01*
X236327Y53757D01*
X236327Y53754D01*
X236315Y53465D01*
X236303Y53190D01*
X236304Y53187D01*
X236304Y53185D01*
X236332Y52898D01*
X236359Y52623D01*
X236360Y52620D01*
X236360Y52618D01*
X236428Y52343D01*
X236494Y52069D01*
X236495Y52067D01*
X236496Y52064D01*
X236605Y51792D01*
X236705Y51540D01*
X236706Y51538D01*
X236708Y51535D01*
X236859Y51271D01*
X236988Y51045D01*
X236990Y51043D01*
X236991Y51041D01*
X237000Y51030D01*
X237337Y50595D01*
X237438Y50498D01*
X237492Y50432D01*
X239392Y48532D01*
X242196Y41763D01*
X242196Y34437D01*
X239392Y27668D01*
X234212Y22488D01*
X227443Y19684D01*
X220117Y19684D01*
X213348Y22488D01*
X209397Y26439D01*
X209310Y26515D01*
X209230Y26597D01*
X209095Y26701D01*
X208967Y26813D01*
X208870Y26875D01*
X208779Y26946D01*
X208632Y27030D01*
X208489Y27123D01*
X208384Y27171D01*
X208284Y27228D01*
X208126Y27291D01*
X207972Y27362D01*
X207862Y27396D01*
X207755Y27438D01*
X207589Y27478D01*
X207427Y27528D01*
X207313Y27545D01*
X207201Y27572D01*
X207031Y27589D01*
X206864Y27615D01*
X206749Y27617D01*
X206634Y27628D01*
X206464Y27620D01*
X206294Y27623D01*
X206180Y27608D01*
X206064Y27603D01*
X205897Y27572D01*
X205729Y27551D01*
X205617Y27520D01*
X205504Y27499D01*
X205343Y27445D01*
X205179Y27400D01*
X205073Y27355D01*
X204964Y27318D01*
X204812Y27242D01*
X204656Y27174D01*
X204558Y27114D01*
X204455Y27063D01*
X204315Y26966D01*
X204170Y26878D01*
X204081Y26804D01*
X203986Y26739D01*
X203861Y26624D01*
X203729Y26516D01*
X203652Y26431D01*
X203567Y26353D01*
X203459Y26221D01*
X203344Y26096D01*
X203279Y26001D01*
X203206Y25912D01*
X203118Y25766D01*
X203022Y25626D01*
X202970Y25523D01*
X202911Y25424D01*
X202844Y25268D01*
X202768Y25116D01*
X202732Y25006D01*
X202686Y24901D01*
X202642Y24737D01*
X202588Y24575D01*
X202567Y24462D01*
X202537Y24351D01*
X202526Y24236D01*
X202486Y24015D01*
X202472Y23683D01*
X202461Y23566D01*
X202461Y22484D01*
X200229Y17095D01*
X196105Y12971D01*
X190716Y10739D01*
X184884Y10739D01*
X179355Y13029D01*
X179298Y13048D01*
X179243Y13074D01*
X179027Y13139D01*
X178815Y13210D01*
X178755Y13221D01*
X178697Y13238D01*
X178475Y13273D01*
X178254Y13313D01*
X178194Y13316D01*
X178134Y13325D01*
X177909Y13328D01*
X177685Y13337D01*
X177625Y13331D01*
X177564Y13332D01*
X177342Y13303D01*
X177118Y13281D01*
X177059Y13267D01*
X176999Y13259D01*
X176887Y13225D01*
X176564Y13146D01*
X176355Y13063D01*
X176245Y13029D01*
X170716Y10739D01*
X164884Y10739D01*
X159495Y12971D01*
X155371Y17095D01*
X153424Y21796D01*
X153301Y22042D01*
X153180Y22288D01*
X153174Y22297D01*
X153170Y22306D01*
X153014Y22533D01*
X152859Y22759D01*
X152852Y22767D01*
X152846Y22775D01*
X152661Y22977D01*
X152476Y23181D01*
X152468Y23187D01*
X152461Y23195D01*
X152249Y23368D01*
X152037Y23544D01*
X152028Y23550D01*
X152020Y23556D01*
X151785Y23699D01*
X151552Y23843D01*
X151542Y23847D01*
X151533Y23852D01*
X151282Y23961D01*
X151029Y24071D01*
X151019Y24073D01*
X151010Y24077D01*
X150748Y24149D01*
X150480Y24223D01*
X150470Y24224D01*
X150460Y24227D01*
X150191Y24261D01*
X149915Y24297D01*
X149905Y24297D01*
X149895Y24299D01*
X149622Y24294D01*
X149346Y24292D01*
X149335Y24290D01*
X149325Y24290D01*
X149055Y24248D01*
X148782Y24207D01*
X148772Y24204D01*
X148762Y24202D01*
X148500Y24122D01*
X148236Y24043D01*
X148227Y24039D01*
X148217Y24036D01*
X147968Y23920D01*
X147719Y23805D01*
X147710Y23800D01*
X147701Y23795D01*
X147469Y23645D01*
X147239Y23497D01*
X147232Y23491D01*
X147223Y23485D01*
X147017Y23305D01*
X146808Y23125D01*
X146801Y23118D01*
X146793Y23111D01*
X146615Y22905D01*
X146432Y22697D01*
X146427Y22688D01*
X146420Y22680D01*
X146271Y22449D01*
X146121Y22220D01*
X146117Y22212D01*
X146111Y22202D01*
X145991Y21942D01*
X145194Y20379D01*
X144308Y19159D01*
X143241Y18092D01*
X142021Y17206D01*
X141063Y16718D01*
X141063Y25400D01*
X141063Y34082D01*
X142021Y33594D01*
X143241Y32708D01*
X144308Y31641D01*
X145194Y30421D01*
X145962Y28915D01*
X146010Y28793D01*
X146015Y28784D01*
X146019Y28775D01*
X146156Y28538D01*
X146293Y28299D01*
X146299Y28291D01*
X146305Y28282D01*
X146474Y28065D01*
X146642Y27849D01*
X146650Y27841D01*
X146656Y27833D01*
X146857Y27641D01*
X147051Y27452D01*
X147059Y27446D01*
X147067Y27438D01*
X147290Y27278D01*
X147512Y27116D01*
X147521Y27111D01*
X147529Y27105D01*
X147768Y26979D01*
X148014Y26848D01*
X148024Y26844D01*
X148033Y26840D01*
X148287Y26748D01*
X148550Y26653D01*
X148560Y26651D01*
X148570Y26647D01*
X148836Y26592D01*
X149107Y26534D01*
X149118Y26534D01*
X149128Y26532D01*
X149399Y26514D01*
X149675Y26495D01*
X149686Y26496D01*
X149696Y26495D01*
X149970Y26516D01*
X150244Y26536D01*
X150254Y26538D01*
X150264Y26539D01*
X150535Y26599D01*
X150801Y26656D01*
X150811Y26659D01*
X150821Y26662D01*
X151081Y26759D01*
X151336Y26852D01*
X151345Y26857D01*
X151355Y26861D01*
X151600Y26994D01*
X151838Y27122D01*
X151846Y27128D01*
X151855Y27133D01*
X152076Y27297D01*
X152297Y27459D01*
X152305Y27466D01*
X152313Y27472D01*
X152507Y27663D01*
X152705Y27857D01*
X152711Y27865D01*
X152719Y27872D01*
X152885Y28091D01*
X153053Y28308D01*
X153057Y28316D01*
X153064Y28325D01*
X153344Y28822D01*
X153388Y28936D01*
X153424Y29004D01*
X155371Y33705D01*
X156957Y35291D01*
X156997Y35336D01*
X157041Y35377D01*
X157183Y35551D01*
X157331Y35721D01*
X157364Y35771D01*
X157402Y35818D01*
X157519Y36011D01*
X157641Y36199D01*
X157666Y36254D01*
X157697Y36305D01*
X157786Y36512D01*
X157881Y36716D01*
X157898Y36774D01*
X157922Y36829D01*
X157980Y37046D01*
X158046Y37261D01*
X158055Y37321D01*
X158071Y37379D01*
X158082Y37496D01*
X158133Y37824D01*
X158136Y38049D01*
X158147Y38164D01*
X158147Y181873D01*
X160003Y186355D01*
X171400Y197751D01*
X171451Y197810D01*
X171507Y197862D01*
X171637Y198024D01*
X171774Y198182D01*
X171816Y198246D01*
X171864Y198306D01*
X171971Y198485D01*
X172084Y198660D01*
X172116Y198730D01*
X172156Y198796D01*
X172236Y198988D01*
X172324Y199177D01*
X172346Y199250D01*
X172376Y199321D01*
X172429Y199523D01*
X172489Y199722D01*
X172501Y199798D01*
X172520Y199872D01*
X172544Y200079D01*
X172576Y200285D01*
X172577Y200362D01*
X172586Y200438D01*
X172581Y200646D01*
X172584Y200855D01*
X172574Y200931D01*
X172572Y201008D01*
X172538Y201213D01*
X172512Y201420D01*
X172492Y201494D01*
X172479Y201570D01*
X172417Y201768D01*
X172362Y201970D01*
X172331Y202040D01*
X172308Y202113D01*
X172218Y202301D01*
X172136Y202493D01*
X172096Y202558D01*
X172063Y202628D01*
X171948Y202801D01*
X171839Y202979D01*
X171790Y203038D01*
X171748Y203103D01*
X171609Y203258D01*
X171477Y203419D01*
X171420Y203471D01*
X171369Y203529D01*
X171211Y203663D01*
X171057Y203804D01*
X170994Y203848D01*
X170935Y203898D01*
X170759Y204009D01*
X170587Y204127D01*
X170518Y204161D01*
X170454Y204202D01*
X170264Y204288D01*
X170077Y204381D01*
X170004Y204405D01*
X169934Y204437D01*
X169734Y204495D01*
X169537Y204561D01*
X169461Y204574D01*
X169387Y204596D01*
X169181Y204626D01*
X168976Y204663D01*
X168899Y204666D01*
X168823Y204677D01*
X168615Y204678D01*
X168407Y204686D01*
X168330Y204678D01*
X168253Y204679D01*
X168134Y204659D01*
X167840Y204629D01*
X167594Y204569D01*
X167476Y204549D01*
X163333Y203439D01*
X156708Y203439D01*
X150308Y205154D01*
X144571Y208466D01*
X139886Y213151D01*
X136574Y218888D01*
X134789Y225551D01*
X134776Y225587D01*
X134768Y225625D01*
X134684Y225856D01*
X134618Y226052D01*
X134612Y226064D01*
X134603Y226089D01*
X134586Y226123D01*
X134572Y226160D01*
X134456Y226378D01*
X134405Y226478D01*
X134362Y226562D01*
X134359Y226567D01*
X134344Y226597D01*
X134322Y226628D01*
X134304Y226662D01*
X134158Y226861D01*
X134016Y227063D01*
X133990Y227091D01*
X133967Y227122D01*
X133795Y227299D01*
X133627Y227479D01*
X133597Y227503D01*
X133570Y227530D01*
X133375Y227681D01*
X133183Y227836D01*
X133150Y227855D01*
X133119Y227879D01*
X132905Y228001D01*
X132693Y228127D01*
X132658Y228142D01*
X132624Y228161D01*
X132394Y228252D01*
X132168Y228347D01*
X132131Y228357D01*
X132095Y228371D01*
X131854Y228430D01*
X131616Y228492D01*
X131578Y228496D01*
X131541Y228506D01*
X131295Y228529D01*
X131050Y228558D01*
X131012Y228557D01*
X130974Y228561D01*
X130726Y228550D01*
X130481Y228544D01*
X130443Y228538D01*
X130404Y228536D01*
X130161Y228491D01*
X129919Y228451D01*
X129882Y228439D01*
X129844Y228432D01*
X129739Y228397D01*
X129738Y228397D01*
X129737Y228396D01*
X129610Y228354D01*
X129375Y228280D01*
X129340Y228263D01*
X129304Y228251D01*
X129207Y228202D01*
X129203Y228201D01*
X129190Y228194D01*
X129083Y228140D01*
X128861Y228034D01*
X128829Y228013D01*
X128795Y227996D01*
X128708Y227936D01*
X128701Y227932D01*
X128675Y227913D01*
X128591Y227855D01*
X128386Y227719D01*
X128357Y227694D01*
X128326Y227672D01*
X128251Y227603D01*
X128241Y227596D01*
X128203Y227559D01*
X128144Y227504D01*
X127960Y227341D01*
X127935Y227312D01*
X127907Y227286D01*
X127846Y227211D01*
X127833Y227198D01*
X127785Y227137D01*
X127750Y227094D01*
X127591Y226907D01*
X127570Y226874D01*
X127546Y226845D01*
X127499Y226767D01*
X127484Y226748D01*
X127432Y226657D01*
X127418Y226634D01*
X127286Y226425D01*
X127271Y226390D01*
X127251Y226357D01*
X127218Y226281D01*
X127202Y226253D01*
X127152Y226128D01*
X127052Y225906D01*
X127041Y225869D01*
X127026Y225834D01*
X127006Y225760D01*
X126992Y225723D01*
X126956Y225575D01*
X126893Y225359D01*
X126887Y225321D01*
X126877Y225284D01*
X126872Y225229D01*
X126857Y225169D01*
X126841Y224998D01*
X126812Y224795D01*
X126811Y224770D01*
X125641Y221943D01*
X123497Y219799D01*
X120696Y218639D01*
X91948Y218639D01*
X91719Y218623D01*
X91488Y218613D01*
X91434Y218603D01*
X91380Y218599D01*
X91154Y218551D01*
X90928Y218509D01*
X90876Y218492D01*
X90822Y218480D01*
X90606Y218401D01*
X90388Y218328D01*
X90339Y218303D01*
X90287Y218284D01*
X90084Y218176D01*
X89879Y218073D01*
X89833Y218042D01*
X89785Y218016D01*
X89599Y217880D01*
X89410Y217749D01*
X89369Y217712D01*
X89325Y217679D01*
X89160Y217519D01*
X88991Y217363D01*
X88956Y217320D01*
X88917Y217282D01*
X88776Y217100D01*
X88630Y216922D01*
X88602Y216874D01*
X88568Y216831D01*
X88454Y216631D01*
X88335Y216434D01*
X88313Y216384D01*
X88286Y216336D01*
X88201Y216122D01*
X88110Y215911D01*
X88096Y215858D01*
X88076Y215807D01*
X88021Y215582D01*
X87961Y215361D01*
X87957Y215317D01*
X87941Y215253D01*
X87886Y214686D01*
X87889Y214620D01*
X87885Y214576D01*
X87885Y84764D01*
X87897Y84591D01*
X87899Y84419D01*
X87917Y84308D01*
X87925Y84195D01*
X87961Y84026D01*
X87987Y83856D01*
X88020Y83748D01*
X88044Y83638D01*
X88103Y83476D01*
X88153Y83310D01*
X88201Y83209D01*
X88240Y83103D01*
X88321Y82950D01*
X88394Y82794D01*
X88455Y82700D01*
X88508Y82600D01*
X88610Y82461D01*
X88704Y82316D01*
X88778Y82231D01*
X88845Y82141D01*
X88965Y82017D01*
X89079Y81887D01*
X89164Y81813D01*
X89242Y81732D01*
X89379Y81626D01*
X89509Y81513D01*
X89604Y81452D01*
X89693Y81384D01*
X89843Y81298D01*
X89988Y81204D01*
X90090Y81157D01*
X90188Y81101D01*
X90348Y81038D01*
X90505Y80965D01*
X90613Y80933D01*
X90717Y80891D01*
X90886Y80850D01*
X91051Y80801D01*
X91162Y80784D01*
X91271Y80757D01*
X91443Y80740D01*
X91614Y80714D01*
X91726Y80713D01*
X91838Y80702D01*
X92011Y80709D01*
X92184Y80707D01*
X92295Y80722D01*
X92408Y80726D01*
X92578Y80758D01*
X92749Y80780D01*
X92830Y80805D01*
X92968Y80830D01*
X93399Y80975D01*
X93930Y81081D01*
X102617Y81081D01*
X102617Y66040D01*
X102617Y50999D01*
X93930Y50999D01*
X93401Y51104D01*
X93339Y51125D01*
X93179Y51189D01*
X93069Y51215D01*
X92963Y51251D01*
X92793Y51282D01*
X92625Y51323D01*
X92513Y51334D01*
X92402Y51354D01*
X92230Y51361D01*
X92058Y51378D01*
X91945Y51373D01*
X91833Y51378D01*
X91661Y51361D01*
X91488Y51354D01*
X91378Y51333D01*
X91266Y51322D01*
X91098Y51281D01*
X90928Y51250D01*
X90822Y51214D01*
X90712Y51187D01*
X90552Y51123D01*
X90388Y51068D01*
X90287Y51018D01*
X90183Y50976D01*
X90033Y50891D01*
X89879Y50813D01*
X89786Y50749D01*
X89688Y50693D01*
X89552Y50588D01*
X89410Y50489D01*
X89327Y50413D01*
X89238Y50344D01*
X89118Y50220D01*
X88991Y50103D01*
X88920Y50016D01*
X88841Y49935D01*
X88740Y49796D01*
X88630Y49662D01*
X88572Y49566D01*
X88506Y49475D01*
X88424Y49323D01*
X88335Y49175D01*
X88290Y49072D01*
X88237Y48972D01*
X88178Y48810D01*
X88110Y48651D01*
X88081Y48543D01*
X88042Y48437D01*
X88006Y48268D01*
X87961Y48101D01*
X87953Y48016D01*
X87924Y47879D01*
X87886Y47329D01*
X87885Y47316D01*
X87885Y41148D01*
X87901Y40919D01*
X87911Y40688D01*
X87921Y40634D01*
X87925Y40580D01*
X87973Y40354D01*
X88015Y40128D01*
X88032Y40076D01*
X88044Y40022D01*
X88123Y39806D01*
X88196Y39588D01*
X88221Y39539D01*
X88240Y39487D01*
X88348Y39284D01*
X88451Y39079D01*
X88482Y39033D01*
X88508Y38985D01*
X88644Y38799D01*
X88775Y38610D01*
X88812Y38569D01*
X88845Y38525D01*
X89005Y38360D01*
X89161Y38191D01*
X89204Y38156D01*
X89242Y38117D01*
X89424Y37976D01*
X89602Y37830D01*
X89650Y37802D01*
X89693Y37768D01*
X89893Y37654D01*
X90090Y37535D01*
X90140Y37513D01*
X90188Y37486D01*
X90402Y37401D01*
X90613Y37310D01*
X90666Y37296D01*
X90717Y37276D01*
X90942Y37221D01*
X91163Y37161D01*
X91207Y37157D01*
X91271Y37141D01*
X91838Y37086D01*
X91904Y37089D01*
X91948Y37085D01*
X106268Y37085D01*
X106329Y37089D01*
X106389Y37087D01*
X106613Y37109D01*
X106837Y37125D01*
X106896Y37137D01*
X106956Y37143D01*
X107175Y37197D01*
X107394Y37244D01*
X107451Y37265D01*
X107510Y37279D01*
X107718Y37362D01*
X107929Y37440D01*
X107983Y37468D01*
X108039Y37491D01*
X108233Y37602D01*
X108431Y37708D01*
X108466Y37734D01*
X114084Y40061D01*
X119916Y40061D01*
X125305Y37829D01*
X128275Y34858D01*
X128398Y34752D01*
X128514Y34638D01*
X128613Y34565D01*
X128705Y34485D01*
X128842Y34396D01*
X128972Y34300D01*
X129080Y34242D01*
X129184Y34175D01*
X129331Y34107D01*
X129474Y34029D01*
X129589Y33987D01*
X129700Y33935D01*
X129856Y33888D01*
X130008Y33831D01*
X130128Y33805D01*
X130246Y33770D01*
X130406Y33745D01*
X130565Y33710D01*
X130687Y33701D01*
X130809Y33682D01*
X130971Y33680D01*
X131133Y33668D01*
X131256Y33676D01*
X131378Y33675D01*
X131540Y33695D01*
X131701Y33706D01*
X131822Y33731D01*
X131944Y33747D01*
X132100Y33790D01*
X132259Y33823D01*
X132345Y33857D01*
X132493Y33897D01*
X132937Y34089D01*
X132937Y25400D01*
X132937Y16713D01*
X132843Y16752D01*
X132698Y16825D01*
X132582Y16863D01*
X132468Y16911D01*
X132312Y16953D01*
X132158Y17004D01*
X132037Y17027D01*
X131918Y17058D01*
X131757Y17078D01*
X131597Y17107D01*
X131474Y17112D01*
X131352Y17127D01*
X131190Y17123D01*
X131028Y17130D01*
X130905Y17118D01*
X130783Y17115D01*
X130622Y17089D01*
X130461Y17073D01*
X130342Y17044D01*
X130220Y17024D01*
X130065Y16976D01*
X129907Y16938D01*
X129793Y16892D01*
X129676Y16856D01*
X129529Y16786D01*
X129378Y16726D01*
X129272Y16665D01*
X129161Y16612D01*
X129025Y16523D01*
X128884Y16443D01*
X128813Y16384D01*
X128684Y16300D01*
X128316Y15975D01*
X128275Y15942D01*
X125305Y12971D01*
X119916Y10739D01*
X114084Y10739D01*
X108431Y13081D01*
X108422Y13086D01*
X108234Y13208D01*
X108178Y13234D01*
X108127Y13265D01*
X107921Y13354D01*
X107717Y13448D01*
X107659Y13466D01*
X107603Y13490D01*
X107386Y13549D01*
X107171Y13614D01*
X107112Y13623D01*
X107053Y13639D01*
X106936Y13650D01*
X106608Y13701D01*
X106383Y13704D01*
X106268Y13715D01*
X76419Y13715D01*
X70958Y15978D01*
X67897Y19038D01*
X67810Y19113D01*
X67730Y19196D01*
X67595Y19300D01*
X67467Y19412D01*
X67370Y19474D01*
X67279Y19545D01*
X67132Y19629D01*
X66989Y19722D01*
X66884Y19770D01*
X66784Y19827D01*
X66626Y19890D01*
X66472Y19961D01*
X66362Y19995D01*
X66255Y20037D01*
X66089Y20077D01*
X65927Y20127D01*
X65813Y20144D01*
X65701Y20171D01*
X65531Y20188D01*
X65364Y20214D01*
X65249Y20215D01*
X65134Y20227D01*
X64964Y20219D01*
X64794Y20222D01*
X64680Y20207D01*
X64564Y20202D01*
X64397Y20171D01*
X64229Y20150D01*
X64117Y20119D01*
X64004Y20098D01*
X63843Y20044D01*
X63679Y19999D01*
X63573Y19953D01*
X63464Y19917D01*
X63312Y19841D01*
X63156Y19773D01*
X63058Y19713D01*
X62955Y19662D01*
X62815Y19565D01*
X62670Y19476D01*
X62581Y19403D01*
X62486Y19338D01*
X62361Y19223D01*
X62229Y19115D01*
X62152Y19030D01*
X62067Y18952D01*
X61959Y18820D01*
X61844Y18695D01*
X61779Y18600D01*
X61706Y18510D01*
X61618Y18365D01*
X61522Y18225D01*
X61470Y18122D01*
X61411Y18023D01*
X61344Y17867D01*
X61268Y17715D01*
X61232Y17605D01*
X61186Y17500D01*
X61142Y17336D01*
X61088Y17174D01*
X61067Y17061D01*
X61037Y16950D01*
X61026Y16835D01*
X60986Y16614D01*
X60972Y16282D01*
X60961Y16165D01*
X60961Y-11176D01*
X60977Y-11405D01*
X60987Y-11636D01*
X60997Y-11690D01*
X61001Y-11744D01*
X61049Y-11970D01*
X61091Y-12196D01*
X61108Y-12248D01*
X61120Y-12302D01*
X61199Y-12518D01*
X61272Y-12736D01*
X61297Y-12785D01*
X61316Y-12837D01*
X61424Y-13040D01*
X61527Y-13245D01*
X61558Y-13291D01*
X61584Y-13339D01*
X61720Y-13525D01*
X61851Y-13714D01*
X61888Y-13755D01*
X61921Y-13799D01*
X62081Y-13964D01*
X62237Y-14133D01*
X62280Y-14168D01*
X62318Y-14207D01*
X62500Y-14348D01*
X62678Y-14494D01*
X62726Y-14522D01*
X62769Y-14556D01*
X62969Y-14670D01*
X63166Y-14789D01*
X63216Y-14811D01*
X63264Y-14838D01*
X63478Y-14923D01*
X63689Y-15014D01*
X63742Y-15028D01*
X63793Y-15048D01*
X64018Y-15103D01*
X64239Y-15163D01*
X64283Y-15167D01*
X64347Y-15183D01*
X64914Y-15238D01*
X64980Y-15235D01*
X65024Y-15239D01*
X541276Y-15239D01*
X541505Y-15223D01*
G37*
G36*
X131077Y228653D02*
X131077Y228653D01*
X131324Y228664D01*
X131361Y228671D01*
X131400Y228673D01*
X131641Y228723D01*
X131884Y228768D01*
X131920Y228780D01*
X131958Y228788D01*
X132190Y228870D01*
X132424Y228949D01*
X132458Y228966D01*
X132495Y228979D01*
X132712Y229093D01*
X132933Y229204D01*
X132965Y229226D01*
X132999Y229244D01*
X133199Y229388D01*
X133402Y229528D01*
X133431Y229554D01*
X133462Y229577D01*
X133640Y229747D01*
X133821Y229914D01*
X133845Y229944D01*
X133873Y229971D01*
X134025Y230164D01*
X134182Y230355D01*
X134202Y230388D01*
X134226Y230419D01*
X134349Y230632D01*
X134477Y230843D01*
X134492Y230878D01*
X134512Y230911D01*
X134548Y231006D01*
X134702Y231366D01*
X134752Y231550D01*
X134789Y231649D01*
X136574Y238312D01*
X139886Y244049D01*
X144571Y248734D01*
X150308Y252046D01*
X156708Y253761D01*
X163332Y253761D01*
X169732Y252046D01*
X174752Y249147D01*
X174890Y249080D01*
X175024Y249004D01*
X175146Y248955D01*
X175265Y248898D01*
X175410Y248851D01*
X175553Y248794D01*
X175681Y248763D01*
X175807Y248722D01*
X175958Y248696D01*
X176107Y248660D01*
X176238Y248647D01*
X176368Y248624D01*
X176521Y248619D01*
X176674Y248604D01*
X176806Y248610D01*
X176937Y248606D01*
X177090Y248622D01*
X177244Y248629D01*
X177373Y248653D01*
X177504Y248667D01*
X177653Y248705D01*
X177804Y248733D01*
X177929Y248775D01*
X178056Y248807D01*
X178198Y248865D01*
X178344Y248914D01*
X178462Y248973D01*
X178584Y249023D01*
X178716Y249101D01*
X178853Y249169D01*
X178962Y249244D01*
X179075Y249311D01*
X179196Y249406D01*
X179322Y249493D01*
X179419Y249583D01*
X179522Y249664D01*
X179628Y249775D01*
X179741Y249880D01*
X179825Y249982D01*
X179915Y250077D01*
X180005Y250202D01*
X180102Y250321D01*
X180170Y250433D01*
X180247Y250540D01*
X180318Y250676D01*
X180397Y250808D01*
X180449Y250929D01*
X180510Y251046D01*
X180561Y251190D01*
X180622Y251332D01*
X180656Y251459D01*
X180700Y251583D01*
X180731Y251733D01*
X180771Y251882D01*
X180780Y251978D01*
X180813Y252141D01*
X180840Y252591D01*
X180847Y252666D01*
X180847Y387193D01*
X182703Y391675D01*
X207429Y416400D01*
X207469Y416446D01*
X207513Y416487D01*
X207655Y416661D01*
X207803Y416830D01*
X207836Y416881D01*
X207874Y416928D01*
X207991Y417120D01*
X208113Y417309D01*
X208138Y417363D01*
X208169Y417415D01*
X208258Y417621D01*
X208353Y417825D01*
X208370Y417883D01*
X208394Y417939D01*
X208452Y418155D01*
X208518Y418371D01*
X208527Y418430D01*
X208543Y418489D01*
X208554Y418606D01*
X208605Y418934D01*
X208608Y419159D01*
X208619Y419273D01*
X208619Y428156D01*
X209180Y429509D01*
X209181Y429512D01*
X209182Y429514D01*
X209271Y429781D01*
X209360Y430050D01*
X209361Y430052D01*
X209362Y430055D01*
X209410Y430319D01*
X209464Y430610D01*
X209464Y430613D01*
X209464Y430615D01*
X209476Y430902D01*
X209487Y431179D01*
X209487Y431182D01*
X209487Y431185D01*
X209460Y431461D01*
X209431Y431746D01*
X209431Y431749D01*
X209431Y431752D01*
X209363Y432026D01*
X209297Y432300D01*
X209296Y432302D01*
X209295Y432305D01*
X209190Y432567D01*
X209086Y432829D01*
X209084Y432832D01*
X209083Y432834D01*
X208946Y433073D01*
X208803Y433324D01*
X208801Y433326D01*
X208800Y433328D01*
X208791Y433338D01*
X208454Y433774D01*
X208353Y433871D01*
X208299Y433937D01*
X208168Y434068D01*
X205364Y440837D01*
X205364Y448163D01*
X208168Y454932D01*
X213348Y460112D01*
X220117Y462916D01*
X227584Y462916D01*
X227813Y462932D01*
X228044Y462942D01*
X228098Y462952D01*
X228152Y462956D01*
X228378Y463004D01*
X228604Y463046D01*
X228656Y463063D01*
X228710Y463075D01*
X228926Y463154D01*
X229144Y463227D01*
X229193Y463252D01*
X229245Y463271D01*
X229448Y463379D01*
X229653Y463482D01*
X229699Y463513D01*
X229747Y463539D01*
X229933Y463675D01*
X230122Y463806D01*
X230163Y463843D01*
X230207Y463876D01*
X230372Y464036D01*
X230541Y464192D01*
X230576Y464235D01*
X230615Y464273D01*
X230756Y464455D01*
X230902Y464633D01*
X230930Y464681D01*
X230964Y464724D01*
X231078Y464924D01*
X231197Y465121D01*
X231219Y465171D01*
X231246Y465219D01*
X231331Y465433D01*
X231422Y465644D01*
X231436Y465697D01*
X231456Y465748D01*
X231511Y465973D01*
X231571Y466194D01*
X231575Y466238D01*
X231591Y466302D01*
X231646Y466869D01*
X231643Y466935D01*
X231647Y466979D01*
X231647Y591219D01*
X231643Y591279D01*
X231645Y591339D01*
X231623Y591563D01*
X231607Y591787D01*
X231595Y591846D01*
X231589Y591906D01*
X231535Y592124D01*
X231488Y592344D01*
X231468Y592401D01*
X231453Y592460D01*
X231370Y592668D01*
X231292Y592879D01*
X231264Y592933D01*
X231242Y592989D01*
X231130Y593184D01*
X231024Y593382D01*
X230988Y593430D01*
X230958Y593483D01*
X230883Y593574D01*
X230687Y593842D01*
X230530Y594003D01*
X230457Y594092D01*
X207717Y616832D01*
X206247Y620380D01*
X206247Y715396D01*
X206243Y715456D01*
X206245Y715517D01*
X206223Y715740D01*
X206207Y715964D01*
X206195Y716024D01*
X206189Y716084D01*
X206135Y716302D01*
X206088Y716522D01*
X206068Y716578D01*
X206053Y716637D01*
X205970Y716846D01*
X205892Y717057D01*
X205864Y717110D01*
X205841Y717166D01*
X205730Y717361D01*
X205624Y717559D01*
X205588Y717608D01*
X205558Y717660D01*
X205483Y717751D01*
X205287Y718019D01*
X205130Y718180D01*
X205057Y718269D01*
X202980Y720347D01*
X200659Y725948D01*
X200659Y746252D01*
X200643Y746481D01*
X200633Y746712D01*
X200623Y746766D01*
X200619Y746820D01*
X200571Y747046D01*
X200529Y747272D01*
X200512Y747324D01*
X200500Y747378D01*
X200421Y747594D01*
X200348Y747812D01*
X200323Y747861D01*
X200304Y747913D01*
X200196Y748116D01*
X200093Y748321D01*
X200062Y748367D01*
X200036Y748415D01*
X199900Y748601D01*
X199769Y748790D01*
X199732Y748831D01*
X199699Y748875D01*
X199539Y749040D01*
X199383Y749209D01*
X199340Y749244D01*
X199302Y749283D01*
X199120Y749424D01*
X198942Y749570D01*
X198894Y749598D01*
X198851Y749632D01*
X198651Y749746D01*
X198454Y749865D01*
X198404Y749887D01*
X198356Y749914D01*
X198142Y749999D01*
X197931Y750090D01*
X197878Y750104D01*
X197827Y750124D01*
X197602Y750179D01*
X197381Y750239D01*
X197337Y750243D01*
X197273Y750259D01*
X196706Y750314D01*
X196640Y750311D01*
X196596Y750315D01*
X188176Y750315D01*
X183881Y752094D01*
X173804Y762171D01*
X173764Y762206D01*
X173728Y762246D01*
X173549Y762393D01*
X173374Y762545D01*
X173329Y762574D01*
X173288Y762608D01*
X173090Y762729D01*
X172896Y762855D01*
X172847Y762877D01*
X172802Y762905D01*
X172589Y762997D01*
X172379Y763094D01*
X172328Y763110D01*
X172279Y763131D01*
X172055Y763193D01*
X171834Y763260D01*
X171781Y763268D01*
X171729Y763282D01*
X171500Y763311D01*
X171271Y763347D01*
X171217Y763348D01*
X171164Y763354D01*
X170933Y763351D01*
X170701Y763355D01*
X170648Y763348D01*
X170594Y763347D01*
X170366Y763312D01*
X170136Y763283D01*
X170084Y763268D01*
X170031Y763260D01*
X169810Y763193D01*
X169586Y763132D01*
X169537Y763111D01*
X169486Y763095D01*
X169276Y762998D01*
X169063Y762906D01*
X169017Y762878D01*
X168969Y762856D01*
X168774Y762730D01*
X168577Y762609D01*
X168535Y762576D01*
X168490Y762546D01*
X168315Y762394D01*
X168137Y762248D01*
X168100Y762208D01*
X168060Y762173D01*
X167908Y761998D01*
X167751Y761828D01*
X167721Y761783D01*
X167686Y761743D01*
X167560Y761549D01*
X167429Y761358D01*
X167405Y761310D01*
X167376Y761265D01*
X167278Y761055D01*
X167175Y760848D01*
X167158Y760797D01*
X167136Y760748D01*
X167068Y760527D01*
X166995Y760307D01*
X166986Y760255D01*
X166970Y760203D01*
X166955Y760090D01*
X166893Y759747D01*
X166884Y759533D01*
X166870Y759421D01*
X166839Y758425D01*
X166848Y758219D01*
X166848Y758014D01*
X166858Y757952D01*
X166862Y757855D01*
X166964Y757295D01*
X166975Y757261D01*
X166980Y757236D01*
X168191Y752777D01*
X167200Y747824D01*
X164103Y743833D01*
X159552Y741644D01*
X157026Y741680D01*
X154551Y741715D01*
X153067Y741737D01*
X150608Y742621D01*
X150423Y742674D01*
X150240Y742734D01*
X150149Y742751D01*
X150060Y742776D01*
X149869Y742802D01*
X149680Y742837D01*
X149587Y742840D01*
X149495Y742853D01*
X149303Y742852D01*
X149110Y742859D01*
X149039Y742850D01*
X148925Y742850D01*
X148362Y742767D01*
X148342Y742761D01*
X148328Y742759D01*
X142244Y741371D01*
X136373Y742711D01*
X136213Y742772D01*
X136131Y742790D01*
X136052Y742817D01*
X135853Y742853D01*
X135658Y742898D01*
X135574Y742905D01*
X135491Y742920D01*
X135290Y742929D01*
X135090Y742945D01*
X135006Y742941D01*
X134922Y742944D01*
X134721Y742924D01*
X134521Y742913D01*
X134457Y742898D01*
X134355Y742888D01*
X133801Y742753D01*
X133773Y742742D01*
X133752Y742737D01*
X132708Y742389D01*
X132182Y742172D01*
X132179Y742170D01*
X132176Y742169D01*
X131476Y741819D01*
X131377Y741812D01*
X131264Y741795D01*
X131149Y741789D01*
X131037Y741763D01*
X130813Y741731D01*
X130496Y741640D01*
X130381Y741613D01*
X130287Y741582D01*
X129506Y741638D01*
X128937Y741638D01*
X128933Y741638D01*
X128930Y741638D01*
X128149Y741582D01*
X128056Y741613D01*
X127945Y741642D01*
X127836Y741680D01*
X127722Y741699D01*
X127504Y741755D01*
X127176Y741792D01*
X127059Y741812D01*
X126961Y741819D01*
X126260Y742169D01*
X125734Y742387D01*
X125731Y742388D01*
X125728Y742389D01*
X124951Y742648D01*
X124855Y742711D01*
X124741Y742796D01*
X124615Y742865D01*
X124495Y742943D01*
X124366Y743003D01*
X124242Y743071D01*
X124108Y743122D01*
X123977Y743182D01*
X123842Y743223D01*
X123710Y743273D01*
X123570Y743305D01*
X123432Y743347D01*
X123292Y743368D01*
X123154Y743400D01*
X123011Y743411D01*
X122869Y743433D01*
X122727Y743435D01*
X122586Y743447D01*
X122443Y743439D01*
X122299Y743440D01*
X122159Y743422D01*
X122017Y743414D01*
X121876Y743386D01*
X121734Y743367D01*
X121636Y743338D01*
X121459Y743302D01*
X121069Y743165D01*
X120980Y743138D01*
X117458Y741679D01*
X114123Y741679D01*
X113882Y741779D01*
X113824Y741799D01*
X113770Y741824D01*
X113555Y741889D01*
X113341Y741960D01*
X113282Y741971D01*
X113224Y741988D01*
X113002Y742023D01*
X112781Y742063D01*
X112721Y742066D01*
X112661Y742075D01*
X112436Y742078D01*
X112212Y742087D01*
X112152Y742081D01*
X112091Y742082D01*
X111869Y742053D01*
X111645Y742031D01*
X111586Y742017D01*
X111526Y742009D01*
X111414Y741975D01*
X111091Y741896D01*
X110882Y741813D01*
X110772Y741779D01*
X110530Y741679D01*
X102141Y741679D01*
X100271Y742454D01*
X100107Y742509D01*
X99946Y742572D01*
X99837Y742599D01*
X99731Y742634D01*
X99560Y742666D01*
X99392Y742706D01*
X99281Y742717D01*
X99171Y742737D01*
X98997Y742745D01*
X98825Y742761D01*
X98713Y742757D01*
X98601Y742761D01*
X98429Y742744D01*
X98256Y742737D01*
X98146Y742716D01*
X98034Y742705D01*
X97866Y742664D01*
X97696Y742633D01*
X97616Y742603D01*
X97481Y742570D01*
X96965Y742365D01*
X96955Y742361D01*
X95464Y741644D01*
X92938Y741680D01*
X90463Y741715D01*
X88979Y741737D01*
X85253Y743077D01*
X83684Y743642D01*
X82570Y744655D01*
X82465Y744738D01*
X82366Y744829D01*
X82241Y744914D01*
X82123Y745008D01*
X82007Y745075D01*
X81896Y745151D01*
X81761Y745219D01*
X81631Y745294D01*
X81506Y745345D01*
X81386Y745405D01*
X81243Y745453D01*
X81103Y745510D01*
X80973Y745543D01*
X80845Y745585D01*
X80697Y745612D01*
X80551Y745649D01*
X80417Y745663D01*
X80285Y745687D01*
X80134Y745694D01*
X79984Y745710D01*
X79850Y745705D01*
X79716Y745710D01*
X79565Y745695D01*
X79415Y745690D01*
X79282Y745667D01*
X79149Y745654D01*
X79002Y745618D01*
X78853Y745592D01*
X78726Y745550D01*
X78595Y745518D01*
X78455Y745462D01*
X78312Y745415D01*
X78191Y745356D01*
X78066Y745306D01*
X77935Y745231D01*
X77800Y745165D01*
X77688Y745090D01*
X77572Y745023D01*
X77489Y744955D01*
X77328Y744846D01*
X77044Y744589D01*
X76963Y744522D01*
X76084Y743643D01*
X71343Y741679D01*
X66124Y741679D01*
X66039Y741708D01*
X65869Y741739D01*
X65701Y741780D01*
X65589Y741791D01*
X65478Y741811D01*
X65306Y741818D01*
X65134Y741835D01*
X65021Y741830D01*
X64909Y741835D01*
X64737Y741818D01*
X64564Y741810D01*
X64454Y741790D01*
X64342Y741779D01*
X64174Y741738D01*
X64004Y741706D01*
X63898Y741671D01*
X63788Y741644D01*
X63628Y741580D01*
X63464Y741525D01*
X63363Y741475D01*
X63259Y741433D01*
X63109Y741348D01*
X62955Y741270D01*
X62862Y741206D01*
X62764Y741150D01*
X62628Y741045D01*
X62486Y740946D01*
X62403Y740870D01*
X62314Y740801D01*
X62194Y740677D01*
X62067Y740560D01*
X61996Y740473D01*
X61917Y740392D01*
X61816Y740253D01*
X61706Y740119D01*
X61648Y740023D01*
X61582Y739932D01*
X61500Y739779D01*
X61411Y739632D01*
X61366Y739528D01*
X61313Y739429D01*
X61254Y739267D01*
X61186Y739108D01*
X61157Y739000D01*
X61118Y738894D01*
X61082Y738725D01*
X61037Y738558D01*
X61029Y738473D01*
X61000Y738336D01*
X60962Y737786D01*
X60961Y737773D01*
X60961Y709595D01*
X60969Y709480D01*
X60967Y709365D01*
X60989Y709196D01*
X61001Y709027D01*
X61025Y708914D01*
X61039Y708800D01*
X61084Y708636D01*
X61120Y708469D01*
X61159Y708361D01*
X61190Y708250D01*
X61257Y708094D01*
X61316Y707934D01*
X61370Y707833D01*
X61416Y707727D01*
X61504Y707582D01*
X61584Y707432D01*
X61652Y707339D01*
X61712Y707240D01*
X61820Y707109D01*
X61921Y706972D01*
X62001Y706889D01*
X62074Y706800D01*
X62200Y706686D01*
X62318Y706564D01*
X62409Y706493D01*
X62494Y706415D01*
X62634Y706319D01*
X62769Y706215D01*
X62869Y706158D01*
X62964Y706093D01*
X63116Y706017D01*
X63264Y705933D01*
X63371Y705890D01*
X63474Y705839D01*
X63635Y705785D01*
X63793Y705723D01*
X63906Y705695D01*
X64015Y705659D01*
X64182Y705629D01*
X64347Y705588D01*
X64462Y705577D01*
X64575Y705557D01*
X64745Y705550D01*
X64914Y705533D01*
X65029Y705538D01*
X65145Y705533D01*
X65314Y705550D01*
X65484Y705558D01*
X65597Y705579D01*
X65712Y705590D01*
X65877Y705631D01*
X66044Y705662D01*
X66153Y705698D01*
X66265Y705726D01*
X66423Y705789D01*
X66584Y705843D01*
X66687Y705895D01*
X66794Y705937D01*
X66941Y706022D01*
X67093Y706098D01*
X67188Y706164D01*
X67288Y706221D01*
X67377Y706294D01*
X67562Y706422D01*
X67806Y706647D01*
X67897Y706722D01*
X69581Y708406D01*
X73876Y710185D01*
X83931Y710185D01*
X83934Y710185D01*
X83936Y710185D01*
X84218Y710205D01*
X84499Y710225D01*
X84502Y710225D01*
X84505Y710225D01*
X84780Y710285D01*
X85056Y710344D01*
X85059Y710345D01*
X85062Y710345D01*
X85321Y710440D01*
X85592Y710540D01*
X85594Y710541D01*
X85597Y710542D01*
X85842Y710673D01*
X86094Y710808D01*
X86096Y710810D01*
X86099Y710811D01*
X86332Y710982D01*
X86554Y711145D01*
X86556Y711147D01*
X86558Y711148D01*
X86762Y711347D01*
X86962Y711542D01*
X86964Y711544D01*
X86966Y711546D01*
X87141Y711773D01*
X87311Y711993D01*
X87312Y711995D01*
X87314Y711997D01*
X87320Y712009D01*
X87593Y712488D01*
X87645Y712618D01*
X87685Y712693D01*
X87719Y712777D01*
X89863Y714921D01*
X92664Y716081D01*
X120696Y716081D01*
X123497Y714921D01*
X125641Y712777D01*
X126801Y709976D01*
X126801Y689901D01*
X126803Y689863D01*
X126801Y689824D01*
X126823Y689579D01*
X126841Y689333D01*
X126849Y689295D01*
X126852Y689257D01*
X126908Y689016D01*
X126960Y688775D01*
X126973Y688739D01*
X126982Y688702D01*
X127071Y688472D01*
X127156Y688240D01*
X127174Y688206D01*
X127188Y688171D01*
X127308Y687956D01*
X127424Y687738D01*
X127447Y687707D01*
X127466Y687673D01*
X127615Y687477D01*
X127761Y687278D01*
X127788Y687251D01*
X127811Y687220D01*
X127986Y687047D01*
X128158Y686870D01*
X128189Y686846D01*
X128216Y686819D01*
X128414Y686672D01*
X128609Y686521D01*
X128642Y686502D01*
X128673Y686479D01*
X128889Y686361D01*
X129104Y686239D01*
X129140Y686225D01*
X129173Y686206D01*
X129404Y686120D01*
X129633Y686029D01*
X129671Y686019D01*
X129707Y686006D01*
X129947Y685953D01*
X130187Y685894D01*
X130226Y685891D01*
X130263Y685882D01*
X130509Y685863D01*
X130754Y685839D01*
X130793Y685841D01*
X130831Y685838D01*
X131077Y685853D01*
X131324Y685864D01*
X131361Y685871D01*
X131400Y685873D01*
X131641Y685923D01*
X131884Y685968D01*
X131920Y685980D01*
X131958Y685988D01*
X132190Y686070D01*
X132424Y686149D01*
X132458Y686166D01*
X132495Y686179D01*
X132712Y686293D01*
X132933Y686404D01*
X132965Y686426D01*
X132999Y686444D01*
X133199Y686588D01*
X133402Y686728D01*
X133431Y686754D01*
X133462Y686777D01*
X133640Y686947D01*
X133821Y687114D01*
X133845Y687144D01*
X133873Y687171D01*
X134025Y687364D01*
X134182Y687555D01*
X134202Y687588D01*
X134226Y687619D01*
X134349Y687832D01*
X134477Y688043D01*
X134492Y688078D01*
X134512Y688111D01*
X134548Y688206D01*
X134702Y688566D01*
X134752Y688750D01*
X134789Y688849D01*
X136574Y695512D01*
X139886Y701249D01*
X144571Y705934D01*
X150308Y709246D01*
X156708Y710961D01*
X163332Y710961D01*
X169732Y709246D01*
X175469Y705934D01*
X180154Y701249D01*
X183466Y695512D01*
X185181Y689112D01*
X185181Y682488D01*
X183466Y676088D01*
X180154Y670351D01*
X175469Y665666D01*
X169732Y662354D01*
X163332Y660639D01*
X156708Y660639D01*
X150308Y662354D01*
X144571Y665666D01*
X139886Y670351D01*
X136574Y676088D01*
X134789Y682751D01*
X134776Y682787D01*
X134768Y682825D01*
X134683Y683056D01*
X134603Y683289D01*
X134586Y683323D01*
X134572Y683360D01*
X134456Y683578D01*
X134344Y683797D01*
X134322Y683828D01*
X134304Y683862D01*
X134158Y684061D01*
X134016Y684263D01*
X133990Y684291D01*
X133967Y684322D01*
X133795Y684499D01*
X133627Y684679D01*
X133597Y684703D01*
X133570Y684730D01*
X133375Y684881D01*
X133183Y685036D01*
X133150Y685055D01*
X133119Y685079D01*
X132905Y685201D01*
X132693Y685327D01*
X132658Y685342D01*
X132624Y685361D01*
X132394Y685452D01*
X132168Y685547D01*
X132131Y685557D01*
X132095Y685571D01*
X131854Y685630D01*
X131616Y685692D01*
X131578Y685696D01*
X131541Y685706D01*
X131295Y685729D01*
X131050Y685758D01*
X131012Y685757D01*
X130974Y685761D01*
X130726Y685750D01*
X130481Y685744D01*
X130443Y685738D01*
X130404Y685736D01*
X130161Y685691D01*
X129919Y685651D01*
X129882Y685639D01*
X129844Y685632D01*
X129610Y685554D01*
X129375Y685480D01*
X129340Y685463D01*
X129304Y685451D01*
X129083Y685340D01*
X128861Y685234D01*
X128829Y685213D01*
X128795Y685196D01*
X128591Y685055D01*
X128386Y684919D01*
X128357Y684894D01*
X128326Y684872D01*
X128144Y684704D01*
X127960Y684541D01*
X127935Y684512D01*
X127907Y684486D01*
X127750Y684294D01*
X127591Y684107D01*
X127570Y684074D01*
X127546Y684045D01*
X127418Y683834D01*
X127286Y683625D01*
X127271Y683590D01*
X127251Y683557D01*
X127154Y683331D01*
X127052Y683106D01*
X127041Y683069D01*
X127026Y683034D01*
X126962Y682796D01*
X126893Y682559D01*
X126887Y682521D01*
X126877Y682484D01*
X126867Y682383D01*
X126812Y681995D01*
X126811Y681970D01*
X125641Y679143D01*
X123497Y676999D01*
X120696Y675839D01*
X91948Y675839D01*
X91719Y675823D01*
X91488Y675813D01*
X91434Y675803D01*
X91380Y675799D01*
X91154Y675751D01*
X90928Y675709D01*
X90876Y675692D01*
X90822Y675680D01*
X90606Y675601D01*
X90388Y675528D01*
X90339Y675503D01*
X90287Y675484D01*
X90084Y675376D01*
X89879Y675273D01*
X89833Y675242D01*
X89785Y675216D01*
X89599Y675080D01*
X89410Y674949D01*
X89369Y674912D01*
X89325Y674879D01*
X89160Y674719D01*
X88991Y674563D01*
X88956Y674520D01*
X88917Y674482D01*
X88776Y674300D01*
X88630Y674122D01*
X88602Y674074D01*
X88568Y674031D01*
X88454Y673831D01*
X88335Y673634D01*
X88313Y673584D01*
X88286Y673536D01*
X88201Y673322D01*
X88110Y673111D01*
X88096Y673058D01*
X88076Y673007D01*
X88021Y672782D01*
X87961Y672561D01*
X87957Y672517D01*
X87941Y672453D01*
X87886Y671886D01*
X87889Y671820D01*
X87885Y671776D01*
X87885Y541964D01*
X87897Y541791D01*
X87899Y541618D01*
X87917Y541507D01*
X87925Y541395D01*
X87961Y541226D01*
X87988Y541055D01*
X88020Y540948D01*
X88044Y540838D01*
X88103Y540675D01*
X88154Y540510D01*
X88201Y540409D01*
X88240Y540303D01*
X88321Y540150D01*
X88394Y539994D01*
X88455Y539899D01*
X88508Y539800D01*
X88610Y539661D01*
X88705Y539516D01*
X88778Y539431D01*
X88845Y539341D01*
X88965Y539217D01*
X89079Y539086D01*
X89164Y539013D01*
X89242Y538932D01*
X89379Y538826D01*
X89510Y538713D01*
X89604Y538652D01*
X89693Y538584D01*
X89843Y538498D01*
X89988Y538404D01*
X90090Y538357D01*
X90188Y538301D01*
X90349Y538237D01*
X90505Y538165D01*
X90613Y538133D01*
X90717Y538091D01*
X90886Y538050D01*
X91051Y538001D01*
X91162Y537984D01*
X91271Y537957D01*
X91443Y537940D01*
X91614Y537914D01*
X91727Y537913D01*
X91838Y537902D01*
X92011Y537909D01*
X92184Y537907D01*
X92295Y537922D01*
X92408Y537926D01*
X92578Y537958D01*
X92749Y537980D01*
X92831Y538005D01*
X92968Y538030D01*
X93399Y538175D01*
X93930Y538281D01*
X102617Y538281D01*
X102617Y523240D01*
X102617Y508199D01*
X93930Y508199D01*
X93401Y508304D01*
X93340Y508325D01*
X93179Y508389D01*
X93069Y508415D01*
X92963Y508451D01*
X92793Y508482D01*
X92625Y508523D01*
X92513Y508534D01*
X92403Y508554D01*
X92230Y508561D01*
X92058Y508578D01*
X91945Y508573D01*
X91833Y508578D01*
X91661Y508561D01*
X91488Y508554D01*
X91378Y508533D01*
X91266Y508522D01*
X91098Y508481D01*
X90928Y508450D01*
X90822Y508414D01*
X90713Y508387D01*
X90552Y508323D01*
X90388Y508268D01*
X90287Y508218D01*
X90183Y508176D01*
X90033Y508091D01*
X89879Y508013D01*
X89786Y507949D01*
X89689Y507894D01*
X89552Y507788D01*
X89410Y507689D01*
X89327Y507613D01*
X89238Y507544D01*
X89118Y507420D01*
X88991Y507303D01*
X88920Y507216D01*
X88842Y507136D01*
X88740Y506996D01*
X88630Y506862D01*
X88572Y506766D01*
X88506Y506675D01*
X88424Y506523D01*
X88335Y506375D01*
X88290Y506272D01*
X88238Y506173D01*
X88178Y506010D01*
X88110Y505851D01*
X88081Y505743D01*
X88042Y505637D01*
X88006Y505468D01*
X87961Y505301D01*
X87953Y505216D01*
X87924Y505080D01*
X87886Y504529D01*
X87885Y504516D01*
X87885Y491544D01*
X87901Y491315D01*
X87911Y491084D01*
X87921Y491030D01*
X87925Y490976D01*
X87973Y490750D01*
X88015Y490524D01*
X88032Y490472D01*
X88044Y490418D01*
X88123Y490202D01*
X88196Y489984D01*
X88221Y489935D01*
X88240Y489883D01*
X88348Y489680D01*
X88451Y489475D01*
X88482Y489429D01*
X88508Y489381D01*
X88644Y489195D01*
X88775Y489006D01*
X88812Y488965D01*
X88845Y488921D01*
X89005Y488756D01*
X89161Y488587D01*
X89204Y488552D01*
X89242Y488513D01*
X89424Y488372D01*
X89602Y488226D01*
X89650Y488198D01*
X89693Y488164D01*
X89893Y488050D01*
X90090Y487931D01*
X90140Y487909D01*
X90188Y487882D01*
X90402Y487797D01*
X90613Y487706D01*
X90666Y487692D01*
X90717Y487672D01*
X90942Y487617D01*
X91163Y487557D01*
X91207Y487553D01*
X91271Y487537D01*
X91838Y487482D01*
X91904Y487485D01*
X91948Y487481D01*
X120696Y487481D01*
X123497Y486321D01*
X125641Y484177D01*
X126801Y481376D01*
X126801Y461301D01*
X126803Y461263D01*
X126801Y461224D01*
X126823Y460979D01*
X126841Y460733D01*
X126849Y460695D01*
X126852Y460657D01*
X126908Y460416D01*
X126960Y460175D01*
X126973Y460139D01*
X126982Y460102D01*
X127071Y459872D01*
X127156Y459640D01*
X127174Y459606D01*
X127188Y459571D01*
X127308Y459356D01*
X127424Y459138D01*
X127447Y459107D01*
X127466Y459073D01*
X127615Y458877D01*
X127761Y458678D01*
X127788Y458651D01*
X127811Y458620D01*
X127986Y458447D01*
X128158Y458270D01*
X128189Y458246D01*
X128216Y458219D01*
X128414Y458072D01*
X128609Y457921D01*
X128642Y457902D01*
X128673Y457879D01*
X128889Y457761D01*
X129104Y457639D01*
X129140Y457625D01*
X129173Y457606D01*
X129404Y457520D01*
X129633Y457429D01*
X129671Y457419D01*
X129707Y457406D01*
X129947Y457353D01*
X130187Y457294D01*
X130226Y457291D01*
X130263Y457282D01*
X130509Y457263D01*
X130754Y457239D01*
X130793Y457241D01*
X130831Y457238D01*
X131077Y457253D01*
X131324Y457264D01*
X131361Y457271D01*
X131400Y457273D01*
X131641Y457323D01*
X131884Y457368D01*
X131920Y457380D01*
X131958Y457388D01*
X132190Y457470D01*
X132424Y457549D01*
X132458Y457566D01*
X132495Y457579D01*
X132712Y457693D01*
X132933Y457804D01*
X132965Y457826D01*
X132999Y457844D01*
X133199Y457988D01*
X133402Y458128D01*
X133431Y458154D01*
X133462Y458177D01*
X133640Y458347D01*
X133821Y458514D01*
X133845Y458544D01*
X133873Y458571D01*
X134025Y458764D01*
X134182Y458955D01*
X134202Y458988D01*
X134226Y459019D01*
X134349Y459232D01*
X134477Y459443D01*
X134492Y459478D01*
X134512Y459511D01*
X134548Y459606D01*
X134702Y459966D01*
X134752Y460150D01*
X134789Y460249D01*
X136574Y466912D01*
X139886Y472649D01*
X144571Y477334D01*
X150308Y480646D01*
X156708Y482361D01*
X163332Y482361D01*
X169732Y480646D01*
X175469Y477334D01*
X180154Y472649D01*
X183466Y466912D01*
X185181Y460512D01*
X185181Y453888D01*
X183466Y447488D01*
X180154Y441751D01*
X175469Y437066D01*
X169732Y433754D01*
X163332Y432039D01*
X156708Y432039D01*
X150308Y433754D01*
X144571Y437066D01*
X139886Y441751D01*
X136574Y447488D01*
X134789Y454151D01*
X134776Y454187D01*
X134768Y454225D01*
X134683Y454456D01*
X134603Y454689D01*
X134586Y454723D01*
X134572Y454760D01*
X134456Y454978D01*
X134344Y455197D01*
X134322Y455228D01*
X134304Y455262D01*
X134158Y455461D01*
X134016Y455663D01*
X133990Y455691D01*
X133967Y455722D01*
X133795Y455899D01*
X133627Y456079D01*
X133597Y456103D01*
X133570Y456130D01*
X133375Y456281D01*
X133183Y456436D01*
X133150Y456455D01*
X133119Y456479D01*
X132905Y456601D01*
X132693Y456727D01*
X132658Y456742D01*
X132624Y456761D01*
X132394Y456852D01*
X132168Y456947D01*
X132131Y456957D01*
X132095Y456971D01*
X131854Y457030D01*
X131616Y457092D01*
X131578Y457096D01*
X131541Y457106D01*
X131295Y457129D01*
X131050Y457158D01*
X131012Y457157D01*
X130974Y457161D01*
X130726Y457150D01*
X130481Y457144D01*
X130443Y457138D01*
X130404Y457136D01*
X130161Y457091D01*
X129919Y457051D01*
X129882Y457039D01*
X129844Y457032D01*
X129610Y456954D01*
X129375Y456880D01*
X129340Y456863D01*
X129304Y456851D01*
X129083Y456740D01*
X128861Y456634D01*
X128829Y456613D01*
X128795Y456596D01*
X128591Y456455D01*
X128386Y456319D01*
X128357Y456294D01*
X128326Y456272D01*
X128144Y456104D01*
X127960Y455941D01*
X127935Y455912D01*
X127907Y455886D01*
X127750Y455694D01*
X127591Y455507D01*
X127570Y455474D01*
X127546Y455445D01*
X127418Y455234D01*
X127286Y455025D01*
X127271Y454990D01*
X127251Y454957D01*
X127154Y454731D01*
X127052Y454506D01*
X127041Y454469D01*
X127026Y454434D01*
X126962Y454196D01*
X126893Y453959D01*
X126887Y453921D01*
X126877Y453884D01*
X126867Y453783D01*
X126812Y453395D01*
X126811Y453370D01*
X125641Y450543D01*
X123497Y448399D01*
X120696Y447239D01*
X91948Y447239D01*
X91719Y447223D01*
X91488Y447213D01*
X91434Y447203D01*
X91380Y447199D01*
X91154Y447151D01*
X90928Y447109D01*
X90876Y447092D01*
X90822Y447080D01*
X90606Y447001D01*
X90388Y446928D01*
X90339Y446903D01*
X90287Y446884D01*
X90084Y446776D01*
X89879Y446673D01*
X89833Y446642D01*
X89785Y446616D01*
X89599Y446480D01*
X89410Y446349D01*
X89369Y446312D01*
X89325Y446279D01*
X89160Y446119D01*
X88991Y445963D01*
X88956Y445920D01*
X88917Y445882D01*
X88776Y445700D01*
X88630Y445522D01*
X88602Y445474D01*
X88568Y445431D01*
X88454Y445231D01*
X88335Y445034D01*
X88313Y444984D01*
X88286Y444936D01*
X88201Y444722D01*
X88110Y444511D01*
X88096Y444458D01*
X88076Y444407D01*
X88021Y444182D01*
X87961Y443961D01*
X87957Y443917D01*
X87941Y443853D01*
X87886Y443286D01*
X87889Y443220D01*
X87885Y443176D01*
X87885Y313364D01*
X87897Y313191D01*
X87899Y313019D01*
X87917Y312908D01*
X87925Y312795D01*
X87961Y312626D01*
X87987Y312456D01*
X88020Y312348D01*
X88044Y312238D01*
X88103Y312076D01*
X88153Y311910D01*
X88201Y311809D01*
X88240Y311703D01*
X88321Y311550D01*
X88394Y311394D01*
X88455Y311300D01*
X88508Y311200D01*
X88610Y311061D01*
X88704Y310916D01*
X88778Y310831D01*
X88845Y310741D01*
X88965Y310617D01*
X89079Y310487D01*
X89164Y310413D01*
X89242Y310332D01*
X89379Y310226D01*
X89509Y310113D01*
X89604Y310052D01*
X89693Y309984D01*
X89843Y309898D01*
X89988Y309804D01*
X90090Y309757D01*
X90188Y309701D01*
X90348Y309638D01*
X90505Y309565D01*
X90613Y309533D01*
X90717Y309491D01*
X90886Y309450D01*
X91051Y309401D01*
X91162Y309384D01*
X91271Y309357D01*
X91443Y309340D01*
X91614Y309314D01*
X91726Y309313D01*
X91838Y309302D01*
X92011Y309309D01*
X92184Y309307D01*
X92295Y309322D01*
X92408Y309326D01*
X92578Y309358D01*
X92749Y309380D01*
X92830Y309405D01*
X92968Y309430D01*
X93399Y309575D01*
X93930Y309681D01*
X102617Y309681D01*
X102617Y294640D01*
X102617Y279599D01*
X93930Y279599D01*
X93401Y279704D01*
X93339Y279725D01*
X93179Y279789D01*
X93069Y279815D01*
X92963Y279851D01*
X92793Y279882D01*
X92625Y279923D01*
X92513Y279934D01*
X92402Y279954D01*
X92230Y279961D01*
X92058Y279978D01*
X91945Y279973D01*
X91833Y279978D01*
X91661Y279961D01*
X91488Y279954D01*
X91378Y279933D01*
X91266Y279922D01*
X91098Y279881D01*
X90928Y279850D01*
X90822Y279814D01*
X90712Y279787D01*
X90552Y279723D01*
X90388Y279668D01*
X90287Y279618D01*
X90183Y279576D01*
X90033Y279491D01*
X89879Y279413D01*
X89786Y279349D01*
X89688Y279293D01*
X89552Y279188D01*
X89410Y279089D01*
X89327Y279013D01*
X89238Y278944D01*
X89118Y278820D01*
X88991Y278703D01*
X88920Y278616D01*
X88841Y278535D01*
X88740Y278396D01*
X88630Y278262D01*
X88572Y278166D01*
X88506Y278075D01*
X88424Y277923D01*
X88335Y277775D01*
X88290Y277672D01*
X88237Y277572D01*
X88178Y277410D01*
X88110Y277251D01*
X88081Y277143D01*
X88042Y277037D01*
X88006Y276868D01*
X87961Y276701D01*
X87953Y276616D01*
X87924Y276479D01*
X87886Y275929D01*
X87885Y275916D01*
X87885Y262944D01*
X87901Y262715D01*
X87911Y262484D01*
X87921Y262430D01*
X87925Y262376D01*
X87973Y262150D01*
X88015Y261924D01*
X88032Y261872D01*
X88044Y261818D01*
X88123Y261602D01*
X88196Y261384D01*
X88221Y261335D01*
X88240Y261283D01*
X88348Y261080D01*
X88451Y260875D01*
X88482Y260829D01*
X88508Y260781D01*
X88644Y260595D01*
X88775Y260406D01*
X88812Y260365D01*
X88845Y260321D01*
X89005Y260156D01*
X89161Y259987D01*
X89204Y259952D01*
X89242Y259913D01*
X89424Y259772D01*
X89602Y259626D01*
X89650Y259598D01*
X89693Y259564D01*
X89893Y259450D01*
X90090Y259331D01*
X90140Y259309D01*
X90188Y259282D01*
X90402Y259197D01*
X90613Y259106D01*
X90666Y259092D01*
X90717Y259072D01*
X90942Y259017D01*
X91163Y258957D01*
X91207Y258953D01*
X91271Y258937D01*
X91838Y258882D01*
X91904Y258885D01*
X91948Y258881D01*
X120696Y258881D01*
X123497Y257721D01*
X125641Y255577D01*
X126801Y252776D01*
X126801Y232701D01*
X126803Y232663D01*
X126801Y232624D01*
X126823Y232379D01*
X126841Y232133D01*
X126849Y232095D01*
X126852Y232057D01*
X126908Y231816D01*
X126960Y231575D01*
X126973Y231539D01*
X126982Y231502D01*
X127071Y231272D01*
X127156Y231040D01*
X127174Y231006D01*
X127188Y230971D01*
X127308Y230756D01*
X127424Y230538D01*
X127447Y230507D01*
X127466Y230473D01*
X127615Y230277D01*
X127761Y230078D01*
X127788Y230051D01*
X127811Y230020D01*
X127986Y229847D01*
X128158Y229670D01*
X128189Y229646D01*
X128216Y229619D01*
X128414Y229472D01*
X128609Y229321D01*
X128642Y229302D01*
X128673Y229279D01*
X128889Y229161D01*
X129104Y229039D01*
X129140Y229025D01*
X129173Y229006D01*
X129404Y228920D01*
X129633Y228829D01*
X129671Y228819D01*
X129707Y228806D01*
X129947Y228753D01*
X130187Y228694D01*
X130226Y228691D01*
X130263Y228682D01*
X130509Y228663D01*
X130754Y228639D01*
X130793Y228641D01*
X130831Y228638D01*
X131077Y228653D01*
G37*
%LPC*%
G36*
X372517Y19684D02*
X372517Y19684D01*
X365748Y22488D01*
X360568Y27668D01*
X357764Y34437D01*
X357764Y41763D01*
X360568Y48532D01*
X362468Y50432D01*
X362470Y50434D01*
X362472Y50436D01*
X362655Y50647D01*
X362842Y50862D01*
X362843Y50864D01*
X362845Y50866D01*
X362994Y51096D01*
X363152Y51340D01*
X363153Y51343D01*
X363154Y51345D01*
X363266Y51588D01*
X363392Y51857D01*
X363392Y51860D01*
X363393Y51862D01*
X363473Y52125D01*
X363557Y52402D01*
X363557Y52405D01*
X363558Y52408D01*
X363602Y52695D01*
X363644Y52965D01*
X363644Y52968D01*
X363645Y52971D01*
X363648Y53259D01*
X363652Y53535D01*
X363651Y53538D01*
X363651Y53541D01*
X363616Y53815D01*
X363580Y54100D01*
X363579Y54103D01*
X363579Y54106D01*
X363575Y54118D01*
X363429Y54650D01*
X363374Y54778D01*
X363349Y54860D01*
X361019Y60484D01*
X361019Y66516D01*
X363327Y72088D01*
X364566Y73327D01*
X364718Y73501D01*
X364873Y73670D01*
X364904Y73715D01*
X364940Y73757D01*
X365065Y73950D01*
X365196Y74140D01*
X365220Y74189D01*
X365250Y74235D01*
X365347Y74444D01*
X365449Y74650D01*
X365467Y74702D01*
X365490Y74752D01*
X365557Y74973D01*
X365629Y75191D01*
X365639Y75245D01*
X365655Y75297D01*
X365690Y75525D01*
X365732Y75751D01*
X365734Y75806D01*
X365742Y75860D01*
X365745Y76090D01*
X365755Y76321D01*
X365749Y76375D01*
X365750Y76430D01*
X365721Y76658D01*
X365698Y76888D01*
X365685Y76941D01*
X365678Y76995D01*
X365617Y77218D01*
X365562Y77441D01*
X365542Y77492D01*
X365527Y77545D01*
X365436Y77757D01*
X365351Y77970D01*
X365323Y78018D01*
X365302Y78068D01*
X365181Y78265D01*
X365067Y78464D01*
X365039Y78498D01*
X365005Y78554D01*
X364643Y78995D01*
X364595Y79039D01*
X364566Y79073D01*
X363327Y80312D01*
X361019Y85884D01*
X361019Y91916D01*
X363327Y97488D01*
X364566Y98727D01*
X364718Y98901D01*
X364873Y99070D01*
X364904Y99115D01*
X364940Y99157D01*
X365065Y99350D01*
X365196Y99540D01*
X365220Y99589D01*
X365250Y99635D01*
X365347Y99844D01*
X365449Y100050D01*
X365467Y100102D01*
X365490Y100152D01*
X365557Y100373D01*
X365629Y100591D01*
X365639Y100645D01*
X365655Y100697D01*
X365690Y100925D01*
X365732Y101151D01*
X365734Y101206D01*
X365742Y101260D01*
X365745Y101490D01*
X365755Y101721D01*
X365749Y101775D01*
X365750Y101830D01*
X365721Y102058D01*
X365698Y102288D01*
X365685Y102341D01*
X365678Y102395D01*
X365617Y102618D01*
X365562Y102841D01*
X365542Y102892D01*
X365527Y102945D01*
X365436Y103157D01*
X365351Y103370D01*
X365323Y103418D01*
X365302Y103468D01*
X365181Y103665D01*
X365067Y103864D01*
X365039Y103898D01*
X365005Y103954D01*
X364643Y104395D01*
X364595Y104439D01*
X364566Y104473D01*
X363327Y105712D01*
X362289Y108218D01*
X361019Y111284D01*
X361019Y117316D01*
X363327Y122888D01*
X364566Y124127D01*
X364638Y124209D01*
X364699Y124269D01*
X364758Y124345D01*
X364873Y124470D01*
X364904Y124515D01*
X364940Y124557D01*
X365032Y124700D01*
X365048Y124719D01*
X365066Y124751D01*
X365196Y124940D01*
X365220Y124989D01*
X365250Y125035D01*
X365347Y125244D01*
X365449Y125450D01*
X365467Y125502D01*
X365490Y125552D01*
X365557Y125773D01*
X365629Y125991D01*
X365639Y126045D01*
X365655Y126097D01*
X365690Y126325D01*
X365732Y126551D01*
X365734Y126606D01*
X365742Y126660D01*
X365745Y126890D01*
X365755Y127121D01*
X365749Y127175D01*
X365750Y127230D01*
X365721Y127458D01*
X365698Y127688D01*
X365685Y127741D01*
X365678Y127795D01*
X365617Y128018D01*
X365562Y128241D01*
X365542Y128292D01*
X365527Y128345D01*
X365436Y128557D01*
X365351Y128770D01*
X365323Y128818D01*
X365302Y128868D01*
X365181Y129065D01*
X365067Y129264D01*
X365039Y129298D01*
X365005Y129354D01*
X364643Y129795D01*
X364595Y129839D01*
X364566Y129873D01*
X363327Y131112D01*
X361019Y136684D01*
X361019Y142716D01*
X363327Y148288D01*
X364566Y149527D01*
X364718Y149701D01*
X364873Y149870D01*
X364904Y149915D01*
X364940Y149957D01*
X365065Y150150D01*
X365196Y150340D01*
X365220Y150389D01*
X365250Y150435D01*
X365347Y150644D01*
X365449Y150850D01*
X365467Y150902D01*
X365490Y150952D01*
X365557Y151173D01*
X365629Y151391D01*
X365639Y151445D01*
X365655Y151497D01*
X365690Y151725D01*
X365732Y151951D01*
X365734Y152006D01*
X365742Y152060D01*
X365745Y152290D01*
X365755Y152521D01*
X365749Y152575D01*
X365750Y152630D01*
X365721Y152858D01*
X365698Y153088D01*
X365685Y153141D01*
X365678Y153195D01*
X365617Y153418D01*
X365562Y153641D01*
X365542Y153692D01*
X365527Y153745D01*
X365436Y153957D01*
X365351Y154170D01*
X365323Y154218D01*
X365302Y154268D01*
X365181Y154465D01*
X365067Y154664D01*
X365039Y154698D01*
X365005Y154754D01*
X364643Y155195D01*
X364595Y155239D01*
X364566Y155273D01*
X363327Y156512D01*
X361019Y162084D01*
X361019Y168116D01*
X363327Y173688D01*
X364566Y174927D01*
X364717Y175101D01*
X364873Y175270D01*
X364904Y175316D01*
X364940Y175357D01*
X365065Y175550D01*
X365195Y175740D01*
X365220Y175789D01*
X365250Y175835D01*
X365347Y176044D01*
X365449Y176250D01*
X365467Y176302D01*
X365490Y176352D01*
X365557Y176573D01*
X365629Y176791D01*
X365639Y176845D01*
X365655Y176897D01*
X365690Y177125D01*
X365732Y177351D01*
X365734Y177406D01*
X365742Y177460D01*
X365745Y177690D01*
X365755Y177921D01*
X365749Y177975D01*
X365750Y178030D01*
X365721Y178258D01*
X365698Y178487D01*
X365685Y178541D01*
X365678Y178595D01*
X365617Y178818D01*
X365562Y179041D01*
X365542Y179092D01*
X365527Y179145D01*
X365436Y179356D01*
X365351Y179570D01*
X365323Y179618D01*
X365302Y179668D01*
X365182Y179864D01*
X365067Y180064D01*
X365039Y180099D01*
X365005Y180154D01*
X364643Y180594D01*
X364595Y180639D01*
X364566Y180673D01*
X363327Y181912D01*
X361019Y187484D01*
X361019Y193516D01*
X363327Y199088D01*
X364566Y200327D01*
X364718Y200501D01*
X364873Y200670D01*
X364904Y200715D01*
X364940Y200757D01*
X365065Y200950D01*
X365196Y201140D01*
X365220Y201189D01*
X365250Y201235D01*
X365347Y201444D01*
X365449Y201650D01*
X365467Y201702D01*
X365490Y201752D01*
X365557Y201973D01*
X365629Y202191D01*
X365639Y202245D01*
X365655Y202297D01*
X365690Y202525D01*
X365732Y202751D01*
X365734Y202806D01*
X365742Y202860D01*
X365745Y203090D01*
X365755Y203321D01*
X365749Y203375D01*
X365750Y203430D01*
X365721Y203658D01*
X365698Y203888D01*
X365685Y203941D01*
X365678Y203995D01*
X365617Y204218D01*
X365562Y204441D01*
X365542Y204492D01*
X365527Y204545D01*
X365436Y204757D01*
X365351Y204970D01*
X365323Y205018D01*
X365302Y205068D01*
X365181Y205265D01*
X365067Y205464D01*
X365039Y205498D01*
X365005Y205554D01*
X364643Y205995D01*
X364595Y206039D01*
X364566Y206073D01*
X363327Y207312D01*
X361019Y212884D01*
X361019Y218916D01*
X363327Y224488D01*
X364566Y225727D01*
X364635Y225806D01*
X364680Y225850D01*
X364731Y225916D01*
X364873Y226070D01*
X364904Y226115D01*
X364940Y226157D01*
X365065Y226350D01*
X365196Y226540D01*
X365220Y226589D01*
X365250Y226635D01*
X365347Y226844D01*
X365449Y227050D01*
X365467Y227102D01*
X365490Y227152D01*
X365557Y227373D01*
X365629Y227591D01*
X365639Y227645D01*
X365655Y227697D01*
X365690Y227925D01*
X365732Y228151D01*
X365734Y228206D01*
X365742Y228260D01*
X365745Y228490D01*
X365755Y228721D01*
X365749Y228775D01*
X365750Y228830D01*
X365721Y229058D01*
X365698Y229288D01*
X365685Y229341D01*
X365678Y229395D01*
X365617Y229618D01*
X365562Y229841D01*
X365542Y229892D01*
X365527Y229945D01*
X365436Y230157D01*
X365351Y230370D01*
X365323Y230418D01*
X365302Y230468D01*
X365181Y230665D01*
X365067Y230864D01*
X365039Y230898D01*
X365005Y230954D01*
X364643Y231395D01*
X364595Y231439D01*
X364566Y231473D01*
X363327Y232712D01*
X362720Y234179D01*
X361019Y238284D01*
X361019Y244316D01*
X363327Y249888D01*
X364566Y251127D01*
X364717Y251301D01*
X364873Y251470D01*
X364904Y251516D01*
X364940Y251557D01*
X365065Y251750D01*
X365195Y251940D01*
X365220Y251989D01*
X365250Y252035D01*
X365347Y252244D01*
X365449Y252450D01*
X365467Y252502D01*
X365490Y252552D01*
X365556Y252772D01*
X365629Y252991D01*
X365639Y253045D01*
X365655Y253097D01*
X365690Y253325D01*
X365732Y253551D01*
X365734Y253606D01*
X365742Y253660D01*
X365745Y253890D01*
X365755Y254121D01*
X365749Y254175D01*
X365750Y254230D01*
X365721Y254458D01*
X365698Y254687D01*
X365685Y254741D01*
X365678Y254795D01*
X365617Y255018D01*
X365562Y255241D01*
X365542Y255292D01*
X365527Y255345D01*
X365436Y255556D01*
X365351Y255770D01*
X365323Y255818D01*
X365302Y255868D01*
X365182Y256064D01*
X365067Y256264D01*
X365039Y256299D01*
X365005Y256354D01*
X364643Y256794D01*
X364595Y256839D01*
X364566Y256873D01*
X363327Y258112D01*
X361019Y263684D01*
X361019Y269716D01*
X363327Y275288D01*
X364566Y276527D01*
X364718Y276701D01*
X364873Y276870D01*
X364904Y276915D01*
X364940Y276957D01*
X365065Y277150D01*
X365196Y277340D01*
X365220Y277389D01*
X365250Y277435D01*
X365347Y277644D01*
X365449Y277850D01*
X365467Y277902D01*
X365490Y277952D01*
X365557Y278173D01*
X365629Y278391D01*
X365639Y278445D01*
X365655Y278497D01*
X365690Y278725D01*
X365732Y278951D01*
X365734Y279006D01*
X365742Y279060D01*
X365745Y279290D01*
X365755Y279521D01*
X365749Y279575D01*
X365750Y279630D01*
X365721Y279858D01*
X365698Y280088D01*
X365685Y280141D01*
X365678Y280195D01*
X365617Y280418D01*
X365562Y280641D01*
X365542Y280692D01*
X365527Y280745D01*
X365436Y280957D01*
X365351Y281170D01*
X365323Y281218D01*
X365302Y281268D01*
X365181Y281465D01*
X365067Y281664D01*
X365039Y281698D01*
X365005Y281754D01*
X364643Y282195D01*
X364595Y282239D01*
X364566Y282273D01*
X363327Y283512D01*
X361019Y289084D01*
X361019Y295116D01*
X363327Y300688D01*
X364566Y301927D01*
X364718Y302101D01*
X364873Y302270D01*
X364904Y302315D01*
X364940Y302357D01*
X365065Y302550D01*
X365196Y302740D01*
X365220Y302789D01*
X365250Y302835D01*
X365347Y303044D01*
X365449Y303250D01*
X365467Y303302D01*
X365490Y303352D01*
X365557Y303573D01*
X365629Y303791D01*
X365639Y303845D01*
X365655Y303897D01*
X365690Y304125D01*
X365732Y304351D01*
X365734Y304406D01*
X365742Y304460D01*
X365745Y304690D01*
X365755Y304921D01*
X365749Y304975D01*
X365750Y305030D01*
X365721Y305258D01*
X365698Y305488D01*
X365685Y305541D01*
X365678Y305595D01*
X365617Y305818D01*
X365562Y306041D01*
X365542Y306092D01*
X365527Y306145D01*
X365436Y306357D01*
X365351Y306570D01*
X365323Y306618D01*
X365302Y306668D01*
X365181Y306865D01*
X365067Y307064D01*
X365039Y307098D01*
X365005Y307154D01*
X364643Y307595D01*
X364595Y307639D01*
X364566Y307673D01*
X363327Y308912D01*
X362305Y311381D01*
X361019Y314484D01*
X361019Y320516D01*
X363327Y326088D01*
X364566Y327327D01*
X364632Y327403D01*
X364661Y327431D01*
X364698Y327478D01*
X364718Y327501D01*
X364873Y327670D01*
X364904Y327715D01*
X364940Y327757D01*
X365065Y327950D01*
X365196Y328140D01*
X365220Y328189D01*
X365250Y328235D01*
X365347Y328444D01*
X365449Y328650D01*
X365467Y328702D01*
X365490Y328752D01*
X365557Y328973D01*
X365629Y329191D01*
X365639Y329245D01*
X365655Y329297D01*
X365690Y329525D01*
X365732Y329751D01*
X365734Y329806D01*
X365742Y329860D01*
X365745Y330090D01*
X365755Y330321D01*
X365749Y330375D01*
X365750Y330430D01*
X365721Y330658D01*
X365698Y330888D01*
X365685Y330941D01*
X365678Y330995D01*
X365617Y331218D01*
X365562Y331441D01*
X365542Y331492D01*
X365527Y331545D01*
X365436Y331757D01*
X365351Y331970D01*
X365323Y332018D01*
X365302Y332068D01*
X365181Y332265D01*
X365067Y332464D01*
X365039Y332498D01*
X365005Y332554D01*
X364643Y332995D01*
X364595Y333039D01*
X364566Y333073D01*
X363327Y334312D01*
X361019Y339884D01*
X361019Y345916D01*
X363327Y351488D01*
X364566Y352727D01*
X364718Y352901D01*
X364873Y353070D01*
X364904Y353115D01*
X364940Y353157D01*
X365065Y353350D01*
X365196Y353540D01*
X365220Y353589D01*
X365250Y353635D01*
X365347Y353844D01*
X365449Y354050D01*
X365467Y354102D01*
X365490Y354152D01*
X365557Y354373D01*
X365629Y354591D01*
X365639Y354645D01*
X365655Y354697D01*
X365690Y354925D01*
X365732Y355151D01*
X365734Y355206D01*
X365742Y355260D01*
X365745Y355490D01*
X365755Y355721D01*
X365749Y355775D01*
X365750Y355830D01*
X365721Y356058D01*
X365698Y356288D01*
X365685Y356341D01*
X365678Y356395D01*
X365617Y356618D01*
X365562Y356841D01*
X365542Y356892D01*
X365527Y356945D01*
X365436Y357157D01*
X365351Y357370D01*
X365323Y357418D01*
X365302Y357468D01*
X365181Y357665D01*
X365067Y357864D01*
X365039Y357898D01*
X365005Y357954D01*
X364643Y358395D01*
X364595Y358439D01*
X364566Y358473D01*
X363327Y359712D01*
X361019Y365284D01*
X361019Y371316D01*
X363327Y376888D01*
X368033Y381594D01*
X368051Y381608D01*
X368117Y381677D01*
X368164Y381724D01*
X368166Y381727D01*
X368254Y381808D01*
X368345Y381918D01*
X368443Y382021D01*
X368526Y382137D01*
X368616Y382248D01*
X368691Y382369D01*
X368773Y382485D01*
X368839Y382612D01*
X368913Y382734D01*
X368970Y382865D01*
X369036Y382991D01*
X369083Y383126D01*
X369140Y383257D01*
X369177Y383394D01*
X369224Y383529D01*
X369252Y383669D01*
X369290Y383807D01*
X369308Y383948D01*
X369336Y384087D01*
X369344Y384230D01*
X369363Y384372D01*
X369361Y384514D01*
X369369Y384656D01*
X369357Y384799D01*
X369355Y384941D01*
X369333Y385082D01*
X369322Y385224D01*
X369290Y385363D01*
X369268Y385505D01*
X369227Y385641D01*
X369195Y385780D01*
X369144Y385913D01*
X369103Y386050D01*
X369043Y386179D01*
X368993Y386312D01*
X368940Y386401D01*
X368863Y386567D01*
X368641Y386910D01*
X368593Y386992D01*
X367558Y388417D01*
X366937Y389637D01*
X376180Y389637D01*
X385423Y389637D01*
X384802Y388417D01*
X383767Y386992D01*
X383691Y386871D01*
X383608Y386756D01*
X383541Y386630D01*
X383465Y386509D01*
X383407Y386379D01*
X383340Y386253D01*
X383292Y386118D01*
X383234Y385988D01*
X383195Y385851D01*
X383146Y385717D01*
X383117Y385577D01*
X383078Y385440D01*
X383058Y385299D01*
X383029Y385159D01*
X383019Y385017D01*
X383000Y384875D01*
X383000Y384733D01*
X382991Y384591D01*
X383001Y384449D01*
X383002Y384306D01*
X383022Y384165D01*
X383033Y384023D01*
X383063Y383883D01*
X383083Y383742D01*
X383123Y383605D01*
X383153Y383466D01*
X383203Y383332D01*
X383243Y383195D01*
X383302Y383065D01*
X383351Y382931D01*
X383419Y382806D01*
X383477Y382676D01*
X383554Y382555D01*
X383621Y382430D01*
X383706Y382315D01*
X383782Y382194D01*
X383875Y382086D01*
X383959Y381971D01*
X384059Y381869D01*
X384152Y381760D01*
X384229Y381691D01*
X389033Y376888D01*
X391341Y371316D01*
X391341Y365284D01*
X389236Y360203D01*
X389181Y360039D01*
X389117Y359879D01*
X389091Y359769D01*
X389055Y359663D01*
X389024Y359493D01*
X388983Y359325D01*
X388972Y359213D01*
X388952Y359102D01*
X388945Y358930D01*
X388928Y358758D01*
X388933Y358645D01*
X388928Y358533D01*
X388945Y358361D01*
X388953Y358188D01*
X388973Y358078D01*
X388984Y357966D01*
X389025Y357798D01*
X389057Y357628D01*
X389092Y357522D01*
X389119Y357412D01*
X389183Y357252D01*
X389238Y357088D01*
X389288Y356987D01*
X389330Y356883D01*
X389416Y356733D01*
X389493Y356579D01*
X389557Y356486D01*
X389613Y356388D01*
X389719Y356252D01*
X389817Y356110D01*
X389893Y356027D01*
X389962Y355938D01*
X390086Y355818D01*
X390203Y355691D01*
X390290Y355620D01*
X390371Y355541D01*
X390510Y355440D01*
X390644Y355330D01*
X390741Y355272D01*
X390831Y355205D01*
X390984Y355124D01*
X391131Y355035D01*
X391235Y354990D01*
X391334Y354937D01*
X391496Y354878D01*
X391655Y354810D01*
X391764Y354781D01*
X391869Y354742D01*
X392038Y354706D01*
X392205Y354661D01*
X392290Y354653D01*
X392427Y354624D01*
X392977Y354586D01*
X392990Y354585D01*
X394657Y354585D01*
X401286Y351839D01*
X403822Y349303D01*
X403822Y349302D01*
X406037Y347088D01*
X406037Y347087D01*
X429006Y324119D01*
X430173Y321301D01*
X430250Y321146D01*
X430319Y320988D01*
X430377Y320892D01*
X430427Y320791D01*
X430525Y320649D01*
X430615Y320501D01*
X430687Y320415D01*
X430751Y320322D01*
X430868Y320195D01*
X430977Y320061D01*
X431060Y319985D01*
X431136Y319903D01*
X431270Y319793D01*
X431397Y319676D01*
X431490Y319613D01*
X431577Y319541D01*
X431725Y319451D01*
X431867Y319354D01*
X431967Y319304D01*
X432064Y319245D01*
X432223Y319177D01*
X432377Y319100D01*
X432484Y319064D01*
X432587Y319020D01*
X432754Y318974D01*
X432918Y318920D01*
X433028Y318900D01*
X433137Y318870D01*
X433308Y318849D01*
X433478Y318818D01*
X433591Y318813D01*
X433702Y318799D01*
X433875Y318801D01*
X434048Y318794D01*
X434160Y318806D01*
X434272Y318807D01*
X434442Y318834D01*
X434614Y318851D01*
X434724Y318878D01*
X434835Y318895D01*
X435000Y318946D01*
X435168Y318987D01*
X435272Y319029D01*
X435380Y319061D01*
X435537Y319134D01*
X435697Y319198D01*
X435794Y319254D01*
X435897Y319302D01*
X436041Y319396D01*
X436191Y319482D01*
X436257Y319536D01*
X436374Y319612D01*
X436790Y319974D01*
X436800Y319983D01*
X441751Y324934D01*
X447488Y328246D01*
X453888Y329961D01*
X460512Y329961D01*
X466912Y328246D01*
X472649Y324934D01*
X477334Y320249D01*
X480646Y314512D01*
X481689Y310621D01*
X481739Y310476D01*
X481779Y310328D01*
X481831Y310207D01*
X481874Y310082D01*
X481944Y309946D01*
X482005Y309805D01*
X482074Y309692D01*
X482133Y309575D01*
X482222Y309450D01*
X482302Y309318D01*
X482385Y309217D01*
X482461Y309109D01*
X482566Y308997D01*
X482664Y308878D01*
X482761Y308789D01*
X482851Y308693D01*
X482970Y308597D01*
X483084Y308493D01*
X483192Y308418D01*
X483295Y308336D01*
X483427Y308258D01*
X483553Y308170D01*
X483671Y308112D01*
X483784Y308044D01*
X483926Y307985D01*
X484063Y307917D01*
X484188Y307875D01*
X484310Y307824D01*
X484458Y307785D01*
X484604Y307737D01*
X484734Y307713D01*
X484861Y307680D01*
X485013Y307662D01*
X485165Y307634D01*
X485296Y307629D01*
X485427Y307614D01*
X485580Y307618D01*
X485734Y307611D01*
X485865Y307624D01*
X485997Y307628D01*
X486148Y307653D01*
X486301Y307668D01*
X486429Y307699D01*
X486559Y307721D01*
X486705Y307767D01*
X486854Y307804D01*
X486977Y307853D01*
X487102Y307892D01*
X487241Y307958D01*
X487383Y308015D01*
X487498Y308081D01*
X487616Y308138D01*
X487744Y308222D01*
X487878Y308299D01*
X487953Y308361D01*
X488091Y308452D01*
X488428Y308752D01*
X488486Y308800D01*
X488800Y309113D01*
X489217Y309392D01*
X489679Y309583D01*
X490170Y309681D01*
X498857Y309681D01*
X498857Y294640D01*
X498857Y279599D01*
X490170Y279599D01*
X489679Y279697D01*
X489217Y279888D01*
X488800Y280167D01*
X488447Y280520D01*
X488168Y280937D01*
X487977Y281399D01*
X487879Y281890D01*
X487879Y292452D01*
X487874Y292529D01*
X487876Y292606D01*
X487854Y292813D01*
X487839Y293021D01*
X487823Y293096D01*
X487815Y293172D01*
X487764Y293375D01*
X487720Y293578D01*
X487694Y293650D01*
X487675Y293725D01*
X487596Y293917D01*
X487524Y294113D01*
X487488Y294181D01*
X487459Y294252D01*
X487354Y294432D01*
X487256Y294615D01*
X487210Y294677D01*
X487171Y294744D01*
X487042Y294908D01*
X486919Y295075D01*
X486866Y295130D01*
X486818Y295191D01*
X486667Y295334D01*
X486522Y295484D01*
X486461Y295531D01*
X486405Y295584D01*
X486236Y295705D01*
X486071Y295832D01*
X486004Y295870D01*
X485942Y295915D01*
X485757Y296011D01*
X485576Y296115D01*
X485505Y296143D01*
X485437Y296178D01*
X485241Y296248D01*
X485047Y296325D01*
X484972Y296343D01*
X484899Y296369D01*
X484695Y296410D01*
X484493Y296459D01*
X484416Y296466D01*
X484341Y296482D01*
X484134Y296494D01*
X483926Y296514D01*
X483849Y296511D01*
X483772Y296515D01*
X483565Y296499D01*
X483356Y296490D01*
X483281Y296476D01*
X483204Y296469D01*
X483001Y296424D01*
X482796Y296386D01*
X482724Y296361D01*
X482648Y296344D01*
X482453Y296271D01*
X482256Y296204D01*
X482187Y296170D01*
X482115Y296143D01*
X481933Y296043D01*
X481747Y295949D01*
X481683Y295905D01*
X481616Y295868D01*
X481449Y295744D01*
X481278Y295625D01*
X481221Y295573D01*
X481160Y295527D01*
X481012Y295381D01*
X480859Y295239D01*
X480810Y295179D01*
X480756Y295125D01*
X480685Y295027D01*
X480498Y294798D01*
X480367Y294581D01*
X480297Y294484D01*
X477334Y289351D01*
X472649Y284666D01*
X466912Y281354D01*
X460512Y279639D01*
X453888Y279639D01*
X447488Y281354D01*
X441524Y284797D01*
X441489Y284814D01*
X441457Y284835D01*
X441233Y284939D01*
X441012Y285047D01*
X440975Y285059D01*
X440940Y285075D01*
X440705Y285146D01*
X440470Y285222D01*
X440432Y285229D01*
X440395Y285240D01*
X440152Y285278D01*
X439908Y285320D01*
X439870Y285322D01*
X439832Y285328D01*
X439586Y285331D01*
X439339Y285339D01*
X439301Y285335D01*
X439262Y285335D01*
X439018Y285304D01*
X438773Y285277D01*
X438735Y285268D01*
X438697Y285263D01*
X438459Y285198D01*
X438220Y285137D01*
X438185Y285123D01*
X438148Y285113D01*
X437921Y285015D01*
X437693Y284922D01*
X437660Y284902D01*
X437624Y284887D01*
X437414Y284758D01*
X437201Y284634D01*
X437171Y284610D01*
X437138Y284590D01*
X436948Y284434D01*
X436754Y284280D01*
X436728Y284253D01*
X436698Y284228D01*
X436531Y284047D01*
X436361Y283868D01*
X436339Y283837D01*
X436313Y283808D01*
X436173Y283605D01*
X436030Y283404D01*
X436012Y283370D01*
X435990Y283339D01*
X435880Y283118D01*
X435766Y282899D01*
X435754Y282863D01*
X435736Y282828D01*
X435658Y282594D01*
X435576Y282362D01*
X435569Y282324D01*
X435557Y282288D01*
X435512Y282044D01*
X435463Y281804D01*
X435461Y281765D01*
X435454Y281727D01*
X435444Y281480D01*
X435429Y281235D01*
X435433Y281197D01*
X435431Y281158D01*
X435456Y280912D01*
X435476Y280667D01*
X435484Y280629D01*
X435488Y280591D01*
X435546Y280352D01*
X435601Y280111D01*
X435614Y280075D01*
X435623Y280038D01*
X435715Y279809D01*
X435802Y279578D01*
X435821Y279544D01*
X435835Y279509D01*
X435958Y279295D01*
X436076Y279078D01*
X436099Y279048D01*
X436119Y279014D01*
X436183Y278936D01*
X436418Y278622D01*
X436552Y278487D01*
X436619Y278405D01*
X463390Y251635D01*
X463435Y251595D01*
X463476Y251551D01*
X463650Y251409D01*
X463820Y251261D01*
X463871Y251228D01*
X463917Y251190D01*
X464110Y251073D01*
X464298Y250951D01*
X464353Y250926D01*
X464405Y250895D01*
X464611Y250806D01*
X464815Y250711D01*
X464873Y250694D01*
X464928Y250670D01*
X465145Y250612D01*
X465360Y250546D01*
X465420Y250537D01*
X465478Y250521D01*
X465595Y250510D01*
X465923Y250459D01*
X466148Y250456D01*
X466263Y250445D01*
X479119Y250445D01*
X479121Y250445D01*
X479124Y250445D01*
X479401Y250465D01*
X479687Y250485D01*
X479690Y250485D01*
X479692Y250485D01*
X479965Y250544D01*
X480244Y250604D01*
X480247Y250605D01*
X480250Y250605D01*
X480506Y250700D01*
X480779Y250800D01*
X480782Y250801D01*
X480784Y250802D01*
X481018Y250927D01*
X481282Y251068D01*
X481284Y251070D01*
X481286Y251071D01*
X481515Y251239D01*
X481742Y251405D01*
X481744Y251407D01*
X481746Y251408D01*
X481952Y251609D01*
X482150Y251802D01*
X482152Y251804D01*
X482154Y251806D01*
X482330Y252035D01*
X482499Y252253D01*
X482500Y252255D01*
X482502Y252257D01*
X482508Y252270D01*
X482781Y252748D01*
X482832Y252878D01*
X482873Y252953D01*
X483959Y255577D01*
X486103Y257721D01*
X488904Y258881D01*
X516936Y258881D01*
X519737Y257721D01*
X521881Y255577D01*
X523041Y252776D01*
X523041Y224744D01*
X521881Y221943D01*
X519737Y219799D01*
X516936Y218639D01*
X488904Y218639D01*
X486103Y219799D01*
X483959Y221943D01*
X482873Y224567D01*
X482871Y224569D01*
X482871Y224572D01*
X482748Y224816D01*
X482618Y225077D01*
X482617Y225079D01*
X482615Y225081D01*
X482452Y225319D01*
X482295Y225546D01*
X482293Y225548D01*
X482292Y225550D01*
X482096Y225763D01*
X481909Y225965D01*
X481907Y225967D01*
X481905Y225969D01*
X481683Y226151D01*
X481469Y226327D01*
X481466Y226328D01*
X481464Y226330D01*
X481226Y226474D01*
X480982Y226623D01*
X480979Y226624D01*
X480977Y226625D01*
X480728Y226732D01*
X480459Y226848D01*
X480456Y226849D01*
X480453Y226850D01*
X480189Y226922D01*
X479909Y226998D01*
X479906Y226998D01*
X479903Y226999D01*
X479891Y227000D01*
X479343Y227069D01*
X479204Y227067D01*
X479119Y227075D01*
X458783Y227075D01*
X452154Y229821D01*
X449618Y232358D01*
X447403Y234572D01*
X447403Y234573D01*
X413053Y268923D01*
X409194Y272781D01*
X407415Y277076D01*
X407415Y310977D01*
X407411Y311037D01*
X407413Y311098D01*
X407391Y311321D01*
X407375Y311545D01*
X407363Y311605D01*
X407357Y311664D01*
X407303Y311883D01*
X407256Y312103D01*
X407236Y312159D01*
X407221Y312218D01*
X407138Y312427D01*
X407060Y312638D01*
X407032Y312691D01*
X407010Y312747D01*
X406898Y312942D01*
X406792Y313140D01*
X406756Y313189D01*
X406726Y313241D01*
X406651Y313332D01*
X406455Y313600D01*
X406298Y313761D01*
X406225Y313850D01*
X398277Y321798D01*
X398190Y321874D01*
X398110Y321956D01*
X397975Y322060D01*
X397847Y322172D01*
X397750Y322235D01*
X397659Y322305D01*
X397512Y322389D01*
X397369Y322482D01*
X397264Y322530D01*
X397164Y322587D01*
X397006Y322650D01*
X396852Y322722D01*
X396742Y322755D01*
X396635Y322797D01*
X396469Y322838D01*
X396307Y322887D01*
X396193Y322904D01*
X396081Y322932D01*
X395911Y322948D01*
X395744Y322974D01*
X395629Y322976D01*
X395514Y322987D01*
X395344Y322979D01*
X395174Y322982D01*
X395060Y322967D01*
X394944Y322962D01*
X394777Y322931D01*
X394609Y322910D01*
X394497Y322879D01*
X394384Y322858D01*
X394223Y322804D01*
X394059Y322759D01*
X393953Y322714D01*
X393844Y322677D01*
X393692Y322601D01*
X393536Y322533D01*
X393438Y322473D01*
X393335Y322422D01*
X393195Y322325D01*
X393050Y322237D01*
X392961Y322163D01*
X392866Y322098D01*
X392741Y321983D01*
X392609Y321875D01*
X392532Y321790D01*
X392447Y321712D01*
X392339Y321580D01*
X392224Y321455D01*
X392159Y321360D01*
X392086Y321271D01*
X391998Y321125D01*
X391902Y320985D01*
X391850Y320882D01*
X391791Y320783D01*
X391724Y320627D01*
X391648Y320475D01*
X391612Y320365D01*
X391566Y320260D01*
X391522Y320096D01*
X391468Y319934D01*
X391447Y319821D01*
X391417Y319710D01*
X391406Y319595D01*
X391366Y319374D01*
X391352Y319042D01*
X391341Y318925D01*
X391341Y314484D01*
X389033Y308912D01*
X387794Y307673D01*
X387643Y307499D01*
X387487Y307330D01*
X387456Y307284D01*
X387420Y307243D01*
X387295Y307050D01*
X387165Y306860D01*
X387140Y306811D01*
X387110Y306765D01*
X387013Y306556D01*
X386911Y306350D01*
X386893Y306298D01*
X386870Y306248D01*
X386803Y306027D01*
X386731Y305809D01*
X386721Y305755D01*
X386705Y305703D01*
X386670Y305475D01*
X386628Y305249D01*
X386626Y305194D01*
X386618Y305140D01*
X386615Y304910D01*
X386605Y304679D01*
X386611Y304625D01*
X386610Y304570D01*
X386639Y304342D01*
X386662Y304113D01*
X386675Y304059D01*
X386682Y304005D01*
X386743Y303782D01*
X386798Y303559D01*
X386818Y303508D01*
X386833Y303455D01*
X386924Y303244D01*
X387009Y303030D01*
X387037Y302982D01*
X387058Y302932D01*
X387178Y302736D01*
X387293Y302536D01*
X387321Y302501D01*
X387355Y302446D01*
X387717Y302006D01*
X387765Y301961D01*
X387794Y301927D01*
X389033Y300688D01*
X391341Y295116D01*
X391341Y289084D01*
X389033Y283512D01*
X387794Y282273D01*
X387643Y282099D01*
X387487Y281930D01*
X387456Y281884D01*
X387420Y281843D01*
X387295Y281650D01*
X387165Y281460D01*
X387140Y281411D01*
X387110Y281365D01*
X387013Y281156D01*
X386911Y280950D01*
X386893Y280898D01*
X386870Y280848D01*
X386803Y280627D01*
X386731Y280409D01*
X386721Y280355D01*
X386705Y280303D01*
X386670Y280075D01*
X386628Y279849D01*
X386626Y279794D01*
X386618Y279740D01*
X386615Y279510D01*
X386605Y279279D01*
X386611Y279225D01*
X386610Y279170D01*
X386639Y278942D01*
X386662Y278713D01*
X386675Y278659D01*
X386682Y278605D01*
X386743Y278382D01*
X386798Y278159D01*
X386818Y278108D01*
X386833Y278055D01*
X386924Y277844D01*
X387009Y277630D01*
X387037Y277582D01*
X387058Y277532D01*
X387178Y277336D01*
X387293Y277136D01*
X387321Y277101D01*
X387355Y277046D01*
X387717Y276606D01*
X387765Y276561D01*
X387794Y276527D01*
X389033Y275288D01*
X391341Y269716D01*
X391341Y263684D01*
X389033Y258112D01*
X387794Y256873D01*
X387642Y256699D01*
X387487Y256530D01*
X387456Y256485D01*
X387420Y256443D01*
X387295Y256250D01*
X387164Y256060D01*
X387140Y256011D01*
X387110Y255965D01*
X387013Y255756D01*
X386911Y255550D01*
X386893Y255498D01*
X386870Y255448D01*
X386803Y255227D01*
X386731Y255009D01*
X386721Y254955D01*
X386705Y254903D01*
X386670Y254675D01*
X386628Y254449D01*
X386626Y254394D01*
X386618Y254340D01*
X386615Y254110D01*
X386605Y253879D01*
X386611Y253825D01*
X386610Y253770D01*
X386639Y253542D01*
X386662Y253312D01*
X386675Y253259D01*
X386682Y253205D01*
X386743Y252982D01*
X386798Y252759D01*
X386818Y252708D01*
X386833Y252655D01*
X386924Y252443D01*
X387009Y252230D01*
X387037Y252182D01*
X387058Y252132D01*
X387179Y251935D01*
X387293Y251736D01*
X387321Y251702D01*
X387355Y251646D01*
X387717Y251205D01*
X387765Y251161D01*
X387794Y251127D01*
X389033Y249888D01*
X391341Y244316D01*
X391341Y238284D01*
X389033Y232712D01*
X387794Y231473D01*
X387643Y231299D01*
X387487Y231130D01*
X387456Y231084D01*
X387420Y231043D01*
X387295Y230850D01*
X387165Y230660D01*
X387140Y230611D01*
X387110Y230565D01*
X387013Y230355D01*
X386911Y230150D01*
X386893Y230098D01*
X386870Y230048D01*
X386803Y229827D01*
X386731Y229609D01*
X386721Y229555D01*
X386705Y229503D01*
X386670Y229275D01*
X386628Y229049D01*
X386626Y228994D01*
X386618Y228940D01*
X386615Y228710D01*
X386605Y228479D01*
X386611Y228425D01*
X386610Y228370D01*
X386639Y228142D01*
X386662Y227913D01*
X386675Y227859D01*
X386682Y227805D01*
X386743Y227582D01*
X386798Y227359D01*
X386818Y227308D01*
X386833Y227255D01*
X386924Y227044D01*
X387009Y226830D01*
X387037Y226782D01*
X387058Y226732D01*
X387178Y226536D01*
X387293Y226336D01*
X387321Y226301D01*
X387355Y226246D01*
X387514Y226053D01*
X387538Y226018D01*
X387581Y225971D01*
X387717Y225806D01*
X387765Y225761D01*
X387794Y225727D01*
X389033Y224488D01*
X391341Y218916D01*
X391341Y212884D01*
X389033Y207312D01*
X387794Y206073D01*
X387643Y205899D01*
X387487Y205730D01*
X387456Y205684D01*
X387420Y205643D01*
X387295Y205450D01*
X387165Y205260D01*
X387140Y205211D01*
X387110Y205165D01*
X387013Y204956D01*
X386911Y204750D01*
X386893Y204698D01*
X386870Y204648D01*
X386803Y204427D01*
X386731Y204209D01*
X386721Y204155D01*
X386705Y204103D01*
X386670Y203875D01*
X386628Y203649D01*
X386626Y203594D01*
X386618Y203540D01*
X386615Y203310D01*
X386605Y203079D01*
X386611Y203025D01*
X386610Y202970D01*
X386639Y202742D01*
X386662Y202513D01*
X386675Y202459D01*
X386682Y202405D01*
X386743Y202182D01*
X386798Y201959D01*
X386818Y201908D01*
X386833Y201855D01*
X386924Y201644D01*
X387009Y201430D01*
X387037Y201382D01*
X387058Y201332D01*
X387178Y201136D01*
X387293Y200936D01*
X387321Y200901D01*
X387355Y200846D01*
X387717Y200406D01*
X387765Y200361D01*
X387794Y200327D01*
X389033Y199088D01*
X389254Y198553D01*
X391341Y193516D01*
X391341Y187484D01*
X389033Y181912D01*
X387794Y180673D01*
X387642Y180499D01*
X387487Y180330D01*
X387456Y180285D01*
X387420Y180243D01*
X387295Y180050D01*
X387164Y179860D01*
X387140Y179811D01*
X387110Y179765D01*
X387013Y179556D01*
X386911Y179350D01*
X386893Y179298D01*
X386870Y179248D01*
X386803Y179027D01*
X386731Y178809D01*
X386721Y178755D01*
X386705Y178703D01*
X386670Y178475D01*
X386628Y178249D01*
X386626Y178194D01*
X386618Y178140D01*
X386615Y177910D01*
X386605Y177679D01*
X386611Y177625D01*
X386610Y177570D01*
X386639Y177342D01*
X386662Y177112D01*
X386675Y177059D01*
X386682Y177005D01*
X386743Y176782D01*
X386798Y176559D01*
X386818Y176508D01*
X386833Y176455D01*
X386924Y176243D01*
X387009Y176030D01*
X387037Y175982D01*
X387058Y175932D01*
X387179Y175735D01*
X387293Y175536D01*
X387321Y175502D01*
X387355Y175446D01*
X387717Y175005D01*
X387765Y174961D01*
X387794Y174927D01*
X389033Y173688D01*
X391341Y168116D01*
X391341Y162084D01*
X389033Y156512D01*
X387794Y155273D01*
X387643Y155099D01*
X387487Y154930D01*
X387456Y154884D01*
X387420Y154843D01*
X387295Y154650D01*
X387165Y154460D01*
X387140Y154411D01*
X387110Y154365D01*
X387013Y154156D01*
X386911Y153950D01*
X386893Y153898D01*
X386870Y153848D01*
X386803Y153627D01*
X386731Y153409D01*
X386721Y153355D01*
X386705Y153303D01*
X386670Y153075D01*
X386628Y152849D01*
X386626Y152794D01*
X386618Y152740D01*
X386615Y152510D01*
X386605Y152279D01*
X386611Y152225D01*
X386610Y152170D01*
X386639Y151942D01*
X386662Y151713D01*
X386675Y151659D01*
X386682Y151605D01*
X386743Y151382D01*
X386798Y151159D01*
X386818Y151108D01*
X386833Y151055D01*
X386924Y150844D01*
X387009Y150630D01*
X387037Y150582D01*
X387058Y150532D01*
X387178Y150336D01*
X387293Y150136D01*
X387321Y150101D01*
X387355Y150046D01*
X387717Y149606D01*
X387765Y149561D01*
X387794Y149527D01*
X389033Y148288D01*
X391341Y142716D01*
X391341Y136684D01*
X389033Y131112D01*
X387794Y129873D01*
X387643Y129699D01*
X387487Y129530D01*
X387456Y129484D01*
X387420Y129443D01*
X387295Y129250D01*
X387165Y129060D01*
X387140Y129011D01*
X387110Y128965D01*
X387013Y128756D01*
X386911Y128550D01*
X386893Y128498D01*
X386870Y128448D01*
X386803Y128227D01*
X386731Y128009D01*
X386721Y127955D01*
X386705Y127903D01*
X386670Y127675D01*
X386628Y127449D01*
X386626Y127394D01*
X386618Y127340D01*
X386615Y127110D01*
X386605Y126879D01*
X386611Y126825D01*
X386610Y126770D01*
X386639Y126542D01*
X386662Y126313D01*
X386675Y126259D01*
X386682Y126205D01*
X386743Y125982D01*
X386798Y125759D01*
X386818Y125708D01*
X386833Y125655D01*
X386924Y125444D01*
X387009Y125230D01*
X387037Y125182D01*
X387058Y125132D01*
X387178Y124936D01*
X387194Y124908D01*
X387196Y124905D01*
X387197Y124903D01*
X387293Y124736D01*
X387321Y124701D01*
X387355Y124646D01*
X387478Y124497D01*
X387519Y124436D01*
X387593Y124356D01*
X387717Y124206D01*
X387765Y124161D01*
X387794Y124127D01*
X389033Y122888D01*
X389669Y121352D01*
X389669Y121351D01*
X391341Y117316D01*
X391341Y111284D01*
X389033Y105712D01*
X387794Y104473D01*
X387643Y104299D01*
X387487Y104130D01*
X387456Y104084D01*
X387420Y104043D01*
X387295Y103850D01*
X387165Y103660D01*
X387140Y103611D01*
X387110Y103565D01*
X387013Y103356D01*
X386911Y103150D01*
X386893Y103098D01*
X386870Y103048D01*
X386803Y102827D01*
X386731Y102609D01*
X386721Y102555D01*
X386705Y102503D01*
X386670Y102275D01*
X386628Y102049D01*
X386626Y101994D01*
X386618Y101940D01*
X386615Y101710D01*
X386605Y101479D01*
X386611Y101425D01*
X386610Y101370D01*
X386639Y101142D01*
X386662Y100913D01*
X386675Y100859D01*
X386682Y100805D01*
X386743Y100582D01*
X386798Y100359D01*
X386818Y100308D01*
X386833Y100255D01*
X386924Y100044D01*
X387009Y99830D01*
X387037Y99782D01*
X387058Y99732D01*
X387178Y99536D01*
X387293Y99336D01*
X387321Y99301D01*
X387355Y99246D01*
X387717Y98806D01*
X387765Y98761D01*
X387794Y98727D01*
X389033Y97488D01*
X391341Y91916D01*
X391341Y85884D01*
X389033Y80312D01*
X387794Y79073D01*
X387643Y78899D01*
X387487Y78730D01*
X387456Y78684D01*
X387420Y78643D01*
X387295Y78450D01*
X387165Y78260D01*
X387140Y78211D01*
X387110Y78165D01*
X387013Y77956D01*
X386911Y77750D01*
X386893Y77698D01*
X386870Y77648D01*
X386803Y77427D01*
X386731Y77209D01*
X386721Y77155D01*
X386705Y77103D01*
X386670Y76875D01*
X386628Y76649D01*
X386626Y76594D01*
X386618Y76540D01*
X386615Y76310D01*
X386605Y76079D01*
X386611Y76025D01*
X386610Y75970D01*
X386639Y75742D01*
X386662Y75513D01*
X386675Y75459D01*
X386682Y75405D01*
X386743Y75182D01*
X386798Y74959D01*
X386818Y74908D01*
X386833Y74855D01*
X386924Y74644D01*
X387009Y74430D01*
X387037Y74382D01*
X387058Y74332D01*
X387178Y74136D01*
X387293Y73936D01*
X387321Y73901D01*
X387355Y73846D01*
X387717Y73406D01*
X387765Y73361D01*
X387794Y73327D01*
X389033Y72088D01*
X391341Y66516D01*
X391341Y60484D01*
X389011Y54860D01*
X389010Y54857D01*
X389009Y54855D01*
X388918Y54581D01*
X388830Y54320D01*
X388830Y54317D01*
X388829Y54314D01*
X388776Y54024D01*
X388727Y53759D01*
X388727Y53757D01*
X388727Y53754D01*
X388715Y53465D01*
X388703Y53190D01*
X388704Y53187D01*
X388704Y53185D01*
X388732Y52898D01*
X388759Y52623D01*
X388760Y52620D01*
X388760Y52618D01*
X388828Y52343D01*
X388894Y52069D01*
X388895Y52067D01*
X388896Y52064D01*
X389005Y51792D01*
X389105Y51540D01*
X389106Y51538D01*
X389108Y51535D01*
X389259Y51271D01*
X389388Y51045D01*
X389390Y51043D01*
X389391Y51041D01*
X389400Y51030D01*
X389737Y50595D01*
X389838Y50498D01*
X389892Y50432D01*
X391792Y48532D01*
X394596Y41763D01*
X394596Y34437D01*
X391792Y27668D01*
X386612Y22488D01*
X379843Y19684D01*
X372517Y19684D01*
G37*
%LPD*%
%LPC*%
G36*
X490170Y50999D02*
X490170Y50999D01*
X489679Y51097D01*
X489217Y51288D01*
X488800Y51567D01*
X488447Y51920D01*
X488168Y52337D01*
X487977Y52799D01*
X487879Y53290D01*
X487879Y63852D01*
X487874Y63929D01*
X487876Y64006D01*
X487854Y64213D01*
X487839Y64421D01*
X487823Y64496D01*
X487815Y64572D01*
X487764Y64775D01*
X487720Y64978D01*
X487694Y65050D01*
X487675Y65125D01*
X487596Y65317D01*
X487524Y65513D01*
X487488Y65581D01*
X487459Y65652D01*
X487354Y65832D01*
X487256Y66015D01*
X487210Y66077D01*
X487171Y66144D01*
X487042Y66308D01*
X486919Y66475D01*
X486866Y66530D01*
X486818Y66591D01*
X486667Y66734D01*
X486522Y66884D01*
X486461Y66931D01*
X486405Y66984D01*
X486236Y67105D01*
X486071Y67232D01*
X486004Y67270D01*
X485942Y67315D01*
X485757Y67411D01*
X485576Y67515D01*
X485505Y67543D01*
X485437Y67578D01*
X485241Y67648D01*
X485047Y67725D01*
X484972Y67743D01*
X484899Y67769D01*
X484695Y67810D01*
X484493Y67859D01*
X484416Y67866D01*
X484341Y67882D01*
X484134Y67894D01*
X483926Y67914D01*
X483849Y67911D01*
X483772Y67915D01*
X483565Y67899D01*
X483356Y67890D01*
X483281Y67876D01*
X483204Y67869D01*
X483001Y67824D01*
X482796Y67786D01*
X482724Y67761D01*
X482648Y67744D01*
X482453Y67671D01*
X482256Y67604D01*
X482187Y67570D01*
X482115Y67543D01*
X481933Y67443D01*
X481747Y67349D01*
X481683Y67305D01*
X481616Y67268D01*
X481449Y67144D01*
X481278Y67025D01*
X481221Y66973D01*
X481160Y66927D01*
X481012Y66781D01*
X480859Y66639D01*
X480810Y66579D01*
X480756Y66525D01*
X480685Y66427D01*
X480498Y66198D01*
X480367Y65981D01*
X480297Y65884D01*
X477334Y60751D01*
X472649Y56066D01*
X466912Y52754D01*
X460512Y51039D01*
X453888Y51039D01*
X447488Y52754D01*
X441751Y56066D01*
X437066Y60751D01*
X433754Y66488D01*
X432039Y72888D01*
X432039Y79512D01*
X433754Y85912D01*
X437066Y91649D01*
X441751Y96334D01*
X447488Y99646D01*
X453888Y101361D01*
X460512Y101361D01*
X466912Y99646D01*
X472649Y96334D01*
X477334Y91649D01*
X480646Y85912D01*
X481689Y82021D01*
X481739Y81876D01*
X481779Y81728D01*
X481831Y81607D01*
X481874Y81482D01*
X481944Y81346D01*
X482005Y81205D01*
X482074Y81092D01*
X482133Y80975D01*
X482222Y80850D01*
X482302Y80718D01*
X482385Y80617D01*
X482461Y80509D01*
X482566Y80397D01*
X482664Y80278D01*
X482761Y80189D01*
X482851Y80093D01*
X482970Y79997D01*
X483084Y79893D01*
X483192Y79818D01*
X483295Y79736D01*
X483427Y79658D01*
X483553Y79570D01*
X483671Y79512D01*
X483784Y79444D01*
X483926Y79385D01*
X484063Y79317D01*
X484188Y79275D01*
X484310Y79224D01*
X484458Y79185D01*
X484604Y79137D01*
X484734Y79113D01*
X484861Y79080D01*
X485013Y79062D01*
X485165Y79034D01*
X485296Y79029D01*
X485427Y79014D01*
X485580Y79018D01*
X485734Y79011D01*
X485865Y79024D01*
X485997Y79028D01*
X486148Y79053D01*
X486301Y79068D01*
X486429Y79099D01*
X486559Y79121D01*
X486705Y79167D01*
X486854Y79204D01*
X486977Y79253D01*
X487102Y79292D01*
X487241Y79358D01*
X487383Y79415D01*
X487498Y79481D01*
X487616Y79538D01*
X487744Y79622D01*
X487878Y79699D01*
X487953Y79761D01*
X488091Y79852D01*
X488428Y80152D01*
X488486Y80200D01*
X488800Y80513D01*
X489217Y80792D01*
X489679Y80983D01*
X490170Y81081D01*
X498857Y81081D01*
X498857Y66040D01*
X498857Y50999D01*
X490170Y50999D01*
G37*
%LPD*%
%LPC*%
G36*
X477467Y5219D02*
X477467Y5219D01*
X476123Y5891D01*
X476064Y5915D01*
X476009Y5946D01*
X475802Y6024D01*
X475597Y6109D01*
X475535Y6125D01*
X475476Y6147D01*
X475260Y6196D01*
X475045Y6252D01*
X474982Y6259D01*
X474920Y6273D01*
X474699Y6291D01*
X474479Y6316D01*
X474415Y6314D01*
X474352Y6319D01*
X474131Y6306D01*
X473909Y6300D01*
X473847Y6290D01*
X473783Y6286D01*
X473566Y6242D01*
X473348Y6205D01*
X473287Y6186D01*
X473225Y6173D01*
X473114Y6130D01*
X472805Y6032D01*
X472597Y5932D01*
X472489Y5891D01*
X471145Y5219D01*
X467818Y4982D01*
X464654Y6037D01*
X463103Y7382D01*
X462919Y7520D01*
X462739Y7664D01*
X462691Y7692D01*
X462647Y7724D01*
X462446Y7835D01*
X462247Y7952D01*
X462197Y7973D01*
X462149Y8000D01*
X461933Y8082D01*
X461720Y8169D01*
X461667Y8183D01*
X461616Y8202D01*
X461391Y8253D01*
X461168Y8310D01*
X461114Y8316D01*
X461060Y8328D01*
X460831Y8347D01*
X460602Y8373D01*
X460547Y8371D01*
X460492Y8376D01*
X460263Y8362D01*
X460033Y8355D01*
X459979Y8346D01*
X459924Y8343D01*
X459697Y8298D01*
X459471Y8259D01*
X459419Y8242D01*
X459365Y8231D01*
X459147Y8154D01*
X458929Y8084D01*
X458879Y8060D01*
X458827Y8042D01*
X458623Y7936D01*
X458416Y7835D01*
X458370Y7805D01*
X458322Y7780D01*
X458134Y7646D01*
X457943Y7518D01*
X457911Y7487D01*
X457858Y7449D01*
X457444Y7057D01*
X457403Y7005D01*
X457371Y6975D01*
X457141Y6710D01*
X457053Y6666D01*
X456955Y6608D01*
X456851Y6558D01*
X456757Y6491D01*
X456563Y6376D01*
X456304Y6169D01*
X456208Y6101D01*
X456134Y6037D01*
X455391Y5789D01*
X454865Y5572D01*
X454861Y5570D01*
X454859Y5569D01*
X454159Y5219D01*
X454061Y5212D01*
X453947Y5195D01*
X453832Y5189D01*
X453719Y5163D01*
X453496Y5131D01*
X453178Y5039D01*
X453063Y5013D01*
X452970Y4982D01*
X452189Y5038D01*
X451619Y5038D01*
X451616Y5038D01*
X451613Y5038D01*
X450832Y4982D01*
X450739Y5013D01*
X450628Y5042D01*
X450519Y5080D01*
X450405Y5099D01*
X450187Y5155D01*
X449858Y5192D01*
X449742Y5212D01*
X449644Y5219D01*
X448968Y5556D01*
X448779Y5635D01*
X448594Y5721D01*
X448516Y5744D01*
X448442Y5775D01*
X448244Y5826D01*
X448048Y5885D01*
X447968Y5897D01*
X447890Y5918D01*
X447687Y5941D01*
X447485Y5972D01*
X447404Y5973D01*
X447324Y5982D01*
X447119Y5976D01*
X446915Y5979D01*
X446835Y5968D01*
X446754Y5966D01*
X446552Y5932D01*
X446350Y5906D01*
X446289Y5887D01*
X446193Y5871D01*
X445650Y5698D01*
X445619Y5683D01*
X445596Y5676D01*
X444155Y5079D01*
X435766Y5079D01*
X434803Y5478D01*
X434609Y5543D01*
X434418Y5615D01*
X434339Y5633D01*
X434262Y5659D01*
X434061Y5696D01*
X433862Y5741D01*
X433781Y5747D01*
X433702Y5762D01*
X433498Y5771D01*
X433294Y5787D01*
X433213Y5782D01*
X433133Y5786D01*
X432929Y5766D01*
X432725Y5754D01*
X432646Y5738D01*
X432565Y5730D01*
X432367Y5681D01*
X432167Y5641D01*
X432107Y5618D01*
X432012Y5595D01*
X431483Y5384D01*
X431453Y5367D01*
X431430Y5359D01*
X431151Y5219D01*
X427824Y4982D01*
X425645Y5708D01*
X425450Y5759D01*
X425257Y5817D01*
X425174Y5829D01*
X425093Y5850D01*
X424894Y5873D01*
X424694Y5903D01*
X424610Y5904D01*
X424527Y5914D01*
X424326Y5908D01*
X424125Y5910D01*
X424041Y5899D01*
X423957Y5897D01*
X423759Y5863D01*
X423559Y5837D01*
X423496Y5818D01*
X423396Y5801D01*
X422853Y5627D01*
X422826Y5614D01*
X422805Y5608D01*
X421529Y5079D01*
X418195Y5079D01*
X415114Y6355D01*
X412755Y8714D01*
X411479Y11795D01*
X411479Y31385D01*
X412755Y34466D01*
X415114Y36825D01*
X418195Y38101D01*
X426943Y38101D01*
X431684Y36137D01*
X433994Y33827D01*
X434168Y33676D01*
X434339Y33519D01*
X434383Y33489D01*
X434424Y33453D01*
X434618Y33327D01*
X434809Y33197D01*
X434857Y33173D01*
X434902Y33143D01*
X435112Y33046D01*
X435319Y32943D01*
X435370Y32926D01*
X435419Y32903D01*
X435640Y32836D01*
X435860Y32764D01*
X435913Y32754D01*
X435965Y32738D01*
X436193Y32703D01*
X436420Y32661D01*
X436474Y32659D01*
X436528Y32651D01*
X436759Y32648D01*
X436989Y32639D01*
X437033Y32644D01*
X437097Y32643D01*
X437663Y32715D01*
X437727Y32733D01*
X437771Y32739D01*
X438875Y32991D01*
X443095Y32027D01*
X443238Y32005D01*
X443379Y31973D01*
X443519Y31961D01*
X443658Y31940D01*
X443803Y31938D01*
X443947Y31926D01*
X444087Y31934D01*
X444228Y31932D01*
X444371Y31950D01*
X444516Y31958D01*
X444615Y31981D01*
X444793Y32004D01*
X445195Y32114D01*
X445284Y32134D01*
X447220Y32779D01*
X450690Y32533D01*
X450731Y32517D01*
X450947Y32468D01*
X451161Y32413D01*
X451225Y32406D01*
X451287Y32392D01*
X451508Y32373D01*
X451728Y32349D01*
X451791Y32350D01*
X451855Y32345D01*
X452076Y32358D01*
X452297Y32364D01*
X452360Y32375D01*
X452424Y32379D01*
X452641Y32422D01*
X452859Y32459D01*
X452920Y32479D01*
X452982Y32491D01*
X453084Y32531D01*
X456583Y32779D01*
X459746Y31725D01*
X460109Y31410D01*
X460246Y31307D01*
X460377Y31196D01*
X460474Y31136D01*
X460565Y31068D01*
X460715Y30985D01*
X460860Y30894D01*
X460964Y30847D01*
X461064Y30792D01*
X461224Y30732D01*
X461381Y30662D01*
X461490Y30630D01*
X461596Y30590D01*
X461763Y30552D01*
X461928Y30505D01*
X462041Y30489D01*
X462152Y30464D01*
X462323Y30449D01*
X462493Y30426D01*
X462606Y30426D01*
X462720Y30416D01*
X462891Y30426D01*
X463062Y30427D01*
X463175Y30443D01*
X463289Y30449D01*
X463457Y30483D01*
X463626Y30507D01*
X463736Y30539D01*
X463847Y30561D01*
X464009Y30618D01*
X464174Y30666D01*
X464278Y30712D01*
X464385Y30750D01*
X464537Y30829D01*
X464693Y30899D01*
X464790Y30960D01*
X464891Y31012D01*
X465030Y31112D01*
X465175Y31203D01*
X465262Y31277D01*
X465355Y31343D01*
X465479Y31461D01*
X465610Y31572D01*
X465686Y31657D01*
X465768Y31735D01*
X465875Y31869D01*
X465989Y31998D01*
X466023Y32052D01*
X466039Y32076D01*
X466123Y32181D01*
X466227Y32359D01*
X466312Y32488D01*
X466343Y32558D01*
X466398Y32650D01*
X466407Y32666D01*
X466414Y32679D01*
X466632Y33206D01*
X466633Y33207D01*
X466633Y33208D01*
X466881Y33951D01*
X466945Y34025D01*
X467014Y34117D01*
X467090Y34203D01*
X467152Y34300D01*
X467287Y34481D01*
X467447Y34770D01*
X467510Y34870D01*
X467554Y34958D01*
X468145Y35471D01*
X468548Y35874D01*
X468551Y35877D01*
X468553Y35879D01*
X469066Y36470D01*
X469154Y36514D01*
X469252Y36572D01*
X469356Y36622D01*
X469450Y36689D01*
X469644Y36804D01*
X469903Y37011D01*
X469999Y37079D01*
X470073Y37143D01*
X470816Y37391D01*
X471342Y37608D01*
X471346Y37610D01*
X471348Y37611D01*
X472048Y37961D01*
X472146Y37968D01*
X472260Y37985D01*
X472375Y37991D01*
X472488Y38017D01*
X472711Y38049D01*
X473029Y38141D01*
X473144Y38167D01*
X473237Y38198D01*
X474018Y38142D01*
X474588Y38142D01*
X474591Y38142D01*
X474594Y38142D01*
X475375Y38198D01*
X475468Y38167D01*
X475579Y38138D01*
X475688Y38100D01*
X475802Y38081D01*
X476020Y38025D01*
X476349Y37988D01*
X476465Y37968D01*
X476563Y37961D01*
X477264Y37611D01*
X477790Y37393D01*
X477793Y37392D01*
X477796Y37391D01*
X478539Y37143D01*
X478613Y37079D01*
X478705Y37010D01*
X478790Y36933D01*
X478888Y36872D01*
X479068Y36737D01*
X479358Y36577D01*
X479458Y36514D01*
X479546Y36470D01*
X480059Y35879D01*
X480462Y35475D01*
X480465Y35473D01*
X480466Y35471D01*
X481058Y34958D01*
X481102Y34870D01*
X481160Y34771D01*
X481210Y34668D01*
X481277Y34574D01*
X481392Y34380D01*
X481599Y34121D01*
X481667Y34025D01*
X481731Y33951D01*
X481979Y33208D01*
X482196Y32681D01*
X482198Y32678D01*
X482199Y32676D01*
X482549Y31976D01*
X482556Y31877D01*
X482572Y31764D01*
X482579Y31649D01*
X482605Y31537D01*
X482636Y31313D01*
X482728Y30995D01*
X482755Y30880D01*
X486183Y20596D01*
X486253Y20425D01*
X486283Y20326D01*
X486780Y19127D01*
X486786Y19029D01*
X486790Y19008D01*
X486793Y18977D01*
X486912Y18420D01*
X486946Y18325D01*
X486961Y18261D01*
X488204Y14531D01*
X487968Y11204D01*
X486477Y8222D01*
X483957Y6037D01*
X480793Y4982D01*
X477467Y5219D01*
G37*
%LPD*%
%LPC*%
G36*
X376180Y397763D02*
X376180Y397763D01*
X366937Y397763D01*
X367558Y398983D01*
X368593Y400408D01*
X368669Y400529D01*
X368752Y400644D01*
X368819Y400770D01*
X368895Y400891D01*
X368953Y401021D01*
X369020Y401147D01*
X369068Y401282D01*
X369126Y401412D01*
X369165Y401549D01*
X369214Y401683D01*
X369243Y401823D01*
X369282Y401960D01*
X369302Y402101D01*
X369331Y402241D01*
X369341Y402383D01*
X369360Y402525D01*
X369360Y402667D01*
X369369Y402809D01*
X369359Y402951D01*
X369358Y403094D01*
X369338Y403235D01*
X369327Y403377D01*
X369297Y403517D01*
X369277Y403658D01*
X369237Y403795D01*
X369207Y403934D01*
X369157Y404068D01*
X369117Y404205D01*
X369058Y404335D01*
X369009Y404469D01*
X368941Y404594D01*
X368883Y404724D01*
X368806Y404845D01*
X368739Y404970D01*
X368654Y405085D01*
X368578Y405206D01*
X368485Y405314D01*
X368401Y405429D01*
X368301Y405531D01*
X368208Y405640D01*
X368131Y405709D01*
X363327Y410512D01*
X361019Y416084D01*
X361019Y422116D01*
X363349Y427740D01*
X363350Y427743D01*
X363351Y427745D01*
X363439Y428009D01*
X363530Y428280D01*
X363530Y428283D01*
X363531Y428286D01*
X363579Y428550D01*
X363633Y428841D01*
X363633Y428843D01*
X363633Y428846D01*
X363645Y429135D01*
X363657Y429410D01*
X363656Y429413D01*
X363656Y429415D01*
X363629Y429692D01*
X363601Y429977D01*
X363600Y429980D01*
X363600Y429982D01*
X363532Y430257D01*
X363466Y430531D01*
X363465Y430533D01*
X363464Y430536D01*
X363356Y430806D01*
X363255Y431060D01*
X363254Y431062D01*
X363252Y431065D01*
X363112Y431310D01*
X362972Y431555D01*
X362970Y431557D01*
X362969Y431559D01*
X362960Y431570D01*
X362623Y432005D01*
X362522Y432102D01*
X362468Y432168D01*
X360568Y434068D01*
X357764Y440837D01*
X357764Y448163D01*
X360568Y454932D01*
X365748Y460112D01*
X372517Y462916D01*
X379843Y462916D01*
X386612Y460112D01*
X391792Y454932D01*
X394596Y448163D01*
X394596Y440837D01*
X391792Y434068D01*
X389892Y432168D01*
X389890Y432166D01*
X389888Y432164D01*
X389699Y431946D01*
X389518Y431738D01*
X389517Y431736D01*
X389515Y431734D01*
X389359Y431493D01*
X389208Y431260D01*
X389207Y431257D01*
X389206Y431255D01*
X389086Y430997D01*
X388968Y430743D01*
X388968Y430740D01*
X388967Y430738D01*
X388884Y430464D01*
X388803Y430198D01*
X388803Y430195D01*
X388802Y430192D01*
X388758Y429905D01*
X388716Y429635D01*
X388716Y429632D01*
X388715Y429629D01*
X388712Y429328D01*
X388708Y429065D01*
X388709Y429062D01*
X388709Y429059D01*
X388744Y428785D01*
X388780Y428500D01*
X388781Y428497D01*
X388781Y428494D01*
X388785Y428482D01*
X388931Y427950D01*
X388986Y427822D01*
X389011Y427740D01*
X391341Y422116D01*
X391341Y416084D01*
X389033Y410512D01*
X384327Y405806D01*
X384309Y405792D01*
X384243Y405723D01*
X384196Y405676D01*
X384194Y405673D01*
X384106Y405592D01*
X384015Y405482D01*
X383917Y405379D01*
X383834Y405263D01*
X383744Y405152D01*
X383669Y405031D01*
X383587Y404915D01*
X383521Y404788D01*
X383447Y404666D01*
X383390Y404535D01*
X383324Y404409D01*
X383277Y404274D01*
X383220Y404143D01*
X383183Y404006D01*
X383136Y403871D01*
X383108Y403731D01*
X383070Y403593D01*
X383052Y403452D01*
X383024Y403313D01*
X383016Y403170D01*
X382997Y403028D01*
X382999Y402886D01*
X382991Y402744D01*
X383003Y402601D01*
X383005Y402459D01*
X383027Y402318D01*
X383038Y402176D01*
X383070Y402037D01*
X383092Y401895D01*
X383133Y401759D01*
X383165Y401620D01*
X383216Y401487D01*
X383257Y401350D01*
X383317Y401221D01*
X383367Y401088D01*
X383420Y400999D01*
X383497Y400833D01*
X383719Y400490D01*
X383767Y400408D01*
X384802Y398983D01*
X385423Y397763D01*
X376180Y397763D01*
X376180Y397763D01*
G37*
%LPD*%
%LPC*%
G36*
X110743Y298703D02*
X110743Y298703D01*
X110743Y309681D01*
X119430Y309681D01*
X119921Y309583D01*
X120383Y309392D01*
X120800Y309113D01*
X121153Y308760D01*
X121432Y308343D01*
X121623Y307881D01*
X121721Y307390D01*
X121721Y298703D01*
X110743Y298703D01*
G37*
%LPD*%
%LPC*%
G36*
X506983Y298703D02*
X506983Y298703D01*
X506983Y309681D01*
X515670Y309681D01*
X516161Y309583D01*
X516623Y309392D01*
X517040Y309113D01*
X517393Y308760D01*
X517672Y308343D01*
X517863Y307881D01*
X517961Y307390D01*
X517961Y298703D01*
X506983Y298703D01*
G37*
%LPD*%
%LPC*%
G36*
X110743Y527303D02*
X110743Y527303D01*
X110743Y538281D01*
X119430Y538281D01*
X119921Y538183D01*
X120383Y537992D01*
X120800Y537713D01*
X121153Y537360D01*
X121432Y536943D01*
X121623Y536481D01*
X121721Y535990D01*
X121721Y527303D01*
X110743Y527303D01*
G37*
%LPD*%
%LPC*%
G36*
X506983Y70103D02*
X506983Y70103D01*
X506983Y81081D01*
X515670Y81081D01*
X516161Y80983D01*
X516623Y80792D01*
X517040Y80513D01*
X517393Y80160D01*
X517672Y79743D01*
X517863Y79281D01*
X517961Y78790D01*
X517961Y70103D01*
X506983Y70103D01*
G37*
%LPD*%
%LPC*%
G36*
X110743Y70103D02*
X110743Y70103D01*
X110743Y81081D01*
X119430Y81081D01*
X119921Y80983D01*
X120383Y80792D01*
X120800Y80513D01*
X121153Y80160D01*
X121432Y79743D01*
X121623Y79281D01*
X121721Y78790D01*
X121721Y70103D01*
X110743Y70103D01*
G37*
%LPD*%
%LPC*%
G36*
X506983Y527303D02*
X506983Y527303D01*
X506983Y538281D01*
X515670Y538281D01*
X516161Y538183D01*
X516623Y537992D01*
X517040Y537713D01*
X517393Y537360D01*
X517672Y536943D01*
X517863Y536481D01*
X517961Y535990D01*
X517961Y527303D01*
X506983Y527303D01*
G37*
%LPD*%
%LPC*%
G36*
X110743Y508199D02*
X110743Y508199D01*
X110743Y519177D01*
X121721Y519177D01*
X121721Y510490D01*
X121623Y509999D01*
X121432Y509537D01*
X121153Y509120D01*
X120800Y508767D01*
X120383Y508488D01*
X119921Y508297D01*
X119430Y508199D01*
X110743Y508199D01*
G37*
%LPD*%
%LPC*%
G36*
X506983Y508199D02*
X506983Y508199D01*
X506983Y519177D01*
X517961Y519177D01*
X517961Y510490D01*
X517863Y509999D01*
X517672Y509537D01*
X517393Y509120D01*
X517040Y508767D01*
X516623Y508488D01*
X516161Y508297D01*
X515670Y508199D01*
X506983Y508199D01*
G37*
%LPD*%
%LPC*%
G36*
X506983Y279599D02*
X506983Y279599D01*
X506983Y290577D01*
X517961Y290577D01*
X517961Y281890D01*
X517863Y281399D01*
X517672Y280937D01*
X517393Y280520D01*
X517040Y280167D01*
X516623Y279888D01*
X516161Y279697D01*
X515670Y279599D01*
X506983Y279599D01*
G37*
%LPD*%
%LPC*%
G36*
X110743Y279599D02*
X110743Y279599D01*
X110743Y290577D01*
X121721Y290577D01*
X121721Y281890D01*
X121623Y281399D01*
X121432Y280937D01*
X121153Y280520D01*
X120800Y280167D01*
X120383Y279888D01*
X119921Y279697D01*
X119430Y279599D01*
X110743Y279599D01*
G37*
%LPD*%
%LPC*%
G36*
X110743Y50999D02*
X110743Y50999D01*
X110743Y61977D01*
X121721Y61977D01*
X121721Y53290D01*
X121623Y52799D01*
X121432Y52337D01*
X121153Y51920D01*
X120800Y51567D01*
X120383Y51288D01*
X119921Y51097D01*
X119430Y50999D01*
X110743Y50999D01*
G37*
%LPD*%
%LPC*%
G36*
X506983Y50999D02*
X506983Y50999D01*
X506983Y61977D01*
X517961Y61977D01*
X517961Y53290D01*
X517863Y52799D01*
X517672Y52337D01*
X517393Y51920D01*
X517040Y51567D01*
X516623Y51288D01*
X516161Y51097D01*
X515670Y50999D01*
X506983Y50999D01*
G37*
%LPD*%
D10*
X419862Y13462D02*
X419862Y29718D01*
X424378Y29718D01*
X424511Y29716D01*
X424643Y29710D01*
X424775Y29700D01*
X424907Y29687D01*
X425039Y29669D01*
X425169Y29648D01*
X425300Y29623D01*
X425429Y29594D01*
X425557Y29561D01*
X425685Y29525D01*
X425811Y29485D01*
X425936Y29441D01*
X426060Y29393D01*
X426182Y29342D01*
X426303Y29287D01*
X426422Y29229D01*
X426540Y29167D01*
X426655Y29102D01*
X426769Y29033D01*
X426880Y28962D01*
X426989Y28886D01*
X427096Y28808D01*
X427201Y28727D01*
X427303Y28642D01*
X427403Y28555D01*
X427500Y28465D01*
X427595Y28372D01*
X427686Y28276D01*
X427775Y28178D01*
X427861Y28077D01*
X427944Y27973D01*
X428024Y27867D01*
X428100Y27759D01*
X428174Y27649D01*
X428244Y27536D01*
X428311Y27422D01*
X428374Y27305D01*
X428434Y27187D01*
X428491Y27067D01*
X428544Y26945D01*
X428593Y26822D01*
X428639Y26698D01*
X428681Y26572D01*
X428719Y26445D01*
X428754Y26317D01*
X428785Y26188D01*
X428812Y26059D01*
X428835Y25928D01*
X428855Y25797D01*
X428870Y25665D01*
X428882Y25533D01*
X428890Y25401D01*
X428894Y25268D01*
X428894Y25136D01*
X428890Y25003D01*
X428882Y24871D01*
X428870Y24739D01*
X428855Y24607D01*
X428835Y24476D01*
X428812Y24345D01*
X428785Y24216D01*
X428754Y24087D01*
X428719Y23959D01*
X428681Y23832D01*
X428639Y23706D01*
X428593Y23582D01*
X428544Y23459D01*
X428491Y23337D01*
X428434Y23217D01*
X428374Y23099D01*
X428311Y22982D01*
X428244Y22868D01*
X428174Y22755D01*
X428100Y22645D01*
X428024Y22537D01*
X427944Y22431D01*
X427861Y22327D01*
X427775Y22226D01*
X427686Y22128D01*
X427595Y22032D01*
X427500Y21939D01*
X427403Y21849D01*
X427303Y21762D01*
X427201Y21677D01*
X427096Y21596D01*
X426989Y21518D01*
X426880Y21442D01*
X426769Y21371D01*
X426655Y21302D01*
X426540Y21237D01*
X426422Y21175D01*
X426303Y21117D01*
X426182Y21062D01*
X426060Y21011D01*
X425936Y20963D01*
X425811Y20919D01*
X425685Y20879D01*
X425557Y20843D01*
X425429Y20810D01*
X425300Y20781D01*
X425169Y20756D01*
X425039Y20735D01*
X424907Y20717D01*
X424775Y20704D01*
X424643Y20694D01*
X424511Y20688D01*
X424378Y20686D01*
X424378Y20687D02*
X419862Y20687D01*
X425281Y20687D02*
X428893Y13462D01*
X437972Y13462D02*
X442488Y13462D01*
X437972Y13462D02*
X437871Y13464D01*
X437770Y13470D01*
X437669Y13479D01*
X437568Y13492D01*
X437468Y13509D01*
X437369Y13530D01*
X437271Y13554D01*
X437174Y13582D01*
X437077Y13614D01*
X436982Y13649D01*
X436889Y13688D01*
X436797Y13730D01*
X436706Y13776D01*
X436618Y13825D01*
X436531Y13877D01*
X436446Y13933D01*
X436363Y13991D01*
X436283Y14053D01*
X436205Y14118D01*
X436129Y14185D01*
X436056Y14255D01*
X435986Y14328D01*
X435919Y14404D01*
X435854Y14482D01*
X435792Y14562D01*
X435734Y14645D01*
X435678Y14730D01*
X435626Y14816D01*
X435577Y14905D01*
X435531Y14996D01*
X435489Y15088D01*
X435450Y15181D01*
X435415Y15276D01*
X435383Y15373D01*
X435355Y15470D01*
X435331Y15568D01*
X435310Y15667D01*
X435293Y15767D01*
X435280Y15868D01*
X435271Y15969D01*
X435265Y16070D01*
X435263Y16171D01*
X435263Y20687D01*
X435265Y20806D01*
X435271Y20926D01*
X435281Y21045D01*
X435295Y21163D01*
X435312Y21282D01*
X435334Y21399D01*
X435359Y21516D01*
X435389Y21631D01*
X435422Y21746D01*
X435459Y21860D01*
X435499Y21972D01*
X435544Y22083D01*
X435592Y22192D01*
X435643Y22300D01*
X435698Y22406D01*
X435757Y22510D01*
X435819Y22612D01*
X435884Y22712D01*
X435953Y22810D01*
X436025Y22906D01*
X436100Y22999D01*
X436177Y23089D01*
X436258Y23177D01*
X436342Y23262D01*
X436429Y23344D01*
X436518Y23424D01*
X436610Y23500D01*
X436704Y23574D01*
X436801Y23644D01*
X436899Y23711D01*
X437000Y23775D01*
X437104Y23835D01*
X437209Y23892D01*
X437316Y23945D01*
X437424Y23995D01*
X437534Y24041D01*
X437646Y24083D01*
X437759Y24122D01*
X437873Y24157D01*
X437988Y24188D01*
X438105Y24216D01*
X438222Y24239D01*
X438339Y24259D01*
X438458Y24275D01*
X438577Y24287D01*
X438696Y24295D01*
X438815Y24299D01*
X438935Y24299D01*
X439054Y24295D01*
X439173Y24287D01*
X439292Y24275D01*
X439411Y24259D01*
X439528Y24239D01*
X439645Y24216D01*
X439762Y24188D01*
X439877Y24157D01*
X439991Y24122D01*
X440104Y24083D01*
X440216Y24041D01*
X440326Y23995D01*
X440434Y23945D01*
X440541Y23892D01*
X440646Y23835D01*
X440750Y23775D01*
X440851Y23711D01*
X440949Y23644D01*
X441046Y23574D01*
X441140Y23500D01*
X441232Y23424D01*
X441321Y23344D01*
X441408Y23262D01*
X441492Y23177D01*
X441573Y23089D01*
X441650Y22999D01*
X441725Y22906D01*
X441797Y22810D01*
X441866Y22712D01*
X441931Y22612D01*
X441993Y22510D01*
X442052Y22406D01*
X442107Y22300D01*
X442158Y22192D01*
X442206Y22083D01*
X442251Y21972D01*
X442291Y21860D01*
X442328Y21746D01*
X442361Y21631D01*
X442391Y21516D01*
X442416Y21399D01*
X442438Y21282D01*
X442455Y21163D01*
X442469Y21045D01*
X442479Y20926D01*
X442485Y20806D01*
X442487Y20687D01*
X442488Y20687D02*
X442488Y18881D01*
X435263Y18881D01*
X448289Y24299D02*
X451901Y13462D01*
X455514Y24299D01*
X468887Y13462D02*
X474306Y29718D01*
X479725Y13462D01*
X478370Y17526D02*
X470242Y17526D01*
X68778Y776732D02*
X68778Y792988D01*
X73293Y792988D02*
X64262Y792988D01*
X79233Y792988D02*
X79233Y776732D01*
X79233Y787569D02*
X83749Y787569D01*
X83853Y787567D01*
X83956Y787561D01*
X84060Y787551D01*
X84163Y787537D01*
X84265Y787519D01*
X84366Y787498D01*
X84467Y787472D01*
X84566Y787443D01*
X84665Y787410D01*
X84762Y787373D01*
X84857Y787332D01*
X84951Y787288D01*
X85043Y787240D01*
X85133Y787189D01*
X85222Y787134D01*
X85308Y787076D01*
X85391Y787014D01*
X85473Y786950D01*
X85551Y786882D01*
X85627Y786812D01*
X85701Y786739D01*
X85771Y786662D01*
X85839Y786584D01*
X85903Y786502D01*
X85965Y786419D01*
X86023Y786333D01*
X86078Y786244D01*
X86129Y786154D01*
X86177Y786062D01*
X86221Y785968D01*
X86262Y785873D01*
X86299Y785776D01*
X86332Y785677D01*
X86361Y785578D01*
X86387Y785477D01*
X86408Y785376D01*
X86426Y785274D01*
X86440Y785171D01*
X86450Y785067D01*
X86456Y784964D01*
X86458Y784860D01*
X86458Y776732D01*
X93266Y776732D02*
X93266Y787569D01*
X92815Y792085D02*
X92815Y792988D01*
X93718Y792988D01*
X93718Y792085D01*
X92815Y792085D01*
X100148Y792988D02*
X100148Y776732D01*
X104664Y776732D01*
X104768Y776734D01*
X104871Y776740D01*
X104975Y776750D01*
X105078Y776764D01*
X105180Y776782D01*
X105281Y776803D01*
X105382Y776829D01*
X105481Y776858D01*
X105580Y776891D01*
X105677Y776928D01*
X105772Y776969D01*
X105866Y777013D01*
X105958Y777061D01*
X106048Y777112D01*
X106137Y777167D01*
X106223Y777225D01*
X106306Y777287D01*
X106388Y777351D01*
X106466Y777419D01*
X106542Y777489D01*
X106616Y777562D01*
X106686Y777639D01*
X106754Y777717D01*
X106818Y777799D01*
X106880Y777882D01*
X106938Y777968D01*
X106993Y778057D01*
X107044Y778147D01*
X107092Y778239D01*
X107136Y778333D01*
X107177Y778428D01*
X107214Y778525D01*
X107247Y778624D01*
X107276Y778723D01*
X107302Y778824D01*
X107323Y778925D01*
X107341Y779027D01*
X107355Y779130D01*
X107365Y779234D01*
X107371Y779337D01*
X107373Y779441D01*
X107373Y784860D01*
X107371Y784961D01*
X107365Y785062D01*
X107356Y785163D01*
X107343Y785264D01*
X107326Y785364D01*
X107305Y785463D01*
X107281Y785561D01*
X107253Y785658D01*
X107221Y785755D01*
X107186Y785850D01*
X107147Y785943D01*
X107105Y786035D01*
X107059Y786126D01*
X107010Y786215D01*
X106958Y786301D01*
X106902Y786386D01*
X106844Y786469D01*
X106782Y786549D01*
X106717Y786627D01*
X106650Y786703D01*
X106580Y786776D01*
X106507Y786846D01*
X106431Y786913D01*
X106353Y786978D01*
X106273Y787040D01*
X106190Y787098D01*
X106105Y787154D01*
X106019Y787206D01*
X105930Y787255D01*
X105839Y787301D01*
X105747Y787343D01*
X105654Y787382D01*
X105559Y787417D01*
X105462Y787449D01*
X105365Y787477D01*
X105267Y787501D01*
X105168Y787522D01*
X105068Y787539D01*
X104967Y787552D01*
X104866Y787561D01*
X104765Y787567D01*
X104664Y787569D01*
X100148Y787569D01*
X113900Y783054D02*
X124737Y783054D01*
X132692Y783054D02*
X137207Y781248D01*
X132692Y783054D02*
X132604Y783091D01*
X132518Y783132D01*
X132433Y783176D01*
X132350Y783224D01*
X132270Y783275D01*
X132191Y783329D01*
X132115Y783387D01*
X132041Y783447D01*
X131969Y783511D01*
X131901Y783577D01*
X131835Y783647D01*
X131772Y783718D01*
X131711Y783793D01*
X131654Y783869D01*
X131601Y783948D01*
X131550Y784029D01*
X131503Y784112D01*
X131459Y784197D01*
X131419Y784284D01*
X131382Y784372D01*
X131349Y784462D01*
X131319Y784553D01*
X131294Y784645D01*
X131272Y784738D01*
X131254Y784832D01*
X131239Y784926D01*
X131229Y785021D01*
X131223Y785117D01*
X131220Y785212D01*
X131221Y785308D01*
X131227Y785403D01*
X131236Y785499D01*
X131249Y785593D01*
X131265Y785687D01*
X131286Y785781D01*
X131311Y785873D01*
X131339Y785964D01*
X131371Y786054D01*
X131406Y786143D01*
X131445Y786230D01*
X131488Y786316D01*
X131534Y786400D01*
X131584Y786481D01*
X131636Y786561D01*
X131692Y786639D01*
X131752Y786714D01*
X131814Y786786D01*
X131879Y786856D01*
X131947Y786924D01*
X132017Y786988D01*
X132090Y787050D01*
X132166Y787108D01*
X132244Y787164D01*
X132324Y787216D01*
X132406Y787265D01*
X132490Y787310D01*
X132576Y787352D01*
X132663Y787391D01*
X132752Y787426D01*
X132843Y787457D01*
X132934Y787484D01*
X133027Y787508D01*
X133120Y787528D01*
X133214Y787544D01*
X133309Y787556D01*
X133404Y787565D01*
X133500Y787569D01*
X133595Y787570D01*
X133842Y787563D01*
X134088Y787551D01*
X134334Y787533D01*
X134580Y787508D01*
X134824Y787478D01*
X135068Y787442D01*
X135311Y787401D01*
X135553Y787353D01*
X135794Y787299D01*
X136033Y787240D01*
X136271Y787175D01*
X136507Y787104D01*
X136742Y787028D01*
X136975Y786946D01*
X137205Y786858D01*
X137433Y786765D01*
X137660Y786667D01*
X137208Y781247D02*
X137296Y781210D01*
X137382Y781169D01*
X137467Y781125D01*
X137550Y781077D01*
X137630Y781026D01*
X137709Y780972D01*
X137785Y780914D01*
X137859Y780854D01*
X137931Y780790D01*
X137999Y780724D01*
X138065Y780654D01*
X138128Y780583D01*
X138189Y780508D01*
X138246Y780432D01*
X138299Y780353D01*
X138350Y780272D01*
X138397Y780189D01*
X138441Y780104D01*
X138481Y780017D01*
X138518Y779929D01*
X138551Y779839D01*
X138581Y779748D01*
X138606Y779656D01*
X138628Y779563D01*
X138646Y779469D01*
X138661Y779375D01*
X138671Y779280D01*
X138677Y779184D01*
X138680Y779089D01*
X138679Y778993D01*
X138673Y778898D01*
X138664Y778802D01*
X138651Y778708D01*
X138635Y778614D01*
X138614Y778520D01*
X138589Y778428D01*
X138561Y778337D01*
X138529Y778247D01*
X138494Y778158D01*
X138455Y778071D01*
X138412Y777985D01*
X138366Y777901D01*
X138316Y777820D01*
X138264Y777740D01*
X138208Y777662D01*
X138148Y777587D01*
X138086Y777515D01*
X138021Y777445D01*
X137953Y777377D01*
X137883Y777313D01*
X137810Y777251D01*
X137734Y777193D01*
X137656Y777137D01*
X137576Y777085D01*
X137494Y777036D01*
X137410Y776991D01*
X137324Y776949D01*
X137237Y776910D01*
X137148Y776875D01*
X137057Y776844D01*
X136966Y776817D01*
X136873Y776793D01*
X136780Y776773D01*
X136686Y776757D01*
X136591Y776745D01*
X136496Y776736D01*
X136400Y776732D01*
X136305Y776731D01*
X136304Y776732D02*
X135942Y776741D01*
X135580Y776759D01*
X135219Y776786D01*
X134859Y776821D01*
X134499Y776864D01*
X134140Y776916D01*
X133783Y776977D01*
X133428Y777046D01*
X133074Y777123D01*
X132722Y777209D01*
X132372Y777303D01*
X132024Y777406D01*
X131679Y777516D01*
X131337Y777635D01*
X73294Y754578D02*
X73292Y754711D01*
X73286Y754843D01*
X73276Y754975D01*
X73263Y755107D01*
X73245Y755239D01*
X73224Y755369D01*
X73199Y755500D01*
X73170Y755629D01*
X73137Y755757D01*
X73101Y755885D01*
X73061Y756011D01*
X73017Y756136D01*
X72969Y756260D01*
X72918Y756382D01*
X72863Y756503D01*
X72805Y756622D01*
X72743Y756740D01*
X72678Y756855D01*
X72609Y756969D01*
X72538Y757080D01*
X72462Y757189D01*
X72384Y757296D01*
X72303Y757401D01*
X72218Y757503D01*
X72131Y757603D01*
X72041Y757700D01*
X71948Y757795D01*
X71852Y757886D01*
X71754Y757975D01*
X71653Y758061D01*
X71549Y758144D01*
X71443Y758224D01*
X71335Y758300D01*
X71225Y758374D01*
X71112Y758444D01*
X70998Y758511D01*
X70881Y758574D01*
X70763Y758634D01*
X70643Y758691D01*
X70521Y758744D01*
X70398Y758793D01*
X70274Y758839D01*
X70148Y758881D01*
X70021Y758919D01*
X69893Y758954D01*
X69764Y758985D01*
X69635Y759012D01*
X69504Y759035D01*
X69373Y759055D01*
X69241Y759070D01*
X69109Y759082D01*
X68977Y759090D01*
X68844Y759094D01*
X68712Y759094D01*
X68579Y759090D01*
X68447Y759082D01*
X68315Y759070D01*
X68183Y759055D01*
X68052Y759035D01*
X67921Y759012D01*
X67792Y758985D01*
X67663Y758954D01*
X67535Y758919D01*
X67408Y758881D01*
X67282Y758839D01*
X67158Y758793D01*
X67035Y758744D01*
X66913Y758691D01*
X66793Y758634D01*
X66675Y758574D01*
X66558Y758511D01*
X66444Y758444D01*
X66331Y758374D01*
X66221Y758300D01*
X66113Y758224D01*
X66007Y758144D01*
X65903Y758061D01*
X65802Y757975D01*
X65704Y757886D01*
X65608Y757795D01*
X65515Y757700D01*
X65425Y757603D01*
X65338Y757503D01*
X65253Y757401D01*
X65172Y757296D01*
X65094Y757189D01*
X65018Y757080D01*
X64947Y756969D01*
X64878Y756855D01*
X64813Y756740D01*
X64751Y756622D01*
X64693Y756503D01*
X64638Y756382D01*
X64587Y756260D01*
X64539Y756136D01*
X64495Y756011D01*
X64455Y755885D01*
X64419Y755757D01*
X64386Y755629D01*
X64357Y755500D01*
X64332Y755369D01*
X64311Y755239D01*
X64293Y755107D01*
X64280Y754975D01*
X64270Y754843D01*
X64264Y754711D01*
X64262Y754578D01*
X64264Y754445D01*
X64270Y754313D01*
X64280Y754181D01*
X64293Y754049D01*
X64311Y753917D01*
X64332Y753787D01*
X64357Y753656D01*
X64386Y753527D01*
X64419Y753399D01*
X64455Y753271D01*
X64495Y753145D01*
X64539Y753020D01*
X64587Y752896D01*
X64638Y752774D01*
X64693Y752653D01*
X64751Y752534D01*
X64813Y752416D01*
X64878Y752301D01*
X64947Y752187D01*
X65018Y752076D01*
X65094Y751967D01*
X65172Y751860D01*
X65253Y751755D01*
X65338Y751653D01*
X65425Y751553D01*
X65515Y751456D01*
X65608Y751361D01*
X65704Y751270D01*
X65802Y751181D01*
X65903Y751095D01*
X66007Y751012D01*
X66113Y750932D01*
X66221Y750856D01*
X66331Y750782D01*
X66444Y750712D01*
X66558Y750645D01*
X66675Y750582D01*
X66793Y750522D01*
X66913Y750465D01*
X67035Y750412D01*
X67158Y750363D01*
X67282Y750317D01*
X67408Y750275D01*
X67535Y750237D01*
X67663Y750202D01*
X67792Y750171D01*
X67921Y750144D01*
X68052Y750121D01*
X68183Y750101D01*
X68315Y750086D01*
X68447Y750074D01*
X68579Y750066D01*
X68712Y750062D01*
X68844Y750062D01*
X68977Y750066D01*
X69109Y750074D01*
X69241Y750086D01*
X69373Y750101D01*
X69504Y750121D01*
X69635Y750144D01*
X69764Y750171D01*
X69893Y750202D01*
X70021Y750237D01*
X70148Y750275D01*
X70274Y750317D01*
X70398Y750363D01*
X70521Y750412D01*
X70643Y750465D01*
X70763Y750522D01*
X70881Y750582D01*
X70998Y750645D01*
X71112Y750712D01*
X71225Y750782D01*
X71335Y750856D01*
X71443Y750932D01*
X71549Y751012D01*
X71653Y751095D01*
X71754Y751181D01*
X71852Y751270D01*
X71948Y751361D01*
X72041Y751456D01*
X72131Y751553D01*
X72218Y751653D01*
X72303Y751755D01*
X72384Y751860D01*
X72462Y751967D01*
X72538Y752076D01*
X72609Y752187D01*
X72678Y752301D01*
X72743Y752416D01*
X72805Y752534D01*
X72863Y752653D01*
X72918Y752774D01*
X72969Y752896D01*
X73017Y753020D01*
X73061Y753145D01*
X73101Y753271D01*
X73137Y753399D01*
X73170Y753527D01*
X73199Y753656D01*
X73224Y753787D01*
X73245Y753917D01*
X73263Y754049D01*
X73276Y754181D01*
X73286Y754313D01*
X73292Y754445D01*
X73294Y754578D01*
X72390Y762706D02*
X72388Y762825D01*
X72382Y762945D01*
X72372Y763064D01*
X72358Y763182D01*
X72341Y763301D01*
X72319Y763418D01*
X72294Y763535D01*
X72264Y763650D01*
X72231Y763765D01*
X72194Y763879D01*
X72154Y763991D01*
X72109Y764102D01*
X72061Y764211D01*
X72010Y764319D01*
X71955Y764425D01*
X71896Y764529D01*
X71834Y764631D01*
X71769Y764731D01*
X71700Y764829D01*
X71628Y764925D01*
X71553Y765018D01*
X71476Y765108D01*
X71395Y765196D01*
X71311Y765281D01*
X71224Y765363D01*
X71135Y765443D01*
X71043Y765519D01*
X70949Y765593D01*
X70852Y765663D01*
X70754Y765730D01*
X70653Y765794D01*
X70549Y765854D01*
X70444Y765911D01*
X70337Y765964D01*
X70229Y766014D01*
X70119Y766060D01*
X70007Y766102D01*
X69894Y766141D01*
X69780Y766176D01*
X69665Y766207D01*
X69548Y766235D01*
X69431Y766258D01*
X69314Y766278D01*
X69195Y766294D01*
X69076Y766306D01*
X68957Y766314D01*
X68838Y766318D01*
X68718Y766318D01*
X68599Y766314D01*
X68480Y766306D01*
X68361Y766294D01*
X68242Y766278D01*
X68125Y766258D01*
X68008Y766235D01*
X67891Y766207D01*
X67776Y766176D01*
X67662Y766141D01*
X67549Y766102D01*
X67437Y766060D01*
X67327Y766014D01*
X67219Y765964D01*
X67112Y765911D01*
X67007Y765854D01*
X66903Y765794D01*
X66802Y765730D01*
X66704Y765663D01*
X66607Y765593D01*
X66513Y765519D01*
X66421Y765443D01*
X66332Y765363D01*
X66245Y765281D01*
X66161Y765196D01*
X66080Y765108D01*
X66003Y765018D01*
X65928Y764925D01*
X65856Y764829D01*
X65787Y764731D01*
X65722Y764631D01*
X65660Y764529D01*
X65601Y764425D01*
X65546Y764319D01*
X65495Y764211D01*
X65447Y764102D01*
X65402Y763991D01*
X65362Y763879D01*
X65325Y763765D01*
X65292Y763650D01*
X65262Y763535D01*
X65237Y763418D01*
X65215Y763301D01*
X65198Y763182D01*
X65184Y763064D01*
X65174Y762945D01*
X65168Y762825D01*
X65166Y762706D01*
X65168Y762587D01*
X65174Y762467D01*
X65184Y762348D01*
X65198Y762230D01*
X65215Y762111D01*
X65237Y761994D01*
X65262Y761877D01*
X65292Y761762D01*
X65325Y761647D01*
X65362Y761533D01*
X65402Y761421D01*
X65447Y761310D01*
X65495Y761201D01*
X65546Y761093D01*
X65601Y760987D01*
X65660Y760883D01*
X65722Y760781D01*
X65787Y760681D01*
X65856Y760583D01*
X65928Y760487D01*
X66003Y760394D01*
X66080Y760304D01*
X66161Y760216D01*
X66245Y760131D01*
X66332Y760049D01*
X66421Y759969D01*
X66513Y759893D01*
X66607Y759819D01*
X66704Y759749D01*
X66802Y759682D01*
X66903Y759618D01*
X67007Y759558D01*
X67112Y759501D01*
X67219Y759448D01*
X67327Y759398D01*
X67437Y759352D01*
X67549Y759310D01*
X67662Y759271D01*
X67776Y759236D01*
X67891Y759205D01*
X68008Y759177D01*
X68125Y759154D01*
X68242Y759134D01*
X68361Y759118D01*
X68480Y759106D01*
X68599Y759098D01*
X68718Y759094D01*
X68838Y759094D01*
X68957Y759098D01*
X69076Y759106D01*
X69195Y759118D01*
X69314Y759134D01*
X69431Y759154D01*
X69548Y759177D01*
X69665Y759205D01*
X69780Y759236D01*
X69894Y759271D01*
X70007Y759310D01*
X70119Y759352D01*
X70229Y759398D01*
X70337Y759448D01*
X70444Y759501D01*
X70549Y759558D01*
X70653Y759618D01*
X70754Y759682D01*
X70852Y759749D01*
X70949Y759819D01*
X71043Y759893D01*
X71135Y759969D01*
X71224Y760049D01*
X71311Y760131D01*
X71395Y760216D01*
X71476Y760304D01*
X71553Y760394D01*
X71628Y760487D01*
X71700Y760583D01*
X71769Y760681D01*
X71834Y760781D01*
X71896Y760883D01*
X71955Y760987D01*
X72010Y761093D01*
X72061Y761201D01*
X72109Y761310D01*
X72154Y761421D01*
X72194Y761533D01*
X72231Y761647D01*
X72264Y761762D01*
X72294Y761877D01*
X72319Y761994D01*
X72341Y762111D01*
X72358Y762230D01*
X72372Y762348D01*
X72382Y762467D01*
X72388Y762587D01*
X72390Y762706D01*
X89446Y756384D02*
X93961Y754578D01*
X89445Y756384D02*
X89357Y756421D01*
X89271Y756462D01*
X89186Y756506D01*
X89103Y756554D01*
X89023Y756605D01*
X88944Y756659D01*
X88868Y756717D01*
X88794Y756777D01*
X88722Y756841D01*
X88654Y756907D01*
X88588Y756977D01*
X88525Y757048D01*
X88464Y757123D01*
X88407Y757199D01*
X88354Y757278D01*
X88303Y757359D01*
X88256Y757442D01*
X88212Y757527D01*
X88172Y757614D01*
X88135Y757702D01*
X88102Y757792D01*
X88072Y757883D01*
X88047Y757975D01*
X88025Y758068D01*
X88007Y758162D01*
X87992Y758256D01*
X87982Y758351D01*
X87976Y758447D01*
X87973Y758542D01*
X87974Y758638D01*
X87980Y758733D01*
X87989Y758829D01*
X88002Y758923D01*
X88018Y759017D01*
X88039Y759111D01*
X88064Y759203D01*
X88092Y759294D01*
X88124Y759384D01*
X88159Y759473D01*
X88198Y759560D01*
X88241Y759646D01*
X88287Y759730D01*
X88337Y759811D01*
X88389Y759891D01*
X88445Y759969D01*
X88505Y760044D01*
X88567Y760116D01*
X88632Y760186D01*
X88700Y760254D01*
X88770Y760318D01*
X88843Y760380D01*
X88919Y760438D01*
X88997Y760494D01*
X89077Y760546D01*
X89159Y760595D01*
X89243Y760640D01*
X89329Y760682D01*
X89416Y760721D01*
X89505Y760756D01*
X89596Y760787D01*
X89687Y760814D01*
X89780Y760838D01*
X89873Y760858D01*
X89967Y760874D01*
X90062Y760886D01*
X90157Y760895D01*
X90253Y760899D01*
X90348Y760900D01*
X90595Y760893D01*
X90841Y760881D01*
X91087Y760863D01*
X91333Y760838D01*
X91577Y760808D01*
X91821Y760772D01*
X92064Y760731D01*
X92306Y760683D01*
X92547Y760629D01*
X92786Y760570D01*
X93024Y760505D01*
X93260Y760434D01*
X93495Y760358D01*
X93728Y760276D01*
X93958Y760188D01*
X94186Y760095D01*
X94413Y759997D01*
X93961Y754577D02*
X94049Y754540D01*
X94135Y754499D01*
X94220Y754455D01*
X94303Y754407D01*
X94383Y754356D01*
X94462Y754302D01*
X94538Y754244D01*
X94612Y754184D01*
X94684Y754120D01*
X94752Y754054D01*
X94818Y753984D01*
X94881Y753913D01*
X94942Y753838D01*
X94999Y753762D01*
X95052Y753683D01*
X95103Y753602D01*
X95150Y753519D01*
X95194Y753434D01*
X95234Y753347D01*
X95271Y753259D01*
X95304Y753169D01*
X95334Y753078D01*
X95359Y752986D01*
X95381Y752893D01*
X95399Y752799D01*
X95414Y752705D01*
X95424Y752610D01*
X95430Y752514D01*
X95433Y752419D01*
X95432Y752323D01*
X95426Y752228D01*
X95417Y752132D01*
X95404Y752038D01*
X95388Y751944D01*
X95367Y751850D01*
X95342Y751758D01*
X95314Y751667D01*
X95282Y751577D01*
X95247Y751488D01*
X95208Y751401D01*
X95165Y751315D01*
X95119Y751231D01*
X95069Y751150D01*
X95017Y751070D01*
X94961Y750992D01*
X94901Y750917D01*
X94839Y750845D01*
X94774Y750775D01*
X94706Y750707D01*
X94636Y750643D01*
X94563Y750581D01*
X94487Y750523D01*
X94409Y750467D01*
X94329Y750415D01*
X94247Y750366D01*
X94163Y750321D01*
X94077Y750279D01*
X93990Y750240D01*
X93901Y750205D01*
X93810Y750174D01*
X93719Y750147D01*
X93626Y750123D01*
X93533Y750103D01*
X93439Y750087D01*
X93344Y750075D01*
X93249Y750066D01*
X93153Y750062D01*
X93058Y750061D01*
X93058Y750062D02*
X92696Y750071D01*
X92334Y750089D01*
X91973Y750116D01*
X91613Y750151D01*
X91253Y750194D01*
X90894Y750246D01*
X90537Y750307D01*
X90182Y750376D01*
X89828Y750453D01*
X89476Y750539D01*
X89126Y750633D01*
X88778Y750736D01*
X88433Y750846D01*
X88091Y750965D01*
X104347Y750062D02*
X108863Y750062D01*
X104347Y750062D02*
X104246Y750064D01*
X104145Y750070D01*
X104044Y750079D01*
X103943Y750092D01*
X103843Y750109D01*
X103744Y750130D01*
X103646Y750154D01*
X103549Y750182D01*
X103452Y750214D01*
X103357Y750249D01*
X103264Y750288D01*
X103172Y750330D01*
X103081Y750376D01*
X102993Y750425D01*
X102906Y750477D01*
X102821Y750533D01*
X102738Y750591D01*
X102658Y750653D01*
X102580Y750718D01*
X102504Y750785D01*
X102431Y750855D01*
X102361Y750928D01*
X102294Y751004D01*
X102229Y751082D01*
X102167Y751162D01*
X102109Y751245D01*
X102053Y751330D01*
X102001Y751417D01*
X101952Y751505D01*
X101906Y751596D01*
X101864Y751688D01*
X101825Y751781D01*
X101790Y751876D01*
X101758Y751973D01*
X101730Y752070D01*
X101706Y752168D01*
X101685Y752267D01*
X101668Y752367D01*
X101655Y752468D01*
X101646Y752569D01*
X101640Y752670D01*
X101638Y752771D01*
X101638Y757287D01*
X101640Y757406D01*
X101646Y757526D01*
X101656Y757645D01*
X101670Y757763D01*
X101687Y757882D01*
X101709Y757999D01*
X101734Y758116D01*
X101764Y758231D01*
X101797Y758346D01*
X101834Y758460D01*
X101874Y758572D01*
X101919Y758683D01*
X101967Y758792D01*
X102018Y758900D01*
X102073Y759006D01*
X102132Y759110D01*
X102194Y759212D01*
X102259Y759312D01*
X102328Y759410D01*
X102400Y759506D01*
X102475Y759599D01*
X102552Y759689D01*
X102633Y759777D01*
X102717Y759862D01*
X102804Y759944D01*
X102893Y760024D01*
X102985Y760100D01*
X103079Y760174D01*
X103176Y760244D01*
X103274Y760311D01*
X103375Y760375D01*
X103479Y760435D01*
X103584Y760492D01*
X103691Y760545D01*
X103799Y760595D01*
X103909Y760641D01*
X104021Y760683D01*
X104134Y760722D01*
X104248Y760757D01*
X104363Y760788D01*
X104480Y760816D01*
X104597Y760839D01*
X104714Y760859D01*
X104833Y760875D01*
X104952Y760887D01*
X105071Y760895D01*
X105190Y760899D01*
X105310Y760899D01*
X105429Y760895D01*
X105548Y760887D01*
X105667Y760875D01*
X105786Y760859D01*
X105903Y760839D01*
X106020Y760816D01*
X106137Y760788D01*
X106252Y760757D01*
X106366Y760722D01*
X106479Y760683D01*
X106591Y760641D01*
X106701Y760595D01*
X106809Y760545D01*
X106916Y760492D01*
X107021Y760435D01*
X107125Y760375D01*
X107226Y760311D01*
X107324Y760244D01*
X107421Y760174D01*
X107515Y760100D01*
X107607Y760024D01*
X107696Y759944D01*
X107783Y759862D01*
X107867Y759777D01*
X107948Y759689D01*
X108025Y759599D01*
X108100Y759506D01*
X108172Y759410D01*
X108241Y759312D01*
X108306Y759212D01*
X108368Y759110D01*
X108427Y759006D01*
X108482Y758900D01*
X108533Y758792D01*
X108581Y758683D01*
X108626Y758572D01*
X108666Y758460D01*
X108703Y758346D01*
X108736Y758231D01*
X108766Y758116D01*
X108791Y757999D01*
X108813Y757882D01*
X108830Y757763D01*
X108844Y757645D01*
X108854Y757526D01*
X108860Y757406D01*
X108862Y757287D01*
X108863Y757287D02*
X108863Y755481D01*
X101638Y755481D01*
X115791Y750062D02*
X115791Y760899D01*
X121210Y760899D01*
X121210Y759093D01*
X125606Y760899D02*
X129218Y750062D01*
X132831Y760899D01*
X138632Y757287D02*
X138632Y753674D01*
X138632Y757287D02*
X138634Y757406D01*
X138640Y757526D01*
X138650Y757645D01*
X138664Y757763D01*
X138681Y757882D01*
X138703Y757999D01*
X138728Y758116D01*
X138758Y758231D01*
X138791Y758346D01*
X138828Y758460D01*
X138868Y758572D01*
X138913Y758683D01*
X138961Y758792D01*
X139012Y758900D01*
X139067Y759006D01*
X139126Y759110D01*
X139188Y759212D01*
X139253Y759312D01*
X139322Y759410D01*
X139394Y759506D01*
X139469Y759599D01*
X139546Y759689D01*
X139627Y759777D01*
X139711Y759862D01*
X139798Y759944D01*
X139887Y760024D01*
X139979Y760100D01*
X140073Y760174D01*
X140170Y760244D01*
X140268Y760311D01*
X140369Y760375D01*
X140473Y760435D01*
X140578Y760492D01*
X140685Y760545D01*
X140793Y760595D01*
X140903Y760641D01*
X141015Y760683D01*
X141128Y760722D01*
X141242Y760757D01*
X141357Y760788D01*
X141474Y760816D01*
X141591Y760839D01*
X141708Y760859D01*
X141827Y760875D01*
X141946Y760887D01*
X142065Y760895D01*
X142184Y760899D01*
X142304Y760899D01*
X142423Y760895D01*
X142542Y760887D01*
X142661Y760875D01*
X142780Y760859D01*
X142897Y760839D01*
X143014Y760816D01*
X143131Y760788D01*
X143246Y760757D01*
X143360Y760722D01*
X143473Y760683D01*
X143585Y760641D01*
X143695Y760595D01*
X143803Y760545D01*
X143910Y760492D01*
X144015Y760435D01*
X144119Y760375D01*
X144220Y760311D01*
X144318Y760244D01*
X144415Y760174D01*
X144509Y760100D01*
X144601Y760024D01*
X144690Y759944D01*
X144777Y759862D01*
X144861Y759777D01*
X144942Y759689D01*
X145019Y759599D01*
X145094Y759506D01*
X145166Y759410D01*
X145235Y759312D01*
X145300Y759212D01*
X145362Y759110D01*
X145421Y759006D01*
X145476Y758900D01*
X145527Y758792D01*
X145575Y758683D01*
X145620Y758572D01*
X145660Y758460D01*
X145697Y758346D01*
X145730Y758231D01*
X145760Y758116D01*
X145785Y757999D01*
X145807Y757882D01*
X145824Y757763D01*
X145838Y757645D01*
X145848Y757526D01*
X145854Y757406D01*
X145856Y757287D01*
X145857Y757287D02*
X145857Y753674D01*
X145856Y753674D02*
X145854Y753555D01*
X145848Y753435D01*
X145838Y753316D01*
X145824Y753198D01*
X145807Y753079D01*
X145785Y752962D01*
X145760Y752845D01*
X145730Y752730D01*
X145697Y752615D01*
X145660Y752501D01*
X145620Y752389D01*
X145575Y752278D01*
X145527Y752169D01*
X145476Y752061D01*
X145421Y751955D01*
X145362Y751851D01*
X145300Y751749D01*
X145235Y751649D01*
X145166Y751551D01*
X145094Y751455D01*
X145019Y751362D01*
X144942Y751272D01*
X144861Y751184D01*
X144777Y751099D01*
X144690Y751017D01*
X144601Y750937D01*
X144509Y750861D01*
X144415Y750787D01*
X144318Y750717D01*
X144220Y750650D01*
X144119Y750586D01*
X144015Y750526D01*
X143910Y750469D01*
X143803Y750416D01*
X143695Y750366D01*
X143585Y750320D01*
X143473Y750278D01*
X143360Y750239D01*
X143246Y750204D01*
X143131Y750173D01*
X143014Y750145D01*
X142897Y750122D01*
X142780Y750102D01*
X142661Y750086D01*
X142542Y750074D01*
X142423Y750066D01*
X142304Y750062D01*
X142184Y750062D01*
X142065Y750066D01*
X141946Y750074D01*
X141827Y750086D01*
X141708Y750102D01*
X141591Y750122D01*
X141474Y750145D01*
X141357Y750173D01*
X141242Y750204D01*
X141128Y750239D01*
X141015Y750278D01*
X140903Y750320D01*
X140793Y750366D01*
X140685Y750416D01*
X140578Y750469D01*
X140473Y750526D01*
X140369Y750586D01*
X140268Y750650D01*
X140170Y750717D01*
X140073Y750787D01*
X139979Y750861D01*
X139887Y750937D01*
X139798Y751017D01*
X139711Y751099D01*
X139627Y751184D01*
X139546Y751272D01*
X139469Y751362D01*
X139394Y751455D01*
X139322Y751551D01*
X139253Y751649D01*
X139188Y751749D01*
X139126Y751851D01*
X139067Y751955D01*
X139012Y752061D01*
X138961Y752169D01*
X138913Y752278D01*
X138868Y752389D01*
X138828Y752501D01*
X138791Y752615D01*
X138758Y752730D01*
X138728Y752845D01*
X138703Y752962D01*
X138681Y753079D01*
X138664Y753198D01*
X138650Y753316D01*
X138640Y753435D01*
X138634Y753555D01*
X138632Y753674D01*
X153534Y756384D02*
X158049Y754578D01*
X153533Y756384D02*
X153445Y756421D01*
X153359Y756462D01*
X153274Y756506D01*
X153191Y756554D01*
X153111Y756605D01*
X153032Y756659D01*
X152956Y756717D01*
X152882Y756777D01*
X152810Y756841D01*
X152742Y756907D01*
X152676Y756977D01*
X152613Y757048D01*
X152552Y757123D01*
X152495Y757199D01*
X152442Y757278D01*
X152391Y757359D01*
X152344Y757442D01*
X152300Y757527D01*
X152260Y757614D01*
X152223Y757702D01*
X152190Y757792D01*
X152160Y757883D01*
X152135Y757975D01*
X152113Y758068D01*
X152095Y758162D01*
X152080Y758256D01*
X152070Y758351D01*
X152064Y758447D01*
X152061Y758542D01*
X152062Y758638D01*
X152068Y758733D01*
X152077Y758829D01*
X152090Y758923D01*
X152106Y759017D01*
X152127Y759111D01*
X152152Y759203D01*
X152180Y759294D01*
X152212Y759384D01*
X152247Y759473D01*
X152286Y759560D01*
X152329Y759646D01*
X152375Y759730D01*
X152425Y759811D01*
X152477Y759891D01*
X152533Y759969D01*
X152593Y760044D01*
X152655Y760116D01*
X152720Y760186D01*
X152788Y760254D01*
X152858Y760318D01*
X152931Y760380D01*
X153007Y760438D01*
X153085Y760494D01*
X153165Y760546D01*
X153247Y760595D01*
X153331Y760640D01*
X153417Y760682D01*
X153504Y760721D01*
X153593Y760756D01*
X153684Y760787D01*
X153775Y760814D01*
X153868Y760838D01*
X153961Y760858D01*
X154055Y760874D01*
X154150Y760886D01*
X154245Y760895D01*
X154341Y760899D01*
X154436Y760900D01*
X154683Y760893D01*
X154929Y760881D01*
X155175Y760863D01*
X155421Y760838D01*
X155665Y760808D01*
X155909Y760772D01*
X156152Y760731D01*
X156394Y760683D01*
X156635Y760629D01*
X156874Y760570D01*
X157112Y760505D01*
X157348Y760434D01*
X157583Y760358D01*
X157816Y760276D01*
X158046Y760188D01*
X158274Y760095D01*
X158501Y759997D01*
X158049Y754577D02*
X158137Y754540D01*
X158223Y754499D01*
X158308Y754455D01*
X158391Y754407D01*
X158471Y754356D01*
X158550Y754302D01*
X158626Y754244D01*
X158700Y754184D01*
X158772Y754120D01*
X158840Y754054D01*
X158906Y753984D01*
X158969Y753913D01*
X159030Y753838D01*
X159087Y753762D01*
X159140Y753683D01*
X159191Y753602D01*
X159238Y753519D01*
X159282Y753434D01*
X159322Y753347D01*
X159359Y753259D01*
X159392Y753169D01*
X159422Y753078D01*
X159447Y752986D01*
X159469Y752893D01*
X159487Y752799D01*
X159502Y752705D01*
X159512Y752610D01*
X159518Y752514D01*
X159521Y752419D01*
X159520Y752323D01*
X159514Y752228D01*
X159505Y752132D01*
X159492Y752038D01*
X159476Y751944D01*
X159455Y751850D01*
X159430Y751758D01*
X159402Y751667D01*
X159370Y751577D01*
X159335Y751488D01*
X159296Y751401D01*
X159253Y751315D01*
X159207Y751231D01*
X159157Y751150D01*
X159105Y751070D01*
X159049Y750992D01*
X158989Y750917D01*
X158927Y750845D01*
X158862Y750775D01*
X158794Y750707D01*
X158724Y750643D01*
X158651Y750581D01*
X158575Y750523D01*
X158497Y750467D01*
X158417Y750415D01*
X158335Y750366D01*
X158251Y750321D01*
X158165Y750279D01*
X158078Y750240D01*
X157989Y750205D01*
X157898Y750174D01*
X157807Y750147D01*
X157714Y750123D01*
X157621Y750103D01*
X157527Y750087D01*
X157432Y750075D01*
X157337Y750066D01*
X157241Y750062D01*
X157146Y750061D01*
X157146Y750062D02*
X156784Y750071D01*
X156422Y750089D01*
X156061Y750116D01*
X155701Y750151D01*
X155341Y750194D01*
X154982Y750246D01*
X154625Y750307D01*
X154270Y750376D01*
X153916Y750453D01*
X153564Y750539D01*
X153214Y750633D01*
X152866Y750736D01*
X152521Y750846D01*
X152179Y750965D01*
D11*
X215900Y744220D02*
X215900Y728980D01*
X241300Y728980D02*
X241300Y744220D01*
X266700Y744220D02*
X266700Y728980D01*
X292100Y728980D02*
X292100Y744220D01*
X317500Y744220D02*
X317500Y728980D01*
X342900Y728980D02*
X342900Y744220D01*
X368300Y744220D02*
X368300Y728980D01*
X393700Y728980D02*
X393700Y744220D01*
D12*
X106680Y238760D03*
X106680Y66040D03*
X502920Y66040D03*
X502920Y238760D03*
X106680Y467360D03*
X106680Y294640D03*
X502920Y294640D03*
X502920Y467360D03*
X106680Y695960D03*
X106680Y523240D03*
X502920Y523240D03*
X502920Y695960D03*
D13*
X187800Y25400D03*
X167800Y25400D03*
X117000Y25400D03*
X137000Y25400D03*
D14*
X223780Y419100D03*
D15*
X223780Y393700D03*
X223780Y368300D03*
X223780Y342900D03*
X223780Y317500D03*
X223780Y292100D03*
X223780Y266700D03*
X223780Y241300D03*
X223780Y215900D03*
X223780Y190500D03*
X223780Y165100D03*
X223780Y139700D03*
X376180Y419100D03*
X376180Y393700D03*
X376180Y368300D03*
X376180Y342900D03*
X376180Y317500D03*
X376180Y292100D03*
X376180Y241300D03*
X376180Y215900D03*
X376180Y165100D03*
X376180Y139700D03*
X376180Y190500D03*
X376180Y266700D03*
X223780Y114300D03*
X223780Y88900D03*
X223780Y63500D03*
X376180Y114300D03*
X376180Y88900D03*
X376180Y63500D03*
D16*
X215900Y762000D03*
X215900Y787400D03*
X241300Y762000D03*
X241300Y787400D03*
X266700Y762000D03*
X266700Y787400D03*
X292100Y762000D03*
X292100Y787400D03*
X317500Y762000D03*
X317500Y787400D03*
X342900Y762000D03*
X342900Y787400D03*
X368300Y762000D03*
X368300Y787400D03*
X393700Y762000D03*
X393700Y787400D03*
D17*
X462370Y238760D02*
X502920Y238760D01*
X462370Y238760D02*
X462214Y238762D01*
X462058Y238768D01*
X461903Y238777D01*
X461748Y238791D01*
X461593Y238808D01*
X461438Y238829D01*
X461284Y238853D01*
X461131Y238882D01*
X460979Y238914D01*
X460827Y238950D01*
X460676Y238990D01*
X460527Y239033D01*
X460378Y239080D01*
X460231Y239131D01*
X460085Y239185D01*
X459940Y239243D01*
X459797Y239305D01*
X459655Y239370D01*
X459515Y239438D01*
X459377Y239510D01*
X459240Y239585D01*
X459105Y239663D01*
X458973Y239745D01*
X458842Y239830D01*
X458714Y239918D01*
X458587Y240010D01*
X458463Y240104D01*
X458342Y240201D01*
X458222Y240302D01*
X458106Y240405D01*
X457991Y240511D01*
X457880Y240620D01*
X419100Y279400D01*
X419100Y317500D01*
X395560Y341040D01*
X395449Y341149D01*
X395334Y341255D01*
X395218Y341358D01*
X395098Y341459D01*
X394977Y341556D01*
X394853Y341650D01*
X394726Y341742D01*
X394598Y341830D01*
X394467Y341915D01*
X394335Y341997D01*
X394200Y342075D01*
X394063Y342150D01*
X393925Y342222D01*
X393785Y342290D01*
X393643Y342355D01*
X393500Y342417D01*
X393355Y342475D01*
X393209Y342529D01*
X393062Y342580D01*
X392913Y342627D01*
X392764Y342670D01*
X392613Y342710D01*
X392461Y342746D01*
X392309Y342778D01*
X392156Y342807D01*
X392002Y342831D01*
X391847Y342852D01*
X391692Y342869D01*
X391537Y342883D01*
X391382Y342892D01*
X391226Y342898D01*
X391070Y342900D01*
X376180Y342900D01*
X419100Y473710D02*
X419100Y762000D01*
X419100Y473710D02*
X419102Y473552D01*
X419108Y473393D01*
X419118Y473235D01*
X419132Y473078D01*
X419149Y472920D01*
X419171Y472764D01*
X419196Y472607D01*
X419226Y472452D01*
X419259Y472297D01*
X419296Y472143D01*
X419337Y471990D01*
X419382Y471838D01*
X419431Y471688D01*
X419483Y471538D01*
X419539Y471390D01*
X419599Y471243D01*
X419662Y471098D01*
X419729Y470955D01*
X419799Y470813D01*
X419873Y470673D01*
X419951Y470535D01*
X420032Y470399D01*
X420116Y470265D01*
X420203Y470133D01*
X420294Y470003D01*
X420388Y469876D01*
X420485Y469751D01*
X420586Y469628D01*
X420689Y469508D01*
X420795Y469391D01*
X420904Y469276D01*
X421016Y469164D01*
X421131Y469055D01*
X421248Y468949D01*
X421368Y468846D01*
X421491Y468745D01*
X421616Y468648D01*
X421743Y468554D01*
X421873Y468463D01*
X422005Y468376D01*
X422139Y468292D01*
X422275Y468211D01*
X422413Y468133D01*
X422553Y468059D01*
X422695Y467989D01*
X422838Y467922D01*
X422983Y467859D01*
X423130Y467799D01*
X423278Y467743D01*
X423428Y467691D01*
X423578Y467642D01*
X423730Y467597D01*
X423883Y467556D01*
X424037Y467519D01*
X424192Y467486D01*
X424347Y467456D01*
X424504Y467431D01*
X424660Y467409D01*
X424818Y467392D01*
X424975Y467378D01*
X425133Y467368D01*
X425292Y467362D01*
X425450Y467360D01*
X502920Y467360D01*
X419100Y762000D02*
X393700Y762000D01*
X368300Y762000D01*
X342900Y762000D01*
X317500Y762000D01*
D18*
X187800Y174048D02*
X187800Y25400D01*
X187800Y174048D02*
X187802Y174148D01*
X187808Y174247D01*
X187818Y174347D01*
X187831Y174445D01*
X187849Y174544D01*
X187870Y174641D01*
X187895Y174737D01*
X187924Y174833D01*
X187957Y174927D01*
X187993Y175020D01*
X188033Y175111D01*
X188077Y175201D01*
X188124Y175289D01*
X188174Y175375D01*
X188228Y175459D01*
X188285Y175541D01*
X188345Y175620D01*
X188409Y175698D01*
X188475Y175772D01*
X188544Y175844D01*
X202456Y189756D02*
X202525Y189828D01*
X202591Y189902D01*
X202655Y189980D01*
X202715Y190059D01*
X202772Y190141D01*
X202826Y190225D01*
X202876Y190311D01*
X202923Y190399D01*
X202967Y190489D01*
X203007Y190580D01*
X203043Y190673D01*
X203076Y190767D01*
X203105Y190863D01*
X203130Y190959D01*
X203151Y191056D01*
X203169Y191155D01*
X203182Y191253D01*
X203192Y191353D01*
X203198Y191452D01*
X203200Y191552D01*
X203200Y381000D01*
X215156Y392956D01*
X215228Y393025D01*
X215302Y393091D01*
X215380Y393155D01*
X215459Y393215D01*
X215541Y393272D01*
X215625Y393326D01*
X215711Y393376D01*
X215799Y393423D01*
X215889Y393467D01*
X215980Y393507D01*
X216073Y393543D01*
X216167Y393576D01*
X216263Y393605D01*
X216359Y393630D01*
X216456Y393651D01*
X216555Y393669D01*
X216653Y393682D01*
X216753Y393692D01*
X216852Y393698D01*
X216952Y393700D01*
X223780Y393700D01*
X202456Y189756D02*
X188544Y175844D01*
X167800Y179448D02*
X167800Y25400D01*
X167800Y179448D02*
X167802Y179548D01*
X167808Y179647D01*
X167818Y179747D01*
X167831Y179845D01*
X167849Y179944D01*
X167870Y180041D01*
X167895Y180137D01*
X167924Y180233D01*
X167957Y180327D01*
X167993Y180420D01*
X168033Y180511D01*
X168077Y180601D01*
X168124Y180689D01*
X168174Y180775D01*
X168228Y180859D01*
X168285Y180941D01*
X168345Y181020D01*
X168409Y181098D01*
X168475Y181172D01*
X168544Y181244D01*
X190500Y203200D01*
X190500Y384768D01*
X190502Y384868D01*
X190508Y384967D01*
X190518Y385067D01*
X190531Y385165D01*
X190549Y385264D01*
X190570Y385361D01*
X190595Y385457D01*
X190624Y385553D01*
X190657Y385647D01*
X190693Y385740D01*
X190733Y385831D01*
X190777Y385921D01*
X190824Y386009D01*
X190874Y386095D01*
X190928Y386179D01*
X190985Y386261D01*
X191045Y386340D01*
X191109Y386418D01*
X191175Y386492D01*
X191244Y386564D01*
X223780Y419100D01*
D17*
X106680Y695960D02*
X106678Y696060D01*
X106672Y696159D01*
X106662Y696259D01*
X106649Y696357D01*
X106631Y696456D01*
X106610Y696553D01*
X106585Y696649D01*
X106556Y696745D01*
X106523Y696839D01*
X106487Y696932D01*
X106447Y697023D01*
X106403Y697113D01*
X106356Y697201D01*
X106306Y697287D01*
X106252Y697371D01*
X106195Y697453D01*
X106135Y697532D01*
X106071Y697610D01*
X106005Y697684D01*
X105936Y697756D01*
X105864Y697825D01*
X105790Y697891D01*
X105712Y697955D01*
X105633Y698015D01*
X105551Y698072D01*
X105467Y698126D01*
X105381Y698176D01*
X105293Y698223D01*
X105203Y698267D01*
X105112Y698307D01*
X105019Y698343D01*
X104925Y698376D01*
X104829Y698405D01*
X104733Y698430D01*
X104636Y698451D01*
X104537Y698469D01*
X104439Y698482D01*
X104339Y698492D01*
X104240Y698498D01*
X104140Y698500D01*
X76200Y698500D01*
X76200Y470535D01*
X76202Y470424D01*
X76208Y470314D01*
X76217Y470203D01*
X76231Y470093D01*
X76248Y469984D01*
X76269Y469875D01*
X76294Y469767D01*
X76323Y469660D01*
X76355Y469554D01*
X76391Y469449D01*
X76431Y469346D01*
X76474Y469244D01*
X76521Y469143D01*
X76572Y469044D01*
X76625Y468948D01*
X76682Y468853D01*
X76743Y468760D01*
X76806Y468669D01*
X76873Y468580D01*
X76943Y468494D01*
X77016Y468411D01*
X77091Y468329D01*
X77169Y468251D01*
X77251Y468176D01*
X77334Y468103D01*
X77420Y468033D01*
X77509Y467966D01*
X77600Y467903D01*
X77693Y467842D01*
X77788Y467785D01*
X77884Y467732D01*
X77983Y467681D01*
X78084Y467634D01*
X78186Y467591D01*
X78289Y467551D01*
X78394Y467515D01*
X78500Y467483D01*
X78607Y467454D01*
X78715Y467429D01*
X78824Y467408D01*
X78933Y467391D01*
X79043Y467377D01*
X79154Y467368D01*
X79264Y467362D01*
X79375Y467360D01*
X106680Y467360D01*
X76200Y470535D02*
X76200Y241935D01*
X76202Y241824D01*
X76208Y241714D01*
X76217Y241603D01*
X76231Y241493D01*
X76248Y241384D01*
X76269Y241275D01*
X76294Y241167D01*
X76323Y241060D01*
X76355Y240954D01*
X76391Y240849D01*
X76431Y240746D01*
X76474Y240644D01*
X76521Y240543D01*
X76572Y240444D01*
X76625Y240348D01*
X76682Y240253D01*
X76743Y240160D01*
X76806Y240069D01*
X76873Y239980D01*
X76943Y239894D01*
X77016Y239811D01*
X77091Y239729D01*
X77169Y239651D01*
X77251Y239576D01*
X77334Y239503D01*
X77420Y239433D01*
X77509Y239366D01*
X77600Y239303D01*
X77693Y239242D01*
X77788Y239185D01*
X77884Y239132D01*
X77983Y239081D01*
X78084Y239034D01*
X78186Y238991D01*
X78289Y238951D01*
X78394Y238915D01*
X78500Y238883D01*
X78607Y238854D01*
X78715Y238829D01*
X78824Y238808D01*
X78933Y238791D01*
X79043Y238777D01*
X79154Y238768D01*
X79264Y238762D01*
X79375Y238760D01*
X106680Y238760D01*
X79375Y238760D02*
X79264Y238758D01*
X79154Y238752D01*
X79043Y238743D01*
X78933Y238729D01*
X78824Y238712D01*
X78715Y238691D01*
X78607Y238666D01*
X78500Y238637D01*
X78394Y238605D01*
X78289Y238569D01*
X78186Y238529D01*
X78084Y238486D01*
X77983Y238439D01*
X77884Y238388D01*
X77788Y238335D01*
X77693Y238278D01*
X77600Y238217D01*
X77509Y238154D01*
X77420Y238087D01*
X77334Y238017D01*
X77251Y237944D01*
X77169Y237869D01*
X77091Y237791D01*
X77016Y237709D01*
X76943Y237626D01*
X76873Y237540D01*
X76806Y237451D01*
X76743Y237360D01*
X76682Y237267D01*
X76625Y237173D01*
X76572Y237076D01*
X76521Y236977D01*
X76474Y236876D01*
X76431Y236774D01*
X76391Y236671D01*
X76355Y236566D01*
X76323Y236460D01*
X76294Y236353D01*
X76269Y236245D01*
X76248Y236136D01*
X76231Y236027D01*
X76217Y235917D01*
X76208Y235806D01*
X76202Y235696D01*
X76200Y235585D01*
X76200Y28575D02*
X76202Y28464D01*
X76208Y28354D01*
X76217Y28243D01*
X76231Y28133D01*
X76248Y28024D01*
X76269Y27915D01*
X76294Y27807D01*
X76323Y27700D01*
X76355Y27594D01*
X76391Y27489D01*
X76431Y27386D01*
X76474Y27284D01*
X76521Y27183D01*
X76572Y27084D01*
X76625Y26988D01*
X76682Y26893D01*
X76743Y26800D01*
X76806Y26709D01*
X76873Y26620D01*
X76943Y26534D01*
X77016Y26451D01*
X77091Y26369D01*
X77169Y26291D01*
X77251Y26216D01*
X77334Y26143D01*
X77420Y26073D01*
X77509Y26006D01*
X77600Y25943D01*
X77693Y25882D01*
X77788Y25825D01*
X77884Y25772D01*
X77983Y25721D01*
X78084Y25674D01*
X78186Y25631D01*
X78289Y25591D01*
X78394Y25555D01*
X78500Y25523D01*
X78607Y25494D01*
X78715Y25469D01*
X78824Y25448D01*
X78933Y25431D01*
X79043Y25417D01*
X79154Y25408D01*
X79264Y25402D01*
X79375Y25400D01*
X117000Y25400D01*
X76200Y28575D02*
X76200Y235585D01*
D18*
X223780Y317500D02*
X227548Y317500D01*
X227648Y317502D01*
X227747Y317508D01*
X227847Y317518D01*
X227945Y317531D01*
X228044Y317549D01*
X228141Y317570D01*
X228237Y317595D01*
X228333Y317624D01*
X228427Y317657D01*
X228520Y317693D01*
X228611Y317733D01*
X228701Y317777D01*
X228789Y317824D01*
X228875Y317874D01*
X228959Y317928D01*
X229041Y317985D01*
X229120Y318045D01*
X229198Y318109D01*
X229272Y318175D01*
X229344Y318244D01*
X241300Y330200D01*
X241300Y595848D01*
X241298Y595948D01*
X241292Y596047D01*
X241282Y596147D01*
X241269Y596245D01*
X241251Y596344D01*
X241230Y596441D01*
X241205Y596537D01*
X241176Y596633D01*
X241143Y596727D01*
X241107Y596820D01*
X241067Y596911D01*
X241023Y597001D01*
X240976Y597089D01*
X240926Y597175D01*
X240872Y597259D01*
X240815Y597341D01*
X240755Y597420D01*
X240691Y597498D01*
X240625Y597572D01*
X240556Y597644D01*
X215900Y622300D01*
X215900Y736600D01*
X254000Y317500D02*
X228600Y292100D01*
X223780Y292100D01*
X254000Y317500D02*
X254000Y608548D01*
X253998Y608648D01*
X253992Y608747D01*
X253982Y608847D01*
X253969Y608945D01*
X253951Y609044D01*
X253930Y609141D01*
X253905Y609237D01*
X253876Y609333D01*
X253843Y609427D01*
X253807Y609520D01*
X253767Y609611D01*
X253723Y609701D01*
X253676Y609789D01*
X253626Y609875D01*
X253572Y609959D01*
X253515Y610041D01*
X253455Y610120D01*
X253391Y610198D01*
X253325Y610272D01*
X253256Y610344D01*
X241300Y622300D01*
X241300Y736600D01*
X266700Y304800D02*
X229344Y267444D01*
X229272Y267375D01*
X229198Y267309D01*
X229120Y267245D01*
X229041Y267185D01*
X228959Y267128D01*
X228875Y267074D01*
X228789Y267024D01*
X228701Y266977D01*
X228611Y266933D01*
X228520Y266893D01*
X228427Y266857D01*
X228333Y266824D01*
X228237Y266795D01*
X228141Y266770D01*
X228044Y266749D01*
X227945Y266731D01*
X227847Y266718D01*
X227747Y266708D01*
X227648Y266702D01*
X227548Y266700D01*
X223780Y266700D01*
X266700Y304800D02*
X266700Y736600D01*
X279400Y292100D02*
X229344Y242044D01*
X229272Y241975D01*
X229198Y241909D01*
X229120Y241845D01*
X229041Y241785D01*
X228959Y241728D01*
X228875Y241674D01*
X228789Y241624D01*
X228701Y241577D01*
X228611Y241533D01*
X228520Y241493D01*
X228427Y241457D01*
X228333Y241424D01*
X228237Y241395D01*
X228141Y241370D01*
X228044Y241349D01*
X227945Y241331D01*
X227847Y241318D01*
X227747Y241308D01*
X227648Y241302D01*
X227548Y241300D01*
X223780Y241300D01*
X279400Y292100D02*
X279400Y609600D01*
X291356Y621556D01*
X291425Y621628D01*
X291491Y621702D01*
X291555Y621780D01*
X291615Y621859D01*
X291672Y621941D01*
X291726Y622025D01*
X291776Y622111D01*
X291823Y622199D01*
X291867Y622289D01*
X291907Y622380D01*
X291943Y622473D01*
X291976Y622567D01*
X292005Y622663D01*
X292030Y622759D01*
X292051Y622856D01*
X292069Y622955D01*
X292082Y623053D01*
X292092Y623153D01*
X292098Y623252D01*
X292100Y623352D01*
X292100Y736600D01*
X292100Y279400D02*
X229344Y216644D01*
X229272Y216575D01*
X229198Y216509D01*
X229120Y216445D01*
X229041Y216385D01*
X228959Y216328D01*
X228875Y216274D01*
X228789Y216224D01*
X228701Y216177D01*
X228611Y216133D01*
X228520Y216093D01*
X228427Y216057D01*
X228333Y216024D01*
X228237Y215995D01*
X228141Y215970D01*
X228044Y215949D01*
X227945Y215931D01*
X227847Y215918D01*
X227747Y215908D01*
X227648Y215902D01*
X227548Y215900D01*
X223780Y215900D01*
X292100Y279400D02*
X292100Y596900D01*
X317500Y622300D01*
X317500Y736600D01*
X304800Y266700D02*
X229344Y191244D01*
X229272Y191175D01*
X229198Y191109D01*
X229120Y191045D01*
X229041Y190985D01*
X228959Y190928D01*
X228875Y190874D01*
X228789Y190824D01*
X228701Y190777D01*
X228611Y190733D01*
X228520Y190693D01*
X228427Y190657D01*
X228333Y190624D01*
X228237Y190595D01*
X228141Y190570D01*
X228044Y190549D01*
X227945Y190531D01*
X227847Y190518D01*
X227747Y190508D01*
X227648Y190502D01*
X227548Y190500D01*
X223780Y190500D01*
X342900Y622300D02*
X342900Y736600D01*
X342900Y622300D02*
X304800Y584200D01*
X304800Y266700D01*
X317500Y254000D02*
X229344Y165844D01*
X229272Y165775D01*
X229198Y165709D01*
X229120Y165645D01*
X229041Y165585D01*
X228959Y165528D01*
X228875Y165474D01*
X228789Y165424D01*
X228701Y165377D01*
X228611Y165333D01*
X228520Y165293D01*
X228427Y165257D01*
X228333Y165224D01*
X228237Y165195D01*
X228141Y165170D01*
X228044Y165149D01*
X227945Y165131D01*
X227847Y165118D01*
X227747Y165108D01*
X227648Y165102D01*
X227548Y165100D01*
X223780Y165100D01*
X368300Y622300D02*
X368300Y736600D01*
X368300Y622300D02*
X317500Y571500D01*
X317500Y254000D01*
X330200Y241300D02*
X229344Y140444D01*
X229272Y140375D01*
X229198Y140309D01*
X229120Y140245D01*
X229041Y140185D01*
X228959Y140128D01*
X228875Y140074D01*
X228789Y140024D01*
X228701Y139977D01*
X228611Y139933D01*
X228520Y139893D01*
X228427Y139857D01*
X228333Y139824D01*
X228237Y139795D01*
X228141Y139770D01*
X228044Y139749D01*
X227945Y139731D01*
X227847Y139718D01*
X227747Y139708D01*
X227648Y139702D01*
X227548Y139700D01*
X223780Y139700D01*
X393700Y622300D02*
X393700Y736600D01*
X393700Y622300D02*
X330200Y558800D01*
X330200Y241300D01*
D17*
X502920Y695960D02*
X502920Y789850D01*
X502918Y790006D01*
X502912Y790162D01*
X502903Y790317D01*
X502889Y790472D01*
X502872Y790627D01*
X502851Y790782D01*
X502827Y790936D01*
X502798Y791089D01*
X502766Y791241D01*
X502730Y791393D01*
X502690Y791544D01*
X502647Y791693D01*
X502600Y791842D01*
X502549Y791989D01*
X502495Y792135D01*
X502437Y792280D01*
X502375Y792423D01*
X502310Y792565D01*
X502242Y792705D01*
X502170Y792843D01*
X502095Y792980D01*
X502017Y793115D01*
X501935Y793247D01*
X501850Y793378D01*
X501762Y793506D01*
X501670Y793633D01*
X501576Y793757D01*
X501479Y793878D01*
X501378Y793998D01*
X501275Y794114D01*
X501169Y794229D01*
X501060Y794340D01*
X482600Y812800D01*
X190500Y812800D01*
X177800Y800100D01*
X177800Y774700D01*
X190500Y762000D01*
X215900Y762000D01*
X241300Y762000D01*
X266700Y762000D01*
X292100Y762000D01*
M02*
