G04 EAGLE Gerber X2 export*
%TF.Part,Single*%
%TF.FileFunction,Legend,Top,1*%
%TF.FilePolarity,Positive*%
%TF.GenerationSoftware,Autodesk,EAGLE,9.0.1*%
%TF.CreationDate,2018-07-05T12:19:16Z*%
G75*
%MOMM*%
%FSLAX34Y34*%
%LPD*%
%AMOC8*
5,1,8,0,0,1.08239X$1,22.5*%
G01*
%ADD10C,0.152400*%
%ADD11C,0.127000*%
%ADD12C,0.254000*%
%ADD13C,0.101600*%
%ADD14C,0.203200*%
%ADD15C,0.025400*%
%ADD16C,0.076200*%


D10*
X361950Y749300D02*
X374650Y749300D01*
X381000Y742950D01*
X381000Y730250D01*
X374650Y723900D01*
X336550Y749300D02*
X330200Y742950D01*
X336550Y749300D02*
X349250Y749300D01*
X355600Y742950D01*
X355600Y730250D01*
X349250Y723900D01*
X336550Y723900D01*
X330200Y730250D01*
X355600Y742950D02*
X361950Y749300D01*
X355600Y730250D02*
X361950Y723900D01*
X374650Y723900D01*
X298450Y749300D02*
X285750Y749300D01*
X298450Y749300D02*
X304800Y742950D01*
X304800Y730250D01*
X298450Y723900D01*
X304800Y742950D02*
X311150Y749300D01*
X323850Y749300D01*
X330200Y742950D01*
X330200Y730250D01*
X323850Y723900D01*
X311150Y723900D01*
X304800Y730250D01*
X260350Y749300D02*
X254000Y742950D01*
X260350Y749300D02*
X273050Y749300D01*
X279400Y742950D01*
X279400Y730250D01*
X273050Y723900D01*
X260350Y723900D01*
X254000Y730250D01*
X279400Y742950D02*
X285750Y749300D01*
X279400Y730250D02*
X285750Y723900D01*
X298450Y723900D01*
X222250Y749300D02*
X209550Y749300D01*
X222250Y749300D02*
X228600Y742950D01*
X228600Y730250D01*
X222250Y723900D01*
X228600Y742950D02*
X234950Y749300D01*
X247650Y749300D01*
X254000Y742950D01*
X254000Y730250D01*
X247650Y723900D01*
X234950Y723900D01*
X228600Y730250D01*
X203200Y730250D02*
X203200Y742950D01*
X209550Y749300D01*
X203200Y730250D02*
X209550Y723900D01*
X222250Y723900D01*
X387350Y749300D02*
X400050Y749300D01*
X406400Y742950D01*
X406400Y730250D01*
X400050Y723900D01*
X381000Y742950D02*
X387350Y749300D01*
X381000Y730250D02*
X387350Y723900D01*
X400050Y723900D01*
D11*
X224663Y469773D02*
X224763Y469771D01*
X224862Y469765D01*
X224962Y469755D01*
X225060Y469742D01*
X225159Y469724D01*
X225256Y469703D01*
X225352Y469678D01*
X225448Y469649D01*
X225542Y469616D01*
X225635Y469580D01*
X225726Y469540D01*
X225816Y469496D01*
X225904Y469449D01*
X225990Y469399D01*
X226074Y469345D01*
X226156Y469288D01*
X226235Y469228D01*
X226313Y469164D01*
X226387Y469098D01*
X226459Y469029D01*
X226528Y468957D01*
X226594Y468883D01*
X226658Y468805D01*
X226718Y468726D01*
X226775Y468644D01*
X226829Y468560D01*
X226879Y468474D01*
X226926Y468386D01*
X226970Y468296D01*
X227010Y468205D01*
X227046Y468112D01*
X227079Y468018D01*
X227108Y467922D01*
X227133Y467826D01*
X227154Y467729D01*
X227172Y467630D01*
X227185Y467532D01*
X227195Y467432D01*
X227201Y467333D01*
X227203Y467233D01*
X227201Y467092D01*
X227196Y466951D01*
X227186Y466810D01*
X227173Y466669D01*
X227157Y466529D01*
X227136Y466389D01*
X227112Y466250D01*
X227084Y466111D01*
X227053Y465974D01*
X227018Y465837D01*
X226980Y465701D01*
X226938Y465566D01*
X226892Y465433D01*
X226843Y465300D01*
X226790Y465169D01*
X226734Y465040D01*
X226675Y464911D01*
X226612Y464785D01*
X226546Y464660D01*
X226477Y464537D01*
X226404Y464416D01*
X226328Y464297D01*
X226249Y464179D01*
X226168Y464064D01*
X226083Y463952D01*
X225995Y463841D01*
X225904Y463733D01*
X225811Y463627D01*
X225714Y463524D01*
X225615Y463423D01*
X218313Y463741D02*
X218213Y463743D01*
X218114Y463749D01*
X218014Y463759D01*
X217916Y463772D01*
X217817Y463790D01*
X217720Y463811D01*
X217624Y463836D01*
X217528Y463865D01*
X217434Y463898D01*
X217341Y463934D01*
X217250Y463974D01*
X217160Y464018D01*
X217072Y464065D01*
X216986Y464115D01*
X216902Y464169D01*
X216820Y464226D01*
X216741Y464286D01*
X216663Y464350D01*
X216589Y464416D01*
X216517Y464485D01*
X216448Y464557D01*
X216382Y464631D01*
X216318Y464709D01*
X216258Y464788D01*
X216201Y464870D01*
X216147Y464954D01*
X216097Y465040D01*
X216050Y465128D01*
X216006Y465218D01*
X215966Y465309D01*
X215930Y465402D01*
X215897Y465496D01*
X215868Y465592D01*
X215843Y465688D01*
X215822Y465785D01*
X215804Y465884D01*
X215791Y465982D01*
X215781Y466082D01*
X215775Y466181D01*
X215773Y466281D01*
X215775Y466414D01*
X215780Y466547D01*
X215790Y466680D01*
X215803Y466813D01*
X215820Y466945D01*
X215840Y467077D01*
X215864Y467208D01*
X215892Y467338D01*
X215923Y467468D01*
X215958Y467596D01*
X215997Y467724D01*
X216039Y467850D01*
X216085Y467975D01*
X216134Y468099D01*
X216186Y468222D01*
X216242Y468343D01*
X216302Y468462D01*
X216364Y468580D01*
X216430Y468695D01*
X216499Y468809D01*
X216572Y468921D01*
X216647Y469031D01*
X216726Y469139D01*
X220536Y465010D02*
X220484Y464926D01*
X220429Y464843D01*
X220370Y464763D01*
X220309Y464685D01*
X220245Y464610D01*
X220177Y464537D01*
X220107Y464466D01*
X220035Y464399D01*
X219960Y464334D01*
X219882Y464272D01*
X219802Y464213D01*
X219720Y464157D01*
X219636Y464105D01*
X219550Y464056D01*
X219462Y464010D01*
X219372Y463967D01*
X219281Y463928D01*
X219188Y463893D01*
X219094Y463861D01*
X218999Y463833D01*
X218903Y463808D01*
X218806Y463788D01*
X218708Y463770D01*
X218610Y463757D01*
X218511Y463748D01*
X218412Y463742D01*
X218313Y463740D01*
X222440Y468503D02*
X222492Y468587D01*
X222547Y468670D01*
X222606Y468750D01*
X222667Y468828D01*
X222731Y468903D01*
X222799Y468976D01*
X222869Y469047D01*
X222941Y469114D01*
X223016Y469179D01*
X223094Y469241D01*
X223174Y469300D01*
X223256Y469356D01*
X223340Y469408D01*
X223426Y469457D01*
X223514Y469503D01*
X223604Y469546D01*
X223695Y469585D01*
X223788Y469620D01*
X223882Y469652D01*
X223977Y469680D01*
X224073Y469705D01*
X224170Y469725D01*
X224268Y469743D01*
X224366Y469756D01*
X224465Y469765D01*
X224564Y469771D01*
X224663Y469773D01*
X222441Y468503D02*
X220536Y465011D01*
X227203Y474878D02*
X227203Y479958D01*
X227203Y474878D02*
X215773Y474878D01*
X215773Y479958D01*
X220853Y478688D02*
X220853Y474878D01*
X215773Y484842D02*
X227203Y484842D01*
X215773Y484842D02*
X215773Y488017D01*
X215775Y488128D01*
X215781Y488238D01*
X215790Y488349D01*
X215804Y488459D01*
X215821Y488568D01*
X215842Y488677D01*
X215867Y488785D01*
X215896Y488892D01*
X215928Y488998D01*
X215964Y489103D01*
X216004Y489206D01*
X216047Y489308D01*
X216094Y489409D01*
X216145Y489508D01*
X216198Y489605D01*
X216255Y489699D01*
X216316Y489792D01*
X216379Y489883D01*
X216446Y489972D01*
X216516Y490058D01*
X216589Y490141D01*
X216664Y490223D01*
X216742Y490301D01*
X216824Y490376D01*
X216907Y490449D01*
X216993Y490519D01*
X217082Y490586D01*
X217173Y490649D01*
X217266Y490710D01*
X217361Y490767D01*
X217457Y490820D01*
X217556Y490871D01*
X217657Y490918D01*
X217759Y490961D01*
X217862Y491001D01*
X217967Y491037D01*
X218073Y491069D01*
X218180Y491098D01*
X218288Y491123D01*
X218397Y491144D01*
X218506Y491161D01*
X218616Y491175D01*
X218727Y491184D01*
X218837Y491190D01*
X218948Y491192D01*
X219059Y491190D01*
X219169Y491184D01*
X219280Y491175D01*
X219390Y491161D01*
X219499Y491144D01*
X219608Y491123D01*
X219716Y491098D01*
X219823Y491069D01*
X219929Y491037D01*
X220034Y491001D01*
X220137Y490961D01*
X220239Y490918D01*
X220340Y490871D01*
X220439Y490820D01*
X220536Y490767D01*
X220630Y490710D01*
X220723Y490649D01*
X220814Y490586D01*
X220903Y490519D01*
X220989Y490449D01*
X221072Y490376D01*
X221154Y490301D01*
X221232Y490223D01*
X221307Y490141D01*
X221380Y490058D01*
X221450Y489972D01*
X221517Y489883D01*
X221580Y489792D01*
X221641Y489699D01*
X221698Y489605D01*
X221751Y489508D01*
X221802Y489409D01*
X221849Y489308D01*
X221892Y489206D01*
X221932Y489103D01*
X221968Y488998D01*
X222000Y488892D01*
X222029Y488785D01*
X222054Y488677D01*
X222075Y488568D01*
X222092Y488459D01*
X222106Y488349D01*
X222115Y488238D01*
X222121Y488128D01*
X222123Y488017D01*
X222123Y484842D01*
X222123Y488652D02*
X227203Y491192D01*
X227203Y499364D02*
X215773Y495554D01*
X215773Y503174D02*
X227203Y499364D01*
X224028Y507619D02*
X218948Y507619D01*
X218837Y507621D01*
X218727Y507627D01*
X218616Y507636D01*
X218506Y507650D01*
X218397Y507667D01*
X218288Y507688D01*
X218180Y507713D01*
X218073Y507742D01*
X217967Y507774D01*
X217862Y507810D01*
X217759Y507850D01*
X217657Y507893D01*
X217556Y507940D01*
X217457Y507991D01*
X217361Y508044D01*
X217266Y508101D01*
X217173Y508162D01*
X217082Y508225D01*
X216993Y508292D01*
X216907Y508362D01*
X216824Y508435D01*
X216742Y508510D01*
X216664Y508588D01*
X216589Y508670D01*
X216516Y508753D01*
X216446Y508839D01*
X216379Y508928D01*
X216316Y509019D01*
X216255Y509112D01*
X216198Y509207D01*
X216145Y509303D01*
X216094Y509402D01*
X216047Y509503D01*
X216004Y509605D01*
X215964Y509708D01*
X215928Y509813D01*
X215896Y509919D01*
X215867Y510026D01*
X215842Y510134D01*
X215821Y510243D01*
X215804Y510352D01*
X215790Y510462D01*
X215781Y510573D01*
X215775Y510683D01*
X215773Y510794D01*
X215775Y510905D01*
X215781Y511015D01*
X215790Y511126D01*
X215804Y511236D01*
X215821Y511345D01*
X215842Y511454D01*
X215867Y511562D01*
X215896Y511669D01*
X215928Y511775D01*
X215964Y511880D01*
X216004Y511983D01*
X216047Y512085D01*
X216094Y512186D01*
X216145Y512285D01*
X216198Y512382D01*
X216255Y512476D01*
X216316Y512569D01*
X216379Y512660D01*
X216446Y512749D01*
X216516Y512835D01*
X216589Y512918D01*
X216664Y513000D01*
X216742Y513078D01*
X216824Y513153D01*
X216907Y513226D01*
X216993Y513296D01*
X217082Y513363D01*
X217173Y513426D01*
X217266Y513487D01*
X217361Y513544D01*
X217457Y513597D01*
X217556Y513648D01*
X217657Y513695D01*
X217759Y513738D01*
X217862Y513778D01*
X217967Y513814D01*
X218073Y513846D01*
X218180Y513875D01*
X218288Y513900D01*
X218397Y513921D01*
X218506Y513938D01*
X218616Y513952D01*
X218727Y513961D01*
X218837Y513967D01*
X218948Y513969D01*
X224028Y513969D01*
X224139Y513967D01*
X224249Y513961D01*
X224360Y513952D01*
X224470Y513938D01*
X224579Y513921D01*
X224688Y513900D01*
X224796Y513875D01*
X224903Y513846D01*
X225009Y513814D01*
X225114Y513778D01*
X225217Y513738D01*
X225319Y513695D01*
X225420Y513648D01*
X225519Y513597D01*
X225616Y513544D01*
X225710Y513487D01*
X225803Y513426D01*
X225894Y513363D01*
X225983Y513296D01*
X226069Y513226D01*
X226152Y513153D01*
X226234Y513078D01*
X226312Y513000D01*
X226387Y512918D01*
X226460Y512835D01*
X226530Y512749D01*
X226597Y512660D01*
X226660Y512569D01*
X226721Y512476D01*
X226778Y512381D01*
X226831Y512285D01*
X226882Y512186D01*
X226929Y512085D01*
X226972Y511983D01*
X227012Y511880D01*
X227048Y511775D01*
X227080Y511669D01*
X227109Y511562D01*
X227134Y511454D01*
X227155Y511345D01*
X227172Y511236D01*
X227186Y511126D01*
X227195Y511015D01*
X227201Y510905D01*
X227203Y510794D01*
X227201Y510683D01*
X227195Y510573D01*
X227186Y510462D01*
X227172Y510352D01*
X227155Y510243D01*
X227134Y510134D01*
X227109Y510026D01*
X227080Y509919D01*
X227048Y509813D01*
X227012Y509708D01*
X226972Y509605D01*
X226929Y509503D01*
X226882Y509402D01*
X226831Y509303D01*
X226778Y509206D01*
X226721Y509112D01*
X226660Y509019D01*
X226597Y508928D01*
X226530Y508839D01*
X226460Y508753D01*
X226387Y508670D01*
X226312Y508588D01*
X226234Y508510D01*
X226152Y508435D01*
X226069Y508362D01*
X225983Y508292D01*
X225894Y508225D01*
X225803Y508162D01*
X225710Y508101D01*
X225615Y508044D01*
X225519Y507991D01*
X225420Y507940D01*
X225319Y507893D01*
X225217Y507850D01*
X225114Y507810D01*
X225009Y507774D01*
X224903Y507742D01*
X224796Y507713D01*
X224688Y507688D01*
X224579Y507667D01*
X224470Y507650D01*
X224360Y507636D01*
X224249Y507627D01*
X224139Y507621D01*
X224028Y507619D01*
X227203Y522478D02*
X227201Y522578D01*
X227195Y522677D01*
X227185Y522777D01*
X227172Y522875D01*
X227154Y522974D01*
X227133Y523071D01*
X227108Y523167D01*
X227079Y523263D01*
X227046Y523357D01*
X227010Y523450D01*
X226970Y523541D01*
X226926Y523631D01*
X226879Y523719D01*
X226829Y523805D01*
X226775Y523889D01*
X226718Y523971D01*
X226658Y524050D01*
X226594Y524128D01*
X226528Y524202D01*
X226459Y524274D01*
X226387Y524343D01*
X226313Y524409D01*
X226235Y524473D01*
X226156Y524533D01*
X226074Y524590D01*
X225990Y524644D01*
X225904Y524694D01*
X225816Y524741D01*
X225726Y524785D01*
X225635Y524825D01*
X225542Y524861D01*
X225448Y524894D01*
X225352Y524923D01*
X225256Y524948D01*
X225159Y524969D01*
X225060Y524987D01*
X224962Y525000D01*
X224862Y525010D01*
X224763Y525016D01*
X224663Y525018D01*
X227203Y522478D02*
X227201Y522337D01*
X227196Y522196D01*
X227186Y522055D01*
X227173Y521914D01*
X227157Y521774D01*
X227136Y521634D01*
X227112Y521495D01*
X227084Y521356D01*
X227053Y521219D01*
X227018Y521082D01*
X226980Y520946D01*
X226938Y520811D01*
X226892Y520678D01*
X226843Y520545D01*
X226790Y520414D01*
X226734Y520285D01*
X226675Y520156D01*
X226612Y520030D01*
X226546Y519905D01*
X226477Y519782D01*
X226404Y519661D01*
X226328Y519542D01*
X226249Y519424D01*
X226168Y519309D01*
X226083Y519197D01*
X225995Y519086D01*
X225904Y518978D01*
X225811Y518872D01*
X225714Y518769D01*
X225615Y518668D01*
X218313Y518985D02*
X218213Y518987D01*
X218114Y518993D01*
X218014Y519003D01*
X217916Y519016D01*
X217817Y519034D01*
X217720Y519055D01*
X217624Y519080D01*
X217528Y519109D01*
X217434Y519142D01*
X217341Y519178D01*
X217250Y519218D01*
X217160Y519262D01*
X217072Y519309D01*
X216986Y519359D01*
X216902Y519413D01*
X216820Y519470D01*
X216741Y519530D01*
X216663Y519594D01*
X216589Y519660D01*
X216517Y519729D01*
X216448Y519801D01*
X216382Y519875D01*
X216318Y519953D01*
X216258Y520032D01*
X216201Y520114D01*
X216147Y520198D01*
X216097Y520284D01*
X216050Y520372D01*
X216006Y520462D01*
X215966Y520553D01*
X215930Y520646D01*
X215897Y520740D01*
X215868Y520836D01*
X215843Y520932D01*
X215822Y521029D01*
X215804Y521128D01*
X215791Y521226D01*
X215781Y521326D01*
X215775Y521425D01*
X215773Y521525D01*
X215775Y521658D01*
X215780Y521791D01*
X215790Y521924D01*
X215803Y522057D01*
X215820Y522189D01*
X215840Y522321D01*
X215864Y522452D01*
X215892Y522582D01*
X215923Y522712D01*
X215958Y522840D01*
X215997Y522968D01*
X216039Y523094D01*
X216085Y523219D01*
X216134Y523343D01*
X216186Y523466D01*
X216242Y523587D01*
X216302Y523706D01*
X216364Y523824D01*
X216430Y523939D01*
X216499Y524053D01*
X216572Y524165D01*
X216647Y524275D01*
X216726Y524383D01*
X220536Y520255D02*
X220484Y520171D01*
X220429Y520088D01*
X220370Y520008D01*
X220309Y519930D01*
X220245Y519855D01*
X220177Y519782D01*
X220107Y519711D01*
X220035Y519644D01*
X219960Y519579D01*
X219882Y519517D01*
X219802Y519458D01*
X219720Y519402D01*
X219636Y519350D01*
X219550Y519301D01*
X219462Y519255D01*
X219372Y519212D01*
X219281Y519173D01*
X219188Y519138D01*
X219094Y519106D01*
X218999Y519078D01*
X218903Y519053D01*
X218806Y519033D01*
X218708Y519015D01*
X218610Y519002D01*
X218511Y518993D01*
X218412Y518987D01*
X218313Y518985D01*
X222440Y523748D02*
X222492Y523832D01*
X222547Y523915D01*
X222606Y523995D01*
X222667Y524073D01*
X222731Y524148D01*
X222799Y524221D01*
X222869Y524292D01*
X222941Y524359D01*
X223016Y524424D01*
X223094Y524486D01*
X223174Y524545D01*
X223256Y524601D01*
X223340Y524653D01*
X223426Y524702D01*
X223514Y524748D01*
X223604Y524791D01*
X223695Y524830D01*
X223788Y524865D01*
X223882Y524897D01*
X223977Y524925D01*
X224073Y524950D01*
X224170Y524970D01*
X224268Y524988D01*
X224366Y525001D01*
X224465Y525010D01*
X224564Y525016D01*
X224663Y525018D01*
X222441Y523748D02*
X220536Y520255D01*
X228473Y529209D02*
X228473Y534289D01*
X227203Y539242D02*
X215773Y539242D01*
X215773Y542417D01*
X215775Y542528D01*
X215781Y542638D01*
X215790Y542749D01*
X215804Y542859D01*
X215821Y542968D01*
X215842Y543077D01*
X215867Y543185D01*
X215896Y543292D01*
X215928Y543398D01*
X215964Y543503D01*
X216004Y543606D01*
X216047Y543708D01*
X216094Y543809D01*
X216145Y543908D01*
X216198Y544005D01*
X216255Y544099D01*
X216316Y544192D01*
X216379Y544283D01*
X216446Y544372D01*
X216516Y544458D01*
X216589Y544541D01*
X216664Y544623D01*
X216742Y544701D01*
X216824Y544776D01*
X216907Y544849D01*
X216993Y544919D01*
X217082Y544986D01*
X217173Y545049D01*
X217266Y545110D01*
X217361Y545167D01*
X217457Y545220D01*
X217556Y545271D01*
X217657Y545318D01*
X217759Y545361D01*
X217862Y545401D01*
X217967Y545437D01*
X218073Y545469D01*
X218180Y545498D01*
X218288Y545523D01*
X218397Y545544D01*
X218506Y545561D01*
X218616Y545575D01*
X218727Y545584D01*
X218837Y545590D01*
X218948Y545592D01*
X224028Y545592D01*
X224139Y545590D01*
X224249Y545584D01*
X224360Y545575D01*
X224470Y545561D01*
X224579Y545544D01*
X224688Y545523D01*
X224796Y545498D01*
X224903Y545469D01*
X225009Y545437D01*
X225114Y545401D01*
X225217Y545361D01*
X225319Y545318D01*
X225420Y545271D01*
X225519Y545220D01*
X225616Y545167D01*
X225710Y545110D01*
X225803Y545049D01*
X225894Y544986D01*
X225983Y544919D01*
X226069Y544849D01*
X226152Y544776D01*
X226234Y544701D01*
X226312Y544623D01*
X226387Y544541D01*
X226460Y544458D01*
X226530Y544372D01*
X226597Y544283D01*
X226660Y544192D01*
X226721Y544099D01*
X226778Y544005D01*
X226831Y543908D01*
X226882Y543809D01*
X226929Y543708D01*
X226972Y543606D01*
X227012Y543503D01*
X227048Y543398D01*
X227080Y543292D01*
X227109Y543185D01*
X227134Y543077D01*
X227155Y542968D01*
X227172Y542859D01*
X227186Y542749D01*
X227195Y542638D01*
X227201Y542528D01*
X227203Y542417D01*
X227203Y539242D01*
X227203Y550418D02*
X215773Y554228D01*
X227203Y558038D01*
X224346Y557085D02*
X224346Y551370D01*
X227203Y564896D02*
X215773Y564896D01*
X215773Y561721D02*
X215773Y568071D01*
X215773Y575564D02*
X227203Y571754D01*
X227203Y579374D02*
X215773Y575564D01*
X224346Y578421D02*
X224346Y572706D01*
X88900Y256540D02*
X520700Y256540D01*
X520700Y48260D01*
X88900Y48260D01*
X88900Y256540D01*
D10*
X99822Y144532D02*
X116078Y144532D01*
X116078Y142726D02*
X116078Y146339D01*
X99822Y146339D02*
X99822Y142726D01*
X99822Y153043D02*
X116078Y153043D01*
X116078Y162074D02*
X99822Y153043D01*
X99822Y162074D02*
X116078Y162074D01*
X498038Y132253D02*
X505262Y132253D01*
X498038Y132253D02*
X497905Y132255D01*
X497773Y132261D01*
X497641Y132271D01*
X497509Y132284D01*
X497377Y132302D01*
X497247Y132323D01*
X497116Y132348D01*
X496987Y132377D01*
X496859Y132410D01*
X496731Y132446D01*
X496605Y132486D01*
X496480Y132530D01*
X496356Y132578D01*
X496234Y132629D01*
X496113Y132684D01*
X495994Y132742D01*
X495876Y132804D01*
X495761Y132869D01*
X495647Y132938D01*
X495536Y133009D01*
X495427Y133085D01*
X495320Y133163D01*
X495215Y133244D01*
X495113Y133329D01*
X495013Y133416D01*
X494916Y133506D01*
X494821Y133599D01*
X494730Y133695D01*
X494641Y133793D01*
X494555Y133894D01*
X494472Y133998D01*
X494392Y134104D01*
X494316Y134212D01*
X494242Y134322D01*
X494172Y134435D01*
X494105Y134549D01*
X494042Y134666D01*
X493982Y134784D01*
X493925Y134904D01*
X493872Y135026D01*
X493823Y135149D01*
X493777Y135273D01*
X493735Y135399D01*
X493697Y135526D01*
X493662Y135654D01*
X493631Y135783D01*
X493604Y135912D01*
X493581Y136043D01*
X493561Y136174D01*
X493546Y136306D01*
X493534Y136438D01*
X493526Y136570D01*
X493522Y136703D01*
X493522Y136835D01*
X493526Y136968D01*
X493534Y137100D01*
X493546Y137232D01*
X493561Y137364D01*
X493581Y137495D01*
X493604Y137626D01*
X493631Y137755D01*
X493662Y137884D01*
X493697Y138012D01*
X493735Y138139D01*
X493777Y138265D01*
X493823Y138389D01*
X493872Y138512D01*
X493925Y138634D01*
X493982Y138754D01*
X494042Y138872D01*
X494105Y138989D01*
X494172Y139103D01*
X494242Y139216D01*
X494316Y139326D01*
X494392Y139434D01*
X494472Y139540D01*
X494555Y139644D01*
X494641Y139745D01*
X494730Y139843D01*
X494821Y139939D01*
X494916Y140032D01*
X495013Y140122D01*
X495113Y140209D01*
X495215Y140294D01*
X495320Y140375D01*
X495427Y140453D01*
X495536Y140529D01*
X495647Y140600D01*
X495761Y140669D01*
X495876Y140734D01*
X495994Y140796D01*
X496113Y140854D01*
X496234Y140909D01*
X496356Y140960D01*
X496480Y141008D01*
X496605Y141052D01*
X496731Y141092D01*
X496859Y141128D01*
X496987Y141161D01*
X497116Y141190D01*
X497247Y141215D01*
X497377Y141236D01*
X497509Y141254D01*
X497641Y141267D01*
X497773Y141277D01*
X497905Y141283D01*
X498038Y141285D01*
X498038Y141284D02*
X505262Y141284D01*
X505262Y141285D02*
X505395Y141283D01*
X505527Y141277D01*
X505659Y141267D01*
X505791Y141254D01*
X505923Y141236D01*
X506053Y141215D01*
X506184Y141190D01*
X506313Y141161D01*
X506441Y141128D01*
X506569Y141092D01*
X506695Y141052D01*
X506820Y141008D01*
X506944Y140960D01*
X507066Y140909D01*
X507187Y140854D01*
X507306Y140796D01*
X507424Y140734D01*
X507539Y140669D01*
X507653Y140600D01*
X507764Y140529D01*
X507873Y140453D01*
X507980Y140375D01*
X508085Y140294D01*
X508187Y140209D01*
X508287Y140122D01*
X508384Y140032D01*
X508479Y139939D01*
X508570Y139843D01*
X508659Y139745D01*
X508745Y139644D01*
X508828Y139540D01*
X508908Y139434D01*
X508984Y139326D01*
X509058Y139216D01*
X509128Y139103D01*
X509195Y138989D01*
X509258Y138872D01*
X509318Y138754D01*
X509375Y138634D01*
X509428Y138512D01*
X509477Y138389D01*
X509523Y138265D01*
X509565Y138139D01*
X509603Y138012D01*
X509638Y137884D01*
X509669Y137755D01*
X509696Y137626D01*
X509719Y137495D01*
X509739Y137364D01*
X509754Y137232D01*
X509766Y137100D01*
X509774Y136968D01*
X509778Y136835D01*
X509778Y136703D01*
X509774Y136570D01*
X509766Y136438D01*
X509754Y136306D01*
X509739Y136174D01*
X509719Y136043D01*
X509696Y135912D01*
X509669Y135783D01*
X509638Y135654D01*
X509603Y135526D01*
X509565Y135399D01*
X509523Y135273D01*
X509477Y135149D01*
X509428Y135026D01*
X509375Y134904D01*
X509318Y134784D01*
X509258Y134666D01*
X509195Y134549D01*
X509128Y134435D01*
X509058Y134322D01*
X508984Y134212D01*
X508908Y134104D01*
X508828Y133998D01*
X508745Y133894D01*
X508659Y133793D01*
X508570Y133695D01*
X508479Y133599D01*
X508384Y133506D01*
X508287Y133416D01*
X508187Y133329D01*
X508085Y133244D01*
X507980Y133163D01*
X507873Y133085D01*
X507764Y133009D01*
X507653Y132938D01*
X507539Y132869D01*
X507424Y132804D01*
X507306Y132742D01*
X507187Y132684D01*
X507066Y132629D01*
X506944Y132578D01*
X506820Y132530D01*
X506695Y132486D01*
X506569Y132446D01*
X506441Y132410D01*
X506313Y132377D01*
X506184Y132348D01*
X506053Y132323D01*
X505923Y132302D01*
X505791Y132284D01*
X505659Y132271D01*
X505527Y132261D01*
X505395Y132255D01*
X505262Y132253D01*
X505262Y148406D02*
X493522Y148406D01*
X505262Y148405D02*
X505395Y148407D01*
X505527Y148413D01*
X505659Y148423D01*
X505791Y148436D01*
X505923Y148454D01*
X506053Y148475D01*
X506184Y148500D01*
X506313Y148529D01*
X506441Y148562D01*
X506569Y148598D01*
X506695Y148638D01*
X506820Y148682D01*
X506944Y148730D01*
X507066Y148781D01*
X507187Y148836D01*
X507306Y148894D01*
X507424Y148956D01*
X507539Y149021D01*
X507653Y149090D01*
X507764Y149161D01*
X507873Y149237D01*
X507980Y149315D01*
X508085Y149396D01*
X508187Y149481D01*
X508287Y149568D01*
X508384Y149658D01*
X508479Y149751D01*
X508570Y149847D01*
X508659Y149945D01*
X508745Y150046D01*
X508828Y150150D01*
X508908Y150256D01*
X508984Y150364D01*
X509058Y150474D01*
X509128Y150587D01*
X509195Y150701D01*
X509258Y150818D01*
X509318Y150936D01*
X509375Y151056D01*
X509428Y151178D01*
X509477Y151301D01*
X509523Y151425D01*
X509565Y151551D01*
X509603Y151678D01*
X509638Y151806D01*
X509669Y151935D01*
X509696Y152064D01*
X509719Y152195D01*
X509739Y152326D01*
X509754Y152458D01*
X509766Y152590D01*
X509774Y152722D01*
X509778Y152855D01*
X509778Y152987D01*
X509774Y153120D01*
X509766Y153252D01*
X509754Y153384D01*
X509739Y153516D01*
X509719Y153647D01*
X509696Y153778D01*
X509669Y153907D01*
X509638Y154036D01*
X509603Y154164D01*
X509565Y154291D01*
X509523Y154417D01*
X509477Y154541D01*
X509428Y154664D01*
X509375Y154786D01*
X509318Y154906D01*
X509258Y155024D01*
X509195Y155141D01*
X509128Y155255D01*
X509058Y155368D01*
X508984Y155478D01*
X508908Y155586D01*
X508828Y155692D01*
X508745Y155796D01*
X508659Y155897D01*
X508570Y155995D01*
X508479Y156091D01*
X508384Y156184D01*
X508287Y156274D01*
X508187Y156361D01*
X508085Y156446D01*
X507980Y156527D01*
X507873Y156605D01*
X507764Y156681D01*
X507653Y156752D01*
X507539Y156821D01*
X507424Y156886D01*
X507306Y156948D01*
X507187Y157006D01*
X507066Y157061D01*
X506944Y157112D01*
X506820Y157160D01*
X506695Y157204D01*
X506569Y157244D01*
X506441Y157280D01*
X506313Y157313D01*
X506184Y157342D01*
X506053Y157367D01*
X505923Y157388D01*
X505791Y157406D01*
X505659Y157419D01*
X505527Y157429D01*
X505395Y157435D01*
X505262Y157437D01*
X493522Y157437D01*
X493522Y168031D02*
X509778Y168031D01*
X493522Y163516D02*
X493522Y172547D01*
D12*
X501650Y209550D02*
X501650Y222250D01*
X495300Y215900D02*
X508000Y215900D01*
X107950Y95250D02*
X107950Y82550D01*
X501650Y82550D02*
X501650Y95250D01*
X107950Y209550D02*
X107950Y222250D01*
X101600Y215900D02*
X114300Y215900D01*
D13*
X144018Y92781D02*
X155702Y88886D01*
X155702Y96675D02*
X144018Y92781D01*
X152781Y95702D02*
X152781Y89860D01*
X155702Y101369D02*
X144018Y101369D01*
X155702Y101369D02*
X155702Y106562D01*
X155702Y111831D02*
X144018Y111831D01*
X155702Y110532D02*
X155702Y113129D01*
X144018Y113129D02*
X144018Y110532D01*
X144018Y118223D02*
X155702Y118223D01*
X150509Y122118D02*
X144018Y118223D01*
X150509Y122118D02*
X144018Y126012D01*
X155702Y126012D01*
X157000Y130951D02*
X157000Y136144D01*
X155702Y140970D02*
X144018Y140970D01*
X155702Y147461D01*
X144018Y147461D01*
X144018Y156027D02*
X155702Y152132D01*
X155702Y159921D02*
X144018Y156027D01*
X152781Y158948D02*
X152781Y153106D01*
X155702Y164592D02*
X144018Y164592D01*
X155702Y171083D01*
X144018Y171083D01*
X147264Y176403D02*
X152456Y176403D01*
X147264Y176403D02*
X147151Y176405D01*
X147038Y176411D01*
X146925Y176421D01*
X146812Y176435D01*
X146700Y176452D01*
X146589Y176474D01*
X146479Y176499D01*
X146369Y176529D01*
X146261Y176562D01*
X146154Y176599D01*
X146048Y176639D01*
X145944Y176684D01*
X145841Y176732D01*
X145740Y176783D01*
X145641Y176838D01*
X145544Y176896D01*
X145449Y176958D01*
X145356Y177023D01*
X145266Y177091D01*
X145178Y177162D01*
X145092Y177237D01*
X145009Y177314D01*
X144929Y177394D01*
X144852Y177477D01*
X144777Y177563D01*
X144706Y177651D01*
X144638Y177741D01*
X144573Y177834D01*
X144511Y177929D01*
X144453Y178026D01*
X144398Y178125D01*
X144347Y178226D01*
X144299Y178329D01*
X144254Y178433D01*
X144214Y178539D01*
X144177Y178646D01*
X144144Y178754D01*
X144114Y178864D01*
X144089Y178974D01*
X144067Y179085D01*
X144050Y179197D01*
X144036Y179310D01*
X144026Y179423D01*
X144020Y179536D01*
X144018Y179649D01*
X144020Y179762D01*
X144026Y179875D01*
X144036Y179988D01*
X144050Y180101D01*
X144067Y180213D01*
X144089Y180324D01*
X144114Y180434D01*
X144144Y180544D01*
X144177Y180652D01*
X144214Y180759D01*
X144254Y180865D01*
X144299Y180969D01*
X144347Y181072D01*
X144398Y181173D01*
X144453Y181272D01*
X144511Y181369D01*
X144573Y181464D01*
X144638Y181557D01*
X144706Y181647D01*
X144777Y181735D01*
X144852Y181821D01*
X144929Y181904D01*
X145009Y181984D01*
X145092Y182061D01*
X145178Y182136D01*
X145266Y182207D01*
X145356Y182275D01*
X145449Y182340D01*
X145544Y182402D01*
X145641Y182460D01*
X145740Y182515D01*
X145841Y182566D01*
X145944Y182614D01*
X146048Y182659D01*
X146154Y182699D01*
X146261Y182736D01*
X146369Y182769D01*
X146479Y182799D01*
X146589Y182824D01*
X146700Y182846D01*
X146812Y182863D01*
X146925Y182877D01*
X147038Y182887D01*
X147151Y182893D01*
X147264Y182895D01*
X147264Y182894D02*
X152456Y182894D01*
X152456Y182895D02*
X152569Y182893D01*
X152682Y182887D01*
X152795Y182877D01*
X152908Y182863D01*
X153020Y182846D01*
X153131Y182824D01*
X153241Y182799D01*
X153351Y182769D01*
X153459Y182736D01*
X153566Y182699D01*
X153672Y182659D01*
X153776Y182614D01*
X153879Y182566D01*
X153980Y182515D01*
X154079Y182460D01*
X154176Y182402D01*
X154271Y182340D01*
X154364Y182275D01*
X154454Y182207D01*
X154542Y182136D01*
X154628Y182061D01*
X154711Y181984D01*
X154791Y181904D01*
X154868Y181821D01*
X154943Y181735D01*
X155014Y181647D01*
X155082Y181557D01*
X155147Y181464D01*
X155209Y181369D01*
X155267Y181272D01*
X155322Y181173D01*
X155373Y181072D01*
X155421Y180969D01*
X155466Y180865D01*
X155506Y180759D01*
X155543Y180652D01*
X155576Y180544D01*
X155606Y180434D01*
X155631Y180324D01*
X155653Y180213D01*
X155670Y180101D01*
X155684Y179988D01*
X155694Y179875D01*
X155700Y179762D01*
X155702Y179649D01*
X155700Y179536D01*
X155694Y179423D01*
X155684Y179310D01*
X155670Y179197D01*
X155653Y179085D01*
X155631Y178974D01*
X155606Y178864D01*
X155576Y178754D01*
X155543Y178646D01*
X155506Y178539D01*
X155466Y178433D01*
X155421Y178329D01*
X155373Y178226D01*
X155322Y178125D01*
X155267Y178026D01*
X155209Y177929D01*
X155147Y177834D01*
X155082Y177741D01*
X155014Y177651D01*
X154943Y177563D01*
X154868Y177477D01*
X154791Y177394D01*
X154711Y177314D01*
X154628Y177237D01*
X154542Y177162D01*
X154454Y177091D01*
X154364Y177023D01*
X154271Y176958D01*
X154176Y176896D01*
X154079Y176838D01*
X153980Y176783D01*
X153879Y176732D01*
X153776Y176684D01*
X153672Y176639D01*
X153566Y176599D01*
X153459Y176562D01*
X153351Y176529D01*
X153241Y176499D01*
X153131Y176474D01*
X153020Y176452D01*
X152908Y176435D01*
X152795Y176421D01*
X152682Y176411D01*
X152569Y176405D01*
X152456Y176403D01*
D11*
X88900Y485140D02*
X520700Y485140D01*
X520700Y276860D01*
X88900Y276860D01*
X88900Y485140D01*
D10*
X99822Y373132D02*
X116078Y373132D01*
X116078Y371326D02*
X116078Y374939D01*
X99822Y374939D02*
X99822Y371326D01*
X99822Y381643D02*
X116078Y381643D01*
X116078Y390674D02*
X99822Y381643D01*
X99822Y390674D02*
X116078Y390674D01*
X498038Y360853D02*
X505262Y360853D01*
X498038Y360853D02*
X497905Y360855D01*
X497773Y360861D01*
X497641Y360871D01*
X497509Y360884D01*
X497377Y360902D01*
X497247Y360923D01*
X497116Y360948D01*
X496987Y360977D01*
X496859Y361010D01*
X496731Y361046D01*
X496605Y361086D01*
X496480Y361130D01*
X496356Y361178D01*
X496234Y361229D01*
X496113Y361284D01*
X495994Y361342D01*
X495876Y361404D01*
X495761Y361469D01*
X495647Y361538D01*
X495536Y361609D01*
X495427Y361685D01*
X495320Y361763D01*
X495215Y361844D01*
X495113Y361929D01*
X495013Y362016D01*
X494916Y362106D01*
X494821Y362199D01*
X494730Y362295D01*
X494641Y362393D01*
X494555Y362494D01*
X494472Y362598D01*
X494392Y362704D01*
X494316Y362812D01*
X494242Y362922D01*
X494172Y363035D01*
X494105Y363149D01*
X494042Y363266D01*
X493982Y363384D01*
X493925Y363504D01*
X493872Y363626D01*
X493823Y363749D01*
X493777Y363873D01*
X493735Y363999D01*
X493697Y364126D01*
X493662Y364254D01*
X493631Y364383D01*
X493604Y364512D01*
X493581Y364643D01*
X493561Y364774D01*
X493546Y364906D01*
X493534Y365038D01*
X493526Y365170D01*
X493522Y365303D01*
X493522Y365435D01*
X493526Y365568D01*
X493534Y365700D01*
X493546Y365832D01*
X493561Y365964D01*
X493581Y366095D01*
X493604Y366226D01*
X493631Y366355D01*
X493662Y366484D01*
X493697Y366612D01*
X493735Y366739D01*
X493777Y366865D01*
X493823Y366989D01*
X493872Y367112D01*
X493925Y367234D01*
X493982Y367354D01*
X494042Y367472D01*
X494105Y367589D01*
X494172Y367703D01*
X494242Y367816D01*
X494316Y367926D01*
X494392Y368034D01*
X494472Y368140D01*
X494555Y368244D01*
X494641Y368345D01*
X494730Y368443D01*
X494821Y368539D01*
X494916Y368632D01*
X495013Y368722D01*
X495113Y368809D01*
X495215Y368894D01*
X495320Y368975D01*
X495427Y369053D01*
X495536Y369129D01*
X495647Y369200D01*
X495761Y369269D01*
X495876Y369334D01*
X495994Y369396D01*
X496113Y369454D01*
X496234Y369509D01*
X496356Y369560D01*
X496480Y369608D01*
X496605Y369652D01*
X496731Y369692D01*
X496859Y369728D01*
X496987Y369761D01*
X497116Y369790D01*
X497247Y369815D01*
X497377Y369836D01*
X497509Y369854D01*
X497641Y369867D01*
X497773Y369877D01*
X497905Y369883D01*
X498038Y369885D01*
X498038Y369884D02*
X505262Y369884D01*
X505262Y369885D02*
X505395Y369883D01*
X505527Y369877D01*
X505659Y369867D01*
X505791Y369854D01*
X505923Y369836D01*
X506053Y369815D01*
X506184Y369790D01*
X506313Y369761D01*
X506441Y369728D01*
X506569Y369692D01*
X506695Y369652D01*
X506820Y369608D01*
X506944Y369560D01*
X507066Y369509D01*
X507187Y369454D01*
X507306Y369396D01*
X507424Y369334D01*
X507539Y369269D01*
X507653Y369200D01*
X507764Y369129D01*
X507873Y369053D01*
X507980Y368975D01*
X508085Y368894D01*
X508187Y368809D01*
X508287Y368722D01*
X508384Y368632D01*
X508479Y368539D01*
X508570Y368443D01*
X508659Y368345D01*
X508745Y368244D01*
X508828Y368140D01*
X508908Y368034D01*
X508984Y367926D01*
X509058Y367816D01*
X509128Y367703D01*
X509195Y367589D01*
X509258Y367472D01*
X509318Y367354D01*
X509375Y367234D01*
X509428Y367112D01*
X509477Y366989D01*
X509523Y366865D01*
X509565Y366739D01*
X509603Y366612D01*
X509638Y366484D01*
X509669Y366355D01*
X509696Y366226D01*
X509719Y366095D01*
X509739Y365964D01*
X509754Y365832D01*
X509766Y365700D01*
X509774Y365568D01*
X509778Y365435D01*
X509778Y365303D01*
X509774Y365170D01*
X509766Y365038D01*
X509754Y364906D01*
X509739Y364774D01*
X509719Y364643D01*
X509696Y364512D01*
X509669Y364383D01*
X509638Y364254D01*
X509603Y364126D01*
X509565Y363999D01*
X509523Y363873D01*
X509477Y363749D01*
X509428Y363626D01*
X509375Y363504D01*
X509318Y363384D01*
X509258Y363266D01*
X509195Y363149D01*
X509128Y363035D01*
X509058Y362922D01*
X508984Y362812D01*
X508908Y362704D01*
X508828Y362598D01*
X508745Y362494D01*
X508659Y362393D01*
X508570Y362295D01*
X508479Y362199D01*
X508384Y362106D01*
X508287Y362016D01*
X508187Y361929D01*
X508085Y361844D01*
X507980Y361763D01*
X507873Y361685D01*
X507764Y361609D01*
X507653Y361538D01*
X507539Y361469D01*
X507424Y361404D01*
X507306Y361342D01*
X507187Y361284D01*
X507066Y361229D01*
X506944Y361178D01*
X506820Y361130D01*
X506695Y361086D01*
X506569Y361046D01*
X506441Y361010D01*
X506313Y360977D01*
X506184Y360948D01*
X506053Y360923D01*
X505923Y360902D01*
X505791Y360884D01*
X505659Y360871D01*
X505527Y360861D01*
X505395Y360855D01*
X505262Y360853D01*
X505262Y377006D02*
X493522Y377006D01*
X505262Y377005D02*
X505395Y377007D01*
X505527Y377013D01*
X505659Y377023D01*
X505791Y377036D01*
X505923Y377054D01*
X506053Y377075D01*
X506184Y377100D01*
X506313Y377129D01*
X506441Y377162D01*
X506569Y377198D01*
X506695Y377238D01*
X506820Y377282D01*
X506944Y377330D01*
X507066Y377381D01*
X507187Y377436D01*
X507306Y377494D01*
X507424Y377556D01*
X507539Y377621D01*
X507653Y377690D01*
X507764Y377761D01*
X507873Y377837D01*
X507980Y377915D01*
X508085Y377996D01*
X508187Y378081D01*
X508287Y378168D01*
X508384Y378258D01*
X508479Y378351D01*
X508570Y378447D01*
X508659Y378545D01*
X508745Y378646D01*
X508828Y378750D01*
X508908Y378856D01*
X508984Y378964D01*
X509058Y379074D01*
X509128Y379187D01*
X509195Y379301D01*
X509258Y379418D01*
X509318Y379536D01*
X509375Y379656D01*
X509428Y379778D01*
X509477Y379901D01*
X509523Y380025D01*
X509565Y380151D01*
X509603Y380278D01*
X509638Y380406D01*
X509669Y380535D01*
X509696Y380664D01*
X509719Y380795D01*
X509739Y380926D01*
X509754Y381058D01*
X509766Y381190D01*
X509774Y381322D01*
X509778Y381455D01*
X509778Y381587D01*
X509774Y381720D01*
X509766Y381852D01*
X509754Y381984D01*
X509739Y382116D01*
X509719Y382247D01*
X509696Y382378D01*
X509669Y382507D01*
X509638Y382636D01*
X509603Y382764D01*
X509565Y382891D01*
X509523Y383017D01*
X509477Y383141D01*
X509428Y383264D01*
X509375Y383386D01*
X509318Y383506D01*
X509258Y383624D01*
X509195Y383741D01*
X509128Y383855D01*
X509058Y383968D01*
X508984Y384078D01*
X508908Y384186D01*
X508828Y384292D01*
X508745Y384396D01*
X508659Y384497D01*
X508570Y384595D01*
X508479Y384691D01*
X508384Y384784D01*
X508287Y384874D01*
X508187Y384961D01*
X508085Y385046D01*
X507980Y385127D01*
X507873Y385205D01*
X507764Y385281D01*
X507653Y385352D01*
X507539Y385421D01*
X507424Y385486D01*
X507306Y385548D01*
X507187Y385606D01*
X507066Y385661D01*
X506944Y385712D01*
X506820Y385760D01*
X506695Y385804D01*
X506569Y385844D01*
X506441Y385880D01*
X506313Y385913D01*
X506184Y385942D01*
X506053Y385967D01*
X505923Y385988D01*
X505791Y386006D01*
X505659Y386019D01*
X505527Y386029D01*
X505395Y386035D01*
X505262Y386037D01*
X493522Y386037D01*
X493522Y396631D02*
X509778Y396631D01*
X493522Y392116D02*
X493522Y401147D01*
D12*
X501650Y438150D02*
X501650Y450850D01*
X495300Y444500D02*
X508000Y444500D01*
X107950Y323850D02*
X107950Y311150D01*
X501650Y311150D02*
X501650Y323850D01*
X107950Y438150D02*
X107950Y450850D01*
X101600Y444500D02*
X114300Y444500D01*
D13*
X140208Y286011D02*
X151892Y282116D01*
X151892Y289906D02*
X140208Y286011D01*
X148971Y288932D02*
X148971Y283090D01*
X151892Y294599D02*
X140208Y294599D01*
X151892Y294599D02*
X151892Y299792D01*
X151892Y305061D02*
X140208Y305061D01*
X151892Y303763D02*
X151892Y306359D01*
X140208Y306359D02*
X140208Y303763D01*
X140208Y311453D02*
X151892Y311453D01*
X146699Y315348D02*
X140208Y311453D01*
X146699Y315348D02*
X140208Y319243D01*
X151892Y319243D01*
X153190Y324182D02*
X153190Y329375D01*
X151892Y337333D02*
X151890Y337432D01*
X151884Y337532D01*
X151875Y337631D01*
X151862Y337729D01*
X151845Y337827D01*
X151824Y337925D01*
X151799Y338021D01*
X151771Y338116D01*
X151739Y338210D01*
X151704Y338303D01*
X151665Y338395D01*
X151622Y338485D01*
X151577Y338573D01*
X151527Y338660D01*
X151475Y338744D01*
X151419Y338827D01*
X151361Y338907D01*
X151299Y338985D01*
X151234Y339060D01*
X151166Y339133D01*
X151096Y339203D01*
X151023Y339271D01*
X150948Y339336D01*
X150870Y339398D01*
X150790Y339456D01*
X150707Y339512D01*
X150623Y339564D01*
X150536Y339614D01*
X150448Y339659D01*
X150358Y339702D01*
X150266Y339741D01*
X150173Y339776D01*
X150079Y339808D01*
X149984Y339836D01*
X149888Y339861D01*
X149790Y339882D01*
X149692Y339899D01*
X149594Y339912D01*
X149495Y339921D01*
X149395Y339927D01*
X149296Y339929D01*
X151892Y337333D02*
X151890Y337189D01*
X151884Y337044D01*
X151875Y336900D01*
X151862Y336757D01*
X151845Y336613D01*
X151824Y336470D01*
X151799Y336328D01*
X151771Y336187D01*
X151739Y336046D01*
X151703Y335906D01*
X151664Y335767D01*
X151621Y335629D01*
X151574Y335493D01*
X151524Y335357D01*
X151470Y335223D01*
X151413Y335091D01*
X151352Y334960D01*
X151288Y334831D01*
X151220Y334703D01*
X151150Y334577D01*
X151075Y334453D01*
X150998Y334332D01*
X150917Y334212D01*
X150834Y334094D01*
X150747Y333979D01*
X150657Y333866D01*
X150564Y333755D01*
X150469Y333647D01*
X150370Y333541D01*
X150269Y333438D01*
X142804Y333764D02*
X142705Y333766D01*
X142605Y333772D01*
X142506Y333781D01*
X142408Y333794D01*
X142310Y333811D01*
X142212Y333832D01*
X142116Y333857D01*
X142021Y333885D01*
X141927Y333917D01*
X141834Y333952D01*
X141742Y333991D01*
X141652Y334034D01*
X141564Y334079D01*
X141477Y334129D01*
X141393Y334181D01*
X141310Y334237D01*
X141230Y334295D01*
X141152Y334357D01*
X141077Y334422D01*
X141004Y334490D01*
X140934Y334560D01*
X140866Y334633D01*
X140801Y334708D01*
X140739Y334786D01*
X140681Y334866D01*
X140625Y334949D01*
X140573Y335033D01*
X140523Y335120D01*
X140478Y335208D01*
X140435Y335298D01*
X140396Y335390D01*
X140361Y335483D01*
X140329Y335577D01*
X140301Y335672D01*
X140276Y335768D01*
X140255Y335866D01*
X140238Y335964D01*
X140225Y336062D01*
X140216Y336161D01*
X140210Y336261D01*
X140208Y336360D01*
X140210Y336496D01*
X140216Y336632D01*
X140225Y336768D01*
X140238Y336904D01*
X140256Y337039D01*
X140276Y337173D01*
X140301Y337307D01*
X140329Y337441D01*
X140362Y337573D01*
X140397Y337704D01*
X140437Y337835D01*
X140480Y337964D01*
X140526Y338092D01*
X140577Y338218D01*
X140630Y338344D01*
X140688Y338467D01*
X140748Y338589D01*
X140812Y338709D01*
X140880Y338828D01*
X140950Y338944D01*
X141024Y339058D01*
X141101Y339171D01*
X141182Y339281D01*
X145076Y335061D02*
X145023Y334975D01*
X144966Y334891D01*
X144907Y334809D01*
X144844Y334729D01*
X144778Y334652D01*
X144710Y334577D01*
X144638Y334505D01*
X144564Y334436D01*
X144487Y334370D01*
X144408Y334307D01*
X144326Y334247D01*
X144242Y334190D01*
X144156Y334136D01*
X144068Y334086D01*
X143978Y334039D01*
X143887Y333995D01*
X143793Y333956D01*
X143699Y333919D01*
X143603Y333887D01*
X143505Y333858D01*
X143407Y333833D01*
X143308Y333812D01*
X143208Y333794D01*
X143108Y333781D01*
X143007Y333771D01*
X142905Y333765D01*
X142804Y333763D01*
X147024Y338632D02*
X147077Y338718D01*
X147134Y338802D01*
X147193Y338884D01*
X147256Y338964D01*
X147322Y339041D01*
X147390Y339116D01*
X147462Y339188D01*
X147536Y339257D01*
X147613Y339323D01*
X147692Y339386D01*
X147774Y339446D01*
X147858Y339503D01*
X147944Y339557D01*
X148032Y339607D01*
X148122Y339654D01*
X148213Y339698D01*
X148307Y339737D01*
X148401Y339774D01*
X148497Y339806D01*
X148595Y339835D01*
X148693Y339860D01*
X148792Y339881D01*
X148892Y339899D01*
X148992Y339912D01*
X149093Y339922D01*
X149195Y339928D01*
X149296Y339930D01*
X147024Y338631D02*
X145076Y335061D01*
X151892Y344891D02*
X151892Y350084D01*
X151892Y344891D02*
X140208Y344891D01*
X140208Y350084D01*
X145401Y348786D02*
X145401Y344891D01*
X140208Y354848D02*
X151892Y354848D01*
X140208Y354848D02*
X140208Y358094D01*
X140210Y358207D01*
X140216Y358320D01*
X140226Y358433D01*
X140240Y358546D01*
X140257Y358658D01*
X140279Y358769D01*
X140304Y358879D01*
X140334Y358989D01*
X140367Y359097D01*
X140404Y359204D01*
X140444Y359310D01*
X140489Y359414D01*
X140537Y359517D01*
X140588Y359618D01*
X140643Y359717D01*
X140701Y359814D01*
X140763Y359909D01*
X140828Y360002D01*
X140896Y360092D01*
X140967Y360180D01*
X141042Y360266D01*
X141119Y360349D01*
X141199Y360429D01*
X141282Y360506D01*
X141368Y360581D01*
X141456Y360652D01*
X141546Y360720D01*
X141639Y360785D01*
X141734Y360847D01*
X141831Y360905D01*
X141930Y360960D01*
X142031Y361011D01*
X142134Y361059D01*
X142238Y361104D01*
X142344Y361144D01*
X142451Y361181D01*
X142559Y361214D01*
X142669Y361244D01*
X142779Y361269D01*
X142890Y361291D01*
X143002Y361308D01*
X143115Y361322D01*
X143228Y361332D01*
X143341Y361338D01*
X143454Y361340D01*
X143567Y361338D01*
X143680Y361332D01*
X143793Y361322D01*
X143906Y361308D01*
X144018Y361291D01*
X144129Y361269D01*
X144239Y361244D01*
X144349Y361214D01*
X144457Y361181D01*
X144564Y361144D01*
X144670Y361104D01*
X144774Y361059D01*
X144877Y361011D01*
X144978Y360960D01*
X145077Y360905D01*
X145174Y360847D01*
X145269Y360785D01*
X145362Y360720D01*
X145452Y360652D01*
X145540Y360581D01*
X145626Y360506D01*
X145709Y360429D01*
X145789Y360349D01*
X145866Y360266D01*
X145941Y360180D01*
X146012Y360092D01*
X146080Y360002D01*
X146145Y359909D01*
X146207Y359814D01*
X146265Y359717D01*
X146320Y359618D01*
X146371Y359517D01*
X146419Y359414D01*
X146464Y359310D01*
X146504Y359204D01*
X146541Y359097D01*
X146574Y358989D01*
X146604Y358879D01*
X146629Y358769D01*
X146651Y358658D01*
X146668Y358546D01*
X146682Y358433D01*
X146692Y358320D01*
X146698Y358207D01*
X146700Y358094D01*
X146699Y358094D02*
X146699Y354848D01*
X146699Y358743D02*
X151892Y361339D01*
X151892Y369450D02*
X140208Y365555D01*
X140208Y373345D02*
X151892Y369450D01*
X148646Y377635D02*
X143454Y377635D01*
X143454Y377634D02*
X143341Y377636D01*
X143228Y377642D01*
X143115Y377652D01*
X143002Y377666D01*
X142890Y377683D01*
X142779Y377705D01*
X142669Y377730D01*
X142559Y377760D01*
X142451Y377793D01*
X142344Y377830D01*
X142238Y377870D01*
X142134Y377915D01*
X142031Y377963D01*
X141930Y378014D01*
X141831Y378069D01*
X141734Y378127D01*
X141639Y378189D01*
X141546Y378254D01*
X141456Y378322D01*
X141368Y378393D01*
X141282Y378468D01*
X141199Y378545D01*
X141119Y378625D01*
X141042Y378708D01*
X140967Y378794D01*
X140896Y378882D01*
X140828Y378972D01*
X140763Y379065D01*
X140701Y379160D01*
X140643Y379257D01*
X140588Y379356D01*
X140537Y379457D01*
X140489Y379560D01*
X140444Y379664D01*
X140404Y379770D01*
X140367Y379877D01*
X140334Y379985D01*
X140304Y380095D01*
X140279Y380205D01*
X140257Y380316D01*
X140240Y380428D01*
X140226Y380541D01*
X140216Y380654D01*
X140210Y380767D01*
X140208Y380880D01*
X140210Y380993D01*
X140216Y381106D01*
X140226Y381219D01*
X140240Y381332D01*
X140257Y381444D01*
X140279Y381555D01*
X140304Y381665D01*
X140334Y381775D01*
X140367Y381883D01*
X140404Y381990D01*
X140444Y382096D01*
X140489Y382200D01*
X140537Y382303D01*
X140588Y382404D01*
X140643Y382503D01*
X140701Y382600D01*
X140763Y382695D01*
X140828Y382788D01*
X140896Y382878D01*
X140967Y382966D01*
X141042Y383052D01*
X141119Y383135D01*
X141199Y383215D01*
X141282Y383292D01*
X141368Y383367D01*
X141456Y383438D01*
X141546Y383506D01*
X141639Y383571D01*
X141734Y383633D01*
X141831Y383691D01*
X141930Y383746D01*
X142031Y383797D01*
X142134Y383845D01*
X142238Y383890D01*
X142344Y383930D01*
X142451Y383967D01*
X142559Y384000D01*
X142669Y384030D01*
X142779Y384055D01*
X142890Y384077D01*
X143002Y384094D01*
X143115Y384108D01*
X143228Y384118D01*
X143341Y384124D01*
X143454Y384126D01*
X148646Y384126D01*
X148759Y384124D01*
X148872Y384118D01*
X148985Y384108D01*
X149098Y384094D01*
X149210Y384077D01*
X149321Y384055D01*
X149431Y384030D01*
X149541Y384000D01*
X149649Y383967D01*
X149756Y383930D01*
X149862Y383890D01*
X149966Y383845D01*
X150069Y383797D01*
X150170Y383746D01*
X150269Y383691D01*
X150366Y383633D01*
X150461Y383571D01*
X150554Y383506D01*
X150644Y383438D01*
X150732Y383367D01*
X150818Y383292D01*
X150901Y383215D01*
X150981Y383135D01*
X151058Y383052D01*
X151133Y382966D01*
X151204Y382878D01*
X151272Y382788D01*
X151337Y382695D01*
X151399Y382600D01*
X151457Y382503D01*
X151512Y382404D01*
X151563Y382303D01*
X151611Y382200D01*
X151656Y382096D01*
X151696Y381990D01*
X151733Y381883D01*
X151766Y381775D01*
X151796Y381665D01*
X151821Y381555D01*
X151843Y381444D01*
X151860Y381332D01*
X151874Y381219D01*
X151884Y381106D01*
X151890Y380993D01*
X151892Y380880D01*
X151890Y380767D01*
X151884Y380654D01*
X151874Y380541D01*
X151860Y380428D01*
X151843Y380316D01*
X151821Y380205D01*
X151796Y380095D01*
X151766Y379985D01*
X151733Y379877D01*
X151696Y379770D01*
X151656Y379664D01*
X151611Y379560D01*
X151563Y379457D01*
X151512Y379356D01*
X151457Y379257D01*
X151399Y379160D01*
X151337Y379065D01*
X151272Y378972D01*
X151204Y378882D01*
X151133Y378794D01*
X151058Y378708D01*
X150981Y378625D01*
X150901Y378545D01*
X150818Y378468D01*
X150732Y378393D01*
X150644Y378322D01*
X150554Y378254D01*
X150461Y378189D01*
X150366Y378127D01*
X150269Y378069D01*
X150170Y378014D01*
X150069Y377963D01*
X149966Y377915D01*
X149862Y377870D01*
X149756Y377830D01*
X149649Y377793D01*
X149541Y377760D01*
X149431Y377730D01*
X149321Y377705D01*
X149210Y377683D01*
X149098Y377666D01*
X148985Y377652D01*
X148872Y377642D01*
X148759Y377636D01*
X148646Y377634D01*
X153190Y388571D02*
X153190Y393763D01*
X142804Y398208D02*
X140208Y401454D01*
X151892Y401454D01*
X151892Y398208D02*
X151892Y404700D01*
X147348Y409751D02*
X147348Y417541D01*
X149296Y422592D02*
X140208Y425189D01*
X149296Y422592D02*
X149296Y429084D01*
X151892Y427136D02*
X146699Y427136D01*
D11*
X88900Y713740D02*
X520700Y713740D01*
X520700Y505460D01*
X88900Y505460D01*
X88900Y713740D01*
D10*
X99822Y601732D02*
X116078Y601732D01*
X116078Y599926D02*
X116078Y603539D01*
X99822Y603539D02*
X99822Y599926D01*
X99822Y610243D02*
X116078Y610243D01*
X116078Y619274D02*
X99822Y610243D01*
X99822Y619274D02*
X116078Y619274D01*
X498038Y589453D02*
X505262Y589453D01*
X498038Y589453D02*
X497905Y589455D01*
X497773Y589461D01*
X497641Y589471D01*
X497509Y589484D01*
X497377Y589502D01*
X497247Y589523D01*
X497116Y589548D01*
X496987Y589577D01*
X496859Y589610D01*
X496731Y589646D01*
X496605Y589686D01*
X496480Y589730D01*
X496356Y589778D01*
X496234Y589829D01*
X496113Y589884D01*
X495994Y589942D01*
X495876Y590004D01*
X495761Y590069D01*
X495647Y590138D01*
X495536Y590209D01*
X495427Y590285D01*
X495320Y590363D01*
X495215Y590444D01*
X495113Y590529D01*
X495013Y590616D01*
X494916Y590706D01*
X494821Y590799D01*
X494730Y590895D01*
X494641Y590993D01*
X494555Y591094D01*
X494472Y591198D01*
X494392Y591304D01*
X494316Y591412D01*
X494242Y591522D01*
X494172Y591635D01*
X494105Y591749D01*
X494042Y591866D01*
X493982Y591984D01*
X493925Y592104D01*
X493872Y592226D01*
X493823Y592349D01*
X493777Y592473D01*
X493735Y592599D01*
X493697Y592726D01*
X493662Y592854D01*
X493631Y592983D01*
X493604Y593112D01*
X493581Y593243D01*
X493561Y593374D01*
X493546Y593506D01*
X493534Y593638D01*
X493526Y593770D01*
X493522Y593903D01*
X493522Y594035D01*
X493526Y594168D01*
X493534Y594300D01*
X493546Y594432D01*
X493561Y594564D01*
X493581Y594695D01*
X493604Y594826D01*
X493631Y594955D01*
X493662Y595084D01*
X493697Y595212D01*
X493735Y595339D01*
X493777Y595465D01*
X493823Y595589D01*
X493872Y595712D01*
X493925Y595834D01*
X493982Y595954D01*
X494042Y596072D01*
X494105Y596189D01*
X494172Y596303D01*
X494242Y596416D01*
X494316Y596526D01*
X494392Y596634D01*
X494472Y596740D01*
X494555Y596844D01*
X494641Y596945D01*
X494730Y597043D01*
X494821Y597139D01*
X494916Y597232D01*
X495013Y597322D01*
X495113Y597409D01*
X495215Y597494D01*
X495320Y597575D01*
X495427Y597653D01*
X495536Y597729D01*
X495647Y597800D01*
X495761Y597869D01*
X495876Y597934D01*
X495994Y597996D01*
X496113Y598054D01*
X496234Y598109D01*
X496356Y598160D01*
X496480Y598208D01*
X496605Y598252D01*
X496731Y598292D01*
X496859Y598328D01*
X496987Y598361D01*
X497116Y598390D01*
X497247Y598415D01*
X497377Y598436D01*
X497509Y598454D01*
X497641Y598467D01*
X497773Y598477D01*
X497905Y598483D01*
X498038Y598485D01*
X498038Y598484D02*
X505262Y598484D01*
X505262Y598485D02*
X505395Y598483D01*
X505527Y598477D01*
X505659Y598467D01*
X505791Y598454D01*
X505923Y598436D01*
X506053Y598415D01*
X506184Y598390D01*
X506313Y598361D01*
X506441Y598328D01*
X506569Y598292D01*
X506695Y598252D01*
X506820Y598208D01*
X506944Y598160D01*
X507066Y598109D01*
X507187Y598054D01*
X507306Y597996D01*
X507424Y597934D01*
X507539Y597869D01*
X507653Y597800D01*
X507764Y597729D01*
X507873Y597653D01*
X507980Y597575D01*
X508085Y597494D01*
X508187Y597409D01*
X508287Y597322D01*
X508384Y597232D01*
X508479Y597139D01*
X508570Y597043D01*
X508659Y596945D01*
X508745Y596844D01*
X508828Y596740D01*
X508908Y596634D01*
X508984Y596526D01*
X509058Y596416D01*
X509128Y596303D01*
X509195Y596189D01*
X509258Y596072D01*
X509318Y595954D01*
X509375Y595834D01*
X509428Y595712D01*
X509477Y595589D01*
X509523Y595465D01*
X509565Y595339D01*
X509603Y595212D01*
X509638Y595084D01*
X509669Y594955D01*
X509696Y594826D01*
X509719Y594695D01*
X509739Y594564D01*
X509754Y594432D01*
X509766Y594300D01*
X509774Y594168D01*
X509778Y594035D01*
X509778Y593903D01*
X509774Y593770D01*
X509766Y593638D01*
X509754Y593506D01*
X509739Y593374D01*
X509719Y593243D01*
X509696Y593112D01*
X509669Y592983D01*
X509638Y592854D01*
X509603Y592726D01*
X509565Y592599D01*
X509523Y592473D01*
X509477Y592349D01*
X509428Y592226D01*
X509375Y592104D01*
X509318Y591984D01*
X509258Y591866D01*
X509195Y591749D01*
X509128Y591635D01*
X509058Y591522D01*
X508984Y591412D01*
X508908Y591304D01*
X508828Y591198D01*
X508745Y591094D01*
X508659Y590993D01*
X508570Y590895D01*
X508479Y590799D01*
X508384Y590706D01*
X508287Y590616D01*
X508187Y590529D01*
X508085Y590444D01*
X507980Y590363D01*
X507873Y590285D01*
X507764Y590209D01*
X507653Y590138D01*
X507539Y590069D01*
X507424Y590004D01*
X507306Y589942D01*
X507187Y589884D01*
X507066Y589829D01*
X506944Y589778D01*
X506820Y589730D01*
X506695Y589686D01*
X506569Y589646D01*
X506441Y589610D01*
X506313Y589577D01*
X506184Y589548D01*
X506053Y589523D01*
X505923Y589502D01*
X505791Y589484D01*
X505659Y589471D01*
X505527Y589461D01*
X505395Y589455D01*
X505262Y589453D01*
X505262Y605606D02*
X493522Y605606D01*
X505262Y605605D02*
X505395Y605607D01*
X505527Y605613D01*
X505659Y605623D01*
X505791Y605636D01*
X505923Y605654D01*
X506053Y605675D01*
X506184Y605700D01*
X506313Y605729D01*
X506441Y605762D01*
X506569Y605798D01*
X506695Y605838D01*
X506820Y605882D01*
X506944Y605930D01*
X507066Y605981D01*
X507187Y606036D01*
X507306Y606094D01*
X507424Y606156D01*
X507539Y606221D01*
X507653Y606290D01*
X507764Y606361D01*
X507873Y606437D01*
X507980Y606515D01*
X508085Y606596D01*
X508187Y606681D01*
X508287Y606768D01*
X508384Y606858D01*
X508479Y606951D01*
X508570Y607047D01*
X508659Y607145D01*
X508745Y607246D01*
X508828Y607350D01*
X508908Y607456D01*
X508984Y607564D01*
X509058Y607674D01*
X509128Y607787D01*
X509195Y607901D01*
X509258Y608018D01*
X509318Y608136D01*
X509375Y608256D01*
X509428Y608378D01*
X509477Y608501D01*
X509523Y608625D01*
X509565Y608751D01*
X509603Y608878D01*
X509638Y609006D01*
X509669Y609135D01*
X509696Y609264D01*
X509719Y609395D01*
X509739Y609526D01*
X509754Y609658D01*
X509766Y609790D01*
X509774Y609922D01*
X509778Y610055D01*
X509778Y610187D01*
X509774Y610320D01*
X509766Y610452D01*
X509754Y610584D01*
X509739Y610716D01*
X509719Y610847D01*
X509696Y610978D01*
X509669Y611107D01*
X509638Y611236D01*
X509603Y611364D01*
X509565Y611491D01*
X509523Y611617D01*
X509477Y611741D01*
X509428Y611864D01*
X509375Y611986D01*
X509318Y612106D01*
X509258Y612224D01*
X509195Y612341D01*
X509128Y612455D01*
X509058Y612568D01*
X508984Y612678D01*
X508908Y612786D01*
X508828Y612892D01*
X508745Y612996D01*
X508659Y613097D01*
X508570Y613195D01*
X508479Y613291D01*
X508384Y613384D01*
X508287Y613474D01*
X508187Y613561D01*
X508085Y613646D01*
X507980Y613727D01*
X507873Y613805D01*
X507764Y613881D01*
X507653Y613952D01*
X507539Y614021D01*
X507424Y614086D01*
X507306Y614148D01*
X507187Y614206D01*
X507066Y614261D01*
X506944Y614312D01*
X506820Y614360D01*
X506695Y614404D01*
X506569Y614444D01*
X506441Y614480D01*
X506313Y614513D01*
X506184Y614542D01*
X506053Y614567D01*
X505923Y614588D01*
X505791Y614606D01*
X505659Y614619D01*
X505527Y614629D01*
X505395Y614635D01*
X505262Y614637D01*
X493522Y614637D01*
X493522Y625231D02*
X509778Y625231D01*
X493522Y620716D02*
X493522Y629747D01*
D12*
X501650Y666750D02*
X501650Y679450D01*
X495300Y673100D02*
X508000Y673100D01*
X107950Y552450D02*
X107950Y539750D01*
X501650Y539750D02*
X501650Y552450D01*
X107950Y666750D02*
X107950Y679450D01*
X101600Y673100D02*
X114300Y673100D01*
D13*
X124968Y538741D02*
X136652Y534846D01*
X136652Y542636D02*
X124968Y538741D01*
X133731Y541662D02*
X133731Y535820D01*
X136652Y547329D02*
X124968Y547329D01*
X136652Y547329D02*
X136652Y552522D01*
X136652Y557791D02*
X124968Y557791D01*
X136652Y556493D02*
X136652Y559089D01*
X124968Y559089D02*
X124968Y556493D01*
X124968Y564183D02*
X136652Y564183D01*
X131459Y568078D02*
X124968Y564183D01*
X131459Y568078D02*
X124968Y571973D01*
X136652Y571973D01*
X137950Y576912D02*
X137950Y582105D01*
X136652Y590063D02*
X136650Y590162D01*
X136644Y590262D01*
X136635Y590361D01*
X136622Y590459D01*
X136605Y590557D01*
X136584Y590655D01*
X136559Y590751D01*
X136531Y590846D01*
X136499Y590940D01*
X136464Y591033D01*
X136425Y591125D01*
X136382Y591215D01*
X136337Y591303D01*
X136287Y591390D01*
X136235Y591474D01*
X136179Y591557D01*
X136121Y591637D01*
X136059Y591715D01*
X135994Y591790D01*
X135926Y591863D01*
X135856Y591933D01*
X135783Y592001D01*
X135708Y592066D01*
X135630Y592128D01*
X135550Y592186D01*
X135467Y592242D01*
X135383Y592294D01*
X135296Y592344D01*
X135208Y592389D01*
X135118Y592432D01*
X135026Y592471D01*
X134933Y592506D01*
X134839Y592538D01*
X134744Y592566D01*
X134648Y592591D01*
X134550Y592612D01*
X134452Y592629D01*
X134354Y592642D01*
X134255Y592651D01*
X134155Y592657D01*
X134056Y592659D01*
X136652Y590063D02*
X136650Y589919D01*
X136644Y589774D01*
X136635Y589630D01*
X136622Y589487D01*
X136605Y589343D01*
X136584Y589200D01*
X136559Y589058D01*
X136531Y588917D01*
X136499Y588776D01*
X136463Y588636D01*
X136424Y588497D01*
X136381Y588359D01*
X136334Y588223D01*
X136284Y588087D01*
X136230Y587953D01*
X136173Y587821D01*
X136112Y587690D01*
X136048Y587561D01*
X135980Y587433D01*
X135910Y587307D01*
X135835Y587183D01*
X135758Y587062D01*
X135677Y586942D01*
X135594Y586824D01*
X135507Y586709D01*
X135417Y586596D01*
X135324Y586485D01*
X135229Y586377D01*
X135130Y586271D01*
X135029Y586168D01*
X127564Y586494D02*
X127465Y586496D01*
X127365Y586502D01*
X127266Y586511D01*
X127168Y586524D01*
X127070Y586541D01*
X126972Y586562D01*
X126876Y586587D01*
X126781Y586615D01*
X126687Y586647D01*
X126594Y586682D01*
X126502Y586721D01*
X126412Y586764D01*
X126324Y586809D01*
X126237Y586859D01*
X126153Y586911D01*
X126070Y586967D01*
X125990Y587025D01*
X125912Y587087D01*
X125837Y587152D01*
X125764Y587220D01*
X125694Y587290D01*
X125626Y587363D01*
X125561Y587438D01*
X125499Y587516D01*
X125441Y587596D01*
X125385Y587679D01*
X125333Y587763D01*
X125283Y587850D01*
X125238Y587938D01*
X125195Y588028D01*
X125156Y588120D01*
X125121Y588213D01*
X125089Y588307D01*
X125061Y588402D01*
X125036Y588498D01*
X125015Y588596D01*
X124998Y588694D01*
X124985Y588792D01*
X124976Y588891D01*
X124970Y588991D01*
X124968Y589090D01*
X124970Y589226D01*
X124976Y589362D01*
X124985Y589498D01*
X124998Y589634D01*
X125016Y589769D01*
X125036Y589903D01*
X125061Y590037D01*
X125089Y590171D01*
X125122Y590303D01*
X125157Y590434D01*
X125197Y590565D01*
X125240Y590694D01*
X125286Y590822D01*
X125337Y590948D01*
X125390Y591074D01*
X125448Y591197D01*
X125508Y591319D01*
X125572Y591439D01*
X125640Y591558D01*
X125710Y591674D01*
X125784Y591788D01*
X125861Y591901D01*
X125942Y592011D01*
X129836Y587791D02*
X129783Y587705D01*
X129726Y587621D01*
X129667Y587539D01*
X129604Y587459D01*
X129538Y587382D01*
X129470Y587307D01*
X129398Y587235D01*
X129324Y587166D01*
X129247Y587100D01*
X129168Y587037D01*
X129086Y586977D01*
X129002Y586920D01*
X128916Y586866D01*
X128828Y586816D01*
X128738Y586769D01*
X128647Y586725D01*
X128553Y586686D01*
X128459Y586649D01*
X128363Y586617D01*
X128265Y586588D01*
X128167Y586563D01*
X128068Y586542D01*
X127968Y586524D01*
X127868Y586511D01*
X127767Y586501D01*
X127665Y586495D01*
X127564Y586493D01*
X131784Y591362D02*
X131837Y591448D01*
X131894Y591532D01*
X131953Y591614D01*
X132016Y591694D01*
X132082Y591771D01*
X132150Y591846D01*
X132222Y591918D01*
X132296Y591987D01*
X132373Y592053D01*
X132452Y592116D01*
X132534Y592176D01*
X132618Y592233D01*
X132704Y592287D01*
X132792Y592337D01*
X132882Y592384D01*
X132973Y592428D01*
X133067Y592467D01*
X133161Y592504D01*
X133257Y592536D01*
X133355Y592565D01*
X133453Y592590D01*
X133552Y592611D01*
X133652Y592629D01*
X133752Y592642D01*
X133853Y592652D01*
X133955Y592658D01*
X134056Y592660D01*
X131784Y591361D02*
X129836Y587791D01*
X136652Y597621D02*
X136652Y602814D01*
X136652Y597621D02*
X124968Y597621D01*
X124968Y602814D01*
X130161Y601516D02*
X130161Y597621D01*
X124968Y607578D02*
X136652Y607578D01*
X124968Y607578D02*
X124968Y610824D01*
X124970Y610937D01*
X124976Y611050D01*
X124986Y611163D01*
X125000Y611276D01*
X125017Y611388D01*
X125039Y611499D01*
X125064Y611609D01*
X125094Y611719D01*
X125127Y611827D01*
X125164Y611934D01*
X125204Y612040D01*
X125249Y612144D01*
X125297Y612247D01*
X125348Y612348D01*
X125403Y612447D01*
X125461Y612544D01*
X125523Y612639D01*
X125588Y612732D01*
X125656Y612822D01*
X125727Y612910D01*
X125802Y612996D01*
X125879Y613079D01*
X125959Y613159D01*
X126042Y613236D01*
X126128Y613311D01*
X126216Y613382D01*
X126306Y613450D01*
X126399Y613515D01*
X126494Y613577D01*
X126591Y613635D01*
X126690Y613690D01*
X126791Y613741D01*
X126894Y613789D01*
X126998Y613834D01*
X127104Y613874D01*
X127211Y613911D01*
X127319Y613944D01*
X127429Y613974D01*
X127539Y613999D01*
X127650Y614021D01*
X127762Y614038D01*
X127875Y614052D01*
X127988Y614062D01*
X128101Y614068D01*
X128214Y614070D01*
X128327Y614068D01*
X128440Y614062D01*
X128553Y614052D01*
X128666Y614038D01*
X128778Y614021D01*
X128889Y613999D01*
X128999Y613974D01*
X129109Y613944D01*
X129217Y613911D01*
X129324Y613874D01*
X129430Y613834D01*
X129534Y613789D01*
X129637Y613741D01*
X129738Y613690D01*
X129837Y613635D01*
X129934Y613577D01*
X130029Y613515D01*
X130122Y613450D01*
X130212Y613382D01*
X130300Y613311D01*
X130386Y613236D01*
X130469Y613159D01*
X130549Y613079D01*
X130626Y612996D01*
X130701Y612910D01*
X130772Y612822D01*
X130840Y612732D01*
X130905Y612639D01*
X130967Y612544D01*
X131025Y612447D01*
X131080Y612348D01*
X131131Y612247D01*
X131179Y612144D01*
X131224Y612040D01*
X131264Y611934D01*
X131301Y611827D01*
X131334Y611719D01*
X131364Y611609D01*
X131389Y611499D01*
X131411Y611388D01*
X131428Y611276D01*
X131442Y611163D01*
X131452Y611050D01*
X131458Y610937D01*
X131460Y610824D01*
X131459Y610824D02*
X131459Y607578D01*
X131459Y611473D02*
X136652Y614069D01*
X136652Y622180D02*
X124968Y618285D01*
X124968Y626075D02*
X136652Y622180D01*
X133406Y630365D02*
X128214Y630365D01*
X128214Y630364D02*
X128101Y630366D01*
X127988Y630372D01*
X127875Y630382D01*
X127762Y630396D01*
X127650Y630413D01*
X127539Y630435D01*
X127429Y630460D01*
X127319Y630490D01*
X127211Y630523D01*
X127104Y630560D01*
X126998Y630600D01*
X126894Y630645D01*
X126791Y630693D01*
X126690Y630744D01*
X126591Y630799D01*
X126494Y630857D01*
X126399Y630919D01*
X126306Y630984D01*
X126216Y631052D01*
X126128Y631123D01*
X126042Y631198D01*
X125959Y631275D01*
X125879Y631355D01*
X125802Y631438D01*
X125727Y631524D01*
X125656Y631612D01*
X125588Y631702D01*
X125523Y631795D01*
X125461Y631890D01*
X125403Y631987D01*
X125348Y632086D01*
X125297Y632187D01*
X125249Y632290D01*
X125204Y632394D01*
X125164Y632500D01*
X125127Y632607D01*
X125094Y632715D01*
X125064Y632825D01*
X125039Y632935D01*
X125017Y633046D01*
X125000Y633158D01*
X124986Y633271D01*
X124976Y633384D01*
X124970Y633497D01*
X124968Y633610D01*
X124970Y633723D01*
X124976Y633836D01*
X124986Y633949D01*
X125000Y634062D01*
X125017Y634174D01*
X125039Y634285D01*
X125064Y634395D01*
X125094Y634505D01*
X125127Y634613D01*
X125164Y634720D01*
X125204Y634826D01*
X125249Y634930D01*
X125297Y635033D01*
X125348Y635134D01*
X125403Y635233D01*
X125461Y635330D01*
X125523Y635425D01*
X125588Y635518D01*
X125656Y635608D01*
X125727Y635696D01*
X125802Y635782D01*
X125879Y635865D01*
X125959Y635945D01*
X126042Y636022D01*
X126128Y636097D01*
X126216Y636168D01*
X126306Y636236D01*
X126399Y636301D01*
X126494Y636363D01*
X126591Y636421D01*
X126690Y636476D01*
X126791Y636527D01*
X126894Y636575D01*
X126998Y636620D01*
X127104Y636660D01*
X127211Y636697D01*
X127319Y636730D01*
X127429Y636760D01*
X127539Y636785D01*
X127650Y636807D01*
X127762Y636824D01*
X127875Y636838D01*
X127988Y636848D01*
X128101Y636854D01*
X128214Y636856D01*
X133406Y636856D01*
X133519Y636854D01*
X133632Y636848D01*
X133745Y636838D01*
X133858Y636824D01*
X133970Y636807D01*
X134081Y636785D01*
X134191Y636760D01*
X134301Y636730D01*
X134409Y636697D01*
X134516Y636660D01*
X134622Y636620D01*
X134726Y636575D01*
X134829Y636527D01*
X134930Y636476D01*
X135029Y636421D01*
X135126Y636363D01*
X135221Y636301D01*
X135314Y636236D01*
X135404Y636168D01*
X135492Y636097D01*
X135578Y636022D01*
X135661Y635945D01*
X135741Y635865D01*
X135818Y635782D01*
X135893Y635696D01*
X135964Y635608D01*
X136032Y635518D01*
X136097Y635425D01*
X136159Y635330D01*
X136217Y635233D01*
X136272Y635134D01*
X136323Y635033D01*
X136371Y634930D01*
X136416Y634826D01*
X136456Y634720D01*
X136493Y634613D01*
X136526Y634505D01*
X136556Y634395D01*
X136581Y634285D01*
X136603Y634174D01*
X136620Y634062D01*
X136634Y633949D01*
X136644Y633836D01*
X136650Y633723D01*
X136652Y633610D01*
X136650Y633497D01*
X136644Y633384D01*
X136634Y633271D01*
X136620Y633158D01*
X136603Y633046D01*
X136581Y632935D01*
X136556Y632825D01*
X136526Y632715D01*
X136493Y632607D01*
X136456Y632500D01*
X136416Y632394D01*
X136371Y632290D01*
X136323Y632187D01*
X136272Y632086D01*
X136217Y631987D01*
X136159Y631890D01*
X136097Y631795D01*
X136032Y631702D01*
X135964Y631612D01*
X135893Y631524D01*
X135818Y631438D01*
X135741Y631355D01*
X135661Y631275D01*
X135578Y631198D01*
X135492Y631123D01*
X135404Y631052D01*
X135314Y630984D01*
X135221Y630919D01*
X135126Y630857D01*
X135029Y630799D01*
X134930Y630744D01*
X134829Y630693D01*
X134726Y630645D01*
X134622Y630600D01*
X134516Y630560D01*
X134409Y630523D01*
X134301Y630490D01*
X134191Y630460D01*
X134081Y630435D01*
X133970Y630413D01*
X133858Y630396D01*
X133745Y630382D01*
X133632Y630372D01*
X133519Y630366D01*
X133406Y630364D01*
X137950Y641301D02*
X137950Y646493D01*
X134056Y650938D02*
X124968Y653535D01*
X134056Y650938D02*
X134056Y657430D01*
X136652Y655482D02*
X131459Y655482D01*
X132108Y662481D02*
X132108Y670271D01*
X133406Y675322D02*
X133293Y675324D01*
X133180Y675330D01*
X133067Y675340D01*
X132954Y675354D01*
X132842Y675371D01*
X132731Y675393D01*
X132621Y675418D01*
X132511Y675448D01*
X132403Y675481D01*
X132296Y675518D01*
X132190Y675558D01*
X132086Y675603D01*
X131983Y675651D01*
X131882Y675702D01*
X131783Y675757D01*
X131686Y675815D01*
X131591Y675877D01*
X131498Y675942D01*
X131408Y676010D01*
X131320Y676081D01*
X131234Y676156D01*
X131151Y676233D01*
X131071Y676313D01*
X130994Y676396D01*
X130919Y676482D01*
X130848Y676570D01*
X130780Y676660D01*
X130715Y676753D01*
X130653Y676848D01*
X130595Y676945D01*
X130540Y677044D01*
X130489Y677145D01*
X130441Y677248D01*
X130396Y677352D01*
X130356Y677458D01*
X130319Y677565D01*
X130286Y677673D01*
X130256Y677783D01*
X130231Y677893D01*
X130209Y678004D01*
X130192Y678116D01*
X130178Y678229D01*
X130168Y678342D01*
X130162Y678455D01*
X130160Y678568D01*
X130162Y678681D01*
X130168Y678794D01*
X130178Y678907D01*
X130192Y679020D01*
X130209Y679132D01*
X130231Y679243D01*
X130256Y679353D01*
X130286Y679463D01*
X130319Y679571D01*
X130356Y679678D01*
X130396Y679784D01*
X130441Y679888D01*
X130489Y679991D01*
X130540Y680092D01*
X130595Y680191D01*
X130653Y680288D01*
X130715Y680383D01*
X130780Y680476D01*
X130848Y680566D01*
X130919Y680654D01*
X130994Y680740D01*
X131071Y680823D01*
X131151Y680903D01*
X131234Y680980D01*
X131320Y681055D01*
X131408Y681126D01*
X131498Y681194D01*
X131591Y681259D01*
X131686Y681321D01*
X131783Y681379D01*
X131882Y681434D01*
X131983Y681485D01*
X132086Y681533D01*
X132190Y681578D01*
X132296Y681618D01*
X132403Y681655D01*
X132511Y681688D01*
X132621Y681718D01*
X132731Y681743D01*
X132842Y681765D01*
X132954Y681782D01*
X133067Y681796D01*
X133180Y681806D01*
X133293Y681812D01*
X133406Y681814D01*
X133519Y681812D01*
X133632Y681806D01*
X133745Y681796D01*
X133858Y681782D01*
X133970Y681765D01*
X134081Y681743D01*
X134191Y681718D01*
X134301Y681688D01*
X134409Y681655D01*
X134516Y681618D01*
X134622Y681578D01*
X134726Y681533D01*
X134829Y681485D01*
X134930Y681434D01*
X135029Y681379D01*
X135126Y681321D01*
X135221Y681259D01*
X135314Y681194D01*
X135404Y681126D01*
X135492Y681055D01*
X135578Y680980D01*
X135661Y680903D01*
X135741Y680823D01*
X135818Y680740D01*
X135893Y680654D01*
X135964Y680566D01*
X136032Y680476D01*
X136097Y680383D01*
X136159Y680288D01*
X136217Y680191D01*
X136272Y680092D01*
X136323Y679991D01*
X136371Y679888D01*
X136416Y679784D01*
X136456Y679678D01*
X136493Y679571D01*
X136526Y679463D01*
X136556Y679353D01*
X136581Y679243D01*
X136603Y679132D01*
X136620Y679020D01*
X136634Y678907D01*
X136644Y678794D01*
X136650Y678681D01*
X136652Y678568D01*
X136650Y678455D01*
X136644Y678342D01*
X136634Y678229D01*
X136620Y678116D01*
X136603Y678004D01*
X136581Y677893D01*
X136556Y677783D01*
X136526Y677673D01*
X136493Y677565D01*
X136456Y677458D01*
X136416Y677352D01*
X136371Y677248D01*
X136323Y677145D01*
X136272Y677044D01*
X136217Y676945D01*
X136159Y676848D01*
X136097Y676753D01*
X136032Y676660D01*
X135964Y676570D01*
X135893Y676482D01*
X135818Y676396D01*
X135741Y676313D01*
X135661Y676233D01*
X135578Y676156D01*
X135492Y676081D01*
X135404Y676010D01*
X135314Y675942D01*
X135221Y675877D01*
X135126Y675815D01*
X135029Y675757D01*
X134930Y675702D01*
X134829Y675651D01*
X134726Y675603D01*
X134622Y675558D01*
X134516Y675518D01*
X134409Y675481D01*
X134301Y675448D01*
X134191Y675418D01*
X134081Y675393D01*
X133970Y675371D01*
X133858Y675354D01*
X133745Y675340D01*
X133632Y675330D01*
X133519Y675324D01*
X133406Y675322D01*
X127564Y675972D02*
X127463Y675974D01*
X127363Y675980D01*
X127263Y675990D01*
X127163Y676003D01*
X127064Y676021D01*
X126965Y676042D01*
X126868Y676067D01*
X126771Y676096D01*
X126676Y676129D01*
X126582Y676165D01*
X126490Y676205D01*
X126399Y676248D01*
X126310Y676295D01*
X126223Y676345D01*
X126137Y676399D01*
X126054Y676456D01*
X125974Y676516D01*
X125895Y676579D01*
X125819Y676646D01*
X125746Y676715D01*
X125676Y676787D01*
X125608Y676861D01*
X125543Y676938D01*
X125482Y677018D01*
X125423Y677100D01*
X125368Y677184D01*
X125316Y677270D01*
X125267Y677358D01*
X125222Y677448D01*
X125180Y677540D01*
X125142Y677633D01*
X125108Y677728D01*
X125077Y677823D01*
X125050Y677920D01*
X125027Y678018D01*
X125007Y678117D01*
X124992Y678217D01*
X124980Y678317D01*
X124972Y678417D01*
X124968Y678518D01*
X124968Y678618D01*
X124972Y678719D01*
X124980Y678819D01*
X124992Y678919D01*
X125007Y679019D01*
X125027Y679118D01*
X125050Y679216D01*
X125077Y679313D01*
X125108Y679408D01*
X125142Y679503D01*
X125180Y679596D01*
X125222Y679688D01*
X125267Y679778D01*
X125316Y679866D01*
X125368Y679952D01*
X125423Y680036D01*
X125482Y680118D01*
X125543Y680198D01*
X125608Y680275D01*
X125676Y680349D01*
X125746Y680421D01*
X125819Y680490D01*
X125895Y680557D01*
X125974Y680620D01*
X126054Y680680D01*
X126137Y680737D01*
X126223Y680791D01*
X126310Y680841D01*
X126399Y680888D01*
X126490Y680931D01*
X126582Y680971D01*
X126676Y681007D01*
X126771Y681040D01*
X126868Y681069D01*
X126965Y681094D01*
X127064Y681115D01*
X127163Y681133D01*
X127263Y681146D01*
X127363Y681156D01*
X127463Y681162D01*
X127564Y681164D01*
X127665Y681162D01*
X127765Y681156D01*
X127865Y681146D01*
X127965Y681133D01*
X128064Y681115D01*
X128163Y681094D01*
X128260Y681069D01*
X128357Y681040D01*
X128452Y681007D01*
X128546Y680971D01*
X128638Y680931D01*
X128729Y680888D01*
X128818Y680841D01*
X128905Y680791D01*
X128991Y680737D01*
X129074Y680680D01*
X129154Y680620D01*
X129233Y680557D01*
X129309Y680490D01*
X129382Y680421D01*
X129452Y680349D01*
X129520Y680275D01*
X129585Y680198D01*
X129646Y680118D01*
X129705Y680036D01*
X129760Y679952D01*
X129812Y679866D01*
X129861Y679778D01*
X129906Y679688D01*
X129948Y679596D01*
X129986Y679503D01*
X130020Y679408D01*
X130051Y679313D01*
X130078Y679216D01*
X130101Y679118D01*
X130121Y679019D01*
X130136Y678919D01*
X130148Y678819D01*
X130156Y678719D01*
X130160Y678618D01*
X130160Y678518D01*
X130156Y678417D01*
X130148Y678317D01*
X130136Y678217D01*
X130121Y678117D01*
X130101Y678018D01*
X130078Y677920D01*
X130051Y677823D01*
X130020Y677728D01*
X129986Y677633D01*
X129948Y677540D01*
X129906Y677448D01*
X129861Y677358D01*
X129812Y677270D01*
X129760Y677184D01*
X129705Y677100D01*
X129646Y677018D01*
X129585Y676938D01*
X129520Y676861D01*
X129452Y676787D01*
X129382Y676715D01*
X129309Y676646D01*
X129233Y676579D01*
X129154Y676516D01*
X129074Y676456D01*
X128991Y676399D01*
X128905Y676345D01*
X128818Y676295D01*
X128729Y676248D01*
X128638Y676205D01*
X128546Y676165D01*
X128452Y676129D01*
X128357Y676096D01*
X128260Y676067D01*
X128163Y676042D01*
X128064Y676021D01*
X127965Y676003D01*
X127865Y675990D01*
X127765Y675980D01*
X127665Y675974D01*
X127564Y675972D01*
D14*
X196800Y33900D02*
X196800Y16900D01*
X196800Y33900D02*
X181800Y33900D01*
X173800Y33900D02*
X158800Y33900D01*
X158800Y16900D01*
X173800Y16900D01*
X181800Y16900D02*
X196800Y16900D01*
X181800Y16900D02*
X181742Y17018D01*
X181680Y17134D01*
X181615Y17248D01*
X181547Y17360D01*
X181475Y17470D01*
X181400Y17578D01*
X181322Y17684D01*
X181241Y17787D01*
X181157Y17888D01*
X181070Y17986D01*
X180980Y18082D01*
X180887Y18175D01*
X180791Y18265D01*
X180693Y18352D01*
X180592Y18437D01*
X180489Y18518D01*
X180384Y18596D01*
X180276Y18671D01*
X180166Y18743D01*
X180054Y18812D01*
X179940Y18877D01*
X179824Y18938D01*
X179706Y18997D01*
X179587Y19052D01*
X179466Y19103D01*
X179343Y19150D01*
X179220Y19194D01*
X179094Y19235D01*
X178968Y19271D01*
X178841Y19304D01*
X178713Y19333D01*
X178584Y19358D01*
X178454Y19379D01*
X178324Y19397D01*
X178194Y19410D01*
X178063Y19420D01*
X177931Y19426D01*
X177800Y19428D01*
X177669Y19426D01*
X177537Y19420D01*
X177406Y19410D01*
X177276Y19397D01*
X177146Y19379D01*
X177016Y19358D01*
X176887Y19333D01*
X176759Y19304D01*
X176632Y19271D01*
X176506Y19235D01*
X176380Y19194D01*
X176257Y19150D01*
X176134Y19103D01*
X176013Y19052D01*
X175894Y18997D01*
X175776Y18938D01*
X175660Y18877D01*
X175546Y18812D01*
X175434Y18743D01*
X175324Y18671D01*
X175216Y18596D01*
X175111Y18518D01*
X175008Y18437D01*
X174907Y18352D01*
X174809Y18265D01*
X174713Y18175D01*
X174620Y18082D01*
X174530Y17986D01*
X174443Y17888D01*
X174359Y17787D01*
X174278Y17684D01*
X174200Y17578D01*
X174125Y17470D01*
X174053Y17360D01*
X173985Y17248D01*
X173920Y17134D01*
X173858Y17018D01*
X173800Y16900D01*
X173800Y33900D02*
X173858Y33782D01*
X173920Y33666D01*
X173985Y33552D01*
X174053Y33440D01*
X174125Y33330D01*
X174200Y33222D01*
X174278Y33116D01*
X174359Y33013D01*
X174443Y32912D01*
X174530Y32814D01*
X174620Y32718D01*
X174713Y32625D01*
X174809Y32535D01*
X174907Y32448D01*
X175008Y32363D01*
X175111Y32282D01*
X175216Y32204D01*
X175324Y32129D01*
X175434Y32057D01*
X175546Y31988D01*
X175660Y31923D01*
X175776Y31862D01*
X175894Y31803D01*
X176013Y31748D01*
X176134Y31697D01*
X176257Y31650D01*
X176380Y31606D01*
X176506Y31565D01*
X176632Y31529D01*
X176759Y31496D01*
X176887Y31467D01*
X177016Y31442D01*
X177146Y31421D01*
X177276Y31403D01*
X177406Y31390D01*
X177537Y31380D01*
X177669Y31374D01*
X177800Y31372D01*
X177931Y31374D01*
X178063Y31380D01*
X178194Y31390D01*
X178324Y31403D01*
X178454Y31421D01*
X178584Y31442D01*
X178713Y31467D01*
X178841Y31496D01*
X178968Y31529D01*
X179094Y31565D01*
X179220Y31606D01*
X179343Y31650D01*
X179466Y31697D01*
X179587Y31748D01*
X179706Y31803D01*
X179824Y31862D01*
X179940Y31923D01*
X180054Y31988D01*
X180166Y32057D01*
X180276Y32129D01*
X180384Y32204D01*
X180489Y32282D01*
X180592Y32363D01*
X180693Y32448D01*
X180791Y32535D01*
X180887Y32625D01*
X180980Y32718D01*
X181070Y32814D01*
X181157Y32912D01*
X181241Y33013D01*
X181322Y33116D01*
X181400Y33222D01*
X181475Y33330D01*
X181547Y33440D01*
X181615Y33552D01*
X181680Y33666D01*
X181742Y33782D01*
X181800Y33900D01*
D15*
X192379Y19803D02*
X193000Y19027D01*
X192379Y19803D02*
X195173Y19803D01*
X195173Y19027D02*
X195173Y20579D01*
D13*
X203708Y19708D02*
X212146Y19708D01*
X212259Y19710D01*
X212372Y19716D01*
X212485Y19726D01*
X212598Y19740D01*
X212710Y19757D01*
X212821Y19779D01*
X212931Y19804D01*
X213041Y19834D01*
X213149Y19867D01*
X213256Y19904D01*
X213362Y19944D01*
X213466Y19989D01*
X213569Y20037D01*
X213670Y20088D01*
X213769Y20143D01*
X213866Y20201D01*
X213961Y20263D01*
X214054Y20328D01*
X214144Y20396D01*
X214232Y20467D01*
X214318Y20542D01*
X214401Y20619D01*
X214481Y20699D01*
X214558Y20782D01*
X214633Y20868D01*
X214704Y20956D01*
X214772Y21046D01*
X214837Y21139D01*
X214899Y21234D01*
X214957Y21331D01*
X215012Y21430D01*
X215063Y21531D01*
X215111Y21634D01*
X215156Y21738D01*
X215196Y21844D01*
X215233Y21951D01*
X215266Y22059D01*
X215296Y22169D01*
X215321Y22279D01*
X215343Y22390D01*
X215360Y22502D01*
X215374Y22615D01*
X215384Y22728D01*
X215390Y22841D01*
X215392Y22954D01*
X215390Y23067D01*
X215384Y23180D01*
X215374Y23293D01*
X215360Y23406D01*
X215343Y23518D01*
X215321Y23629D01*
X215296Y23739D01*
X215266Y23849D01*
X215233Y23957D01*
X215196Y24064D01*
X215156Y24170D01*
X215111Y24274D01*
X215063Y24377D01*
X215012Y24478D01*
X214957Y24577D01*
X214899Y24674D01*
X214837Y24769D01*
X214772Y24862D01*
X214704Y24952D01*
X214633Y25040D01*
X214558Y25126D01*
X214481Y25209D01*
X214401Y25289D01*
X214318Y25366D01*
X214232Y25441D01*
X214144Y25512D01*
X214054Y25580D01*
X213961Y25645D01*
X213866Y25707D01*
X213769Y25765D01*
X213670Y25820D01*
X213569Y25871D01*
X213466Y25919D01*
X213362Y25964D01*
X213256Y26004D01*
X213149Y26041D01*
X213041Y26074D01*
X212931Y26104D01*
X212821Y26129D01*
X212710Y26151D01*
X212598Y26168D01*
X212485Y26182D01*
X212372Y26192D01*
X212259Y26198D01*
X212146Y26200D01*
X212146Y26199D02*
X203708Y26199D01*
X203708Y34765D02*
X215392Y30870D01*
X215392Y38659D02*
X203708Y34765D01*
X212471Y37686D02*
X212471Y31844D01*
X215392Y43404D02*
X203708Y43404D01*
X203708Y46649D01*
X203710Y46762D01*
X203716Y46875D01*
X203726Y46988D01*
X203740Y47101D01*
X203757Y47213D01*
X203779Y47324D01*
X203804Y47434D01*
X203834Y47544D01*
X203867Y47652D01*
X203904Y47759D01*
X203944Y47865D01*
X203989Y47969D01*
X204037Y48072D01*
X204088Y48173D01*
X204143Y48272D01*
X204201Y48369D01*
X204263Y48464D01*
X204328Y48557D01*
X204396Y48647D01*
X204467Y48735D01*
X204542Y48821D01*
X204619Y48904D01*
X204699Y48984D01*
X204782Y49061D01*
X204868Y49136D01*
X204956Y49207D01*
X205046Y49275D01*
X205139Y49340D01*
X205234Y49402D01*
X205331Y49460D01*
X205430Y49515D01*
X205531Y49566D01*
X205634Y49614D01*
X205738Y49659D01*
X205844Y49699D01*
X205951Y49736D01*
X206059Y49769D01*
X206169Y49799D01*
X206279Y49824D01*
X206390Y49846D01*
X206502Y49863D01*
X206615Y49877D01*
X206728Y49887D01*
X206841Y49893D01*
X206954Y49895D01*
X207067Y49893D01*
X207180Y49887D01*
X207293Y49877D01*
X207406Y49863D01*
X207518Y49846D01*
X207629Y49824D01*
X207739Y49799D01*
X207849Y49769D01*
X207957Y49736D01*
X208064Y49699D01*
X208170Y49659D01*
X208274Y49614D01*
X208377Y49566D01*
X208478Y49515D01*
X208577Y49460D01*
X208674Y49402D01*
X208769Y49340D01*
X208862Y49275D01*
X208952Y49207D01*
X209040Y49136D01*
X209126Y49061D01*
X209209Y48984D01*
X209289Y48904D01*
X209366Y48821D01*
X209441Y48735D01*
X209512Y48647D01*
X209580Y48557D01*
X209645Y48464D01*
X209707Y48369D01*
X209765Y48272D01*
X209820Y48173D01*
X209871Y48072D01*
X209919Y47969D01*
X209964Y47865D01*
X210004Y47759D01*
X210041Y47652D01*
X210074Y47544D01*
X210104Y47434D01*
X210129Y47324D01*
X210151Y47213D01*
X210168Y47101D01*
X210182Y46988D01*
X210192Y46875D01*
X210198Y46762D01*
X210200Y46649D01*
X210199Y46649D02*
X210199Y43404D01*
X210199Y47298D02*
X215392Y49895D01*
X215392Y57243D02*
X203708Y57243D01*
X203708Y53998D02*
X203708Y60489D01*
D14*
X108000Y33900D02*
X108000Y16900D01*
X123000Y16900D01*
X131000Y16900D02*
X146000Y16900D01*
X146000Y33900D01*
X131000Y33900D01*
X123000Y33900D02*
X108000Y33900D01*
X123000Y33900D02*
X123058Y33782D01*
X123120Y33666D01*
X123185Y33552D01*
X123253Y33440D01*
X123325Y33330D01*
X123400Y33222D01*
X123478Y33116D01*
X123559Y33013D01*
X123643Y32912D01*
X123730Y32814D01*
X123820Y32718D01*
X123913Y32625D01*
X124009Y32535D01*
X124107Y32448D01*
X124208Y32363D01*
X124311Y32282D01*
X124416Y32204D01*
X124524Y32129D01*
X124634Y32057D01*
X124746Y31988D01*
X124860Y31923D01*
X124976Y31862D01*
X125094Y31803D01*
X125213Y31748D01*
X125334Y31697D01*
X125457Y31650D01*
X125580Y31606D01*
X125706Y31565D01*
X125832Y31529D01*
X125959Y31496D01*
X126087Y31467D01*
X126216Y31442D01*
X126346Y31421D01*
X126476Y31403D01*
X126606Y31390D01*
X126737Y31380D01*
X126869Y31374D01*
X127000Y31372D01*
X127131Y31374D01*
X127263Y31380D01*
X127394Y31390D01*
X127524Y31403D01*
X127654Y31421D01*
X127784Y31442D01*
X127913Y31467D01*
X128041Y31496D01*
X128168Y31529D01*
X128294Y31565D01*
X128420Y31606D01*
X128543Y31650D01*
X128666Y31697D01*
X128787Y31748D01*
X128906Y31803D01*
X129024Y31862D01*
X129140Y31923D01*
X129254Y31988D01*
X129366Y32057D01*
X129476Y32129D01*
X129584Y32204D01*
X129689Y32282D01*
X129792Y32363D01*
X129893Y32448D01*
X129991Y32535D01*
X130087Y32625D01*
X130180Y32718D01*
X130270Y32814D01*
X130357Y32912D01*
X130441Y33013D01*
X130522Y33116D01*
X130600Y33222D01*
X130675Y33330D01*
X130747Y33440D01*
X130815Y33552D01*
X130880Y33666D01*
X130942Y33782D01*
X131000Y33900D01*
X131000Y16900D02*
X130942Y17018D01*
X130880Y17134D01*
X130815Y17248D01*
X130747Y17360D01*
X130675Y17470D01*
X130600Y17578D01*
X130522Y17684D01*
X130441Y17787D01*
X130357Y17888D01*
X130270Y17986D01*
X130180Y18082D01*
X130087Y18175D01*
X129991Y18265D01*
X129893Y18352D01*
X129792Y18437D01*
X129689Y18518D01*
X129584Y18596D01*
X129476Y18671D01*
X129366Y18743D01*
X129254Y18812D01*
X129140Y18877D01*
X129024Y18938D01*
X128906Y18997D01*
X128787Y19052D01*
X128666Y19103D01*
X128543Y19150D01*
X128420Y19194D01*
X128294Y19235D01*
X128168Y19271D01*
X128041Y19304D01*
X127913Y19333D01*
X127784Y19358D01*
X127654Y19379D01*
X127524Y19397D01*
X127394Y19410D01*
X127263Y19420D01*
X127131Y19426D01*
X127000Y19428D01*
X126869Y19426D01*
X126737Y19420D01*
X126606Y19410D01*
X126476Y19397D01*
X126346Y19379D01*
X126216Y19358D01*
X126087Y19333D01*
X125959Y19304D01*
X125832Y19271D01*
X125706Y19235D01*
X125580Y19194D01*
X125457Y19150D01*
X125334Y19103D01*
X125213Y19052D01*
X125094Y18997D01*
X124976Y18938D01*
X124860Y18877D01*
X124746Y18812D01*
X124634Y18743D01*
X124524Y18671D01*
X124416Y18596D01*
X124311Y18518D01*
X124208Y18437D01*
X124107Y18352D01*
X124009Y18265D01*
X123913Y18175D01*
X123820Y18082D01*
X123730Y17986D01*
X123643Y17888D01*
X123559Y17787D01*
X123478Y17684D01*
X123400Y17578D01*
X123325Y17470D01*
X123253Y17360D01*
X123185Y17248D01*
X123120Y17134D01*
X123058Y17018D01*
X123000Y16900D01*
D15*
X110248Y30221D02*
X109627Y30997D01*
X112421Y30997D01*
X112421Y30221D02*
X112421Y31773D01*
D13*
X94601Y6299D02*
X94601Y3053D01*
X94600Y6299D02*
X94602Y6412D01*
X94608Y6525D01*
X94618Y6638D01*
X94632Y6751D01*
X94649Y6863D01*
X94671Y6974D01*
X94696Y7084D01*
X94726Y7194D01*
X94759Y7302D01*
X94796Y7409D01*
X94836Y7515D01*
X94881Y7619D01*
X94929Y7722D01*
X94980Y7823D01*
X95035Y7922D01*
X95093Y8019D01*
X95155Y8114D01*
X95220Y8207D01*
X95288Y8297D01*
X95359Y8385D01*
X95434Y8471D01*
X95511Y8554D01*
X95591Y8634D01*
X95674Y8711D01*
X95760Y8786D01*
X95848Y8857D01*
X95938Y8925D01*
X96031Y8990D01*
X96126Y9052D01*
X96223Y9110D01*
X96322Y9165D01*
X96423Y9216D01*
X96526Y9264D01*
X96630Y9309D01*
X96736Y9349D01*
X96843Y9386D01*
X96951Y9419D01*
X97061Y9449D01*
X97171Y9474D01*
X97282Y9496D01*
X97394Y9513D01*
X97507Y9527D01*
X97620Y9537D01*
X97733Y9543D01*
X97846Y9545D01*
X97959Y9543D01*
X98072Y9537D01*
X98185Y9527D01*
X98298Y9513D01*
X98410Y9496D01*
X98521Y9474D01*
X98631Y9449D01*
X98741Y9419D01*
X98849Y9386D01*
X98956Y9349D01*
X99062Y9309D01*
X99166Y9264D01*
X99269Y9216D01*
X99370Y9165D01*
X99469Y9110D01*
X99566Y9052D01*
X99661Y8990D01*
X99754Y8925D01*
X99844Y8857D01*
X99932Y8786D01*
X100018Y8711D01*
X100101Y8634D01*
X100181Y8554D01*
X100258Y8471D01*
X100333Y8385D01*
X100404Y8297D01*
X100472Y8207D01*
X100537Y8114D01*
X100599Y8019D01*
X100657Y7922D01*
X100712Y7823D01*
X100763Y7722D01*
X100811Y7619D01*
X100856Y7515D01*
X100896Y7409D01*
X100933Y7302D01*
X100966Y7194D01*
X100996Y7084D01*
X101021Y6974D01*
X101043Y6863D01*
X101060Y6751D01*
X101074Y6638D01*
X101084Y6525D01*
X101090Y6412D01*
X101092Y6299D01*
X101092Y3053D01*
X89408Y3053D01*
X89408Y6299D01*
X89410Y6400D01*
X89416Y6500D01*
X89426Y6600D01*
X89439Y6700D01*
X89457Y6799D01*
X89478Y6898D01*
X89503Y6995D01*
X89532Y7092D01*
X89565Y7187D01*
X89601Y7281D01*
X89641Y7373D01*
X89684Y7464D01*
X89731Y7553D01*
X89781Y7640D01*
X89835Y7726D01*
X89892Y7809D01*
X89952Y7889D01*
X90015Y7968D01*
X90082Y8044D01*
X90151Y8117D01*
X90223Y8187D01*
X90297Y8255D01*
X90374Y8320D01*
X90454Y8381D01*
X90536Y8440D01*
X90620Y8495D01*
X90706Y8547D01*
X90794Y8596D01*
X90884Y8641D01*
X90976Y8683D01*
X91069Y8721D01*
X91164Y8755D01*
X91259Y8786D01*
X91356Y8813D01*
X91454Y8836D01*
X91553Y8856D01*
X91653Y8871D01*
X91753Y8883D01*
X91853Y8891D01*
X91954Y8895D01*
X92054Y8895D01*
X92155Y8891D01*
X92255Y8883D01*
X92355Y8871D01*
X92455Y8856D01*
X92554Y8836D01*
X92652Y8813D01*
X92749Y8786D01*
X92844Y8755D01*
X92939Y8721D01*
X93032Y8683D01*
X93124Y8641D01*
X93214Y8596D01*
X93302Y8547D01*
X93388Y8495D01*
X93472Y8440D01*
X93554Y8381D01*
X93634Y8320D01*
X93711Y8255D01*
X93785Y8187D01*
X93857Y8117D01*
X93926Y8044D01*
X93993Y7968D01*
X94056Y7889D01*
X94116Y7809D01*
X94173Y7726D01*
X94227Y7640D01*
X94277Y7553D01*
X94324Y7464D01*
X94367Y7373D01*
X94407Y7281D01*
X94443Y7187D01*
X94476Y7092D01*
X94505Y6995D01*
X94530Y6898D01*
X94551Y6799D01*
X94569Y6700D01*
X94582Y6600D01*
X94592Y6500D01*
X94598Y6400D01*
X94600Y6299D01*
X101092Y13284D02*
X89408Y17178D01*
X101092Y21073D01*
X98171Y20099D02*
X98171Y14257D01*
X101092Y27846D02*
X89408Y27846D01*
X89408Y24601D02*
X89408Y31092D01*
D11*
X211080Y425450D02*
X217430Y431800D01*
X211080Y412750D02*
X217430Y406400D01*
X211080Y387350D02*
X217430Y381000D01*
X211080Y374650D01*
X217430Y355600D02*
X211080Y349250D01*
X211080Y336550D02*
X217430Y330200D01*
X211080Y323850D01*
X211080Y311150D02*
X217430Y304800D01*
X211080Y298450D01*
X211080Y285750D02*
X217430Y279400D01*
X211080Y273050D01*
X211080Y260350D02*
X217430Y254000D01*
X211080Y247650D01*
X211080Y234950D02*
X217430Y228600D01*
X211080Y222250D01*
X211080Y209550D02*
X217430Y203200D01*
X211080Y184150D02*
X217430Y177800D01*
X211080Y171450D01*
X211080Y158750D02*
X217430Y152400D01*
X211080Y146050D01*
X211080Y133350D02*
X217430Y127000D01*
X230130Y127000D02*
X236480Y133350D01*
X236480Y146050D01*
X230130Y152400D01*
X236480Y158750D01*
X236480Y171450D01*
X230130Y177800D01*
X236480Y184150D01*
X236480Y196850D01*
X230130Y203200D01*
X236480Y209550D01*
X236480Y222250D01*
X230130Y228600D01*
X236480Y234950D01*
X236480Y247650D01*
X230130Y254000D01*
X236480Y260350D01*
X236480Y273050D01*
X230130Y279400D01*
X236480Y285750D01*
X236480Y298450D01*
X230130Y304800D01*
X236480Y311150D01*
X236480Y323850D01*
X230130Y330200D01*
X236480Y336550D01*
X236480Y349250D01*
X230130Y355600D01*
X236480Y361950D01*
X236480Y374650D01*
X230130Y381000D01*
X236480Y387350D01*
X236480Y400050D01*
X230130Y406400D01*
X236480Y412750D01*
X236480Y425450D01*
X230130Y431800D01*
X363480Y425450D02*
X369830Y431800D01*
X363480Y133350D02*
X369830Y127000D01*
X388880Y425450D02*
X382530Y431800D01*
X388880Y133350D02*
X382530Y127000D01*
X211080Y400050D02*
X211080Y457200D01*
X211080Y400050D02*
X211080Y361950D01*
X211080Y196850D01*
X388880Y158750D02*
X388880Y146050D01*
X388880Y158750D02*
X388880Y171450D01*
X388880Y184150D01*
X388880Y196850D01*
X388880Y209550D01*
X388880Y222250D01*
X388880Y234950D01*
X388880Y247650D01*
X388880Y260350D01*
X388880Y273050D01*
X388880Y285750D01*
X388880Y298450D01*
X388880Y311150D01*
X388880Y323850D01*
X388880Y336550D01*
X388880Y349250D01*
X388880Y361950D01*
X388880Y374650D01*
X388880Y387350D01*
X388880Y400050D01*
X388880Y412750D01*
X217430Y203200D02*
X211080Y196850D01*
X211080Y400050D02*
X217430Y406400D01*
X211080Y361950D02*
X217430Y355600D01*
X382530Y152400D02*
X388880Y146050D01*
X382530Y152400D02*
X388880Y158750D01*
X388880Y171450D02*
X382530Y177800D01*
X388880Y184150D01*
X388880Y196850D02*
X382530Y203200D01*
X388880Y209550D01*
X388880Y222250D02*
X382530Y228600D01*
X388880Y234950D01*
X388880Y247650D02*
X382530Y254000D01*
X388880Y260350D01*
X388880Y273050D02*
X382530Y279400D01*
X388880Y285750D01*
X388880Y298450D02*
X382530Y304800D01*
X388880Y311150D01*
X388880Y323850D02*
X382530Y330200D01*
X388880Y336550D01*
X388880Y349250D02*
X382530Y355600D01*
X388880Y361950D01*
X388880Y374650D02*
X382530Y381000D01*
X388880Y387350D01*
X363480Y146050D02*
X363480Y133350D01*
X363480Y146050D02*
X369830Y152400D01*
X363480Y158750D01*
X363480Y171450D01*
X369830Y177800D01*
X363480Y184150D01*
X363480Y196850D01*
X369830Y203200D01*
X363480Y209550D01*
X363480Y222250D01*
X369830Y228600D01*
X363480Y234950D01*
X363480Y247650D01*
X369830Y254000D01*
X363480Y260350D01*
X363480Y273050D01*
X369830Y279400D01*
X363480Y285750D01*
X363480Y298450D01*
X369830Y304800D01*
X363480Y311150D01*
X363480Y323850D01*
X369830Y330200D01*
X363480Y336550D01*
X363480Y349250D01*
X369830Y355600D01*
X363480Y361950D01*
X363480Y374650D01*
X369830Y381000D01*
X363480Y387350D01*
X363480Y400050D01*
X369830Y406400D01*
X363480Y412750D01*
X363480Y425450D01*
X382530Y406400D02*
X388880Y412750D01*
X382530Y406400D02*
X388880Y400050D01*
D13*
X197872Y222137D02*
X186188Y222137D01*
X186188Y225383D01*
X186190Y225496D01*
X186196Y225609D01*
X186206Y225722D01*
X186220Y225835D01*
X186237Y225947D01*
X186259Y226058D01*
X186284Y226168D01*
X186314Y226278D01*
X186347Y226386D01*
X186384Y226493D01*
X186424Y226599D01*
X186469Y226703D01*
X186517Y226806D01*
X186568Y226907D01*
X186623Y227006D01*
X186681Y227103D01*
X186743Y227198D01*
X186808Y227291D01*
X186876Y227381D01*
X186947Y227469D01*
X187022Y227555D01*
X187099Y227638D01*
X187179Y227718D01*
X187262Y227795D01*
X187348Y227870D01*
X187436Y227941D01*
X187526Y228009D01*
X187619Y228074D01*
X187714Y228136D01*
X187811Y228194D01*
X187910Y228249D01*
X188011Y228300D01*
X188114Y228348D01*
X188218Y228393D01*
X188324Y228433D01*
X188431Y228470D01*
X188539Y228503D01*
X188649Y228533D01*
X188759Y228558D01*
X188870Y228580D01*
X188982Y228597D01*
X189095Y228611D01*
X189208Y228621D01*
X189321Y228627D01*
X189434Y228629D01*
X189547Y228627D01*
X189660Y228621D01*
X189773Y228611D01*
X189886Y228597D01*
X189998Y228580D01*
X190109Y228558D01*
X190219Y228533D01*
X190329Y228503D01*
X190437Y228470D01*
X190544Y228433D01*
X190650Y228393D01*
X190754Y228348D01*
X190857Y228300D01*
X190958Y228249D01*
X191057Y228194D01*
X191154Y228136D01*
X191249Y228074D01*
X191342Y228009D01*
X191432Y227941D01*
X191520Y227870D01*
X191606Y227795D01*
X191689Y227718D01*
X191769Y227638D01*
X191846Y227555D01*
X191921Y227469D01*
X191992Y227381D01*
X192060Y227291D01*
X192125Y227198D01*
X192187Y227103D01*
X192245Y227006D01*
X192300Y226907D01*
X192351Y226806D01*
X192399Y226703D01*
X192444Y226599D01*
X192484Y226493D01*
X192521Y226386D01*
X192554Y226278D01*
X192584Y226168D01*
X192609Y226058D01*
X192631Y225947D01*
X192648Y225835D01*
X192662Y225722D01*
X192672Y225609D01*
X192678Y225496D01*
X192680Y225383D01*
X192679Y225383D02*
X192679Y222137D01*
X197872Y235580D02*
X197872Y238176D01*
X197872Y235580D02*
X197870Y235481D01*
X197864Y235381D01*
X197855Y235282D01*
X197842Y235184D01*
X197825Y235086D01*
X197804Y234988D01*
X197779Y234892D01*
X197751Y234797D01*
X197719Y234703D01*
X197684Y234610D01*
X197645Y234518D01*
X197602Y234428D01*
X197557Y234340D01*
X197507Y234253D01*
X197455Y234169D01*
X197399Y234086D01*
X197341Y234006D01*
X197279Y233928D01*
X197214Y233853D01*
X197146Y233780D01*
X197076Y233710D01*
X197003Y233642D01*
X196928Y233577D01*
X196850Y233515D01*
X196770Y233457D01*
X196687Y233401D01*
X196603Y233349D01*
X196516Y233299D01*
X196428Y233254D01*
X196338Y233211D01*
X196246Y233172D01*
X196153Y233137D01*
X196059Y233105D01*
X195964Y233077D01*
X195868Y233052D01*
X195770Y233031D01*
X195672Y233014D01*
X195574Y233001D01*
X195475Y232992D01*
X195375Y232986D01*
X195276Y232984D01*
X188784Y232984D01*
X188784Y232983D02*
X188685Y232985D01*
X188585Y232991D01*
X188486Y233000D01*
X188388Y233013D01*
X188290Y233031D01*
X188192Y233051D01*
X188096Y233076D01*
X188000Y233104D01*
X187906Y233136D01*
X187813Y233171D01*
X187722Y233210D01*
X187632Y233253D01*
X187543Y233298D01*
X187457Y233348D01*
X187372Y233400D01*
X187290Y233456D01*
X187210Y233515D01*
X187132Y233576D01*
X187056Y233641D01*
X186983Y233709D01*
X186913Y233779D01*
X186845Y233852D01*
X186780Y233928D01*
X186719Y234006D01*
X186660Y234086D01*
X186604Y234168D01*
X186552Y234253D01*
X186503Y234339D01*
X186457Y234428D01*
X186414Y234518D01*
X186375Y234609D01*
X186340Y234702D01*
X186308Y234796D01*
X186280Y234892D01*
X186255Y234988D01*
X186235Y235086D01*
X186217Y235184D01*
X186204Y235282D01*
X186195Y235381D01*
X186189Y235480D01*
X186187Y235580D01*
X186188Y235580D02*
X186188Y238176D01*
X191381Y243092D02*
X191381Y246338D01*
X191380Y246338D02*
X191382Y246451D01*
X191388Y246564D01*
X191398Y246677D01*
X191412Y246790D01*
X191429Y246902D01*
X191451Y247013D01*
X191476Y247123D01*
X191506Y247233D01*
X191539Y247341D01*
X191576Y247448D01*
X191616Y247554D01*
X191661Y247658D01*
X191709Y247761D01*
X191760Y247862D01*
X191815Y247961D01*
X191873Y248058D01*
X191935Y248153D01*
X192000Y248246D01*
X192068Y248336D01*
X192139Y248424D01*
X192214Y248510D01*
X192291Y248593D01*
X192371Y248673D01*
X192454Y248750D01*
X192540Y248825D01*
X192628Y248896D01*
X192718Y248964D01*
X192811Y249029D01*
X192906Y249091D01*
X193003Y249149D01*
X193102Y249204D01*
X193203Y249255D01*
X193306Y249303D01*
X193410Y249348D01*
X193516Y249388D01*
X193623Y249425D01*
X193731Y249458D01*
X193841Y249488D01*
X193951Y249513D01*
X194062Y249535D01*
X194174Y249552D01*
X194287Y249566D01*
X194400Y249576D01*
X194513Y249582D01*
X194626Y249584D01*
X194739Y249582D01*
X194852Y249576D01*
X194965Y249566D01*
X195078Y249552D01*
X195190Y249535D01*
X195301Y249513D01*
X195411Y249488D01*
X195521Y249458D01*
X195629Y249425D01*
X195736Y249388D01*
X195842Y249348D01*
X195946Y249303D01*
X196049Y249255D01*
X196150Y249204D01*
X196249Y249149D01*
X196346Y249091D01*
X196441Y249029D01*
X196534Y248964D01*
X196624Y248896D01*
X196712Y248825D01*
X196798Y248750D01*
X196881Y248673D01*
X196961Y248593D01*
X197038Y248510D01*
X197113Y248424D01*
X197184Y248336D01*
X197252Y248246D01*
X197317Y248153D01*
X197379Y248058D01*
X197437Y247961D01*
X197492Y247862D01*
X197543Y247761D01*
X197591Y247658D01*
X197636Y247554D01*
X197676Y247448D01*
X197713Y247341D01*
X197746Y247233D01*
X197776Y247123D01*
X197801Y247013D01*
X197823Y246902D01*
X197840Y246790D01*
X197854Y246677D01*
X197864Y246564D01*
X197870Y246451D01*
X197872Y246338D01*
X197872Y243092D01*
X186188Y243092D01*
X186188Y246338D01*
X186190Y246439D01*
X186196Y246539D01*
X186206Y246639D01*
X186219Y246739D01*
X186237Y246838D01*
X186258Y246937D01*
X186283Y247034D01*
X186312Y247131D01*
X186345Y247226D01*
X186381Y247320D01*
X186421Y247412D01*
X186464Y247503D01*
X186511Y247592D01*
X186561Y247679D01*
X186615Y247765D01*
X186672Y247848D01*
X186732Y247928D01*
X186795Y248007D01*
X186862Y248083D01*
X186931Y248156D01*
X187003Y248226D01*
X187077Y248294D01*
X187154Y248359D01*
X187234Y248420D01*
X187316Y248479D01*
X187400Y248534D01*
X187486Y248586D01*
X187574Y248635D01*
X187664Y248680D01*
X187756Y248722D01*
X187849Y248760D01*
X187944Y248794D01*
X188039Y248825D01*
X188136Y248852D01*
X188234Y248875D01*
X188333Y248895D01*
X188433Y248910D01*
X188533Y248922D01*
X188633Y248930D01*
X188734Y248934D01*
X188834Y248934D01*
X188935Y248930D01*
X189035Y248922D01*
X189135Y248910D01*
X189235Y248895D01*
X189334Y248875D01*
X189432Y248852D01*
X189529Y248825D01*
X189624Y248794D01*
X189719Y248760D01*
X189812Y248722D01*
X189904Y248680D01*
X189994Y248635D01*
X190082Y248586D01*
X190168Y248534D01*
X190252Y248479D01*
X190334Y248420D01*
X190414Y248359D01*
X190491Y248294D01*
X190565Y248226D01*
X190637Y248156D01*
X190706Y248083D01*
X190773Y248007D01*
X190836Y247928D01*
X190896Y247848D01*
X190953Y247765D01*
X191007Y247679D01*
X191057Y247592D01*
X191104Y247503D01*
X191147Y247412D01*
X191187Y247320D01*
X191223Y247226D01*
X191256Y247131D01*
X191285Y247034D01*
X191310Y246937D01*
X191331Y246838D01*
X191349Y246739D01*
X191362Y246639D01*
X191372Y246539D01*
X191378Y246439D01*
X191380Y246338D01*
X188784Y253972D02*
X186188Y257217D01*
X197872Y257217D01*
X197872Y253972D02*
X197872Y260463D01*
D11*
X211080Y196850D02*
X211080Y120650D01*
X211080Y107950D01*
X211080Y95250D01*
X211080Y82550D01*
X211080Y69850D01*
X211080Y57150D01*
X211080Y25400D01*
X268230Y25400D01*
X331730Y25400D02*
X388880Y25400D01*
X388880Y57150D01*
X388880Y69850D01*
X388880Y82550D01*
X388880Y95250D01*
X388880Y107950D01*
X388880Y120650D01*
X388880Y146050D01*
X268230Y457200D02*
X211080Y457200D01*
X268230Y457200D02*
X331730Y457200D01*
X388880Y457200D01*
X388880Y412750D01*
X217430Y127000D02*
X211080Y120650D01*
X211080Y107950D02*
X217430Y101600D01*
X211080Y95250D01*
X211080Y82550D02*
X217430Y76200D01*
X211080Y69850D01*
X211080Y57150D02*
X217430Y50800D01*
X230130Y50800D01*
X236480Y57150D01*
X236480Y69850D01*
X230130Y76200D01*
X236480Y82550D01*
X236480Y95250D01*
X230130Y101600D01*
X236480Y107950D01*
X236480Y120650D01*
X230130Y127000D01*
X230130Y431800D02*
X217430Y431800D01*
X369830Y431800D02*
X382530Y431800D01*
X369830Y127000D02*
X363480Y120650D01*
X363480Y107950D01*
X369830Y101600D01*
X363480Y95250D01*
X363480Y82550D01*
X369830Y76200D01*
X363480Y69850D01*
X363480Y57150D01*
X369830Y50800D01*
X382530Y50800D01*
X388880Y57150D01*
X388880Y69850D02*
X382530Y76200D01*
X388880Y82550D01*
X388880Y95250D02*
X382530Y101600D01*
X388880Y107950D01*
X388880Y120650D02*
X382530Y127000D01*
X268230Y101600D02*
X268230Y25400D01*
X268230Y101600D02*
X331730Y101600D01*
X331730Y25400D01*
D10*
X303592Y43248D02*
X291852Y43248D01*
X303592Y43247D02*
X303725Y43249D01*
X303857Y43255D01*
X303989Y43265D01*
X304121Y43278D01*
X304253Y43296D01*
X304383Y43317D01*
X304514Y43342D01*
X304643Y43371D01*
X304771Y43404D01*
X304899Y43440D01*
X305025Y43480D01*
X305150Y43524D01*
X305274Y43572D01*
X305396Y43623D01*
X305517Y43678D01*
X305636Y43736D01*
X305754Y43798D01*
X305869Y43863D01*
X305983Y43932D01*
X306094Y44003D01*
X306203Y44079D01*
X306310Y44157D01*
X306415Y44238D01*
X306517Y44323D01*
X306617Y44410D01*
X306714Y44500D01*
X306809Y44593D01*
X306900Y44689D01*
X306989Y44787D01*
X307075Y44888D01*
X307158Y44992D01*
X307238Y45098D01*
X307314Y45206D01*
X307388Y45316D01*
X307458Y45429D01*
X307525Y45543D01*
X307588Y45660D01*
X307648Y45778D01*
X307705Y45898D01*
X307758Y46020D01*
X307807Y46143D01*
X307853Y46267D01*
X307895Y46393D01*
X307933Y46520D01*
X307968Y46648D01*
X307999Y46777D01*
X308026Y46906D01*
X308049Y47037D01*
X308069Y47168D01*
X308084Y47300D01*
X308096Y47432D01*
X308104Y47564D01*
X308108Y47697D01*
X308108Y47829D01*
X308104Y47962D01*
X308096Y48094D01*
X308084Y48226D01*
X308069Y48358D01*
X308049Y48489D01*
X308026Y48620D01*
X307999Y48749D01*
X307968Y48878D01*
X307933Y49006D01*
X307895Y49133D01*
X307853Y49259D01*
X307807Y49383D01*
X307758Y49506D01*
X307705Y49628D01*
X307648Y49748D01*
X307588Y49866D01*
X307525Y49983D01*
X307458Y50097D01*
X307388Y50210D01*
X307314Y50320D01*
X307238Y50428D01*
X307158Y50534D01*
X307075Y50638D01*
X306989Y50739D01*
X306900Y50837D01*
X306809Y50933D01*
X306714Y51026D01*
X306617Y51116D01*
X306517Y51203D01*
X306415Y51288D01*
X306310Y51369D01*
X306203Y51447D01*
X306094Y51523D01*
X305983Y51594D01*
X305869Y51663D01*
X305754Y51728D01*
X305636Y51790D01*
X305517Y51848D01*
X305396Y51903D01*
X305274Y51954D01*
X305150Y52002D01*
X305025Y52046D01*
X304899Y52086D01*
X304771Y52122D01*
X304643Y52155D01*
X304514Y52184D01*
X304383Y52209D01*
X304253Y52230D01*
X304121Y52248D01*
X303989Y52261D01*
X303857Y52271D01*
X303725Y52277D01*
X303592Y52279D01*
X291852Y52279D01*
X304496Y67910D02*
X304614Y67908D01*
X304732Y67902D01*
X304850Y67893D01*
X304967Y67879D01*
X305084Y67862D01*
X305201Y67841D01*
X305316Y67816D01*
X305431Y67787D01*
X305545Y67754D01*
X305657Y67718D01*
X305768Y67678D01*
X305878Y67635D01*
X305987Y67588D01*
X306094Y67538D01*
X306199Y67483D01*
X306302Y67426D01*
X306403Y67365D01*
X306503Y67301D01*
X306600Y67234D01*
X306695Y67164D01*
X306787Y67090D01*
X306878Y67014D01*
X306965Y66934D01*
X307050Y66852D01*
X307132Y66767D01*
X307212Y66680D01*
X307288Y66589D01*
X307362Y66497D01*
X307432Y66402D01*
X307499Y66305D01*
X307563Y66205D01*
X307624Y66104D01*
X307681Y66001D01*
X307736Y65896D01*
X307786Y65789D01*
X307833Y65680D01*
X307876Y65570D01*
X307916Y65459D01*
X307952Y65347D01*
X307985Y65233D01*
X308014Y65118D01*
X308039Y65003D01*
X308060Y64886D01*
X308077Y64769D01*
X308091Y64652D01*
X308100Y64534D01*
X308106Y64416D01*
X308108Y64298D01*
X308106Y64115D01*
X308099Y63933D01*
X308088Y63751D01*
X308073Y63569D01*
X308053Y63387D01*
X308030Y63206D01*
X308001Y63026D01*
X307969Y62846D01*
X307932Y62667D01*
X307891Y62490D01*
X307845Y62313D01*
X307796Y62137D01*
X307742Y61963D01*
X307684Y61789D01*
X307622Y61618D01*
X307556Y61448D01*
X307485Y61279D01*
X307411Y61112D01*
X307333Y60947D01*
X307251Y60784D01*
X307165Y60623D01*
X307075Y60464D01*
X306981Y60307D01*
X306884Y60153D01*
X306783Y60001D01*
X306678Y59851D01*
X306570Y59704D01*
X306459Y59560D01*
X306344Y59418D01*
X306225Y59279D01*
X306103Y59143D01*
X305978Y59010D01*
X305850Y58880D01*
X295464Y59331D02*
X295346Y59333D01*
X295228Y59339D01*
X295110Y59348D01*
X294993Y59362D01*
X294876Y59379D01*
X294759Y59400D01*
X294644Y59425D01*
X294529Y59454D01*
X294415Y59487D01*
X294303Y59523D01*
X294192Y59563D01*
X294082Y59606D01*
X293973Y59653D01*
X293866Y59703D01*
X293761Y59758D01*
X293658Y59815D01*
X293557Y59876D01*
X293457Y59940D01*
X293360Y60007D01*
X293265Y60077D01*
X293173Y60151D01*
X293082Y60227D01*
X292995Y60307D01*
X292910Y60389D01*
X292828Y60474D01*
X292748Y60561D01*
X292672Y60652D01*
X292598Y60744D01*
X292528Y60839D01*
X292461Y60936D01*
X292397Y61036D01*
X292336Y61137D01*
X292279Y61240D01*
X292224Y61345D01*
X292174Y61452D01*
X292127Y61561D01*
X292084Y61671D01*
X292044Y61782D01*
X292008Y61894D01*
X291975Y62008D01*
X291946Y62123D01*
X291921Y62238D01*
X291900Y62355D01*
X291883Y62472D01*
X291869Y62589D01*
X291860Y62707D01*
X291854Y62825D01*
X291852Y62943D01*
X291854Y63104D01*
X291860Y63266D01*
X291869Y63427D01*
X291883Y63588D01*
X291900Y63748D01*
X291921Y63908D01*
X291946Y64068D01*
X291975Y64227D01*
X292007Y64385D01*
X292043Y64542D01*
X292083Y64698D01*
X292127Y64854D01*
X292175Y65008D01*
X292226Y65161D01*
X292280Y65313D01*
X292339Y65464D01*
X292400Y65613D01*
X292466Y65760D01*
X292535Y65906D01*
X292607Y66051D01*
X292683Y66193D01*
X292762Y66334D01*
X292844Y66473D01*
X292930Y66609D01*
X293019Y66744D01*
X293111Y66877D01*
X293207Y67007D01*
X298625Y61136D02*
X298563Y61035D01*
X298498Y60935D01*
X298429Y60838D01*
X298357Y60743D01*
X298283Y60650D01*
X298205Y60560D01*
X298124Y60472D01*
X298041Y60387D01*
X297955Y60305D01*
X297866Y60226D01*
X297775Y60149D01*
X297681Y60076D01*
X297585Y60005D01*
X297487Y59938D01*
X297387Y59874D01*
X297284Y59813D01*
X297180Y59756D01*
X297074Y59702D01*
X296966Y59652D01*
X296857Y59605D01*
X296746Y59561D01*
X296634Y59521D01*
X296520Y59485D01*
X296406Y59453D01*
X296290Y59424D01*
X296174Y59399D01*
X296057Y59378D01*
X295939Y59361D01*
X295821Y59347D01*
X295702Y59338D01*
X295583Y59332D01*
X295464Y59330D01*
X301335Y66104D02*
X301397Y66205D01*
X301462Y66305D01*
X301531Y66402D01*
X301603Y66497D01*
X301677Y66590D01*
X301755Y66680D01*
X301836Y66768D01*
X301919Y66853D01*
X302005Y66935D01*
X302094Y67014D01*
X302185Y67091D01*
X302279Y67164D01*
X302375Y67235D01*
X302473Y67302D01*
X302573Y67366D01*
X302676Y67427D01*
X302780Y67484D01*
X302886Y67538D01*
X302994Y67588D01*
X303103Y67635D01*
X303214Y67679D01*
X303326Y67719D01*
X303440Y67755D01*
X303554Y67787D01*
X303670Y67816D01*
X303786Y67841D01*
X303903Y67862D01*
X304021Y67879D01*
X304139Y67893D01*
X304258Y67902D01*
X304377Y67908D01*
X304496Y67910D01*
X301335Y66104D02*
X298625Y61137D01*
X299077Y74721D02*
X299077Y79237D01*
X299076Y79237D02*
X299078Y79370D01*
X299084Y79502D01*
X299094Y79634D01*
X299107Y79766D01*
X299125Y79898D01*
X299146Y80028D01*
X299171Y80159D01*
X299200Y80288D01*
X299233Y80416D01*
X299269Y80544D01*
X299309Y80670D01*
X299353Y80795D01*
X299401Y80919D01*
X299452Y81041D01*
X299507Y81162D01*
X299565Y81281D01*
X299627Y81399D01*
X299692Y81514D01*
X299761Y81628D01*
X299832Y81739D01*
X299908Y81848D01*
X299986Y81955D01*
X300067Y82060D01*
X300152Y82162D01*
X300239Y82262D01*
X300329Y82359D01*
X300422Y82454D01*
X300518Y82545D01*
X300616Y82634D01*
X300717Y82720D01*
X300821Y82803D01*
X300927Y82883D01*
X301035Y82959D01*
X301145Y83033D01*
X301258Y83103D01*
X301372Y83170D01*
X301489Y83233D01*
X301607Y83293D01*
X301727Y83350D01*
X301849Y83403D01*
X301972Y83452D01*
X302096Y83498D01*
X302222Y83540D01*
X302349Y83578D01*
X302477Y83613D01*
X302606Y83644D01*
X302735Y83671D01*
X302866Y83694D01*
X302997Y83714D01*
X303129Y83729D01*
X303261Y83741D01*
X303393Y83749D01*
X303526Y83753D01*
X303658Y83753D01*
X303791Y83749D01*
X303923Y83741D01*
X304055Y83729D01*
X304187Y83714D01*
X304318Y83694D01*
X304449Y83671D01*
X304578Y83644D01*
X304707Y83613D01*
X304835Y83578D01*
X304962Y83540D01*
X305088Y83498D01*
X305212Y83452D01*
X305335Y83403D01*
X305457Y83350D01*
X305577Y83293D01*
X305695Y83233D01*
X305812Y83170D01*
X305926Y83103D01*
X306039Y83033D01*
X306149Y82959D01*
X306257Y82883D01*
X306363Y82803D01*
X306467Y82720D01*
X306568Y82634D01*
X306666Y82545D01*
X306762Y82454D01*
X306855Y82359D01*
X306945Y82262D01*
X307032Y82162D01*
X307117Y82060D01*
X307198Y81955D01*
X307276Y81848D01*
X307352Y81739D01*
X307423Y81628D01*
X307492Y81514D01*
X307557Y81399D01*
X307619Y81281D01*
X307677Y81162D01*
X307732Y81041D01*
X307783Y80919D01*
X307831Y80795D01*
X307875Y80670D01*
X307915Y80544D01*
X307951Y80416D01*
X307984Y80288D01*
X308013Y80159D01*
X308038Y80028D01*
X308059Y79898D01*
X308077Y79766D01*
X308090Y79634D01*
X308100Y79502D01*
X308106Y79370D01*
X308108Y79237D01*
X308108Y74721D01*
X291852Y74721D01*
X291852Y79237D01*
X291854Y79356D01*
X291860Y79476D01*
X291870Y79595D01*
X291884Y79713D01*
X291901Y79832D01*
X291923Y79949D01*
X291948Y80066D01*
X291978Y80181D01*
X292011Y80296D01*
X292048Y80410D01*
X292088Y80522D01*
X292133Y80633D01*
X292181Y80742D01*
X292232Y80850D01*
X292287Y80956D01*
X292346Y81060D01*
X292408Y81162D01*
X292473Y81262D01*
X292542Y81360D01*
X292614Y81456D01*
X292689Y81549D01*
X292766Y81639D01*
X292847Y81727D01*
X292931Y81812D01*
X293018Y81894D01*
X293107Y81974D01*
X293199Y82050D01*
X293293Y82124D01*
X293390Y82194D01*
X293488Y82261D01*
X293589Y82325D01*
X293693Y82385D01*
X293798Y82442D01*
X293905Y82495D01*
X294013Y82545D01*
X294123Y82591D01*
X294235Y82633D01*
X294348Y82672D01*
X294462Y82707D01*
X294577Y82738D01*
X294694Y82766D01*
X294811Y82789D01*
X294928Y82809D01*
X295047Y82825D01*
X295166Y82837D01*
X295285Y82845D01*
X295404Y82849D01*
X295524Y82849D01*
X295643Y82845D01*
X295762Y82837D01*
X295881Y82825D01*
X296000Y82809D01*
X296117Y82789D01*
X296234Y82766D01*
X296351Y82738D01*
X296466Y82707D01*
X296580Y82672D01*
X296693Y82633D01*
X296805Y82591D01*
X296915Y82545D01*
X297023Y82495D01*
X297130Y82442D01*
X297235Y82385D01*
X297339Y82325D01*
X297440Y82261D01*
X297538Y82194D01*
X297635Y82124D01*
X297729Y82050D01*
X297821Y81974D01*
X297910Y81894D01*
X297997Y81812D01*
X298081Y81727D01*
X298162Y81639D01*
X298239Y81549D01*
X298314Y81456D01*
X298386Y81360D01*
X298455Y81262D01*
X298520Y81162D01*
X298582Y81060D01*
X298641Y80956D01*
X298696Y80850D01*
X298747Y80742D01*
X298795Y80633D01*
X298840Y80522D01*
X298880Y80410D01*
X298917Y80296D01*
X298950Y80181D01*
X298980Y80066D01*
X299005Y79949D01*
X299027Y79832D01*
X299044Y79713D01*
X299058Y79595D01*
X299068Y79476D01*
X299074Y79356D01*
X299076Y79237D01*
D11*
X268230Y25400D02*
X268230Y12700D01*
X331730Y12700D01*
X331730Y25400D01*
X325380Y254000D02*
X325380Y279400D01*
X287280Y279400D01*
X287280Y254000D01*
X325380Y254000D01*
X298710Y266700D02*
X298712Y266887D01*
X298719Y267074D01*
X298731Y267261D01*
X298747Y267447D01*
X298767Y267633D01*
X298792Y267818D01*
X298822Y268003D01*
X298856Y268187D01*
X298895Y268370D01*
X298938Y268552D01*
X298986Y268732D01*
X299038Y268912D01*
X299095Y269090D01*
X299155Y269267D01*
X299221Y269442D01*
X299290Y269616D01*
X299364Y269788D01*
X299442Y269958D01*
X299524Y270126D01*
X299610Y270292D01*
X299700Y270456D01*
X299794Y270617D01*
X299892Y270777D01*
X299994Y270933D01*
X300100Y271088D01*
X300210Y271239D01*
X300323Y271388D01*
X300440Y271534D01*
X300560Y271677D01*
X300684Y271817D01*
X300811Y271954D01*
X300942Y272088D01*
X301076Y272219D01*
X301213Y272346D01*
X301353Y272470D01*
X301496Y272590D01*
X301642Y272707D01*
X301791Y272820D01*
X301942Y272930D01*
X302097Y273036D01*
X302253Y273138D01*
X302413Y273236D01*
X302574Y273330D01*
X302738Y273420D01*
X302904Y273506D01*
X303072Y273588D01*
X303242Y273666D01*
X303414Y273740D01*
X303588Y273809D01*
X303763Y273875D01*
X303940Y273935D01*
X304118Y273992D01*
X304298Y274044D01*
X304478Y274092D01*
X304660Y274135D01*
X304843Y274174D01*
X305027Y274208D01*
X305212Y274238D01*
X305397Y274263D01*
X305583Y274283D01*
X305769Y274299D01*
X305956Y274311D01*
X306143Y274318D01*
X306330Y274320D01*
X306517Y274318D01*
X306704Y274311D01*
X306891Y274299D01*
X307077Y274283D01*
X307263Y274263D01*
X307448Y274238D01*
X307633Y274208D01*
X307817Y274174D01*
X308000Y274135D01*
X308182Y274092D01*
X308362Y274044D01*
X308542Y273992D01*
X308720Y273935D01*
X308897Y273875D01*
X309072Y273809D01*
X309246Y273740D01*
X309418Y273666D01*
X309588Y273588D01*
X309756Y273506D01*
X309922Y273420D01*
X310086Y273330D01*
X310247Y273236D01*
X310407Y273138D01*
X310563Y273036D01*
X310718Y272930D01*
X310869Y272820D01*
X311018Y272707D01*
X311164Y272590D01*
X311307Y272470D01*
X311447Y272346D01*
X311584Y272219D01*
X311718Y272088D01*
X311849Y271954D01*
X311976Y271817D01*
X312100Y271677D01*
X312220Y271534D01*
X312337Y271388D01*
X312450Y271239D01*
X312560Y271088D01*
X312666Y270933D01*
X312768Y270777D01*
X312866Y270617D01*
X312960Y270456D01*
X313050Y270292D01*
X313136Y270126D01*
X313218Y269958D01*
X313296Y269788D01*
X313370Y269616D01*
X313439Y269442D01*
X313505Y269267D01*
X313565Y269090D01*
X313622Y268912D01*
X313674Y268732D01*
X313722Y268552D01*
X313765Y268370D01*
X313804Y268187D01*
X313838Y268003D01*
X313868Y267818D01*
X313893Y267633D01*
X313913Y267447D01*
X313929Y267261D01*
X313941Y267074D01*
X313948Y266887D01*
X313950Y266700D01*
X313948Y266513D01*
X313941Y266326D01*
X313929Y266139D01*
X313913Y265953D01*
X313893Y265767D01*
X313868Y265582D01*
X313838Y265397D01*
X313804Y265213D01*
X313765Y265030D01*
X313722Y264848D01*
X313674Y264668D01*
X313622Y264488D01*
X313565Y264310D01*
X313505Y264133D01*
X313439Y263958D01*
X313370Y263784D01*
X313296Y263612D01*
X313218Y263442D01*
X313136Y263274D01*
X313050Y263108D01*
X312960Y262944D01*
X312866Y262783D01*
X312768Y262623D01*
X312666Y262467D01*
X312560Y262312D01*
X312450Y262161D01*
X312337Y262012D01*
X312220Y261866D01*
X312100Y261723D01*
X311976Y261583D01*
X311849Y261446D01*
X311718Y261312D01*
X311584Y261181D01*
X311447Y261054D01*
X311307Y260930D01*
X311164Y260810D01*
X311018Y260693D01*
X310869Y260580D01*
X310718Y260470D01*
X310563Y260364D01*
X310407Y260262D01*
X310247Y260164D01*
X310086Y260070D01*
X309922Y259980D01*
X309756Y259894D01*
X309588Y259812D01*
X309418Y259734D01*
X309246Y259660D01*
X309072Y259591D01*
X308897Y259525D01*
X308720Y259465D01*
X308542Y259408D01*
X308362Y259356D01*
X308182Y259308D01*
X308000Y259265D01*
X307817Y259226D01*
X307633Y259192D01*
X307448Y259162D01*
X307263Y259137D01*
X307077Y259117D01*
X306891Y259101D01*
X306704Y259089D01*
X306517Y259082D01*
X306330Y259080D01*
X306143Y259082D01*
X305956Y259089D01*
X305769Y259101D01*
X305583Y259117D01*
X305397Y259137D01*
X305212Y259162D01*
X305027Y259192D01*
X304843Y259226D01*
X304660Y259265D01*
X304478Y259308D01*
X304298Y259356D01*
X304118Y259408D01*
X303940Y259465D01*
X303763Y259525D01*
X303588Y259591D01*
X303414Y259660D01*
X303242Y259734D01*
X303072Y259812D01*
X302904Y259894D01*
X302738Y259980D01*
X302574Y260070D01*
X302413Y260164D01*
X302253Y260262D01*
X302097Y260364D01*
X301942Y260470D01*
X301791Y260580D01*
X301642Y260693D01*
X301496Y260810D01*
X301353Y260930D01*
X301213Y261054D01*
X301076Y261181D01*
X300942Y261312D01*
X300811Y261446D01*
X300684Y261583D01*
X300560Y261723D01*
X300440Y261866D01*
X300323Y262012D01*
X300210Y262161D01*
X300100Y262312D01*
X299994Y262467D01*
X299892Y262623D01*
X299794Y262783D01*
X299700Y262944D01*
X299610Y263108D01*
X299524Y263274D01*
X299442Y263442D01*
X299364Y263612D01*
X299290Y263784D01*
X299221Y263958D01*
X299155Y264133D01*
X299095Y264310D01*
X299038Y264488D01*
X298986Y264668D01*
X298938Y264848D01*
X298895Y265030D01*
X298856Y265213D01*
X298822Y265397D01*
X298792Y265582D01*
X298767Y265767D01*
X298747Y265953D01*
X298731Y266139D01*
X298719Y266326D01*
X298712Y266513D01*
X298710Y266700D01*
D16*
X287289Y287401D02*
X287289Y296799D01*
X289899Y296799D01*
X290000Y296797D01*
X290101Y296791D01*
X290202Y296781D01*
X290302Y296768D01*
X290402Y296750D01*
X290501Y296729D01*
X290599Y296703D01*
X290696Y296674D01*
X290792Y296642D01*
X290886Y296605D01*
X290979Y296565D01*
X291071Y296521D01*
X291160Y296474D01*
X291248Y296423D01*
X291334Y296369D01*
X291417Y296312D01*
X291499Y296252D01*
X291577Y296188D01*
X291654Y296122D01*
X291727Y296052D01*
X291798Y295980D01*
X291866Y295905D01*
X291931Y295827D01*
X291993Y295747D01*
X292052Y295665D01*
X292108Y295580D01*
X292160Y295493D01*
X292209Y295405D01*
X292255Y295314D01*
X292296Y295222D01*
X292335Y295128D01*
X292369Y295033D01*
X292400Y294937D01*
X292427Y294839D01*
X292451Y294741D01*
X292470Y294641D01*
X292486Y294541D01*
X292498Y294441D01*
X292506Y294340D01*
X292510Y294239D01*
X292510Y294137D01*
X292506Y294036D01*
X292498Y293935D01*
X292486Y293835D01*
X292470Y293735D01*
X292451Y293635D01*
X292427Y293537D01*
X292400Y293439D01*
X292369Y293343D01*
X292335Y293248D01*
X292296Y293154D01*
X292255Y293062D01*
X292209Y292971D01*
X292160Y292883D01*
X292108Y292796D01*
X292052Y292711D01*
X291993Y292629D01*
X291931Y292549D01*
X291866Y292471D01*
X291798Y292396D01*
X291727Y292324D01*
X291654Y292254D01*
X291577Y292188D01*
X291499Y292124D01*
X291417Y292064D01*
X291334Y292007D01*
X291248Y291953D01*
X291160Y291902D01*
X291071Y291855D01*
X290979Y291811D01*
X290886Y291771D01*
X290792Y291734D01*
X290696Y291702D01*
X290599Y291673D01*
X290501Y291647D01*
X290402Y291626D01*
X290302Y291608D01*
X290202Y291595D01*
X290101Y291585D01*
X290000Y291579D01*
X289899Y291577D01*
X289899Y291578D02*
X287289Y291578D01*
X290422Y291578D02*
X292510Y287401D01*
X296698Y287401D02*
X300875Y287401D01*
X296698Y287401D02*
X296698Y296799D01*
X300875Y296799D01*
X299831Y292622D02*
X296698Y292622D01*
X307128Y287401D02*
X307217Y287403D01*
X307305Y287409D01*
X307393Y287418D01*
X307481Y287431D01*
X307568Y287448D01*
X307654Y287468D01*
X307739Y287493D01*
X307824Y287520D01*
X307907Y287552D01*
X307988Y287586D01*
X308068Y287625D01*
X308146Y287666D01*
X308223Y287711D01*
X308297Y287759D01*
X308370Y287810D01*
X308440Y287864D01*
X308507Y287922D01*
X308573Y287982D01*
X308635Y288044D01*
X308695Y288110D01*
X308753Y288177D01*
X308807Y288247D01*
X308858Y288320D01*
X308906Y288394D01*
X308951Y288471D01*
X308992Y288549D01*
X309031Y288629D01*
X309065Y288710D01*
X309097Y288793D01*
X309124Y288878D01*
X309149Y288963D01*
X309169Y289049D01*
X309186Y289136D01*
X309199Y289224D01*
X309208Y289312D01*
X309214Y289400D01*
X309216Y289489D01*
X307128Y287401D02*
X306999Y287403D01*
X306870Y287409D01*
X306741Y287418D01*
X306613Y287431D01*
X306485Y287448D01*
X306358Y287469D01*
X306231Y287493D01*
X306105Y287521D01*
X305980Y287553D01*
X305856Y287588D01*
X305733Y287627D01*
X305611Y287670D01*
X305491Y287716D01*
X305372Y287766D01*
X305254Y287819D01*
X305138Y287875D01*
X305024Y287935D01*
X304911Y287998D01*
X304801Y288065D01*
X304692Y288134D01*
X304586Y288207D01*
X304481Y288283D01*
X304379Y288362D01*
X304280Y288444D01*
X304182Y288528D01*
X304087Y288616D01*
X303995Y288706D01*
X304257Y294711D02*
X304259Y294800D01*
X304265Y294888D01*
X304274Y294976D01*
X304287Y295064D01*
X304304Y295151D01*
X304324Y295237D01*
X304349Y295322D01*
X304376Y295407D01*
X304408Y295490D01*
X304442Y295571D01*
X304481Y295651D01*
X304522Y295729D01*
X304567Y295806D01*
X304615Y295880D01*
X304666Y295953D01*
X304720Y296023D01*
X304778Y296090D01*
X304838Y296156D01*
X304900Y296218D01*
X304966Y296278D01*
X305033Y296336D01*
X305103Y296390D01*
X305176Y296441D01*
X305250Y296489D01*
X305327Y296534D01*
X305405Y296575D01*
X305485Y296614D01*
X305566Y296648D01*
X305649Y296680D01*
X305734Y296707D01*
X305819Y296732D01*
X305905Y296752D01*
X305992Y296769D01*
X306080Y296782D01*
X306168Y296791D01*
X306256Y296797D01*
X306345Y296799D01*
X306465Y296797D01*
X306585Y296792D01*
X306705Y296782D01*
X306824Y296770D01*
X306943Y296753D01*
X307061Y296733D01*
X307179Y296709D01*
X307295Y296682D01*
X307411Y296651D01*
X307526Y296617D01*
X307640Y296579D01*
X307753Y296537D01*
X307864Y296492D01*
X307974Y296444D01*
X308082Y296393D01*
X308189Y296338D01*
X308294Y296280D01*
X308397Y296218D01*
X308498Y296154D01*
X308598Y296086D01*
X308695Y296016D01*
X305301Y292884D02*
X305223Y292932D01*
X305147Y292984D01*
X305074Y293038D01*
X305003Y293096D01*
X304934Y293157D01*
X304868Y293221D01*
X304805Y293288D01*
X304745Y293357D01*
X304688Y293429D01*
X304634Y293503D01*
X304584Y293580D01*
X304536Y293659D01*
X304493Y293739D01*
X304452Y293822D01*
X304416Y293906D01*
X304383Y293991D01*
X304354Y294078D01*
X304328Y294167D01*
X304306Y294256D01*
X304289Y294346D01*
X304275Y294436D01*
X304265Y294528D01*
X304259Y294619D01*
X304257Y294711D01*
X308173Y291316D02*
X308251Y291268D01*
X308327Y291216D01*
X308400Y291162D01*
X308471Y291104D01*
X308540Y291043D01*
X308606Y290979D01*
X308669Y290912D01*
X308729Y290843D01*
X308786Y290771D01*
X308840Y290697D01*
X308890Y290620D01*
X308938Y290541D01*
X308981Y290461D01*
X309022Y290378D01*
X309058Y290294D01*
X309091Y290209D01*
X309120Y290122D01*
X309146Y290033D01*
X309168Y289944D01*
X309185Y289854D01*
X309199Y289764D01*
X309209Y289672D01*
X309215Y289581D01*
X309217Y289489D01*
X308173Y291317D02*
X305301Y292883D01*
X313157Y287401D02*
X317334Y287401D01*
X313157Y287401D02*
X313157Y296799D01*
X317334Y296799D01*
X316290Y292622D02*
X313157Y292622D01*
X322761Y296799D02*
X322761Y287401D01*
X320150Y296799D02*
X325371Y296799D01*
D10*
X203200Y753110D02*
X203200Y796290D01*
X224790Y800100D02*
X228600Y796290D01*
X232410Y800100D01*
X250190Y800100D01*
X254000Y796290D01*
X257810Y800100D01*
X275590Y800100D01*
X279400Y796290D01*
X279400Y753110D02*
X275590Y749300D01*
X257810Y749300D01*
X254000Y753110D01*
X250190Y749300D01*
X232410Y749300D01*
X228600Y753110D01*
X224790Y749300D01*
X279400Y796290D02*
X283210Y800100D01*
X300990Y800100D01*
X304800Y796290D01*
X308610Y800100D01*
X326390Y800100D01*
X330200Y796290D01*
X283210Y749300D02*
X279400Y753110D01*
X283210Y749300D02*
X300990Y749300D01*
X304800Y753110D02*
X308610Y749300D01*
X304800Y753110D02*
X300990Y749300D01*
X308610Y749300D02*
X326390Y749300D01*
X330200Y753110D01*
X207010Y749300D02*
X203200Y753110D01*
X207010Y749300D02*
X224790Y749300D01*
X203200Y796290D02*
X207010Y800100D01*
X224790Y800100D01*
X406400Y796290D02*
X406400Y753110D01*
X355600Y796290D02*
X351790Y800100D01*
X355600Y753110D02*
X351790Y749300D01*
X334010Y749300D02*
X330200Y753110D01*
X377190Y800100D02*
X381000Y796290D01*
X334010Y800100D02*
X330200Y796290D01*
X355600Y796290D02*
X359410Y800100D01*
X381000Y796290D02*
X384810Y800100D01*
X402590Y800100D02*
X406400Y796290D01*
X381000Y753110D02*
X377190Y749300D01*
X402590Y749300D02*
X406400Y753110D01*
X359410Y749300D02*
X355600Y753110D01*
X381000Y753110D02*
X384810Y749300D01*
X351790Y749300D02*
X334010Y749300D01*
X359410Y749300D02*
X377190Y749300D01*
X384810Y749300D02*
X402590Y749300D01*
X351790Y800100D02*
X334010Y800100D01*
X359410Y800100D02*
X377190Y800100D01*
X384810Y800100D02*
X402590Y800100D01*
D11*
X214630Y744855D02*
X211455Y742315D01*
X214630Y744855D02*
X214630Y733425D01*
X211455Y733425D02*
X217805Y733425D01*
X240348Y744856D02*
X240452Y744854D01*
X240557Y744848D01*
X240661Y744839D01*
X240764Y744826D01*
X240867Y744808D01*
X240969Y744788D01*
X241071Y744763D01*
X241171Y744735D01*
X241271Y744703D01*
X241369Y744667D01*
X241466Y744628D01*
X241561Y744586D01*
X241655Y744540D01*
X241747Y744490D01*
X241837Y744438D01*
X241925Y744382D01*
X242011Y744322D01*
X242095Y744260D01*
X242176Y744195D01*
X242255Y744127D01*
X242332Y744055D01*
X242405Y743982D01*
X242477Y743905D01*
X242545Y743826D01*
X242610Y743745D01*
X242672Y743661D01*
X242732Y743575D01*
X242788Y743487D01*
X242840Y743397D01*
X242890Y743305D01*
X242936Y743211D01*
X242978Y743116D01*
X243017Y743019D01*
X243053Y742921D01*
X243085Y742821D01*
X243113Y742721D01*
X243138Y742619D01*
X243158Y742517D01*
X243176Y742414D01*
X243189Y742311D01*
X243198Y742207D01*
X243204Y742102D01*
X243206Y741998D01*
X240348Y744855D02*
X240230Y744853D01*
X240111Y744847D01*
X239993Y744838D01*
X239876Y744825D01*
X239759Y744807D01*
X239642Y744787D01*
X239526Y744762D01*
X239411Y744734D01*
X239298Y744701D01*
X239185Y744666D01*
X239073Y744626D01*
X238963Y744584D01*
X238854Y744537D01*
X238746Y744487D01*
X238641Y744434D01*
X238537Y744377D01*
X238435Y744317D01*
X238335Y744254D01*
X238237Y744187D01*
X238141Y744118D01*
X238048Y744045D01*
X237957Y743969D01*
X237868Y743891D01*
X237782Y743809D01*
X237699Y743725D01*
X237618Y743639D01*
X237541Y743549D01*
X237466Y743458D01*
X237394Y743364D01*
X237325Y743267D01*
X237260Y743169D01*
X237197Y743068D01*
X237138Y742965D01*
X237082Y742861D01*
X237030Y742755D01*
X236981Y742647D01*
X236936Y742538D01*
X236894Y742427D01*
X236856Y742315D01*
X242253Y739776D02*
X242329Y739851D01*
X242404Y739930D01*
X242475Y740011D01*
X242544Y740095D01*
X242609Y740181D01*
X242671Y740269D01*
X242731Y740359D01*
X242787Y740451D01*
X242840Y740546D01*
X242889Y740642D01*
X242935Y740740D01*
X242978Y740839D01*
X243017Y740940D01*
X243052Y741042D01*
X243084Y741145D01*
X243112Y741249D01*
X243137Y741354D01*
X243158Y741461D01*
X243175Y741567D01*
X243188Y741674D01*
X243197Y741782D01*
X243203Y741890D01*
X243205Y741998D01*
X242253Y739775D02*
X236855Y733425D01*
X243205Y733425D01*
X262255Y733425D02*
X265430Y733425D01*
X265541Y733427D01*
X265651Y733433D01*
X265762Y733442D01*
X265872Y733456D01*
X265981Y733473D01*
X266090Y733494D01*
X266198Y733519D01*
X266305Y733548D01*
X266411Y733580D01*
X266516Y733616D01*
X266619Y733656D01*
X266721Y733699D01*
X266822Y733746D01*
X266921Y733797D01*
X267018Y733850D01*
X267112Y733907D01*
X267205Y733968D01*
X267296Y734031D01*
X267385Y734098D01*
X267471Y734168D01*
X267554Y734241D01*
X267636Y734316D01*
X267714Y734394D01*
X267789Y734476D01*
X267862Y734559D01*
X267932Y734645D01*
X267999Y734734D01*
X268062Y734825D01*
X268123Y734918D01*
X268180Y735013D01*
X268233Y735109D01*
X268284Y735208D01*
X268331Y735309D01*
X268374Y735411D01*
X268414Y735514D01*
X268450Y735619D01*
X268482Y735725D01*
X268511Y735832D01*
X268536Y735940D01*
X268557Y736049D01*
X268574Y736158D01*
X268588Y736268D01*
X268597Y736379D01*
X268603Y736489D01*
X268605Y736600D01*
X268603Y736711D01*
X268597Y736821D01*
X268588Y736932D01*
X268574Y737042D01*
X268557Y737151D01*
X268536Y737260D01*
X268511Y737368D01*
X268482Y737475D01*
X268450Y737581D01*
X268414Y737686D01*
X268374Y737789D01*
X268331Y737891D01*
X268284Y737992D01*
X268233Y738091D01*
X268180Y738187D01*
X268123Y738282D01*
X268062Y738375D01*
X267999Y738466D01*
X267932Y738555D01*
X267862Y738641D01*
X267789Y738724D01*
X267714Y738806D01*
X267636Y738884D01*
X267554Y738959D01*
X267471Y739032D01*
X267385Y739102D01*
X267296Y739169D01*
X267205Y739232D01*
X267112Y739293D01*
X267018Y739350D01*
X266921Y739403D01*
X266822Y739454D01*
X266721Y739501D01*
X266619Y739544D01*
X266516Y739584D01*
X266411Y739620D01*
X266305Y739652D01*
X266198Y739681D01*
X266090Y739706D01*
X265981Y739727D01*
X265872Y739744D01*
X265762Y739758D01*
X265651Y739767D01*
X265541Y739773D01*
X265430Y739775D01*
X266065Y744855D02*
X262255Y744855D01*
X266065Y744855D02*
X266165Y744853D01*
X266264Y744847D01*
X266364Y744837D01*
X266462Y744824D01*
X266561Y744806D01*
X266658Y744785D01*
X266754Y744760D01*
X266850Y744731D01*
X266944Y744698D01*
X267037Y744662D01*
X267128Y744622D01*
X267218Y744578D01*
X267306Y744531D01*
X267392Y744481D01*
X267476Y744427D01*
X267558Y744370D01*
X267637Y744310D01*
X267715Y744246D01*
X267789Y744180D01*
X267861Y744111D01*
X267930Y744039D01*
X267996Y743965D01*
X268060Y743887D01*
X268120Y743808D01*
X268177Y743726D01*
X268231Y743642D01*
X268281Y743556D01*
X268328Y743468D01*
X268372Y743378D01*
X268412Y743287D01*
X268448Y743194D01*
X268481Y743100D01*
X268510Y743004D01*
X268535Y742908D01*
X268556Y742811D01*
X268574Y742712D01*
X268587Y742614D01*
X268597Y742514D01*
X268603Y742415D01*
X268605Y742315D01*
X268603Y742215D01*
X268597Y742116D01*
X268587Y742016D01*
X268574Y741918D01*
X268556Y741819D01*
X268535Y741722D01*
X268510Y741626D01*
X268481Y741530D01*
X268448Y741436D01*
X268412Y741343D01*
X268372Y741252D01*
X268328Y741162D01*
X268281Y741074D01*
X268231Y740988D01*
X268177Y740904D01*
X268120Y740822D01*
X268060Y740743D01*
X267996Y740665D01*
X267930Y740591D01*
X267861Y740519D01*
X267789Y740450D01*
X267715Y740384D01*
X267637Y740320D01*
X267558Y740260D01*
X267476Y740203D01*
X267392Y740149D01*
X267306Y740099D01*
X267218Y740052D01*
X267128Y740008D01*
X267037Y739968D01*
X266944Y739932D01*
X266850Y739899D01*
X266754Y739870D01*
X266658Y739845D01*
X266561Y739824D01*
X266462Y739806D01*
X266364Y739793D01*
X266264Y739783D01*
X266165Y739777D01*
X266065Y739775D01*
X263525Y739775D01*
X287655Y735965D02*
X290195Y744855D01*
X287655Y735965D02*
X294005Y735965D01*
X292100Y738505D02*
X292100Y733425D01*
X313055Y733425D02*
X316865Y733425D01*
X316965Y733427D01*
X317064Y733433D01*
X317164Y733443D01*
X317262Y733456D01*
X317361Y733474D01*
X317458Y733495D01*
X317554Y733520D01*
X317650Y733549D01*
X317744Y733582D01*
X317837Y733618D01*
X317928Y733658D01*
X318018Y733702D01*
X318106Y733749D01*
X318192Y733799D01*
X318276Y733853D01*
X318358Y733910D01*
X318437Y733970D01*
X318515Y734034D01*
X318589Y734100D01*
X318661Y734169D01*
X318730Y734241D01*
X318796Y734315D01*
X318860Y734393D01*
X318920Y734472D01*
X318977Y734554D01*
X319031Y734638D01*
X319081Y734724D01*
X319128Y734812D01*
X319172Y734902D01*
X319212Y734993D01*
X319248Y735086D01*
X319281Y735180D01*
X319310Y735276D01*
X319335Y735372D01*
X319356Y735469D01*
X319374Y735568D01*
X319387Y735666D01*
X319397Y735766D01*
X319403Y735865D01*
X319405Y735965D01*
X319405Y737235D01*
X319403Y737335D01*
X319397Y737434D01*
X319387Y737534D01*
X319374Y737632D01*
X319356Y737731D01*
X319335Y737828D01*
X319310Y737924D01*
X319281Y738020D01*
X319248Y738114D01*
X319212Y738207D01*
X319172Y738298D01*
X319128Y738388D01*
X319081Y738476D01*
X319031Y738562D01*
X318977Y738646D01*
X318920Y738728D01*
X318860Y738807D01*
X318796Y738885D01*
X318730Y738959D01*
X318661Y739031D01*
X318589Y739100D01*
X318515Y739166D01*
X318437Y739230D01*
X318358Y739290D01*
X318276Y739347D01*
X318192Y739401D01*
X318106Y739451D01*
X318018Y739498D01*
X317928Y739542D01*
X317837Y739582D01*
X317744Y739618D01*
X317650Y739651D01*
X317554Y739680D01*
X317458Y739705D01*
X317361Y739726D01*
X317262Y739744D01*
X317164Y739757D01*
X317064Y739767D01*
X316965Y739773D01*
X316865Y739775D01*
X313055Y739775D01*
X313055Y744855D01*
X319405Y744855D01*
X338455Y739775D02*
X342265Y739775D01*
X342365Y739773D01*
X342464Y739767D01*
X342564Y739757D01*
X342662Y739744D01*
X342761Y739726D01*
X342858Y739705D01*
X342954Y739680D01*
X343050Y739651D01*
X343144Y739618D01*
X343237Y739582D01*
X343328Y739542D01*
X343418Y739498D01*
X343506Y739451D01*
X343592Y739401D01*
X343676Y739347D01*
X343758Y739290D01*
X343837Y739230D01*
X343915Y739166D01*
X343989Y739100D01*
X344061Y739031D01*
X344130Y738959D01*
X344196Y738885D01*
X344260Y738807D01*
X344320Y738728D01*
X344377Y738646D01*
X344431Y738562D01*
X344481Y738476D01*
X344528Y738388D01*
X344572Y738298D01*
X344612Y738207D01*
X344648Y738114D01*
X344681Y738020D01*
X344710Y737924D01*
X344735Y737828D01*
X344756Y737731D01*
X344774Y737632D01*
X344787Y737534D01*
X344797Y737434D01*
X344803Y737335D01*
X344805Y737235D01*
X344805Y736600D01*
X344803Y736489D01*
X344797Y736379D01*
X344788Y736268D01*
X344774Y736158D01*
X344757Y736049D01*
X344736Y735940D01*
X344711Y735832D01*
X344682Y735725D01*
X344650Y735619D01*
X344614Y735514D01*
X344574Y735411D01*
X344531Y735309D01*
X344484Y735208D01*
X344433Y735109D01*
X344380Y735013D01*
X344323Y734918D01*
X344262Y734825D01*
X344199Y734734D01*
X344132Y734645D01*
X344062Y734559D01*
X343989Y734476D01*
X343914Y734394D01*
X343836Y734316D01*
X343754Y734241D01*
X343671Y734168D01*
X343585Y734098D01*
X343496Y734031D01*
X343405Y733968D01*
X343312Y733907D01*
X343217Y733850D01*
X343121Y733797D01*
X343022Y733746D01*
X342921Y733699D01*
X342819Y733656D01*
X342716Y733616D01*
X342611Y733580D01*
X342505Y733548D01*
X342398Y733519D01*
X342290Y733494D01*
X342181Y733473D01*
X342072Y733456D01*
X341962Y733442D01*
X341851Y733433D01*
X341741Y733427D01*
X341630Y733425D01*
X341519Y733427D01*
X341409Y733433D01*
X341298Y733442D01*
X341188Y733456D01*
X341079Y733473D01*
X340970Y733494D01*
X340862Y733519D01*
X340755Y733548D01*
X340649Y733580D01*
X340544Y733616D01*
X340441Y733656D01*
X340339Y733699D01*
X340238Y733746D01*
X340139Y733797D01*
X340043Y733850D01*
X339948Y733907D01*
X339855Y733968D01*
X339764Y734031D01*
X339675Y734098D01*
X339589Y734168D01*
X339506Y734241D01*
X339424Y734316D01*
X339346Y734394D01*
X339271Y734476D01*
X339198Y734559D01*
X339128Y734645D01*
X339061Y734734D01*
X338998Y734825D01*
X338937Y734918D01*
X338880Y735013D01*
X338827Y735109D01*
X338776Y735208D01*
X338729Y735309D01*
X338686Y735411D01*
X338646Y735514D01*
X338610Y735619D01*
X338578Y735725D01*
X338549Y735832D01*
X338524Y735940D01*
X338503Y736049D01*
X338486Y736158D01*
X338472Y736268D01*
X338463Y736379D01*
X338457Y736489D01*
X338455Y736600D01*
X338455Y739775D01*
X338457Y739915D01*
X338463Y740055D01*
X338472Y740195D01*
X338486Y740334D01*
X338503Y740473D01*
X338524Y740611D01*
X338549Y740749D01*
X338578Y740886D01*
X338610Y741022D01*
X338647Y741157D01*
X338687Y741291D01*
X338730Y741424D01*
X338778Y741556D01*
X338828Y741687D01*
X338883Y741816D01*
X338941Y741943D01*
X339002Y742069D01*
X339067Y742193D01*
X339136Y742315D01*
X339207Y742435D01*
X339282Y742553D01*
X339360Y742670D01*
X339442Y742784D01*
X339526Y742895D01*
X339614Y743004D01*
X339704Y743111D01*
X339798Y743216D01*
X339894Y743317D01*
X339993Y743416D01*
X340094Y743512D01*
X340199Y743606D01*
X340306Y743696D01*
X340415Y743784D01*
X340526Y743868D01*
X340640Y743950D01*
X340757Y744028D01*
X340875Y744103D01*
X340995Y744174D01*
X341117Y744243D01*
X341241Y744308D01*
X341367Y744369D01*
X341494Y744427D01*
X341623Y744482D01*
X341754Y744532D01*
X341886Y744580D01*
X342019Y744623D01*
X342153Y744663D01*
X342288Y744700D01*
X342424Y744732D01*
X342561Y744761D01*
X342699Y744786D01*
X342837Y744807D01*
X342976Y744824D01*
X343115Y744838D01*
X343255Y744847D01*
X343395Y744853D01*
X343535Y744855D01*
X363855Y744855D02*
X363855Y743585D01*
X363855Y744855D02*
X370205Y744855D01*
X367030Y733425D01*
X389255Y736600D02*
X389257Y736711D01*
X389263Y736821D01*
X389272Y736932D01*
X389286Y737042D01*
X389303Y737151D01*
X389324Y737260D01*
X389349Y737368D01*
X389378Y737475D01*
X389410Y737581D01*
X389446Y737686D01*
X389486Y737789D01*
X389529Y737891D01*
X389576Y737992D01*
X389627Y738091D01*
X389680Y738188D01*
X389737Y738282D01*
X389798Y738375D01*
X389861Y738466D01*
X389928Y738555D01*
X389998Y738641D01*
X390071Y738724D01*
X390146Y738806D01*
X390224Y738884D01*
X390306Y738959D01*
X390389Y739032D01*
X390475Y739102D01*
X390564Y739169D01*
X390655Y739232D01*
X390748Y739293D01*
X390843Y739350D01*
X390939Y739403D01*
X391038Y739454D01*
X391139Y739501D01*
X391241Y739544D01*
X391344Y739584D01*
X391449Y739620D01*
X391555Y739652D01*
X391662Y739681D01*
X391770Y739706D01*
X391879Y739727D01*
X391988Y739744D01*
X392098Y739758D01*
X392209Y739767D01*
X392319Y739773D01*
X392430Y739775D01*
X392541Y739773D01*
X392651Y739767D01*
X392762Y739758D01*
X392872Y739744D01*
X392981Y739727D01*
X393090Y739706D01*
X393198Y739681D01*
X393305Y739652D01*
X393411Y739620D01*
X393516Y739584D01*
X393619Y739544D01*
X393721Y739501D01*
X393822Y739454D01*
X393921Y739403D01*
X394018Y739350D01*
X394112Y739293D01*
X394205Y739232D01*
X394296Y739169D01*
X394385Y739102D01*
X394471Y739032D01*
X394554Y738959D01*
X394636Y738884D01*
X394714Y738806D01*
X394789Y738724D01*
X394862Y738641D01*
X394932Y738555D01*
X394999Y738466D01*
X395062Y738375D01*
X395123Y738282D01*
X395180Y738188D01*
X395233Y738091D01*
X395284Y737992D01*
X395331Y737891D01*
X395374Y737789D01*
X395414Y737686D01*
X395450Y737581D01*
X395482Y737475D01*
X395511Y737368D01*
X395536Y737260D01*
X395557Y737151D01*
X395574Y737042D01*
X395588Y736932D01*
X395597Y736821D01*
X395603Y736711D01*
X395605Y736600D01*
X395603Y736489D01*
X395597Y736379D01*
X395588Y736268D01*
X395574Y736158D01*
X395557Y736049D01*
X395536Y735940D01*
X395511Y735832D01*
X395482Y735725D01*
X395450Y735619D01*
X395414Y735514D01*
X395374Y735411D01*
X395331Y735309D01*
X395284Y735208D01*
X395233Y735109D01*
X395180Y735013D01*
X395123Y734918D01*
X395062Y734825D01*
X394999Y734734D01*
X394932Y734645D01*
X394862Y734559D01*
X394789Y734476D01*
X394714Y734394D01*
X394636Y734316D01*
X394554Y734241D01*
X394471Y734168D01*
X394385Y734098D01*
X394296Y734031D01*
X394205Y733968D01*
X394112Y733907D01*
X394017Y733850D01*
X393921Y733797D01*
X393822Y733746D01*
X393721Y733699D01*
X393619Y733656D01*
X393516Y733616D01*
X393411Y733580D01*
X393305Y733548D01*
X393198Y733519D01*
X393090Y733494D01*
X392981Y733473D01*
X392872Y733456D01*
X392762Y733442D01*
X392651Y733433D01*
X392541Y733427D01*
X392430Y733425D01*
X392319Y733427D01*
X392209Y733433D01*
X392098Y733442D01*
X391988Y733456D01*
X391879Y733473D01*
X391770Y733494D01*
X391662Y733519D01*
X391555Y733548D01*
X391449Y733580D01*
X391344Y733616D01*
X391241Y733656D01*
X391139Y733699D01*
X391038Y733746D01*
X390939Y733797D01*
X390843Y733850D01*
X390748Y733907D01*
X390655Y733968D01*
X390564Y734031D01*
X390475Y734098D01*
X390389Y734168D01*
X390306Y734241D01*
X390224Y734316D01*
X390146Y734394D01*
X390071Y734476D01*
X389998Y734559D01*
X389928Y734645D01*
X389861Y734734D01*
X389798Y734825D01*
X389737Y734918D01*
X389680Y735013D01*
X389627Y735109D01*
X389576Y735208D01*
X389529Y735309D01*
X389486Y735411D01*
X389446Y735514D01*
X389410Y735619D01*
X389378Y735725D01*
X389349Y735832D01*
X389324Y735940D01*
X389303Y736049D01*
X389286Y736158D01*
X389272Y736268D01*
X389263Y736379D01*
X389257Y736489D01*
X389255Y736600D01*
X389890Y742315D02*
X389892Y742415D01*
X389898Y742514D01*
X389908Y742614D01*
X389921Y742712D01*
X389939Y742811D01*
X389960Y742908D01*
X389985Y743004D01*
X390014Y743100D01*
X390047Y743194D01*
X390083Y743287D01*
X390123Y743378D01*
X390167Y743468D01*
X390214Y743556D01*
X390264Y743642D01*
X390318Y743726D01*
X390375Y743808D01*
X390435Y743887D01*
X390499Y743965D01*
X390565Y744039D01*
X390634Y744111D01*
X390706Y744180D01*
X390780Y744246D01*
X390858Y744310D01*
X390937Y744370D01*
X391019Y744427D01*
X391103Y744481D01*
X391189Y744531D01*
X391277Y744578D01*
X391367Y744622D01*
X391458Y744662D01*
X391551Y744698D01*
X391645Y744731D01*
X391741Y744760D01*
X391837Y744785D01*
X391934Y744806D01*
X392033Y744824D01*
X392131Y744837D01*
X392231Y744847D01*
X392330Y744853D01*
X392430Y744855D01*
X392530Y744853D01*
X392629Y744847D01*
X392729Y744837D01*
X392827Y744824D01*
X392926Y744806D01*
X393023Y744785D01*
X393119Y744760D01*
X393215Y744731D01*
X393309Y744698D01*
X393402Y744662D01*
X393493Y744622D01*
X393583Y744578D01*
X393671Y744531D01*
X393757Y744481D01*
X393841Y744427D01*
X393923Y744370D01*
X394002Y744310D01*
X394080Y744246D01*
X394154Y744180D01*
X394226Y744111D01*
X394295Y744039D01*
X394361Y743965D01*
X394425Y743887D01*
X394485Y743808D01*
X394542Y743726D01*
X394596Y743642D01*
X394646Y743556D01*
X394693Y743468D01*
X394737Y743378D01*
X394777Y743287D01*
X394813Y743194D01*
X394846Y743100D01*
X394875Y743004D01*
X394900Y742908D01*
X394921Y742811D01*
X394939Y742712D01*
X394952Y742614D01*
X394962Y742514D01*
X394968Y742415D01*
X394970Y742315D01*
X394968Y742215D01*
X394962Y742116D01*
X394952Y742016D01*
X394939Y741918D01*
X394921Y741819D01*
X394900Y741722D01*
X394875Y741626D01*
X394846Y741530D01*
X394813Y741436D01*
X394777Y741343D01*
X394737Y741252D01*
X394693Y741162D01*
X394646Y741074D01*
X394596Y740988D01*
X394542Y740904D01*
X394485Y740822D01*
X394425Y740743D01*
X394361Y740665D01*
X394295Y740591D01*
X394226Y740519D01*
X394154Y740450D01*
X394080Y740384D01*
X394002Y740320D01*
X393923Y740260D01*
X393841Y740203D01*
X393757Y740149D01*
X393671Y740099D01*
X393583Y740052D01*
X393493Y740008D01*
X393402Y739968D01*
X393309Y739932D01*
X393215Y739899D01*
X393119Y739870D01*
X393023Y739845D01*
X392926Y739824D01*
X392827Y739806D01*
X392729Y739793D01*
X392629Y739783D01*
X392530Y739777D01*
X392430Y739775D01*
X392330Y739777D01*
X392231Y739783D01*
X392131Y739793D01*
X392033Y739806D01*
X391934Y739824D01*
X391837Y739845D01*
X391741Y739870D01*
X391645Y739899D01*
X391551Y739932D01*
X391458Y739968D01*
X391367Y740008D01*
X391277Y740052D01*
X391189Y740099D01*
X391103Y740149D01*
X391019Y740203D01*
X390937Y740260D01*
X390858Y740320D01*
X390780Y740384D01*
X390706Y740450D01*
X390634Y740519D01*
X390565Y740591D01*
X390499Y740665D01*
X390435Y740743D01*
X390375Y740822D01*
X390318Y740904D01*
X390264Y740988D01*
X390214Y741074D01*
X390167Y741162D01*
X390123Y741252D01*
X390083Y741343D01*
X390047Y741436D01*
X390014Y741530D01*
X389985Y741626D01*
X389960Y741722D01*
X389939Y741819D01*
X389921Y741918D01*
X389908Y742016D01*
X389898Y742116D01*
X389892Y742215D01*
X389890Y742315D01*
M02*
